G04 EAGLE Gerber X2 export*
%TF.Part,Single*%
%TF.FileFunction,Copper,L2,Bot,Mixed*%
%TF.FilePolarity,Positive*%
%TF.GenerationSoftware,Autodesk,EAGLE,9.1.0*%
%TF.CreationDate,2018-08-14T15:45:10Z*%
G75*
%MOMM*%
%FSLAX34Y34*%
%LPD*%
%AMOC8*
5,1,8,0,0,1.08239X$1,22.5*%
G01*
%ADD10C,1.008000*%
%ADD11C,4.000000*%
%ADD12C,1.500000*%
%ADD13R,2.032000X2.032000*%
%ADD14C,2.032000*%
%ADD15C,1.524000*%
%ADD16C,1.320800*%
%ADD17C,1.508000*%
%ADD18C,1.016000*%
%ADD19C,0.508000*%
%ADD20C,1.006400*%
%ADD21C,1.016000*%
%ADD22C,0.304800*%
%ADD23C,0.812800*%

G36*
X487826Y10163D02*
X487826Y10163D01*
X487844Y10161D01*
X488026Y10182D01*
X488209Y10201D01*
X488226Y10206D01*
X488243Y10208D01*
X488418Y10265D01*
X488594Y10319D01*
X488609Y10327D01*
X488626Y10333D01*
X488786Y10423D01*
X488948Y10511D01*
X488961Y10522D01*
X488977Y10531D01*
X489116Y10651D01*
X489257Y10768D01*
X489268Y10782D01*
X489282Y10794D01*
X489394Y10939D01*
X489509Y11082D01*
X489517Y11098D01*
X489528Y11112D01*
X489610Y11277D01*
X489695Y11439D01*
X489700Y11456D01*
X489708Y11472D01*
X489755Y11651D01*
X489806Y11826D01*
X489808Y11844D01*
X489812Y11861D01*
X489839Y12192D01*
X489839Y406400D01*
X489837Y406418D01*
X489839Y406436D01*
X489818Y406618D01*
X489799Y406801D01*
X489794Y406818D01*
X489792Y406835D01*
X489735Y407010D01*
X489681Y407186D01*
X489673Y407201D01*
X489667Y407218D01*
X489577Y407378D01*
X489489Y407540D01*
X489478Y407553D01*
X489469Y407569D01*
X489349Y407708D01*
X489232Y407849D01*
X489218Y407860D01*
X489206Y407874D01*
X489061Y407986D01*
X488918Y408101D01*
X488902Y408109D01*
X488888Y408120D01*
X488723Y408202D01*
X488561Y408287D01*
X488544Y408292D01*
X488528Y408300D01*
X488349Y408347D01*
X488174Y408398D01*
X488156Y408400D01*
X488139Y408404D01*
X487808Y408431D01*
X388191Y408431D01*
X312586Y484036D01*
X312566Y484053D01*
X312548Y484074D01*
X312410Y484181D01*
X312275Y484291D01*
X312251Y484304D01*
X312230Y484320D01*
X312073Y484398D01*
X311919Y484480D01*
X311894Y484488D01*
X311870Y484500D01*
X311700Y484545D01*
X311533Y484595D01*
X311507Y484597D01*
X311481Y484604D01*
X311150Y484631D01*
X215900Y484631D01*
X215882Y484629D01*
X215864Y484631D01*
X215682Y484610D01*
X215499Y484591D01*
X215482Y484586D01*
X215465Y484584D01*
X215290Y484527D01*
X215114Y484473D01*
X215099Y484465D01*
X215082Y484459D01*
X214922Y484369D01*
X214760Y484281D01*
X214747Y484270D01*
X214731Y484261D01*
X214592Y484141D01*
X214451Y484024D01*
X214440Y484010D01*
X214427Y483998D01*
X214314Y483853D01*
X214199Y483710D01*
X214191Y483694D01*
X214180Y483680D01*
X214098Y483515D01*
X214013Y483353D01*
X214008Y483336D01*
X214000Y483320D01*
X213953Y483141D01*
X213902Y482966D01*
X213900Y482948D01*
X213896Y482931D01*
X213869Y482600D01*
X213869Y421131D01*
X12192Y421131D01*
X12174Y421129D01*
X12156Y421131D01*
X11974Y421110D01*
X11791Y421091D01*
X11774Y421086D01*
X11757Y421084D01*
X11582Y421027D01*
X11406Y420973D01*
X11391Y420965D01*
X11374Y420959D01*
X11214Y420869D01*
X11052Y420781D01*
X11039Y420770D01*
X11023Y420761D01*
X10884Y420641D01*
X10743Y420524D01*
X10732Y420510D01*
X10718Y420498D01*
X10606Y420353D01*
X10491Y420210D01*
X10483Y420194D01*
X10472Y420180D01*
X10390Y420015D01*
X10305Y419853D01*
X10300Y419836D01*
X10292Y419820D01*
X10245Y419641D01*
X10194Y419466D01*
X10192Y419448D01*
X10188Y419431D01*
X10161Y419100D01*
X10161Y12192D01*
X10163Y12174D01*
X10161Y12156D01*
X10182Y11974D01*
X10201Y11791D01*
X10206Y11774D01*
X10208Y11757D01*
X10265Y11582D01*
X10319Y11406D01*
X10327Y11391D01*
X10333Y11374D01*
X10423Y11214D01*
X10511Y11052D01*
X10522Y11039D01*
X10531Y11023D01*
X10651Y10884D01*
X10768Y10743D01*
X10782Y10732D01*
X10794Y10718D01*
X10939Y10606D01*
X11082Y10491D01*
X11098Y10483D01*
X11112Y10472D01*
X11277Y10390D01*
X11439Y10305D01*
X11456Y10300D01*
X11472Y10292D01*
X11651Y10245D01*
X11826Y10194D01*
X11844Y10192D01*
X11861Y10188D01*
X12192Y10161D01*
X487808Y10161D01*
X487826Y10163D01*
G37*
G36*
X487826Y626621D02*
X487826Y626621D01*
X487844Y626619D01*
X488026Y626640D01*
X488209Y626659D01*
X488226Y626664D01*
X488243Y626666D01*
X488418Y626723D01*
X488594Y626777D01*
X488609Y626785D01*
X488626Y626791D01*
X488786Y626881D01*
X488948Y626969D01*
X488961Y626980D01*
X488977Y626989D01*
X489116Y627109D01*
X489257Y627226D01*
X489268Y627240D01*
X489282Y627252D01*
X489394Y627397D01*
X489509Y627540D01*
X489517Y627556D01*
X489528Y627570D01*
X489610Y627735D01*
X489695Y627897D01*
X489700Y627914D01*
X489708Y627931D01*
X489755Y628109D01*
X489806Y628284D01*
X489808Y628302D01*
X489812Y628319D01*
X489839Y628650D01*
X489839Y856808D01*
X489837Y856826D01*
X489839Y856844D01*
X489818Y857026D01*
X489799Y857209D01*
X489794Y857226D01*
X489792Y857243D01*
X489735Y857418D01*
X489681Y857594D01*
X489673Y857609D01*
X489667Y857626D01*
X489577Y857786D01*
X489489Y857948D01*
X489478Y857961D01*
X489469Y857977D01*
X489349Y858116D01*
X489232Y858257D01*
X489218Y858268D01*
X489206Y858282D01*
X489061Y858394D01*
X488918Y858509D01*
X488902Y858517D01*
X488888Y858528D01*
X488723Y858610D01*
X488561Y858695D01*
X488544Y858700D01*
X488528Y858708D01*
X488349Y858755D01*
X488174Y858806D01*
X488156Y858808D01*
X488139Y858812D01*
X487808Y858839D01*
X342900Y858839D01*
X342882Y858837D01*
X342864Y858839D01*
X342682Y858818D01*
X342499Y858799D01*
X342482Y858794D01*
X342465Y858792D01*
X342290Y858735D01*
X342114Y858681D01*
X342099Y858673D01*
X342082Y858667D01*
X341922Y858577D01*
X341760Y858489D01*
X341747Y858478D01*
X341731Y858469D01*
X341592Y858349D01*
X341451Y858232D01*
X341440Y858218D01*
X341427Y858206D01*
X341314Y858061D01*
X341199Y857918D01*
X341191Y857902D01*
X341180Y857888D01*
X341098Y857723D01*
X341013Y857561D01*
X341008Y857544D01*
X341000Y857528D01*
X340953Y857349D01*
X340902Y857174D01*
X340900Y857156D01*
X340896Y857139D01*
X340869Y856808D01*
X340869Y736600D01*
X340871Y736573D01*
X340869Y736547D01*
X340891Y736373D01*
X340909Y736199D01*
X340917Y736174D01*
X340920Y736147D01*
X340976Y735982D01*
X341027Y735814D01*
X341040Y735791D01*
X341048Y735766D01*
X341135Y735614D01*
X341219Y735460D01*
X341236Y735440D01*
X341249Y735417D01*
X341464Y735164D01*
X449414Y627214D01*
X449434Y627197D01*
X449452Y627177D01*
X449590Y627069D01*
X449725Y626959D01*
X449749Y626946D01*
X449770Y626930D01*
X449927Y626852D01*
X450081Y626770D01*
X450106Y626762D01*
X450131Y626750D01*
X450300Y626705D01*
X450467Y626655D01*
X450493Y626653D01*
X450519Y626646D01*
X450850Y626619D01*
X487808Y626619D01*
X487826Y626621D01*
G37*
G36*
X225426Y649376D02*
X225426Y649376D01*
X225629Y649390D01*
X230004Y649992D01*
X230015Y649994D01*
X230027Y649995D01*
X230228Y650040D01*
X234459Y651301D01*
X234470Y651306D01*
X234482Y651308D01*
X234673Y651383D01*
X236014Y652019D01*
X241300Y652019D01*
X241318Y652021D01*
X241336Y652019D01*
X241518Y652040D01*
X241701Y652059D01*
X241718Y652064D01*
X241735Y652066D01*
X241910Y652123D01*
X242086Y652177D01*
X242101Y652185D01*
X242118Y652191D01*
X242278Y652281D01*
X242440Y652369D01*
X242453Y652380D01*
X242469Y652389D01*
X242608Y652509D01*
X242749Y652626D01*
X242760Y652640D01*
X242774Y652652D01*
X242886Y652797D01*
X243001Y652940D01*
X243009Y652956D01*
X243020Y652970D01*
X243102Y653135D01*
X243187Y653297D01*
X243192Y653314D01*
X243200Y653331D01*
X243247Y653509D01*
X243298Y653684D01*
X243300Y653702D01*
X243304Y653719D01*
X243331Y654050D01*
X243331Y656598D01*
X245931Y659013D01*
X245939Y659023D01*
X245949Y659030D01*
X246087Y659182D01*
X248826Y662645D01*
X248854Y662690D01*
X248888Y662729D01*
X248944Y662837D01*
X249008Y662939D01*
X249024Y662989D01*
X249049Y663036D01*
X249079Y663153D01*
X249117Y663267D01*
X249122Y663319D01*
X249135Y663370D01*
X249149Y663575D01*
X249149Y695325D01*
X249142Y695390D01*
X249144Y695455D01*
X249122Y695561D01*
X249109Y695668D01*
X249087Y695730D01*
X249074Y695794D01*
X249029Y695892D01*
X248992Y695994D01*
X248956Y696048D01*
X248929Y696107D01*
X248810Y696275D01*
X246022Y699681D01*
X246017Y699686D01*
X246013Y699692D01*
X245871Y699840D01*
X243331Y702153D01*
X243331Y711200D01*
X243329Y711227D01*
X243331Y711253D01*
X243309Y711427D01*
X243291Y711601D01*
X243284Y711626D01*
X243280Y711653D01*
X243225Y711818D01*
X243173Y711986D01*
X243160Y712009D01*
X243152Y712034D01*
X243065Y712186D01*
X242981Y712340D01*
X242964Y712360D01*
X242951Y712383D01*
X242736Y712636D01*
X167131Y788241D01*
X167131Y856808D01*
X167129Y856826D01*
X167131Y856844D01*
X167110Y857026D01*
X167091Y857209D01*
X167086Y857226D01*
X167084Y857243D01*
X167027Y857418D01*
X166973Y857594D01*
X166965Y857609D01*
X166959Y857626D01*
X166869Y857786D01*
X166781Y857948D01*
X166770Y857961D01*
X166761Y857977D01*
X166641Y858116D01*
X166524Y858257D01*
X166510Y858268D01*
X166498Y858282D01*
X166353Y858394D01*
X166210Y858509D01*
X166194Y858517D01*
X166180Y858528D01*
X166015Y858610D01*
X165853Y858695D01*
X165836Y858700D01*
X165820Y858708D01*
X165641Y858755D01*
X165466Y858806D01*
X165448Y858808D01*
X165431Y858812D01*
X165100Y858839D01*
X88900Y858839D01*
X88882Y858837D01*
X88864Y858839D01*
X88682Y858818D01*
X88499Y858799D01*
X88482Y858794D01*
X88465Y858792D01*
X88290Y858735D01*
X88114Y858681D01*
X88099Y858673D01*
X88082Y858667D01*
X87922Y858577D01*
X87760Y858489D01*
X87747Y858478D01*
X87731Y858469D01*
X87592Y858349D01*
X87451Y858232D01*
X87440Y858218D01*
X87427Y858206D01*
X87314Y858061D01*
X87199Y857918D01*
X87191Y857902D01*
X87180Y857888D01*
X87098Y857723D01*
X87013Y857561D01*
X87008Y857544D01*
X87000Y857528D01*
X86953Y857349D01*
X86902Y857174D01*
X86900Y857156D01*
X86896Y857139D01*
X86869Y856808D01*
X86869Y717550D01*
X86871Y717523D01*
X86869Y717497D01*
X86891Y717323D01*
X86909Y717149D01*
X86917Y717124D01*
X86920Y717097D01*
X86976Y716932D01*
X87027Y716764D01*
X87040Y716741D01*
X87048Y716716D01*
X87135Y716564D01*
X87219Y716410D01*
X87236Y716390D01*
X87249Y716367D01*
X87464Y716114D01*
X150964Y652614D01*
X150984Y652597D01*
X151002Y652577D01*
X151140Y652469D01*
X151275Y652359D01*
X151299Y652346D01*
X151320Y652330D01*
X151477Y652252D01*
X151631Y652170D01*
X151656Y652162D01*
X151681Y652150D01*
X151850Y652105D01*
X152017Y652055D01*
X152043Y652053D01*
X152069Y652046D01*
X152400Y652019D01*
X171944Y652019D01*
X175180Y650749D01*
X175189Y650746D01*
X175197Y650742D01*
X175394Y650683D01*
X179558Y649733D01*
X179567Y649731D01*
X179576Y649728D01*
X179779Y649699D01*
X184038Y649380D01*
X184070Y649381D01*
X184150Y649376D01*
X225425Y649376D01*
X225426Y649376D01*
G37*
G36*
X317518Y734571D02*
X317518Y734571D01*
X317536Y734569D01*
X317718Y734590D01*
X317901Y734609D01*
X317918Y734614D01*
X317935Y734616D01*
X318110Y734673D01*
X318286Y734727D01*
X318301Y734735D01*
X318318Y734741D01*
X318478Y734831D01*
X318640Y734919D01*
X318653Y734930D01*
X318669Y734939D01*
X318808Y735059D01*
X318949Y735176D01*
X318960Y735190D01*
X318974Y735202D01*
X319086Y735347D01*
X319201Y735490D01*
X319209Y735506D01*
X319220Y735520D01*
X319302Y735685D01*
X319387Y735847D01*
X319392Y735864D01*
X319400Y735881D01*
X319447Y736059D01*
X319498Y736234D01*
X319500Y736252D01*
X319504Y736269D01*
X319531Y736600D01*
X319531Y856808D01*
X319529Y856826D01*
X319531Y856844D01*
X319510Y857026D01*
X319491Y857209D01*
X319486Y857226D01*
X319484Y857243D01*
X319427Y857418D01*
X319373Y857594D01*
X319365Y857609D01*
X319359Y857626D01*
X319269Y857786D01*
X319181Y857948D01*
X319170Y857961D01*
X319161Y857977D01*
X319041Y858116D01*
X318924Y858257D01*
X318910Y858268D01*
X318898Y858282D01*
X318753Y858394D01*
X318610Y858509D01*
X318594Y858517D01*
X318580Y858528D01*
X318415Y858610D01*
X318253Y858695D01*
X318236Y858700D01*
X318220Y858708D01*
X318041Y858755D01*
X317866Y858806D01*
X317848Y858808D01*
X317831Y858812D01*
X317500Y858839D01*
X190500Y858839D01*
X190482Y858837D01*
X190464Y858839D01*
X190282Y858818D01*
X190099Y858799D01*
X190082Y858794D01*
X190065Y858792D01*
X189890Y858735D01*
X189714Y858681D01*
X189699Y858673D01*
X189682Y858667D01*
X189522Y858577D01*
X189360Y858489D01*
X189347Y858478D01*
X189331Y858469D01*
X189192Y858349D01*
X189051Y858232D01*
X189040Y858218D01*
X189027Y858206D01*
X188914Y858061D01*
X188799Y857918D01*
X188791Y857902D01*
X188780Y857888D01*
X188698Y857723D01*
X188613Y857561D01*
X188608Y857544D01*
X188600Y857528D01*
X188553Y857349D01*
X188502Y857174D01*
X188500Y857156D01*
X188496Y857139D01*
X188469Y856808D01*
X188469Y800100D01*
X188471Y800073D01*
X188469Y800047D01*
X188491Y799873D01*
X188509Y799699D01*
X188517Y799674D01*
X188520Y799647D01*
X188576Y799482D01*
X188627Y799314D01*
X188640Y799291D01*
X188648Y799266D01*
X188735Y799114D01*
X188819Y798960D01*
X188836Y798940D01*
X188849Y798917D01*
X189064Y798664D01*
X252564Y735164D01*
X252584Y735147D01*
X252602Y735127D01*
X252740Y735019D01*
X252875Y734909D01*
X252899Y734896D01*
X252920Y734880D01*
X253077Y734802D01*
X253231Y734720D01*
X253256Y734712D01*
X253281Y734700D01*
X253450Y734655D01*
X253617Y734605D01*
X253643Y734603D01*
X253669Y734596D01*
X254000Y734569D01*
X317500Y734569D01*
X317518Y734571D01*
G37*
G36*
X425468Y588521D02*
X425468Y588521D01*
X425486Y588519D01*
X425668Y588540D01*
X425851Y588559D01*
X425868Y588564D01*
X425885Y588566D01*
X426060Y588623D01*
X426236Y588677D01*
X426251Y588685D01*
X426268Y588691D01*
X426428Y588781D01*
X426590Y588869D01*
X426603Y588880D01*
X426619Y588889D01*
X426758Y589009D01*
X426899Y589126D01*
X426910Y589140D01*
X426924Y589152D01*
X427036Y589297D01*
X427151Y589440D01*
X427159Y589456D01*
X427170Y589470D01*
X427252Y589635D01*
X427337Y589797D01*
X427342Y589814D01*
X427350Y589831D01*
X427397Y590009D01*
X427448Y590184D01*
X427450Y590202D01*
X427454Y590219D01*
X427481Y590550D01*
X427481Y615950D01*
X427479Y615977D01*
X427481Y616003D01*
X427459Y616177D01*
X427441Y616351D01*
X427434Y616376D01*
X427430Y616403D01*
X427375Y616568D01*
X427323Y616736D01*
X427310Y616759D01*
X427302Y616784D01*
X427215Y616936D01*
X427131Y617090D01*
X427114Y617110D01*
X427101Y617133D01*
X426886Y617386D01*
X350006Y694267D01*
X349947Y694388D01*
X349942Y694396D01*
X349939Y694405D01*
X349835Y694582D01*
X347430Y698111D01*
X347423Y698118D01*
X347419Y698126D01*
X347290Y698286D01*
X344385Y701417D01*
X344378Y701423D01*
X344372Y701431D01*
X344221Y701569D01*
X340882Y704232D01*
X340874Y704237D01*
X340867Y704244D01*
X340697Y704358D01*
X338846Y705427D01*
X337986Y706286D01*
X337966Y706303D01*
X337948Y706324D01*
X337810Y706431D01*
X337675Y706541D01*
X337651Y706554D01*
X337630Y706570D01*
X337473Y706648D01*
X337319Y706730D01*
X337294Y706738D01*
X337270Y706750D01*
X337100Y706795D01*
X336933Y706845D01*
X336907Y706847D01*
X336881Y706854D01*
X336550Y706881D01*
X336056Y706881D01*
X332820Y708151D01*
X332811Y708154D01*
X332803Y708158D01*
X332606Y708217D01*
X328443Y709168D01*
X328433Y709169D01*
X328424Y709172D01*
X328221Y709201D01*
X323962Y709520D01*
X323930Y709519D01*
X323850Y709524D01*
X282575Y709524D01*
X282574Y709524D01*
X282371Y709510D01*
X277996Y708909D01*
X277985Y708906D01*
X277973Y708905D01*
X277772Y708860D01*
X273541Y707599D01*
X273530Y707594D01*
X273518Y707592D01*
X273327Y707517D01*
X271986Y706881D01*
X266700Y706881D01*
X266682Y706879D01*
X266664Y706881D01*
X266482Y706860D01*
X266299Y706841D01*
X266282Y706836D01*
X266265Y706834D01*
X266090Y706777D01*
X265914Y706723D01*
X265899Y706715D01*
X265882Y706709D01*
X265722Y706619D01*
X265560Y706531D01*
X265547Y706520D01*
X265531Y706511D01*
X265392Y706391D01*
X265251Y706274D01*
X265240Y706260D01*
X265227Y706248D01*
X265114Y706103D01*
X264999Y705960D01*
X264991Y705944D01*
X264980Y705930D01*
X264898Y705765D01*
X264813Y705603D01*
X264808Y705586D01*
X264800Y705570D01*
X264753Y705391D01*
X264702Y705216D01*
X264700Y705198D01*
X264696Y705181D01*
X264669Y704850D01*
X264669Y702302D01*
X262069Y699887D01*
X262061Y699877D01*
X262051Y699870D01*
X261913Y699718D01*
X259174Y696255D01*
X259146Y696210D01*
X259112Y696171D01*
X259056Y696064D01*
X258992Y695961D01*
X258976Y695911D01*
X258951Y695864D01*
X258921Y695747D01*
X258883Y695633D01*
X258878Y695581D01*
X258865Y695530D01*
X258851Y695325D01*
X258851Y663575D01*
X258858Y663510D01*
X258856Y663445D01*
X258878Y663339D01*
X258891Y663232D01*
X258913Y663170D01*
X258926Y663106D01*
X258971Y663008D01*
X259008Y662906D01*
X259044Y662852D01*
X259071Y662793D01*
X259190Y662625D01*
X261978Y659219D01*
X261983Y659214D01*
X261987Y659208D01*
X262129Y659060D01*
X264669Y656747D01*
X264669Y654050D01*
X264671Y654023D01*
X264669Y653997D01*
X264691Y653823D01*
X264709Y653649D01*
X264717Y653624D01*
X264720Y653597D01*
X264776Y653432D01*
X264827Y653264D01*
X264840Y653241D01*
X264848Y653216D01*
X264935Y653064D01*
X265019Y652910D01*
X265036Y652890D01*
X265049Y652867D01*
X265264Y652614D01*
X328764Y589114D01*
X328784Y589097D01*
X328802Y589077D01*
X328940Y588969D01*
X329075Y588859D01*
X329099Y588846D01*
X329120Y588830D01*
X329277Y588752D01*
X329431Y588670D01*
X329456Y588662D01*
X329481Y588650D01*
X329650Y588605D01*
X329817Y588555D01*
X329843Y588553D01*
X329869Y588546D01*
X330200Y588519D01*
X425450Y588519D01*
X425468Y588521D01*
G37*
%LPC*%
G36*
X257146Y236346D02*
X257146Y236346D01*
X254158Y237584D01*
X251871Y239870D01*
X250634Y242858D01*
X250634Y246092D01*
X251871Y249080D01*
X254158Y251366D01*
X257146Y252604D01*
X259583Y252604D01*
X259610Y252606D01*
X259636Y252604D01*
X259810Y252626D01*
X259984Y252644D01*
X260009Y252651D01*
X260036Y252655D01*
X260201Y252710D01*
X260369Y252762D01*
X260392Y252775D01*
X260417Y252783D01*
X260569Y252870D01*
X260723Y252954D01*
X260743Y252971D01*
X260766Y252984D01*
X261019Y253199D01*
X269470Y261649D01*
X269487Y261670D01*
X269507Y261687D01*
X269614Y261825D01*
X269725Y261961D01*
X269737Y261984D01*
X269754Y262005D01*
X269832Y262162D01*
X269914Y262316D01*
X269921Y262342D01*
X269933Y262366D01*
X269979Y262535D01*
X270028Y262702D01*
X270031Y262729D01*
X270038Y262755D01*
X270065Y263085D01*
X270065Y373236D01*
X270062Y373262D01*
X270064Y373289D01*
X270042Y373463D01*
X270025Y373636D01*
X270017Y373662D01*
X270014Y373688D01*
X269958Y373854D01*
X269907Y374021D01*
X269894Y374045D01*
X269885Y374070D01*
X269798Y374222D01*
X269715Y374375D01*
X269698Y374396D01*
X269685Y374419D01*
X269470Y374672D01*
X267746Y376395D01*
X266509Y379383D01*
X266509Y382617D01*
X267746Y385605D01*
X270033Y387891D01*
X270612Y388131D01*
X270613Y388131D01*
X273021Y389129D01*
X275805Y389129D01*
X275818Y389130D01*
X275832Y389129D01*
X276019Y389150D01*
X276206Y389169D01*
X276218Y389173D01*
X276232Y389174D01*
X276411Y389232D01*
X276591Y389287D01*
X276603Y389293D01*
X276615Y389297D01*
X276779Y389389D01*
X276945Y389479D01*
X276955Y389487D01*
X276967Y389494D01*
X277109Y389616D01*
X277254Y389736D01*
X277262Y389747D01*
X277272Y389756D01*
X277388Y389903D01*
X277506Y390050D01*
X277512Y390062D01*
X277521Y390073D01*
X277605Y390241D01*
X277692Y390407D01*
X277695Y390420D01*
X277701Y390432D01*
X277751Y390612D01*
X277803Y390794D01*
X277804Y390808D01*
X277808Y390821D01*
X277821Y391007D01*
X277836Y391196D01*
X277834Y391209D01*
X277835Y391222D01*
X277811Y391408D01*
X277789Y391595D01*
X277785Y391608D01*
X277783Y391622D01*
X277682Y391937D01*
X277621Y392083D01*
X277621Y395317D01*
X278859Y398305D01*
X281145Y400591D01*
X284133Y401829D01*
X286918Y401829D01*
X286931Y401830D01*
X286944Y401829D01*
X287131Y401850D01*
X287318Y401869D01*
X287331Y401873D01*
X287344Y401874D01*
X287523Y401932D01*
X287703Y401987D01*
X287715Y401993D01*
X287728Y401997D01*
X287891Y402089D01*
X288057Y402179D01*
X288067Y402187D01*
X288079Y402194D01*
X288222Y402316D01*
X288366Y402436D01*
X288375Y402447D01*
X288385Y402456D01*
X288501Y402603D01*
X288619Y402750D01*
X288625Y402762D01*
X288633Y402773D01*
X288718Y402941D01*
X288804Y403107D01*
X288808Y403120D01*
X288814Y403132D01*
X288863Y403313D01*
X288916Y403494D01*
X288917Y403508D01*
X288920Y403521D01*
X288933Y403707D01*
X288948Y403896D01*
X288947Y403909D01*
X288948Y403922D01*
X288924Y404108D01*
X288902Y404295D01*
X288897Y404308D01*
X288896Y404322D01*
X288794Y404637D01*
X288734Y404783D01*
X288734Y408017D01*
X289971Y411005D01*
X292258Y413291D01*
X295246Y414529D01*
X298479Y414529D01*
X301467Y413291D01*
X303754Y411005D01*
X304991Y408017D01*
X304991Y404783D01*
X303754Y401795D01*
X302030Y400072D01*
X302013Y400051D01*
X301993Y400034D01*
X301886Y399896D01*
X301775Y399760D01*
X301763Y399737D01*
X301746Y399716D01*
X301668Y399559D01*
X301586Y399405D01*
X301579Y399379D01*
X301567Y399355D01*
X301521Y399186D01*
X301472Y399019D01*
X301469Y398992D01*
X301462Y398966D01*
X301435Y398636D01*
X301435Y378503D01*
X300739Y376822D01*
X292505Y368588D01*
X292488Y368568D01*
X292468Y368550D01*
X292361Y368412D01*
X292250Y368277D01*
X292238Y368253D01*
X292221Y368232D01*
X292143Y368075D01*
X292061Y367921D01*
X292054Y367896D01*
X292042Y367872D01*
X291996Y367702D01*
X291947Y367535D01*
X291944Y367509D01*
X291937Y367483D01*
X291910Y367152D01*
X291910Y252239D01*
X291913Y252213D01*
X291911Y252186D01*
X291933Y252011D01*
X291950Y251839D01*
X291958Y251813D01*
X291961Y251787D01*
X292017Y251621D01*
X292068Y251454D01*
X292081Y251430D01*
X292090Y251405D01*
X292177Y251253D01*
X292260Y251100D01*
X292277Y251079D01*
X292290Y251056D01*
X292505Y250803D01*
X294229Y249080D01*
X295466Y246092D01*
X295466Y242858D01*
X294229Y239870D01*
X291942Y237584D01*
X291746Y237503D01*
X288954Y236346D01*
X285721Y236346D01*
X282733Y237584D01*
X281630Y238687D01*
X281616Y238698D01*
X281605Y238712D01*
X281461Y238825D01*
X281319Y238942D01*
X281303Y238950D01*
X281289Y238961D01*
X281125Y239044D01*
X280963Y239130D01*
X280946Y239135D01*
X280930Y239144D01*
X280753Y239193D01*
X280577Y239245D01*
X280559Y239247D01*
X280542Y239252D01*
X280359Y239265D01*
X280176Y239282D01*
X280158Y239280D01*
X280140Y239281D01*
X279958Y239258D01*
X279776Y239238D01*
X279759Y239233D01*
X279741Y239231D01*
X279567Y239172D01*
X279392Y239117D01*
X279376Y239108D01*
X279359Y239102D01*
X279200Y239011D01*
X279040Y238922D01*
X279026Y238910D01*
X279010Y238901D01*
X278757Y238687D01*
X277655Y237584D01*
X277459Y237503D01*
X274667Y236346D01*
X271433Y236346D01*
X268445Y237584D01*
X267343Y238687D01*
X267329Y238698D01*
X267317Y238712D01*
X267173Y238825D01*
X267031Y238942D01*
X267015Y238950D01*
X267001Y238961D01*
X266838Y239044D01*
X266675Y239130D01*
X266658Y239135D01*
X266642Y239144D01*
X266465Y239193D01*
X266289Y239245D01*
X266272Y239247D01*
X266254Y239252D01*
X266071Y239265D01*
X265888Y239282D01*
X265871Y239280D01*
X265853Y239281D01*
X265671Y239258D01*
X265488Y239238D01*
X265471Y239233D01*
X265453Y239231D01*
X265280Y239172D01*
X265104Y239117D01*
X265089Y239108D01*
X265072Y239102D01*
X264913Y239011D01*
X264752Y238922D01*
X264738Y238910D01*
X264723Y238901D01*
X264470Y238687D01*
X263367Y237584D01*
X263171Y237503D01*
X260379Y236346D01*
X257146Y236346D01*
G37*
%LPD*%
%LPC*%
G36*
X324535Y24637D02*
X324535Y24637D01*
X321921Y25720D01*
X304945Y42696D01*
X304924Y42713D01*
X304907Y42734D01*
X304769Y42841D01*
X304633Y42951D01*
X304610Y42964D01*
X304588Y42980D01*
X304432Y43058D01*
X304278Y43140D01*
X304252Y43148D01*
X304228Y43160D01*
X304059Y43205D01*
X303892Y43255D01*
X303865Y43257D01*
X303839Y43264D01*
X303508Y43291D01*
X289777Y43291D01*
X287991Y45077D01*
X287991Y67923D01*
X289777Y69709D01*
X312623Y69709D01*
X314409Y67923D01*
X314409Y54192D01*
X314411Y54165D01*
X314409Y54138D01*
X314431Y53964D01*
X314449Y53791D01*
X314456Y53765D01*
X314460Y53739D01*
X314515Y53573D01*
X314567Y53406D01*
X314580Y53382D01*
X314588Y53357D01*
X314675Y53205D01*
X314759Y53052D01*
X314776Y53032D01*
X314789Y53008D01*
X315004Y52755D01*
X328301Y39458D01*
X328322Y39441D01*
X328339Y39420D01*
X328477Y39313D01*
X328613Y39203D01*
X328636Y39190D01*
X328658Y39174D01*
X328814Y39096D01*
X328968Y39014D01*
X328994Y39006D01*
X329018Y38994D01*
X329187Y38949D01*
X329354Y38899D01*
X329381Y38897D01*
X329407Y38890D01*
X329738Y38863D01*
X377212Y38863D01*
X377239Y38865D01*
X377266Y38863D01*
X377440Y38885D01*
X377613Y38903D01*
X377639Y38910D01*
X377665Y38914D01*
X377831Y38969D01*
X377998Y39021D01*
X378022Y39034D01*
X378047Y39042D01*
X378199Y39129D01*
X378352Y39213D01*
X378372Y39230D01*
X378396Y39243D01*
X378649Y39458D01*
X388996Y49805D01*
X389013Y49826D01*
X389034Y49843D01*
X389141Y49981D01*
X389251Y50117D01*
X389264Y50140D01*
X389280Y50162D01*
X389358Y50318D01*
X389440Y50472D01*
X389448Y50498D01*
X389460Y50522D01*
X389505Y50691D01*
X389555Y50858D01*
X389557Y50885D01*
X389564Y50911D01*
X389591Y51242D01*
X389591Y67923D01*
X391377Y69709D01*
X414223Y69709D01*
X416009Y67923D01*
X416009Y45077D01*
X414223Y43291D01*
X403442Y43291D01*
X403415Y43289D01*
X403388Y43291D01*
X403214Y43269D01*
X403041Y43251D01*
X403015Y43244D01*
X402989Y43240D01*
X402823Y43185D01*
X402656Y43133D01*
X402632Y43120D01*
X402607Y43112D01*
X402455Y43025D01*
X402302Y42941D01*
X402282Y42924D01*
X402258Y42911D01*
X402005Y42696D01*
X385029Y25720D01*
X382415Y24637D01*
X324535Y24637D01*
G37*
%LPD*%
%LPC*%
G36*
X348573Y43291D02*
X348573Y43291D01*
X343718Y45302D01*
X340002Y49018D01*
X337991Y53873D01*
X337991Y59127D01*
X340002Y63982D01*
X343718Y67698D01*
X348573Y69709D01*
X353508Y69709D01*
X353535Y69711D01*
X353562Y69709D01*
X353736Y69731D01*
X353909Y69749D01*
X353935Y69756D01*
X353961Y69760D01*
X354127Y69815D01*
X354294Y69867D01*
X354318Y69880D01*
X354343Y69888D01*
X354495Y69975D01*
X354648Y70059D01*
X354668Y70076D01*
X354692Y70089D01*
X354945Y70304D01*
X373221Y88580D01*
X375835Y89663D01*
X428165Y89663D01*
X430779Y88580D01*
X449055Y70304D01*
X449076Y70287D01*
X449093Y70266D01*
X449231Y70159D01*
X449367Y70049D01*
X449390Y70036D01*
X449412Y70020D01*
X449568Y69942D01*
X449722Y69860D01*
X449748Y69852D01*
X449772Y69840D01*
X449941Y69795D01*
X450108Y69745D01*
X450135Y69743D01*
X450161Y69736D01*
X450492Y69709D01*
X455427Y69709D01*
X460282Y67698D01*
X463998Y63982D01*
X466009Y59127D01*
X466009Y53873D01*
X463998Y49018D01*
X460282Y45302D01*
X455427Y43291D01*
X450173Y43291D01*
X445318Y45302D01*
X441602Y49018D01*
X439591Y53873D01*
X439591Y58808D01*
X439589Y58835D01*
X439591Y58862D01*
X439569Y59036D01*
X439551Y59209D01*
X439544Y59235D01*
X439540Y59261D01*
X439485Y59427D01*
X439433Y59594D01*
X439420Y59618D01*
X439412Y59643D01*
X439325Y59795D01*
X439241Y59948D01*
X439224Y59968D01*
X439211Y59992D01*
X438996Y60245D01*
X424399Y74842D01*
X424378Y74859D01*
X424361Y74880D01*
X424223Y74987D01*
X424087Y75097D01*
X424064Y75110D01*
X424042Y75126D01*
X423886Y75204D01*
X423732Y75286D01*
X423706Y75294D01*
X423682Y75306D01*
X423513Y75351D01*
X423346Y75401D01*
X423319Y75403D01*
X423293Y75410D01*
X422962Y75437D01*
X381038Y75437D01*
X381011Y75435D01*
X380984Y75437D01*
X380810Y75415D01*
X380637Y75397D01*
X380611Y75390D01*
X380585Y75386D01*
X380419Y75331D01*
X380252Y75279D01*
X380228Y75266D01*
X380203Y75258D01*
X380051Y75171D01*
X379898Y75087D01*
X379878Y75070D01*
X379854Y75057D01*
X379601Y74842D01*
X365004Y60245D01*
X364987Y60224D01*
X364966Y60207D01*
X364859Y60069D01*
X364749Y59933D01*
X364736Y59910D01*
X364720Y59888D01*
X364642Y59732D01*
X364560Y59578D01*
X364552Y59552D01*
X364540Y59528D01*
X364495Y59359D01*
X364445Y59192D01*
X364443Y59165D01*
X364436Y59139D01*
X364409Y58808D01*
X364409Y53873D01*
X362398Y49018D01*
X358682Y45302D01*
X353827Y43291D01*
X348573Y43291D01*
G37*
%LPD*%
%LPC*%
G36*
X234921Y244284D02*
X234921Y244284D01*
X231933Y245521D01*
X229646Y247808D01*
X228409Y250796D01*
X228409Y254029D01*
X229646Y257017D01*
X230354Y257725D01*
X230371Y257745D01*
X230391Y257763D01*
X230498Y257901D01*
X230609Y258036D01*
X230621Y258060D01*
X230638Y258081D01*
X230716Y258238D01*
X230798Y258392D01*
X230805Y258417D01*
X230817Y258441D01*
X230863Y258611D01*
X230912Y258778D01*
X230915Y258804D01*
X230922Y258830D01*
X230949Y259161D01*
X230949Y399574D01*
X231800Y401628D01*
X233657Y403486D01*
X242101Y411930D01*
X242118Y411951D01*
X242139Y411968D01*
X242246Y412106D01*
X242356Y412241D01*
X242369Y412265D01*
X242385Y412286D01*
X242463Y412443D01*
X242545Y412597D01*
X242553Y412623D01*
X242565Y412647D01*
X242610Y412816D01*
X242660Y412983D01*
X242662Y413010D01*
X242669Y413036D01*
X242696Y413366D01*
X242696Y414367D01*
X243934Y417355D01*
X246220Y419641D01*
X249208Y420879D01*
X252442Y420879D01*
X255430Y419641D01*
X257716Y417355D01*
X258954Y414367D01*
X258954Y411133D01*
X257716Y408145D01*
X255430Y405859D01*
X252442Y404621D01*
X251441Y404621D01*
X251415Y404619D01*
X251388Y404621D01*
X251214Y404599D01*
X251041Y404581D01*
X251015Y404574D01*
X250989Y404570D01*
X250823Y404515D01*
X250656Y404463D01*
X250632Y404450D01*
X250607Y404442D01*
X250455Y404355D01*
X250302Y404271D01*
X250281Y404254D01*
X250258Y404241D01*
X250005Y404026D01*
X242721Y396743D01*
X242704Y396722D01*
X242684Y396704D01*
X242577Y396566D01*
X242466Y396431D01*
X242454Y396407D01*
X242437Y396386D01*
X242359Y396229D01*
X242277Y396075D01*
X242270Y396050D01*
X242258Y396026D01*
X242212Y395856D01*
X242163Y395689D01*
X242160Y395663D01*
X242153Y395637D01*
X242126Y395306D01*
X242126Y259161D01*
X242129Y259134D01*
X242127Y259108D01*
X242149Y258934D01*
X242166Y258760D01*
X242174Y258735D01*
X242177Y258708D01*
X242233Y258543D01*
X242284Y258375D01*
X242297Y258352D01*
X242306Y258326D01*
X242393Y258175D01*
X242476Y258021D01*
X242493Y258001D01*
X242506Y257978D01*
X242721Y257725D01*
X243429Y257017D01*
X244666Y254029D01*
X244666Y250796D01*
X243429Y247808D01*
X241142Y245521D01*
X238154Y244284D01*
X234921Y244284D01*
G37*
%LPD*%
%LPC*%
G36*
X446688Y124839D02*
X446688Y124839D01*
X440288Y126554D01*
X434551Y129866D01*
X429866Y134551D01*
X426554Y140288D01*
X424839Y146688D01*
X424839Y153312D01*
X426554Y159712D01*
X429866Y165449D01*
X434551Y170134D01*
X440288Y173446D01*
X446688Y175161D01*
X453312Y175161D01*
X459712Y173446D01*
X465449Y170134D01*
X470134Y165449D01*
X473446Y159712D01*
X475161Y153312D01*
X475161Y146688D01*
X473446Y140288D01*
X470134Y134551D01*
X465449Y129866D01*
X459712Y126554D01*
X453312Y124839D01*
X446688Y124839D01*
G37*
%LPD*%
%LPC*%
G36*
X46688Y124839D02*
X46688Y124839D01*
X40288Y126554D01*
X34551Y129866D01*
X29866Y134551D01*
X26554Y140288D01*
X24839Y146688D01*
X24839Y153312D01*
X26554Y159712D01*
X29866Y165449D01*
X34551Y170134D01*
X40288Y173446D01*
X46688Y175161D01*
X53312Y175161D01*
X59712Y173446D01*
X65449Y170134D01*
X70134Y165449D01*
X73446Y159712D01*
X75161Y153312D01*
X75161Y146688D01*
X73446Y140288D01*
X70134Y134551D01*
X65449Y129866D01*
X59712Y126554D01*
X53312Y124839D01*
X46688Y124839D01*
G37*
%LPD*%
%LPC*%
G36*
X446688Y693839D02*
X446688Y693839D01*
X440288Y695554D01*
X434551Y698866D01*
X429866Y703551D01*
X426554Y709288D01*
X424839Y715688D01*
X424839Y722312D01*
X426554Y728712D01*
X429866Y734449D01*
X434551Y739134D01*
X440288Y742446D01*
X446688Y744161D01*
X453312Y744161D01*
X459712Y742446D01*
X465449Y739134D01*
X470134Y734449D01*
X473446Y728712D01*
X475161Y722312D01*
X475161Y715688D01*
X473446Y709288D01*
X470134Y703551D01*
X465449Y698866D01*
X459712Y695554D01*
X453312Y693839D01*
X446688Y693839D01*
G37*
%LPD*%
%LPC*%
G36*
X447458Y275081D02*
X447458Y275081D01*
X443537Y276705D01*
X440536Y279707D01*
X440446Y279923D01*
X440435Y279943D01*
X440428Y279964D01*
X440340Y280120D01*
X440256Y280278D01*
X440241Y280295D01*
X440230Y280315D01*
X440113Y280451D01*
X439999Y280589D01*
X439982Y280603D01*
X439967Y280620D01*
X439826Y280729D01*
X439687Y280842D01*
X439667Y280853D01*
X439649Y280866D01*
X439489Y280946D01*
X439330Y281029D01*
X439309Y281036D01*
X439289Y281046D01*
X439115Y281092D01*
X438944Y281142D01*
X438921Y281144D01*
X438900Y281150D01*
X438569Y281177D01*
X418995Y281177D01*
X417314Y281873D01*
X374621Y324567D01*
X374600Y324584D01*
X374583Y324604D01*
X374445Y324711D01*
X374309Y324822D01*
X374286Y324834D01*
X374265Y324851D01*
X374108Y324929D01*
X373954Y325010D01*
X373928Y325018D01*
X373904Y325030D01*
X373735Y325076D01*
X373568Y325125D01*
X373541Y325128D01*
X373515Y325135D01*
X373185Y325162D01*
X370747Y325162D01*
X367759Y326399D01*
X365473Y328686D01*
X364235Y331673D01*
X364235Y334907D01*
X365473Y337895D01*
X367759Y340182D01*
X370747Y341419D01*
X373981Y341419D01*
X376969Y340182D01*
X379255Y337895D01*
X380493Y334907D01*
X380493Y332470D01*
X380495Y332443D01*
X380493Y332417D01*
X380515Y332243D01*
X380533Y332069D01*
X380540Y332044D01*
X380544Y332017D01*
X380599Y331851D01*
X380651Y331684D01*
X380664Y331661D01*
X380672Y331635D01*
X380759Y331484D01*
X380843Y331330D01*
X380860Y331310D01*
X380873Y331287D01*
X381088Y331034D01*
X421204Y290918D01*
X421224Y290901D01*
X421242Y290880D01*
X421380Y290773D01*
X421515Y290663D01*
X421539Y290650D01*
X421560Y290634D01*
X421717Y290556D01*
X421871Y290474D01*
X421896Y290466D01*
X421920Y290454D01*
X422090Y290409D01*
X422257Y290359D01*
X422283Y290357D01*
X422309Y290350D01*
X422640Y290323D01*
X438569Y290323D01*
X438591Y290325D01*
X438614Y290323D01*
X438791Y290345D01*
X438970Y290363D01*
X438991Y290369D01*
X439013Y290372D01*
X439183Y290428D01*
X439355Y290481D01*
X439374Y290491D01*
X439395Y290498D01*
X439551Y290587D01*
X439709Y290673D01*
X439726Y290687D01*
X439745Y290698D01*
X439880Y290815D01*
X440018Y290930D01*
X440032Y290948D01*
X440049Y290962D01*
X440158Y291104D01*
X440270Y291244D01*
X440281Y291264D01*
X440294Y291282D01*
X440446Y291577D01*
X440536Y291793D01*
X443537Y294795D01*
X447458Y296419D01*
X466942Y296419D01*
X470863Y294795D01*
X473865Y291793D01*
X475489Y287872D01*
X475489Y283628D01*
X473865Y279707D01*
X470863Y276705D01*
X466942Y275081D01*
X447458Y275081D01*
G37*
%LPD*%
%LPC*%
G36*
X447458Y325881D02*
X447458Y325881D01*
X443537Y327505D01*
X440535Y330507D01*
X438911Y334428D01*
X438911Y338672D01*
X440535Y342593D01*
X443537Y345595D01*
X447458Y347219D01*
X466942Y347219D01*
X470863Y345595D01*
X473865Y342593D01*
X475489Y338672D01*
X475489Y334428D01*
X473865Y330507D01*
X470863Y327505D01*
X466942Y325881D01*
X447458Y325881D01*
G37*
%LPD*%
%LPC*%
G36*
X447458Y300481D02*
X447458Y300481D01*
X443537Y302105D01*
X440535Y305107D01*
X438911Y309028D01*
X438911Y313272D01*
X440535Y317193D01*
X443537Y320195D01*
X447458Y321819D01*
X466942Y321819D01*
X470863Y320195D01*
X473865Y317193D01*
X475489Y313272D01*
X475489Y309028D01*
X473865Y305107D01*
X470863Y302105D01*
X466942Y300481D01*
X447458Y300481D01*
G37*
%LPD*%
%LPC*%
G36*
X447458Y198881D02*
X447458Y198881D01*
X443537Y200505D01*
X440535Y203507D01*
X438911Y207428D01*
X438911Y211672D01*
X440535Y215593D01*
X443537Y218595D01*
X447458Y220219D01*
X466942Y220219D01*
X470863Y218595D01*
X473865Y215593D01*
X475489Y211672D01*
X475489Y207428D01*
X473865Y203507D01*
X470863Y200505D01*
X466942Y198881D01*
X447458Y198881D01*
G37*
%LPD*%
%LPC*%
G36*
X447458Y224281D02*
X447458Y224281D01*
X443537Y225905D01*
X440535Y228907D01*
X438911Y232828D01*
X438911Y237072D01*
X440535Y240993D01*
X443537Y243995D01*
X447458Y245619D01*
X466942Y245619D01*
X470863Y243995D01*
X473865Y240993D01*
X475489Y237072D01*
X475489Y232828D01*
X473865Y228907D01*
X470863Y225905D01*
X466942Y224281D01*
X447458Y224281D01*
G37*
%LPD*%
%LPC*%
G36*
X94573Y43291D02*
X94573Y43291D01*
X89718Y45302D01*
X86002Y49018D01*
X83991Y53873D01*
X83991Y59127D01*
X86002Y63982D01*
X89718Y67698D01*
X94573Y69709D01*
X99827Y69709D01*
X104682Y67698D01*
X108398Y63982D01*
X110409Y59127D01*
X110409Y53873D01*
X108398Y49018D01*
X104682Y45302D01*
X99827Y43291D01*
X94573Y43291D01*
G37*
%LPD*%
%LPC*%
G36*
X323750Y398567D02*
X323750Y398567D01*
X320202Y400037D01*
X317487Y402752D01*
X316017Y406300D01*
X316017Y410140D01*
X317487Y413688D01*
X329541Y425742D01*
X331914Y426725D01*
X333089Y427212D01*
X336929Y427212D01*
X340477Y425742D01*
X343192Y423027D01*
X344662Y419479D01*
X344662Y415639D01*
X343192Y412091D01*
X331138Y400037D01*
X331056Y400003D01*
X327590Y398567D01*
X323750Y398567D01*
G37*
%LPD*%
%LPC*%
G36*
X341710Y380607D02*
X341710Y380607D01*
X338162Y382076D01*
X335447Y384791D01*
X333978Y388339D01*
X333978Y392179D01*
X335447Y395727D01*
X347502Y407782D01*
X351050Y409251D01*
X354890Y409251D01*
X358438Y407782D01*
X361153Y405067D01*
X362622Y401519D01*
X362622Y397679D01*
X361153Y394131D01*
X349098Y382076D01*
X345550Y380607D01*
X341710Y380607D01*
G37*
%LPD*%
%LPC*%
G36*
X305789Y416528D02*
X305789Y416528D01*
X302241Y417997D01*
X299526Y420712D01*
X298057Y424260D01*
X298057Y428100D01*
X299526Y431648D01*
X311581Y443703D01*
X315129Y445172D01*
X318969Y445172D01*
X322517Y443703D01*
X325232Y440988D01*
X326701Y437440D01*
X326701Y433600D01*
X325232Y430052D01*
X313177Y417997D01*
X309629Y416528D01*
X305789Y416528D01*
G37*
%LPD*%
%LPC*%
G36*
X271002Y454901D02*
X271002Y454901D01*
X267125Y456507D01*
X264627Y459005D01*
X264613Y459016D01*
X264602Y459030D01*
X264458Y459143D01*
X264316Y459260D01*
X264300Y459268D01*
X264286Y459279D01*
X264122Y459362D01*
X263960Y459448D01*
X263943Y459454D01*
X263927Y459462D01*
X263750Y459511D01*
X263574Y459563D01*
X263556Y459565D01*
X263539Y459570D01*
X263356Y459583D01*
X263173Y459600D01*
X263155Y459598D01*
X263137Y459599D01*
X262955Y459576D01*
X262773Y459556D01*
X262756Y459551D01*
X262738Y459549D01*
X262564Y459490D01*
X262389Y459435D01*
X262373Y459426D01*
X262356Y459420D01*
X262197Y459329D01*
X262037Y459240D01*
X262023Y459228D01*
X262007Y459219D01*
X261754Y459005D01*
X260541Y457791D01*
X259262Y456862D01*
X257854Y456145D01*
X256351Y455657D01*
X256031Y455606D01*
X256031Y465450D01*
X256031Y475294D01*
X256351Y475243D01*
X257854Y474755D01*
X259262Y474038D01*
X260541Y473109D01*
X261754Y471895D01*
X261768Y471884D01*
X261780Y471870D01*
X261924Y471756D01*
X262066Y471640D01*
X262082Y471632D01*
X262096Y471621D01*
X262260Y471537D01*
X262422Y471452D01*
X262439Y471446D01*
X262455Y471438D01*
X262632Y471389D01*
X262808Y471337D01*
X262825Y471335D01*
X262843Y471330D01*
X263026Y471317D01*
X263209Y471300D01*
X263226Y471302D01*
X263244Y471301D01*
X263426Y471324D01*
X263609Y471344D01*
X263626Y471349D01*
X263644Y471351D01*
X263817Y471410D01*
X263993Y471465D01*
X264008Y471474D01*
X264025Y471480D01*
X264183Y471571D01*
X264345Y471660D01*
X264359Y471672D01*
X264374Y471681D01*
X264627Y471895D01*
X267125Y474393D01*
X271002Y475999D01*
X275198Y475999D01*
X279075Y474393D01*
X282043Y471425D01*
X283649Y467548D01*
X283649Y463352D01*
X282043Y459475D01*
X279075Y456507D01*
X275198Y454901D01*
X271002Y454901D01*
G37*
%LPD*%
%LPC*%
G36*
X232802Y454901D02*
X232802Y454901D01*
X228925Y456507D01*
X225957Y459475D01*
X224351Y463352D01*
X224351Y467548D01*
X225957Y471425D01*
X228925Y474393D01*
X232802Y475999D01*
X236998Y475999D01*
X240875Y474393D01*
X243373Y471895D01*
X243387Y471884D01*
X243398Y471870D01*
X243542Y471757D01*
X243684Y471640D01*
X243700Y471632D01*
X243714Y471621D01*
X243878Y471538D01*
X244040Y471452D01*
X244057Y471446D01*
X244073Y471438D01*
X244250Y471389D01*
X244426Y471337D01*
X244444Y471335D01*
X244461Y471330D01*
X244644Y471317D01*
X244827Y471300D01*
X244845Y471302D01*
X244863Y471301D01*
X245045Y471324D01*
X245227Y471344D01*
X245244Y471349D01*
X245262Y471351D01*
X245436Y471410D01*
X245611Y471465D01*
X245627Y471474D01*
X245644Y471480D01*
X245803Y471571D01*
X245963Y471660D01*
X245977Y471672D01*
X245993Y471681D01*
X246246Y471895D01*
X247459Y473109D01*
X248738Y474038D01*
X250146Y474755D01*
X251649Y475243D01*
X251969Y475294D01*
X251969Y465450D01*
X251969Y455606D01*
X251649Y455657D01*
X250146Y456145D01*
X248738Y456862D01*
X247459Y457791D01*
X246246Y459005D01*
X246232Y459016D01*
X246220Y459030D01*
X246076Y459144D01*
X245934Y459260D01*
X245918Y459268D01*
X245904Y459279D01*
X245740Y459363D01*
X245578Y459448D01*
X245561Y459454D01*
X245545Y459462D01*
X245368Y459511D01*
X245192Y459563D01*
X245175Y459565D01*
X245157Y459570D01*
X244974Y459583D01*
X244791Y459600D01*
X244774Y459598D01*
X244756Y459599D01*
X244574Y459576D01*
X244391Y459556D01*
X244374Y459551D01*
X244356Y459549D01*
X244183Y459490D01*
X244007Y459435D01*
X243992Y459426D01*
X243975Y459420D01*
X243817Y459329D01*
X243655Y459240D01*
X243641Y459228D01*
X243626Y459219D01*
X243373Y459005D01*
X240875Y456507D01*
X236998Y454901D01*
X232802Y454901D01*
G37*
%LPD*%
%LPC*%
G36*
X309044Y138636D02*
X309044Y138636D01*
X305152Y140248D01*
X302173Y143227D01*
X300561Y147119D01*
X300561Y151331D01*
X302173Y155223D01*
X305152Y158202D01*
X309044Y159814D01*
X313256Y159814D01*
X317148Y158202D01*
X320127Y155223D01*
X321739Y151331D01*
X321739Y147119D01*
X320127Y143227D01*
X317148Y140248D01*
X313256Y138636D01*
X309044Y138636D01*
G37*
%LPD*%
%LPC*%
G36*
X258244Y138636D02*
X258244Y138636D01*
X254352Y140248D01*
X251373Y143227D01*
X249761Y147119D01*
X249761Y151331D01*
X251373Y155223D01*
X254352Y158202D01*
X258244Y159814D01*
X262456Y159814D01*
X266348Y158202D01*
X269327Y155223D01*
X270939Y151331D01*
X270939Y147119D01*
X269327Y143227D01*
X266348Y140248D01*
X262456Y138636D01*
X258244Y138636D01*
G37*
%LPD*%
%LPC*%
G36*
X283644Y138636D02*
X283644Y138636D01*
X279752Y140248D01*
X276773Y143227D01*
X275161Y147119D01*
X275161Y151331D01*
X276773Y155223D01*
X279752Y158202D01*
X283644Y159814D01*
X287856Y159814D01*
X291748Y158202D01*
X294727Y155223D01*
X296339Y151331D01*
X296339Y147119D01*
X294727Y143227D01*
X291748Y140248D01*
X287856Y138636D01*
X283644Y138636D01*
G37*
%LPD*%
%LPC*%
G36*
X232844Y138636D02*
X232844Y138636D01*
X228952Y140248D01*
X225973Y143227D01*
X224361Y147119D01*
X224361Y151331D01*
X225973Y155223D01*
X228952Y158202D01*
X232844Y159814D01*
X237056Y159814D01*
X240948Y158202D01*
X243927Y155223D01*
X245539Y151331D01*
X245539Y147119D01*
X243927Y143227D01*
X240948Y140248D01*
X237056Y138636D01*
X232844Y138636D01*
G37*
%LPD*%
%LPC*%
G36*
X207444Y138636D02*
X207444Y138636D01*
X203552Y140248D01*
X200573Y143227D01*
X198961Y147119D01*
X198961Y151331D01*
X200573Y155223D01*
X203552Y158202D01*
X207444Y159814D01*
X211656Y159814D01*
X215548Y158202D01*
X218527Y155223D01*
X220139Y151331D01*
X220139Y147119D01*
X218527Y143227D01*
X215548Y140248D01*
X211656Y138636D01*
X207444Y138636D01*
G37*
%LPD*%
%LPC*%
G36*
X156644Y138636D02*
X156644Y138636D01*
X152752Y140248D01*
X149773Y143227D01*
X148161Y147119D01*
X148161Y151331D01*
X149773Y155223D01*
X152752Y158202D01*
X156644Y159814D01*
X160856Y159814D01*
X164748Y158202D01*
X167727Y155223D01*
X169339Y151331D01*
X169339Y147119D01*
X167727Y143227D01*
X164748Y140248D01*
X160856Y138636D01*
X156644Y138636D01*
G37*
%LPD*%
%LPC*%
G36*
X182044Y138636D02*
X182044Y138636D01*
X178152Y140248D01*
X175173Y143227D01*
X173561Y147119D01*
X173561Y151331D01*
X175173Y155223D01*
X178152Y158202D01*
X182044Y159814D01*
X186256Y159814D01*
X190148Y158202D01*
X193127Y155223D01*
X194739Y151331D01*
X194739Y147119D01*
X193127Y143227D01*
X190148Y140248D01*
X186256Y138636D01*
X182044Y138636D01*
G37*
%LPD*%
%LPC*%
G36*
X182044Y164036D02*
X182044Y164036D01*
X178152Y165648D01*
X175173Y168627D01*
X173561Y172519D01*
X173561Y176731D01*
X175173Y180623D01*
X178152Y183602D01*
X182044Y185214D01*
X186256Y185214D01*
X190148Y183602D01*
X193127Y180623D01*
X194739Y176731D01*
X194739Y172519D01*
X193127Y168627D01*
X190148Y165648D01*
X186256Y164036D01*
X182044Y164036D01*
G37*
%LPD*%
%LPC*%
G36*
X131244Y164036D02*
X131244Y164036D01*
X127352Y165648D01*
X124373Y168627D01*
X122761Y172519D01*
X122761Y176731D01*
X124373Y180623D01*
X127352Y183602D01*
X131244Y185214D01*
X135456Y185214D01*
X139348Y183602D01*
X142327Y180623D01*
X143939Y176731D01*
X143939Y172519D01*
X142327Y168627D01*
X139348Y165648D01*
X135456Y164036D01*
X131244Y164036D01*
G37*
%LPD*%
%LPC*%
G36*
X156644Y164036D02*
X156644Y164036D01*
X152752Y165648D01*
X149773Y168627D01*
X148161Y172519D01*
X148161Y176731D01*
X149773Y180623D01*
X152752Y183602D01*
X156644Y185214D01*
X160856Y185214D01*
X164748Y183602D01*
X167727Y180623D01*
X169339Y176731D01*
X169339Y172519D01*
X167727Y168627D01*
X164748Y165648D01*
X160856Y164036D01*
X156644Y164036D01*
G37*
%LPD*%
%LPC*%
G36*
X207444Y164036D02*
X207444Y164036D01*
X203552Y165648D01*
X200573Y168627D01*
X198961Y172519D01*
X198961Y176731D01*
X200573Y180623D01*
X203552Y183602D01*
X207444Y185214D01*
X211656Y185214D01*
X215548Y183602D01*
X218527Y180623D01*
X220139Y176731D01*
X220139Y172519D01*
X218527Y168627D01*
X215548Y165648D01*
X211656Y164036D01*
X207444Y164036D01*
G37*
%LPD*%
%LPC*%
G36*
X232844Y164036D02*
X232844Y164036D01*
X228952Y165648D01*
X225973Y168627D01*
X224361Y172519D01*
X224361Y176731D01*
X225973Y180623D01*
X228952Y183602D01*
X232844Y185214D01*
X237056Y185214D01*
X240948Y183602D01*
X243927Y180623D01*
X245539Y176731D01*
X245539Y172519D01*
X243927Y168627D01*
X240948Y165648D01*
X237056Y164036D01*
X232844Y164036D01*
G37*
%LPD*%
%LPC*%
G36*
X258244Y164036D02*
X258244Y164036D01*
X254352Y165648D01*
X251373Y168627D01*
X249761Y172519D01*
X249761Y176731D01*
X251373Y180623D01*
X254352Y183602D01*
X258244Y185214D01*
X262456Y185214D01*
X266348Y183602D01*
X269327Y180623D01*
X270939Y176731D01*
X270939Y172519D01*
X269327Y168627D01*
X266348Y165648D01*
X262456Y164036D01*
X258244Y164036D01*
G37*
%LPD*%
%LPC*%
G36*
X283644Y164036D02*
X283644Y164036D01*
X279752Y165648D01*
X276773Y168627D01*
X275161Y172519D01*
X275161Y176731D01*
X276773Y180623D01*
X279752Y183602D01*
X283644Y185214D01*
X287856Y185214D01*
X291748Y183602D01*
X294727Y180623D01*
X296339Y176731D01*
X296339Y172519D01*
X294727Y168627D01*
X291748Y165648D01*
X287856Y164036D01*
X283644Y164036D01*
G37*
%LPD*%
%LPC*%
G36*
X459739Y262889D02*
X459739Y262889D01*
X459739Y270511D01*
X465620Y270511D01*
X467199Y270261D01*
X468720Y269766D01*
X470145Y269040D01*
X471439Y268100D01*
X472570Y266969D01*
X473510Y265675D01*
X474236Y264250D01*
X474679Y262889D01*
X459739Y262889D01*
G37*
%LPD*%
%LPC*%
G36*
X439721Y262889D02*
X439721Y262889D01*
X440164Y264250D01*
X440890Y265675D01*
X441830Y266969D01*
X442961Y268100D01*
X444255Y269040D01*
X445680Y269766D01*
X447201Y270261D01*
X448780Y270511D01*
X454661Y270511D01*
X454661Y262889D01*
X439721Y262889D01*
G37*
%LPD*%
%LPC*%
G36*
X459739Y250189D02*
X459739Y250189D01*
X459739Y257811D01*
X474679Y257811D01*
X474236Y256450D01*
X473510Y255025D01*
X472570Y253731D01*
X471439Y252600D01*
X470145Y251660D01*
X468720Y250934D01*
X467199Y250439D01*
X465620Y250189D01*
X459739Y250189D01*
G37*
%LPD*%
%LPC*%
G36*
X448780Y250189D02*
X448780Y250189D01*
X447201Y250439D01*
X445680Y250934D01*
X444255Y251660D01*
X442961Y252600D01*
X441830Y253731D01*
X440890Y255025D01*
X440164Y256450D01*
X439721Y257811D01*
X454661Y257811D01*
X454661Y250189D01*
X448780Y250189D01*
G37*
%LPD*%
%LPC*%
G36*
X50120Y59420D02*
X50120Y59420D01*
X50120Y69201D01*
X57695Y69201D01*
X58341Y69028D01*
X58920Y68693D01*
X59393Y68220D01*
X59728Y67641D01*
X59901Y66995D01*
X59901Y59420D01*
X50120Y59420D01*
G37*
%LPD*%
%LPC*%
G36*
X50120Y53580D02*
X50120Y53580D01*
X59901Y53580D01*
X59901Y46005D01*
X59728Y45359D01*
X59393Y44780D01*
X58920Y44307D01*
X58341Y43972D01*
X57695Y43799D01*
X50120Y43799D01*
X50120Y53580D01*
G37*
%LPD*%
%LPC*%
G36*
X34499Y59420D02*
X34499Y59420D01*
X34499Y66995D01*
X34672Y67641D01*
X35007Y68220D01*
X35480Y68693D01*
X36059Y69028D01*
X36705Y69201D01*
X44280Y69201D01*
X44280Y59420D01*
X34499Y59420D01*
G37*
%LPD*%
%LPC*%
G36*
X36705Y43799D02*
X36705Y43799D01*
X36059Y43972D01*
X35480Y44307D01*
X35007Y44780D01*
X34672Y45359D01*
X34499Y46005D01*
X34499Y53580D01*
X44280Y53580D01*
X44280Y43799D01*
X36705Y43799D01*
G37*
%LPD*%
%LPC*%
G36*
X135849Y151724D02*
X135849Y151724D01*
X135849Y159012D01*
X137220Y158567D01*
X138634Y157847D01*
X139917Y156914D01*
X141039Y155792D01*
X141972Y154509D01*
X142692Y153095D01*
X143137Y151724D01*
X135849Y151724D01*
G37*
%LPD*%
%LPC*%
G36*
X313649Y177124D02*
X313649Y177124D01*
X313649Y184412D01*
X315020Y183967D01*
X316434Y183247D01*
X317717Y182314D01*
X318839Y181192D01*
X319772Y179909D01*
X320492Y178495D01*
X320937Y177124D01*
X313649Y177124D01*
G37*
%LPD*%
%LPC*%
G36*
X135849Y146726D02*
X135849Y146726D01*
X143137Y146726D01*
X142692Y145355D01*
X141972Y143941D01*
X141039Y142658D01*
X139917Y141536D01*
X138634Y140603D01*
X137220Y139883D01*
X135849Y139438D01*
X135849Y146726D01*
G37*
%LPD*%
%LPC*%
G36*
X123563Y151724D02*
X123563Y151724D01*
X124008Y153095D01*
X124728Y154509D01*
X125661Y155792D01*
X126783Y156914D01*
X128066Y157847D01*
X129480Y158567D01*
X130851Y159012D01*
X130851Y151724D01*
X123563Y151724D01*
G37*
%LPD*%
%LPC*%
G36*
X313649Y172126D02*
X313649Y172126D01*
X320937Y172126D01*
X320492Y170755D01*
X319772Y169341D01*
X318839Y168058D01*
X317717Y166936D01*
X316434Y166003D01*
X315020Y165283D01*
X313649Y164838D01*
X313649Y172126D01*
G37*
%LPD*%
%LPC*%
G36*
X301363Y177124D02*
X301363Y177124D01*
X301808Y178495D01*
X302528Y179909D01*
X303461Y181192D01*
X304583Y182314D01*
X305866Y183247D01*
X307280Y183967D01*
X308651Y184412D01*
X308651Y177124D01*
X301363Y177124D01*
G37*
%LPD*%
%LPC*%
G36*
X129480Y139883D02*
X129480Y139883D01*
X128066Y140603D01*
X126783Y141536D01*
X125661Y142658D01*
X124728Y143941D01*
X124008Y145355D01*
X123563Y146726D01*
X130851Y146726D01*
X130851Y139438D01*
X129480Y139883D01*
G37*
%LPD*%
%LPC*%
G36*
X307280Y165283D02*
X307280Y165283D01*
X305866Y166003D01*
X304583Y166936D01*
X303461Y168058D01*
X302528Y169341D01*
X301808Y170755D01*
X301363Y172126D01*
X308651Y172126D01*
X308651Y164838D01*
X307280Y165283D01*
G37*
%LPD*%
D10*
X165100Y685800D03*
X342900Y685800D03*
D11*
X324000Y679450D02*
X284000Y679450D01*
X224000Y679450D02*
X184000Y679450D01*
D12*
X234900Y465450D03*
X254000Y465450D03*
X273100Y465450D03*
D10*
X342900Y673100D03*
X165100Y673100D03*
X335750Y663200D03*
X324000Y659450D03*
X310750Y659450D03*
X297500Y659450D03*
X284000Y659450D03*
X272250Y663200D03*
X265000Y673200D03*
X265000Y685700D03*
X272250Y695700D03*
X284000Y699450D03*
X297500Y699450D03*
X310750Y699450D03*
X324000Y699450D03*
X335750Y695700D03*
X172250Y663200D03*
X184000Y659450D03*
X197250Y659450D03*
X210750Y659450D03*
X224000Y659450D03*
X235750Y663200D03*
X243000Y673200D03*
X243000Y685700D03*
X235750Y695700D03*
X224000Y699450D03*
X210750Y699450D03*
X197250Y699450D03*
X184000Y699450D03*
X172250Y695700D03*
D13*
X301200Y812500D03*
D14*
X351200Y812500D03*
D13*
X148800Y812500D03*
D14*
X198800Y812500D03*
D15*
X449580Y636562D02*
X464820Y636562D01*
X414020Y611162D02*
X398780Y611162D01*
X449580Y585762D02*
X464820Y585762D01*
D16*
X317049Y435520D02*
X307709Y426180D01*
X325670Y408220D02*
X335009Y417559D01*
X388891Y471441D02*
X398230Y480780D01*
X380270Y498741D02*
X370930Y489401D01*
X352970Y399599D02*
X343630Y390259D01*
X406851Y453480D02*
X416191Y462820D01*
D13*
X47200Y56500D03*
D14*
X97200Y56500D03*
D15*
X449580Y209550D02*
X464820Y209550D01*
X464820Y234950D02*
X449580Y234950D01*
X449580Y260350D02*
X464820Y260350D01*
X464820Y285750D02*
X449580Y285750D01*
X449580Y311150D02*
X464820Y311150D01*
X464820Y336550D02*
X449580Y336550D01*
D13*
X301200Y56500D03*
D14*
X351200Y56500D03*
D13*
X402800Y56500D03*
D14*
X452800Y56500D03*
D17*
X133350Y149225D03*
X133350Y174625D03*
X158750Y149225D03*
X158750Y174625D03*
X184150Y149225D03*
X184150Y174625D03*
X209550Y149225D03*
X209550Y174625D03*
X234950Y149225D03*
X234950Y174625D03*
X260350Y149225D03*
X260350Y174625D03*
X285750Y149225D03*
X285750Y174625D03*
X311150Y149225D03*
X311150Y174625D03*
D18*
X428625Y107950D03*
X460375Y92075D03*
X123825Y34925D03*
X254000Y88900D03*
X300038Y282575D03*
X428625Y273050D03*
X131763Y269875D03*
X93345Y260350D03*
X38100Y400050D03*
X93345Y365125D03*
X155575Y371475D03*
X336550Y107950D03*
X385826Y241300D03*
X361950Y249238D03*
X315913Y246063D03*
X336550Y254000D03*
X123825Y304800D03*
X425450Y304800D03*
X185738Y369888D03*
X252413Y265113D03*
X311150Y374650D03*
X241300Y88900D03*
X266700Y88900D03*
X236538Y252413D03*
D19*
X236538Y398463D01*
X250825Y412750D01*
D18*
X250825Y412750D03*
D20*
X92075Y577850D03*
D21*
X165100Y577850D01*
D20*
X165100Y577850D03*
X152400Y546100D03*
D21*
X81100Y546100D01*
X47650Y579550D01*
X39800Y579550D01*
D20*
X39800Y579550D03*
X107950Y457200D03*
D21*
X107950Y476250D01*
X50800Y533400D01*
D20*
X50800Y533400D03*
D21*
X406851Y453480D02*
X457200Y503829D01*
X457200Y585762D01*
D18*
X355600Y679450D03*
X355600Y654050D03*
X374650Y654050D03*
X298450Y635000D03*
X317500Y635000D03*
X336550Y635000D03*
X355600Y635000D03*
X374650Y635000D03*
X393700Y635000D03*
X317500Y615950D03*
X336550Y615950D03*
X355600Y615950D03*
X374650Y615950D03*
X336550Y596900D03*
X355600Y596900D03*
X374650Y596900D03*
X393700Y596900D03*
X412750Y596900D03*
X349250Y850900D03*
X368300Y850900D03*
X387350Y850900D03*
X406400Y850900D03*
X425450Y850900D03*
X444500Y850900D03*
X463550Y850900D03*
X482600Y850900D03*
X349250Y831850D03*
X368300Y831850D03*
X387350Y831850D03*
X406400Y831850D03*
X425450Y831850D03*
X444500Y831850D03*
X463550Y831850D03*
X482600Y831850D03*
X387350Y812800D03*
X406400Y812800D03*
X425450Y812800D03*
X444500Y812800D03*
X463550Y812800D03*
X482600Y812800D03*
X349250Y793750D03*
X368300Y793750D03*
X387350Y793750D03*
X406400Y793750D03*
X425450Y793750D03*
X444500Y793750D03*
X463550Y793750D03*
X482600Y793750D03*
X349250Y774700D03*
X368300Y774700D03*
X387350Y774700D03*
X406400Y774700D03*
X425450Y774700D03*
X444500Y774700D03*
X463550Y774700D03*
X482600Y774700D03*
X349250Y755650D03*
X368300Y755650D03*
X387350Y755650D03*
X406400Y755650D03*
X425450Y755650D03*
X444500Y755650D03*
X463550Y755650D03*
X482600Y755650D03*
X482600Y736600D03*
X406400Y736600D03*
X387350Y736600D03*
X368300Y736600D03*
X349250Y736600D03*
X368300Y717550D03*
X387350Y717550D03*
X406400Y717550D03*
X387350Y698500D03*
X406400Y698500D03*
X425450Y698500D03*
X482600Y698500D03*
X482600Y717550D03*
X406400Y679450D03*
X425450Y679450D03*
X444500Y679450D03*
X463550Y679450D03*
X482600Y679450D03*
X425450Y660400D03*
X444500Y660400D03*
X463550Y660400D03*
X482600Y660400D03*
X368300Y812800D03*
X482600Y641350D03*
X196850Y850900D03*
X215900Y850900D03*
X234950Y850900D03*
X254000Y850900D03*
X273050Y850900D03*
X292100Y850900D03*
X311150Y850900D03*
X311150Y831850D03*
X292100Y831850D03*
X273050Y831850D03*
X254000Y831850D03*
X234950Y831850D03*
X215900Y831850D03*
X234950Y812800D03*
X254000Y812800D03*
X273050Y812800D03*
X215900Y793750D03*
X234950Y793750D03*
X254000Y793750D03*
X273050Y793750D03*
X292100Y793750D03*
X311150Y793750D03*
X234950Y774700D03*
X254000Y774700D03*
X273050Y774700D03*
X292100Y774700D03*
X311150Y774700D03*
X254000Y755650D03*
X273050Y755650D03*
X292100Y755650D03*
X311150Y755650D03*
X196850Y831850D03*
X215900Y812800D03*
X95250Y781050D03*
X95250Y819150D03*
X114300Y819150D03*
X114300Y800100D03*
X95250Y800100D03*
X114300Y781050D03*
X133350Y781050D03*
X152400Y781050D03*
X95250Y762000D03*
X114300Y762000D03*
X133350Y762000D03*
X152400Y762000D03*
X171450Y762000D03*
X95250Y742950D03*
X114300Y742950D03*
X133350Y742950D03*
X152400Y742950D03*
X171450Y742950D03*
X190500Y742950D03*
X95250Y723900D03*
X114300Y723900D03*
X133350Y723900D03*
X152400Y723900D03*
X171450Y723900D03*
X190500Y723900D03*
X209550Y723900D03*
X114300Y704850D03*
X133350Y704850D03*
X152400Y704850D03*
X133350Y685800D03*
X152400Y685800D03*
X152400Y666750D03*
X133350Y819150D03*
X133350Y800100D03*
X372364Y333290D03*
D22*
X419904Y285750D01*
X457200Y285750D01*
D23*
X377250Y82550D02*
X351200Y56500D01*
X426750Y82550D02*
X452800Y56500D01*
X426750Y82550D02*
X377250Y82550D01*
X325950Y31750D02*
X301200Y56500D01*
X325950Y31750D02*
X381000Y31750D01*
X402800Y53550D01*
X402800Y56500D01*
D18*
X258763Y244475D03*
D22*
X274638Y260350D01*
X274638Y381000D01*
D18*
X274638Y381000D03*
X273050Y244475D03*
D22*
X280988Y257175D02*
X280988Y373063D01*
X285750Y377825D01*
X285750Y393700D01*
D18*
X285750Y393700D03*
D22*
X280988Y257175D02*
X273050Y249238D01*
X273050Y244475D01*
D18*
X287338Y244475D03*
D22*
X287338Y254000D02*
X287338Y369888D01*
D18*
X296863Y406400D03*
D22*
X287338Y254000D02*
X287338Y244475D01*
X287338Y369888D02*
X296863Y379413D01*
X296863Y406400D01*
M02*
