G04 EAGLE Gerber X2 export*
%TF.Part,Single*%
%TF.FileFunction,Copper,L2,Bot,Mixed*%
%TF.FilePolarity,Positive*%
%TF.GenerationSoftware,Autodesk,EAGLE,9.1.3*%
%TF.CreationDate,2018-09-12T19:46:09Z*%
G75*
%MOMM*%
%FSLAX34Y34*%
%LPD*%
%AMOC8*
5,1,8,0,0,1.08239X$1,22.5*%
G01*
%ADD10C,1.008000*%
%ADD11C,4.000000*%
%ADD12C,1.500000*%
%ADD13R,2.032000X2.032000*%
%ADD14C,2.032000*%
%ADD15C,1.524000*%
%ADD16C,1.320800*%
%ADD17C,1.508000*%
%ADD18C,1.408000*%
%ADD19C,1.016000*%
%ADD20C,1.006400*%
%ADD21C,1.016000*%
%ADD22C,0.304800*%
%ADD23C,0.406400*%
%ADD24C,0.508000*%

G36*
X487826Y10163D02*
X487826Y10163D01*
X487844Y10161D01*
X488026Y10182D01*
X488209Y10201D01*
X488226Y10206D01*
X488243Y10208D01*
X488418Y10265D01*
X488594Y10319D01*
X488609Y10327D01*
X488626Y10333D01*
X488786Y10423D01*
X488948Y10511D01*
X488961Y10522D01*
X488977Y10531D01*
X489116Y10651D01*
X489257Y10768D01*
X489268Y10782D01*
X489282Y10794D01*
X489394Y10939D01*
X489509Y11082D01*
X489517Y11098D01*
X489528Y11112D01*
X489610Y11277D01*
X489695Y11439D01*
X489700Y11456D01*
X489708Y11472D01*
X489755Y11651D01*
X489806Y11826D01*
X489808Y11844D01*
X489812Y11861D01*
X489839Y12192D01*
X489839Y73016D01*
X491185Y76264D01*
X491194Y76293D01*
X491208Y76322D01*
X491252Y76486D01*
X491301Y76649D01*
X491304Y76680D01*
X491312Y76710D01*
X491339Y77041D01*
X491339Y82717D01*
X491963Y84223D01*
X491971Y84248D01*
X491983Y84272D01*
X492029Y84440D01*
X492079Y84608D01*
X492082Y84635D01*
X492089Y84661D01*
X492101Y84835D01*
X492117Y85009D01*
X492115Y85035D01*
X492117Y85062D01*
X492094Y85236D01*
X492076Y85409D01*
X492068Y85435D01*
X492064Y85461D01*
X491963Y85777D01*
X491339Y87283D01*
X491339Y92959D01*
X491336Y92990D01*
X491338Y93021D01*
X491316Y93191D01*
X491299Y93360D01*
X491290Y93389D01*
X491286Y93420D01*
X491185Y93736D01*
X489839Y96984D01*
X489839Y393016D01*
X491185Y396264D01*
X491194Y396293D01*
X491208Y396322D01*
X491252Y396486D01*
X491301Y396649D01*
X491304Y396680D01*
X491312Y396710D01*
X491339Y397041D01*
X491339Y402717D01*
X491963Y404223D01*
X491971Y404248D01*
X491983Y404272D01*
X492029Y404440D01*
X492079Y404608D01*
X492082Y404635D01*
X492089Y404661D01*
X492101Y404835D01*
X492117Y405009D01*
X492115Y405035D01*
X492117Y405062D01*
X492094Y405236D01*
X492076Y405409D01*
X492068Y405435D01*
X492064Y405461D01*
X491963Y405777D01*
X491383Y407177D01*
X491372Y407197D01*
X491365Y407218D01*
X491277Y407374D01*
X491193Y407532D01*
X491179Y407549D01*
X491168Y407569D01*
X491051Y407704D01*
X490936Y407843D01*
X490919Y407857D01*
X490904Y407874D01*
X490763Y407983D01*
X490624Y408096D01*
X490604Y408107D01*
X490586Y408120D01*
X490425Y408200D01*
X490267Y408283D01*
X490246Y408290D01*
X490226Y408300D01*
X490052Y408346D01*
X489881Y408396D01*
X489859Y408398D01*
X489837Y408404D01*
X489506Y408431D01*
X388191Y408431D01*
X312586Y484036D01*
X312566Y484053D01*
X312548Y484074D01*
X312410Y484181D01*
X312275Y484291D01*
X312251Y484304D01*
X312230Y484320D01*
X312073Y484398D01*
X311919Y484480D01*
X311894Y484488D01*
X311870Y484500D01*
X311700Y484545D01*
X311533Y484595D01*
X311507Y484597D01*
X311481Y484604D01*
X311150Y484631D01*
X215900Y484631D01*
X215882Y484629D01*
X215864Y484631D01*
X215682Y484610D01*
X215499Y484591D01*
X215482Y484586D01*
X215465Y484584D01*
X215290Y484527D01*
X215114Y484473D01*
X215099Y484465D01*
X215082Y484459D01*
X214922Y484369D01*
X214760Y484281D01*
X214747Y484270D01*
X214731Y484261D01*
X214592Y484141D01*
X214451Y484024D01*
X214440Y484010D01*
X214427Y483998D01*
X214314Y483853D01*
X214199Y483710D01*
X214191Y483694D01*
X214180Y483680D01*
X214098Y483515D01*
X214013Y483353D01*
X214008Y483336D01*
X214000Y483320D01*
X213953Y483141D01*
X213902Y482966D01*
X213900Y482948D01*
X213896Y482931D01*
X213869Y482600D01*
X213869Y421131D01*
X12192Y421131D01*
X12174Y421129D01*
X12156Y421131D01*
X11974Y421110D01*
X11791Y421091D01*
X11774Y421086D01*
X11757Y421084D01*
X11582Y421027D01*
X11406Y420973D01*
X11391Y420965D01*
X11374Y420959D01*
X11214Y420869D01*
X11052Y420781D01*
X11039Y420770D01*
X11023Y420761D01*
X10884Y420641D01*
X10743Y420524D01*
X10732Y420510D01*
X10718Y420498D01*
X10606Y420353D01*
X10491Y420210D01*
X10483Y420194D01*
X10472Y420180D01*
X10390Y420015D01*
X10305Y419853D01*
X10300Y419836D01*
X10292Y419820D01*
X10245Y419641D01*
X10194Y419466D01*
X10192Y419448D01*
X10188Y419431D01*
X10161Y419100D01*
X10161Y12192D01*
X10163Y12174D01*
X10161Y12156D01*
X10182Y11974D01*
X10201Y11791D01*
X10206Y11774D01*
X10208Y11757D01*
X10265Y11582D01*
X10319Y11406D01*
X10327Y11391D01*
X10333Y11374D01*
X10423Y11214D01*
X10511Y11052D01*
X10522Y11039D01*
X10531Y11023D01*
X10651Y10884D01*
X10768Y10743D01*
X10782Y10732D01*
X10794Y10718D01*
X10939Y10606D01*
X11082Y10491D01*
X11098Y10483D01*
X11112Y10472D01*
X11277Y10390D01*
X11439Y10305D01*
X11456Y10300D01*
X11472Y10292D01*
X11651Y10245D01*
X11826Y10194D01*
X11844Y10192D01*
X11861Y10188D01*
X12192Y10161D01*
X487808Y10161D01*
X487826Y10163D01*
G37*
G36*
X891295Y10178D02*
X891295Y10178D01*
X891445Y10190D01*
X891468Y10198D01*
X891492Y10201D01*
X891633Y10251D01*
X891776Y10297D01*
X891797Y10310D01*
X891820Y10318D01*
X891946Y10400D01*
X892075Y10477D01*
X892092Y10494D01*
X892113Y10507D01*
X892217Y10615D01*
X892325Y10720D01*
X892338Y10740D01*
X892355Y10758D01*
X892432Y10887D01*
X892513Y11013D01*
X892521Y11036D01*
X892534Y11057D01*
X892579Y11200D01*
X892630Y11342D01*
X892633Y11366D01*
X892640Y11389D01*
X892652Y11538D01*
X892669Y11688D01*
X892666Y11712D01*
X892668Y11736D01*
X892646Y11885D01*
X892628Y12034D01*
X892619Y12062D01*
X892616Y12081D01*
X892599Y12125D01*
X892553Y12267D01*
X891839Y13990D01*
X891839Y22010D01*
X894909Y29420D01*
X900580Y35091D01*
X907990Y38161D01*
X916010Y38161D01*
X917138Y37694D01*
X917733Y37447D01*
X917878Y37406D01*
X918021Y37360D01*
X918045Y37358D01*
X918068Y37351D01*
X918219Y37344D01*
X918368Y37332D01*
X918392Y37336D01*
X918416Y37334D01*
X918564Y37361D01*
X918713Y37384D01*
X918735Y37393D01*
X918759Y37397D01*
X918897Y37457D01*
X919037Y37512D01*
X919057Y37526D01*
X919079Y37536D01*
X919200Y37626D01*
X919323Y37711D01*
X919339Y37729D01*
X919359Y37744D01*
X919456Y37859D01*
X919556Y37970D01*
X919568Y37991D01*
X919584Y38010D01*
X919652Y38143D01*
X919725Y38275D01*
X919731Y38299D01*
X919742Y38320D01*
X919779Y38466D01*
X919820Y38611D01*
X919822Y38640D01*
X919827Y38658D01*
X919827Y38705D01*
X919839Y38854D01*
X919839Y162258D01*
X919828Y162357D01*
X919826Y162458D01*
X919808Y162530D01*
X919799Y162604D01*
X919766Y162698D01*
X919741Y162796D01*
X919707Y162862D01*
X919682Y162932D01*
X919627Y163016D01*
X919581Y163105D01*
X919533Y163162D01*
X919493Y163225D01*
X919421Y163294D01*
X919356Y163371D01*
X919296Y163415D01*
X919242Y163467D01*
X919156Y163518D01*
X919075Y163578D01*
X919007Y163608D01*
X918943Y163646D01*
X918847Y163676D01*
X918755Y163716D01*
X918682Y163729D01*
X918611Y163752D01*
X918511Y163760D01*
X918412Y163778D01*
X918338Y163774D01*
X918264Y163780D01*
X918164Y163765D01*
X918064Y163760D01*
X917993Y163739D01*
X917919Y163728D01*
X917826Y163691D01*
X917729Y163663D01*
X917664Y163627D01*
X917595Y163599D01*
X917513Y163542D01*
X917425Y163493D01*
X917349Y163428D01*
X917309Y163401D01*
X917285Y163374D01*
X917239Y163335D01*
X904340Y150435D01*
X904323Y150415D01*
X904303Y150398D01*
X904215Y150278D01*
X904123Y150162D01*
X904112Y150139D01*
X904096Y150117D01*
X904038Y149981D01*
X903974Y149847D01*
X903969Y149822D01*
X903958Y149797D01*
X903932Y149651D01*
X903901Y149506D01*
X903901Y149480D01*
X903897Y149454D01*
X903904Y149306D01*
X903907Y149158D01*
X903913Y149133D01*
X903914Y149106D01*
X903955Y148964D01*
X903992Y148820D01*
X904004Y148797D01*
X904011Y148772D01*
X904083Y148642D01*
X904151Y148510D01*
X904168Y148490D01*
X904181Y148467D01*
X904340Y148281D01*
X905141Y147480D01*
X906379Y144492D01*
X906379Y141258D01*
X905141Y138270D01*
X902855Y135984D01*
X899867Y134746D01*
X896633Y134746D01*
X896134Y134953D01*
X895785Y135098D01*
X895640Y135139D01*
X895497Y135185D01*
X895473Y135187D01*
X895450Y135193D01*
X895299Y135201D01*
X895150Y135213D01*
X895126Y135209D01*
X895102Y135210D01*
X894954Y135183D01*
X894805Y135161D01*
X894783Y135152D01*
X894759Y135148D01*
X894621Y135088D01*
X894481Y135032D01*
X894461Y135018D01*
X894439Y135009D01*
X894318Y134919D01*
X894195Y134833D01*
X894179Y134815D01*
X894159Y134801D01*
X894062Y134686D01*
X893962Y134575D01*
X893950Y134553D01*
X893934Y134535D01*
X893866Y134401D01*
X893793Y134269D01*
X893787Y134246D01*
X893776Y134225D01*
X893739Y134079D01*
X893698Y133934D01*
X893696Y133905D01*
X893691Y133886D01*
X893691Y133839D01*
X893679Y133690D01*
X893679Y131733D01*
X892441Y128745D01*
X890155Y126459D01*
X887167Y125221D01*
X883933Y125221D01*
X880945Y126459D01*
X878659Y128745D01*
X877421Y131733D01*
X877421Y134967D01*
X878659Y137955D01*
X880945Y140241D01*
X883085Y141127D01*
X883152Y141165D01*
X883223Y141193D01*
X883304Y141249D01*
X883390Y141297D01*
X883446Y141348D01*
X883509Y141392D01*
X883575Y141465D01*
X883648Y141531D01*
X883691Y141594D01*
X883742Y141650D01*
X883790Y141737D01*
X883846Y141818D01*
X883874Y141889D01*
X883911Y141956D01*
X883938Y142050D01*
X883974Y142142D01*
X883985Y142217D01*
X884006Y142291D01*
X884018Y142440D01*
X884025Y142487D01*
X884023Y142506D01*
X884025Y142535D01*
X884025Y150958D01*
X884721Y152638D01*
X905931Y173848D01*
X906010Y173947D01*
X906094Y174041D01*
X906118Y174083D01*
X906148Y174121D01*
X906202Y174235D01*
X906263Y174346D01*
X906276Y174392D01*
X906297Y174436D01*
X906323Y174559D01*
X906358Y174681D01*
X906363Y174742D01*
X906370Y174777D01*
X906369Y174825D01*
X906377Y174925D01*
X906377Y337200D01*
X906363Y337326D01*
X906356Y337452D01*
X906343Y337498D01*
X906337Y337546D01*
X906295Y337665D01*
X906260Y337787D01*
X906236Y337829D01*
X906220Y337874D01*
X906151Y337981D01*
X906090Y338091D01*
X906050Y338137D01*
X906031Y338167D01*
X905996Y338201D01*
X905931Y338277D01*
X882896Y361313D01*
X882797Y361391D01*
X882703Y361476D01*
X882660Y361499D01*
X882623Y361529D01*
X882508Y361583D01*
X882398Y361644D01*
X882351Y361658D01*
X882307Y361678D01*
X882184Y361705D01*
X882062Y361739D01*
X882001Y361744D01*
X881967Y361752D01*
X881919Y361751D01*
X881818Y361759D01*
X879171Y361759D01*
X876183Y362996D01*
X873896Y365283D01*
X872659Y368271D01*
X872659Y371504D01*
X873896Y374492D01*
X876183Y376779D01*
X879171Y378016D01*
X882404Y378016D01*
X885392Y376779D01*
X885875Y376296D01*
X885895Y376280D01*
X885912Y376260D01*
X886032Y376171D01*
X886148Y376079D01*
X886172Y376068D01*
X886193Y376052D01*
X886329Y375994D01*
X886463Y375930D01*
X886489Y375925D01*
X886513Y375914D01*
X886659Y375888D01*
X886804Y375857D01*
X886830Y375857D01*
X886856Y375853D01*
X887004Y375860D01*
X887152Y375863D01*
X887178Y375869D01*
X887204Y375871D01*
X887346Y375912D01*
X887490Y375948D01*
X887513Y375960D01*
X887539Y375967D01*
X887668Y376040D01*
X887800Y376108D01*
X887820Y376125D01*
X887843Y376137D01*
X888029Y376296D01*
X890099Y378366D01*
X893087Y379604D01*
X896321Y379604D01*
X899309Y378366D01*
X901595Y376080D01*
X902833Y373092D01*
X902833Y369858D01*
X901736Y367211D01*
X901715Y367137D01*
X901685Y367067D01*
X901667Y366970D01*
X901640Y366875D01*
X901637Y366799D01*
X901623Y366724D01*
X901628Y366626D01*
X901623Y366527D01*
X901637Y366452D01*
X901641Y366376D01*
X901668Y366281D01*
X901686Y366185D01*
X901716Y366114D01*
X901738Y366041D01*
X901786Y365955D01*
X901825Y365865D01*
X901870Y365804D01*
X901908Y365737D01*
X902005Y365623D01*
X902033Y365585D01*
X902047Y365573D01*
X902066Y365551D01*
X917239Y350378D01*
X917317Y350316D01*
X917390Y350246D01*
X917454Y350207D01*
X917512Y350161D01*
X917603Y350118D01*
X917689Y350067D01*
X917760Y350044D01*
X917827Y350012D01*
X917925Y349991D01*
X918021Y349961D01*
X918095Y349955D01*
X918168Y349939D01*
X918268Y349941D01*
X918368Y349933D01*
X918442Y349944D01*
X918516Y349945D01*
X918613Y349969D01*
X918713Y349984D01*
X918782Y350012D01*
X918854Y350030D01*
X918944Y350076D01*
X919037Y350113D01*
X919098Y350155D01*
X919164Y350190D01*
X919241Y350255D01*
X919323Y350312D01*
X919373Y350367D01*
X919429Y350415D01*
X919489Y350496D01*
X919556Y350571D01*
X919592Y350636D01*
X919637Y350696D01*
X919676Y350788D01*
X919725Y350876D01*
X919745Y350947D01*
X919775Y351016D01*
X919792Y351114D01*
X919820Y351211D01*
X919828Y351311D01*
X919836Y351359D01*
X919834Y351394D01*
X919839Y351455D01*
X919839Y451146D01*
X919822Y451295D01*
X919810Y451445D01*
X919802Y451468D01*
X919799Y451492D01*
X919749Y451633D01*
X919703Y451776D01*
X919690Y451797D01*
X919682Y451820D01*
X919600Y451946D01*
X919523Y452075D01*
X919506Y452092D01*
X919493Y452113D01*
X919385Y452217D01*
X919280Y452325D01*
X919260Y452338D01*
X919242Y452355D01*
X919113Y452432D01*
X918987Y452513D01*
X918964Y452521D01*
X918943Y452534D01*
X918800Y452579D01*
X918658Y452630D01*
X918634Y452633D01*
X918611Y452640D01*
X918462Y452652D01*
X918312Y452669D01*
X918288Y452666D01*
X918264Y452668D01*
X918115Y452646D01*
X917966Y452628D01*
X917938Y452619D01*
X917919Y452616D01*
X917875Y452599D01*
X917733Y452553D01*
X916010Y451839D01*
X907990Y451839D01*
X900580Y454909D01*
X894909Y460580D01*
X891839Y467990D01*
X891839Y476010D01*
X892553Y477733D01*
X892594Y477878D01*
X892640Y478021D01*
X892642Y478045D01*
X892649Y478068D01*
X892656Y478219D01*
X892668Y478368D01*
X892664Y478392D01*
X892666Y478416D01*
X892639Y478564D01*
X892616Y478713D01*
X892607Y478735D01*
X892603Y478759D01*
X892543Y478897D01*
X892488Y479037D01*
X892474Y479057D01*
X892464Y479079D01*
X892374Y479200D01*
X892289Y479323D01*
X892271Y479339D01*
X892256Y479359D01*
X892141Y479456D01*
X892030Y479556D01*
X892009Y479568D01*
X891990Y479584D01*
X891857Y479652D01*
X891725Y479725D01*
X891701Y479731D01*
X891680Y479742D01*
X891534Y479779D01*
X891389Y479820D01*
X891360Y479822D01*
X891342Y479827D01*
X891295Y479827D01*
X891146Y479839D01*
X548854Y479839D01*
X548705Y479822D01*
X548555Y479810D01*
X548532Y479802D01*
X548508Y479799D01*
X548367Y479749D01*
X548224Y479703D01*
X548203Y479690D01*
X548180Y479682D01*
X548054Y479600D01*
X547925Y479523D01*
X547908Y479506D01*
X547887Y479493D01*
X547783Y479385D01*
X547675Y479280D01*
X547662Y479260D01*
X547645Y479242D01*
X547568Y479113D01*
X547487Y478987D01*
X547479Y478964D01*
X547466Y478943D01*
X547421Y478800D01*
X547370Y478658D01*
X547367Y478634D01*
X547360Y478611D01*
X547348Y478462D01*
X547331Y478312D01*
X547334Y478288D01*
X547332Y478264D01*
X547354Y478115D01*
X547372Y477966D01*
X547381Y477938D01*
X547384Y477919D01*
X547401Y477875D01*
X547447Y477733D01*
X548161Y476010D01*
X548161Y467990D01*
X545091Y460580D01*
X539420Y454909D01*
X532010Y451839D01*
X523990Y451839D01*
X522267Y452553D01*
X522122Y452594D01*
X521979Y452640D01*
X521955Y452642D01*
X521932Y452649D01*
X521781Y452656D01*
X521632Y452668D01*
X521608Y452664D01*
X521584Y452666D01*
X521436Y452639D01*
X521287Y452616D01*
X521265Y452607D01*
X521241Y452603D01*
X521103Y452543D01*
X520963Y452488D01*
X520943Y452474D01*
X520921Y452464D01*
X520800Y452374D01*
X520677Y452289D01*
X520661Y452271D01*
X520641Y452256D01*
X520544Y452141D01*
X520444Y452030D01*
X520432Y452009D01*
X520416Y451990D01*
X520348Y451857D01*
X520275Y451725D01*
X520269Y451701D01*
X520258Y451680D01*
X520221Y451534D01*
X520180Y451389D01*
X520178Y451360D01*
X520173Y451342D01*
X520173Y451295D01*
X520161Y451146D01*
X520161Y416540D01*
X518799Y413712D01*
X518743Y413552D01*
X518687Y413393D01*
X518686Y413387D01*
X518685Y413383D01*
X518667Y413215D01*
X518648Y413046D01*
X518649Y413041D01*
X518648Y413036D01*
X518661Y412935D01*
X518661Y407283D01*
X517957Y405583D01*
X517922Y405461D01*
X517880Y405342D01*
X517874Y405294D01*
X517861Y405248D01*
X517855Y405122D01*
X517841Y404996D01*
X517846Y404948D01*
X517844Y404900D01*
X517867Y404775D01*
X517882Y404650D01*
X517900Y404592D01*
X517907Y404557D01*
X517926Y404512D01*
X517957Y404417D01*
X518661Y402717D01*
X518661Y397041D01*
X518660Y397029D01*
X518651Y396860D01*
X518652Y396855D01*
X518651Y396849D01*
X518682Y396683D01*
X518711Y396516D01*
X518713Y396511D01*
X518714Y396507D01*
X518721Y396489D01*
X518799Y396288D01*
X520161Y393460D01*
X520161Y96540D01*
X518799Y93712D01*
X518743Y93552D01*
X518687Y93393D01*
X518686Y93387D01*
X518685Y93383D01*
X518667Y93215D01*
X518648Y93046D01*
X518649Y93041D01*
X518648Y93036D01*
X518661Y92935D01*
X518661Y87283D01*
X517957Y85583D01*
X517922Y85461D01*
X517880Y85342D01*
X517874Y85294D01*
X517861Y85248D01*
X517855Y85122D01*
X517841Y84996D01*
X517846Y84948D01*
X517844Y84900D01*
X517867Y84775D01*
X517882Y84650D01*
X517900Y84592D01*
X517907Y84557D01*
X517926Y84512D01*
X517957Y84417D01*
X518661Y82717D01*
X518661Y77041D01*
X518660Y77028D01*
X518651Y76860D01*
X518652Y76855D01*
X518651Y76849D01*
X518682Y76683D01*
X518711Y76516D01*
X518713Y76511D01*
X518714Y76507D01*
X518721Y76489D01*
X518799Y76288D01*
X520161Y73460D01*
X520161Y38854D01*
X520178Y38705D01*
X520190Y38555D01*
X520198Y38532D01*
X520201Y38508D01*
X520251Y38367D01*
X520297Y38224D01*
X520310Y38203D01*
X520318Y38180D01*
X520400Y38054D01*
X520477Y37925D01*
X520494Y37908D01*
X520507Y37887D01*
X520615Y37783D01*
X520720Y37675D01*
X520740Y37662D01*
X520758Y37645D01*
X520887Y37568D01*
X521013Y37487D01*
X521036Y37479D01*
X521057Y37466D01*
X521200Y37421D01*
X521342Y37370D01*
X521366Y37367D01*
X521389Y37360D01*
X521538Y37348D01*
X521688Y37331D01*
X521712Y37334D01*
X521736Y37332D01*
X521885Y37354D01*
X522034Y37372D01*
X522062Y37381D01*
X522081Y37384D01*
X522125Y37401D01*
X522267Y37447D01*
X523990Y38161D01*
X532010Y38161D01*
X539420Y35091D01*
X545091Y29420D01*
X548161Y22010D01*
X548161Y13990D01*
X547447Y12267D01*
X547406Y12122D01*
X547360Y11979D01*
X547358Y11955D01*
X547351Y11932D01*
X547344Y11781D01*
X547332Y11632D01*
X547336Y11608D01*
X547334Y11584D01*
X547361Y11436D01*
X547384Y11287D01*
X547393Y11265D01*
X547397Y11241D01*
X547457Y11103D01*
X547512Y10963D01*
X547526Y10943D01*
X547536Y10921D01*
X547626Y10800D01*
X547711Y10677D01*
X547729Y10661D01*
X547744Y10641D01*
X547859Y10544D01*
X547970Y10444D01*
X547991Y10432D01*
X548010Y10416D01*
X548143Y10348D01*
X548275Y10275D01*
X548299Y10269D01*
X548320Y10258D01*
X548466Y10221D01*
X548611Y10180D01*
X548640Y10178D01*
X548658Y10173D01*
X548705Y10173D01*
X548854Y10161D01*
X891146Y10161D01*
X891295Y10178D01*
G37*
%LPC*%
G36*
X693433Y150621D02*
X693433Y150621D01*
X690445Y151859D01*
X688159Y154145D01*
X686921Y157133D01*
X686921Y160367D01*
X688159Y163355D01*
X690445Y165641D01*
X693433Y166879D01*
X696667Y166879D01*
X699655Y165641D01*
X701527Y163769D01*
X701626Y163690D01*
X701720Y163606D01*
X701762Y163582D01*
X701800Y163552D01*
X701914Y163498D01*
X702025Y163437D01*
X702071Y163424D01*
X702115Y163403D01*
X702238Y163377D01*
X702360Y163342D01*
X702421Y163337D01*
X702456Y163330D01*
X702504Y163331D01*
X702604Y163323D01*
X735167Y163323D01*
X735293Y163337D01*
X735419Y163344D01*
X735465Y163357D01*
X735513Y163363D01*
X735632Y163405D01*
X735754Y163440D01*
X735796Y163464D01*
X735841Y163480D01*
X735948Y163549D01*
X736058Y163610D01*
X736104Y163650D01*
X736134Y163669D01*
X736168Y163704D01*
X736244Y163769D01*
X743229Y170754D01*
X743292Y170832D01*
X743361Y170905D01*
X743400Y170969D01*
X743446Y171027D01*
X743489Y171118D01*
X743540Y171204D01*
X743563Y171275D01*
X743595Y171342D01*
X743616Y171440D01*
X743647Y171536D01*
X743652Y171610D01*
X743668Y171683D01*
X743666Y171783D01*
X743674Y171883D01*
X743663Y171957D01*
X743662Y172031D01*
X743638Y172128D01*
X743623Y172228D01*
X743595Y172297D01*
X743577Y172369D01*
X743531Y172459D01*
X743494Y172552D01*
X743452Y172613D01*
X743418Y172679D01*
X743352Y172756D01*
X743295Y172838D01*
X743240Y172888D01*
X743192Y172944D01*
X743111Y173004D01*
X743036Y173071D01*
X742971Y173107D01*
X742911Y173152D01*
X742819Y173191D01*
X742731Y173240D01*
X742660Y173260D01*
X742591Y173290D01*
X742493Y173307D01*
X742396Y173335D01*
X742296Y173343D01*
X742248Y173351D01*
X742213Y173349D01*
X742152Y173354D01*
X736830Y173354D01*
X735149Y174050D01*
X697777Y211422D01*
X697049Y213181D01*
X697012Y213248D01*
X696984Y213319D01*
X696927Y213400D01*
X696880Y213486D01*
X696828Y213542D01*
X696785Y213605D01*
X696712Y213671D01*
X696645Y213744D01*
X696583Y213787D01*
X696526Y213838D01*
X696440Y213886D01*
X696359Y213942D01*
X696288Y213970D01*
X696221Y214007D01*
X696126Y214034D01*
X696035Y214070D01*
X695959Y214081D01*
X695885Y214102D01*
X695737Y214114D01*
X695690Y214121D01*
X695671Y214119D01*
X695642Y214121D01*
X693433Y214121D01*
X690445Y215359D01*
X688159Y217645D01*
X686921Y220633D01*
X686921Y223867D01*
X688159Y226855D01*
X690445Y229141D01*
X693433Y230379D01*
X696667Y230379D01*
X699655Y229141D01*
X700577Y228219D01*
X700656Y228156D01*
X700728Y228087D01*
X700792Y228048D01*
X700850Y228002D01*
X700941Y227959D01*
X701027Y227908D01*
X701098Y227885D01*
X701165Y227853D01*
X701263Y227832D01*
X701359Y227802D01*
X701433Y227796D01*
X701506Y227780D01*
X701606Y227782D01*
X701706Y227774D01*
X701780Y227785D01*
X701854Y227786D01*
X701951Y227810D01*
X702051Y227825D01*
X702120Y227853D01*
X702192Y227871D01*
X702281Y227917D01*
X702375Y227954D01*
X702436Y227996D01*
X702502Y228031D01*
X702578Y228096D01*
X702661Y228153D01*
X702711Y228208D01*
X702767Y228256D01*
X702827Y228337D01*
X702894Y228412D01*
X702930Y228477D01*
X702975Y228537D01*
X703014Y228629D01*
X703063Y228717D01*
X703083Y228788D01*
X703113Y228857D01*
X703130Y228955D01*
X703158Y229052D01*
X703166Y229152D01*
X703174Y229200D01*
X703172Y229235D01*
X703177Y229296D01*
X703177Y276806D01*
X703163Y276932D01*
X703156Y277058D01*
X703143Y277105D01*
X703137Y277153D01*
X703095Y277272D01*
X703060Y277393D01*
X703036Y277435D01*
X703020Y277481D01*
X702951Y277587D01*
X702890Y277697D01*
X702850Y277744D01*
X702831Y277774D01*
X702796Y277807D01*
X702731Y277883D01*
X693353Y287261D01*
X692657Y288942D01*
X692657Y289055D01*
X692649Y289131D01*
X692650Y289207D01*
X692629Y289303D01*
X692617Y289401D01*
X692592Y289473D01*
X692575Y289548D01*
X692533Y289637D01*
X692500Y289729D01*
X692458Y289793D01*
X692426Y289862D01*
X692364Y289939D01*
X692311Y290022D01*
X692256Y290075D01*
X692208Y290135D01*
X692131Y290196D01*
X692060Y290264D01*
X691995Y290303D01*
X691935Y290351D01*
X691801Y290419D01*
X691761Y290443D01*
X691743Y290449D01*
X691717Y290462D01*
X689069Y291559D01*
X686783Y293845D01*
X685545Y296833D01*
X685545Y300067D01*
X686783Y303055D01*
X689069Y305341D01*
X692057Y306579D01*
X695291Y306579D01*
X696647Y306017D01*
X696792Y305976D01*
X696935Y305930D01*
X696959Y305928D01*
X696982Y305921D01*
X697133Y305914D01*
X697282Y305902D01*
X697306Y305906D01*
X697330Y305904D01*
X697478Y305931D01*
X697627Y305954D01*
X697649Y305963D01*
X697673Y305967D01*
X697811Y306027D01*
X697951Y306082D01*
X697971Y306096D01*
X697993Y306106D01*
X698114Y306196D01*
X698237Y306281D01*
X698253Y306299D01*
X698273Y306314D01*
X698370Y306429D01*
X698470Y306540D01*
X698482Y306561D01*
X698498Y306580D01*
X698566Y306713D01*
X698639Y306845D01*
X698645Y306868D01*
X698656Y306890D01*
X698693Y307036D01*
X698734Y307180D01*
X698736Y307210D01*
X698741Y307228D01*
X698741Y307275D01*
X698753Y307424D01*
X698753Y321817D01*
X698739Y321942D01*
X698732Y322069D01*
X698719Y322115D01*
X698713Y322163D01*
X698671Y322282D01*
X698636Y322403D01*
X698612Y322446D01*
X698596Y322491D01*
X698527Y322597D01*
X698466Y322708D01*
X698426Y322754D01*
X698407Y322784D01*
X698372Y322817D01*
X698307Y322894D01*
X675989Y345212D01*
X675911Y345274D01*
X675838Y345344D01*
X675774Y345382D01*
X675716Y345429D01*
X675625Y345471D01*
X675539Y345523D01*
X675468Y345546D01*
X675401Y345577D01*
X675303Y345599D01*
X675207Y345629D01*
X675133Y345635D01*
X675060Y345651D01*
X674960Y345649D01*
X674860Y345657D01*
X674786Y345646D01*
X674712Y345645D01*
X674615Y345620D01*
X674515Y345605D01*
X674446Y345578D01*
X674374Y345560D01*
X674284Y345514D01*
X674191Y345477D01*
X674130Y345434D01*
X674064Y345400D01*
X673987Y345335D01*
X673905Y345278D01*
X673855Y345223D01*
X673799Y345174D01*
X673739Y345094D01*
X673672Y345019D01*
X673636Y344954D01*
X673591Y344894D01*
X673552Y344802D01*
X673503Y344714D01*
X673483Y344642D01*
X673453Y344574D01*
X673436Y344475D01*
X673408Y344379D01*
X673400Y344279D01*
X673392Y344231D01*
X673394Y344195D01*
X673389Y344135D01*
X673389Y340893D01*
X671853Y337185D01*
X669015Y334347D01*
X665307Y332811D01*
X661293Y332811D01*
X657585Y334347D01*
X654747Y337185D01*
X653211Y340893D01*
X653211Y344907D01*
X654747Y348615D01*
X657585Y351453D01*
X661293Y352989D01*
X664535Y352989D01*
X664635Y353000D01*
X664735Y353002D01*
X664807Y353020D01*
X664881Y353029D01*
X664976Y353062D01*
X665073Y353087D01*
X665139Y353121D01*
X665209Y353146D01*
X665294Y353201D01*
X665383Y353247D01*
X665439Y353295D01*
X665502Y353335D01*
X665572Y353407D01*
X665648Y353472D01*
X665692Y353532D01*
X665744Y353586D01*
X665796Y353672D01*
X665855Y353753D01*
X665885Y353821D01*
X665923Y353885D01*
X665954Y353980D01*
X665993Y354073D01*
X666007Y354146D01*
X666029Y354217D01*
X666037Y354317D01*
X666055Y354416D01*
X666051Y354490D01*
X666057Y354564D01*
X666042Y354663D01*
X666037Y354764D01*
X666017Y354835D01*
X666005Y354909D01*
X665968Y355002D01*
X665941Y355099D01*
X665904Y355164D01*
X665877Y355233D01*
X665819Y355315D01*
X665770Y355403D01*
X665705Y355479D01*
X665678Y355519D01*
X665651Y355543D01*
X665612Y355589D01*
X664804Y356397D01*
X664705Y356476D01*
X664611Y356560D01*
X664569Y356584D01*
X664531Y356614D01*
X664417Y356668D01*
X664306Y356729D01*
X664259Y356742D01*
X664216Y356763D01*
X664092Y356789D01*
X663971Y356824D01*
X663910Y356829D01*
X663875Y356836D01*
X663827Y356835D01*
X663727Y356843D01*
X648811Y356843D01*
X647131Y357539D01*
X599987Y404683D01*
X599888Y404762D01*
X599794Y404846D01*
X599752Y404870D01*
X599714Y404900D01*
X599600Y404954D01*
X599489Y405015D01*
X599442Y405028D01*
X599399Y405049D01*
X599275Y405075D01*
X599154Y405110D01*
X599093Y405115D01*
X599058Y405122D01*
X599010Y405121D01*
X598910Y405129D01*
X592367Y405129D01*
X590687Y405825D01*
X578748Y417764D01*
X578688Y417811D01*
X578635Y417866D01*
X578552Y417920D01*
X578475Y417981D01*
X578406Y418013D01*
X578342Y418055D01*
X578249Y418087D01*
X578160Y418130D01*
X578085Y418146D01*
X578013Y418171D01*
X577915Y418182D01*
X577819Y418203D01*
X577743Y418202D01*
X577667Y418210D01*
X577569Y418199D01*
X577471Y418197D01*
X577397Y418178D01*
X577321Y418169D01*
X577179Y418124D01*
X577133Y418112D01*
X577116Y418103D01*
X577088Y418094D01*
X575222Y417321D01*
X571988Y417321D01*
X569001Y418559D01*
X566714Y420845D01*
X565477Y423833D01*
X565477Y427067D01*
X566714Y430055D01*
X569001Y432341D01*
X571988Y433579D01*
X575222Y433579D01*
X577072Y432812D01*
X577097Y432805D01*
X577121Y432793D01*
X577265Y432757D01*
X577407Y432717D01*
X577434Y432715D01*
X577459Y432709D01*
X577607Y432707D01*
X577755Y432700D01*
X577781Y432704D01*
X577807Y432704D01*
X577952Y432736D01*
X578098Y432762D01*
X578122Y432773D01*
X578148Y432778D01*
X578282Y432842D01*
X578418Y432901D01*
X578439Y432917D01*
X578463Y432928D01*
X578578Y433020D01*
X578698Y433109D01*
X578715Y433129D01*
X578735Y433146D01*
X578827Y433262D01*
X578923Y433375D01*
X578935Y433399D01*
X578951Y433419D01*
X579062Y433637D01*
X580209Y436405D01*
X582495Y438691D01*
X585483Y439929D01*
X588717Y439929D01*
X591705Y438691D01*
X593991Y436405D01*
X595021Y433918D01*
X595034Y433895D01*
X595042Y433870D01*
X595118Y433743D01*
X595191Y433613D01*
X595208Y433594D01*
X595222Y433571D01*
X595325Y433465D01*
X595425Y433355D01*
X595446Y433340D01*
X595465Y433321D01*
X595589Y433241D01*
X595711Y433157D01*
X595736Y433147D01*
X595758Y433133D01*
X595898Y433083D01*
X596036Y433029D01*
X596061Y433025D01*
X596086Y433016D01*
X596234Y433000D01*
X596380Y432978D01*
X596407Y432980D01*
X596433Y432977D01*
X596580Y432995D01*
X596728Y433007D01*
X596753Y433015D01*
X596779Y433018D01*
X597011Y433093D01*
X598183Y433579D01*
X601417Y433579D01*
X602589Y433093D01*
X602614Y433086D01*
X602637Y433074D01*
X602780Y433039D01*
X602924Y432998D01*
X602950Y432996D01*
X602975Y432990D01*
X603124Y432988D01*
X603272Y432981D01*
X603297Y432985D01*
X603324Y432985D01*
X603469Y433017D01*
X603615Y433043D01*
X603639Y433054D01*
X603664Y433059D01*
X603798Y433123D01*
X603934Y433182D01*
X603955Y433198D01*
X603979Y433209D01*
X604095Y433302D01*
X604214Y433390D01*
X604231Y433410D01*
X604251Y433427D01*
X604343Y433543D01*
X604439Y433656D01*
X604451Y433679D01*
X604467Y433700D01*
X604579Y433918D01*
X605609Y436405D01*
X607895Y438691D01*
X610883Y439929D01*
X614117Y439929D01*
X617105Y438691D01*
X619391Y436405D01*
X620421Y433918D01*
X620434Y433895D01*
X620442Y433870D01*
X620518Y433743D01*
X620591Y433613D01*
X620608Y433594D01*
X620622Y433571D01*
X620725Y433465D01*
X620825Y433355D01*
X620846Y433340D01*
X620865Y433321D01*
X620989Y433241D01*
X621111Y433157D01*
X621136Y433147D01*
X621158Y433133D01*
X621298Y433083D01*
X621436Y433029D01*
X621461Y433025D01*
X621486Y433016D01*
X621634Y433000D01*
X621780Y432978D01*
X621807Y432980D01*
X621833Y432977D01*
X621980Y432995D01*
X622128Y433007D01*
X622153Y433015D01*
X622179Y433018D01*
X622411Y433093D01*
X623583Y433579D01*
X626817Y433579D01*
X627989Y433093D01*
X628014Y433086D01*
X628037Y433074D01*
X628180Y433039D01*
X628324Y432998D01*
X628350Y432996D01*
X628375Y432990D01*
X628524Y432988D01*
X628672Y432981D01*
X628697Y432985D01*
X628724Y432985D01*
X628869Y433017D01*
X629015Y433043D01*
X629039Y433054D01*
X629064Y433059D01*
X629198Y433123D01*
X629334Y433182D01*
X629355Y433198D01*
X629379Y433209D01*
X629495Y433302D01*
X629614Y433390D01*
X629631Y433410D01*
X629651Y433427D01*
X629743Y433543D01*
X629839Y433656D01*
X629851Y433679D01*
X629867Y433700D01*
X629979Y433918D01*
X631009Y436405D01*
X633295Y438691D01*
X636283Y439929D01*
X639517Y439929D01*
X642505Y438691D01*
X644791Y436405D01*
X645821Y433918D01*
X645834Y433895D01*
X645842Y433870D01*
X645918Y433743D01*
X645991Y433613D01*
X646008Y433594D01*
X646022Y433571D01*
X646125Y433465D01*
X646225Y433355D01*
X646246Y433340D01*
X646265Y433321D01*
X646389Y433241D01*
X646511Y433157D01*
X646536Y433147D01*
X646558Y433133D01*
X646698Y433083D01*
X646836Y433029D01*
X646861Y433025D01*
X646886Y433016D01*
X647034Y433000D01*
X647180Y432978D01*
X647207Y432980D01*
X647233Y432977D01*
X647380Y432995D01*
X647528Y433007D01*
X647553Y433015D01*
X647579Y433018D01*
X647812Y433093D01*
X648983Y433579D01*
X652217Y433579D01*
X653388Y433093D01*
X653414Y433086D01*
X653437Y433074D01*
X653580Y433039D01*
X653724Y432998D01*
X653750Y432996D01*
X653775Y432990D01*
X653924Y432988D01*
X654072Y432981D01*
X654097Y432985D01*
X654124Y432985D01*
X654269Y433017D01*
X654415Y433043D01*
X654439Y433054D01*
X654464Y433059D01*
X654598Y433123D01*
X654734Y433182D01*
X654755Y433198D01*
X654779Y433209D01*
X654895Y433301D01*
X655014Y433390D01*
X655031Y433410D01*
X655051Y433426D01*
X655143Y433543D01*
X655239Y433656D01*
X655251Y433680D01*
X655267Y433700D01*
X655379Y433918D01*
X656409Y436405D01*
X658695Y438691D01*
X661683Y439929D01*
X664917Y439929D01*
X667905Y438691D01*
X670191Y436405D01*
X671429Y433417D01*
X671429Y430183D01*
X670950Y429028D01*
X670929Y428954D01*
X670899Y428884D01*
X670881Y428787D01*
X670854Y428692D01*
X670851Y428616D01*
X670837Y428541D01*
X670842Y428443D01*
X670837Y428344D01*
X670851Y428269D01*
X670855Y428193D01*
X670882Y428098D01*
X670900Y428002D01*
X670930Y427931D01*
X670952Y427858D01*
X671000Y427772D01*
X671039Y427682D01*
X671084Y427621D01*
X671122Y427554D01*
X671219Y427440D01*
X671247Y427402D01*
X671261Y427390D01*
X671280Y427368D01*
X686509Y412139D01*
X686548Y412108D01*
X686582Y412070D01*
X686685Y411999D01*
X686782Y411922D01*
X686828Y411901D01*
X686869Y411872D01*
X686985Y411826D01*
X687097Y411773D01*
X687146Y411763D01*
X687193Y411744D01*
X687317Y411726D01*
X687438Y411700D01*
X687488Y411701D01*
X687538Y411693D01*
X687662Y411704D01*
X687786Y411706D01*
X687835Y411718D01*
X687885Y411722D01*
X688004Y411760D01*
X688124Y411791D01*
X688169Y411814D01*
X688217Y411829D01*
X688323Y411893D01*
X688434Y411950D01*
X688473Y411983D01*
X688516Y412009D01*
X688605Y412096D01*
X688700Y412176D01*
X688730Y412217D01*
X688766Y412252D01*
X688833Y412356D01*
X688907Y412457D01*
X688927Y412503D01*
X688954Y412545D01*
X688996Y412663D01*
X689045Y412777D01*
X689054Y412826D01*
X689070Y412874D01*
X689084Y412997D01*
X689106Y413120D01*
X689104Y413170D01*
X689109Y413220D01*
X689095Y413344D01*
X689088Y413468D01*
X689075Y413516D01*
X689069Y413566D01*
X688993Y413799D01*
X688871Y414094D01*
X688871Y418306D01*
X690483Y422198D01*
X693462Y425177D01*
X697354Y426789D01*
X716646Y426789D01*
X720538Y425177D01*
X723517Y422198D01*
X725129Y418306D01*
X725129Y414094D01*
X723751Y410767D01*
X723709Y410622D01*
X723664Y410479D01*
X723662Y410455D01*
X723655Y410432D01*
X723648Y410281D01*
X723636Y410132D01*
X723639Y410108D01*
X723638Y410084D01*
X723665Y409936D01*
X723687Y409787D01*
X723696Y409765D01*
X723701Y409741D01*
X723761Y409603D01*
X723816Y409463D01*
X723830Y409443D01*
X723839Y409421D01*
X723929Y409300D01*
X724015Y409177D01*
X724033Y409161D01*
X724047Y409141D01*
X724162Y409044D01*
X724274Y408944D01*
X724295Y408932D01*
X724313Y408916D01*
X724447Y408848D01*
X724579Y408775D01*
X724602Y408769D01*
X724624Y408758D01*
X724769Y408721D01*
X724914Y408680D01*
X724943Y408678D01*
X724962Y408673D01*
X725009Y408673D01*
X725158Y408661D01*
X730022Y408661D01*
X731702Y407965D01*
X745027Y394640D01*
X745105Y394578D01*
X745178Y394508D01*
X745242Y394469D01*
X745300Y394423D01*
X745391Y394380D01*
X745477Y394329D01*
X745548Y394306D01*
X745615Y394274D01*
X745713Y394253D01*
X745809Y394223D01*
X745883Y394217D01*
X745956Y394201D01*
X746056Y394203D01*
X746156Y394195D01*
X746230Y394206D01*
X746304Y394207D01*
X746401Y394231D01*
X746501Y394246D01*
X746570Y394274D01*
X746642Y394292D01*
X746732Y394338D01*
X746825Y394375D01*
X746886Y394417D01*
X746952Y394452D01*
X747029Y394517D01*
X747111Y394574D01*
X747161Y394629D01*
X747217Y394677D01*
X747277Y394758D01*
X747344Y394833D01*
X747380Y394898D01*
X747425Y394958D01*
X747464Y395050D01*
X747513Y395138D01*
X747533Y395209D01*
X747563Y395278D01*
X747580Y395376D01*
X747608Y395473D01*
X747616Y395573D01*
X747624Y395621D01*
X747622Y395656D01*
X747627Y395717D01*
X747627Y451760D01*
X747765Y452093D01*
X747766Y452095D01*
X747767Y452097D01*
X747815Y452266D01*
X747861Y452428D01*
X747861Y452430D01*
X747862Y452432D01*
X747881Y452676D01*
X747881Y466942D01*
X749506Y470863D01*
X752507Y473864D01*
X756428Y475489D01*
X760672Y475489D01*
X764593Y473864D01*
X767594Y470863D01*
X769219Y466942D01*
X769219Y447458D01*
X767594Y443537D01*
X764593Y440536D01*
X760672Y438911D01*
X758296Y438911D01*
X758270Y438908D01*
X758244Y438910D01*
X758097Y438888D01*
X757950Y438871D01*
X757925Y438863D01*
X757899Y438859D01*
X757761Y438804D01*
X757622Y438754D01*
X757600Y438740D01*
X757575Y438730D01*
X757454Y438645D01*
X757329Y438565D01*
X757311Y438546D01*
X757289Y438531D01*
X757190Y438421D01*
X757087Y438314D01*
X757073Y438292D01*
X757056Y438272D01*
X756984Y438142D01*
X756908Y438015D01*
X756900Y437990D01*
X756887Y437967D01*
X756847Y437824D01*
X756802Y437683D01*
X756800Y437657D01*
X756792Y437632D01*
X756773Y437388D01*
X756773Y426757D01*
X756790Y426608D01*
X756802Y426458D01*
X756810Y426434D01*
X756813Y426410D01*
X756863Y426269D01*
X756909Y426126D01*
X756922Y426105D01*
X756930Y426082D01*
X757012Y425956D01*
X757089Y425827D01*
X757106Y425810D01*
X757119Y425790D01*
X757227Y425685D01*
X757332Y425577D01*
X757352Y425564D01*
X757370Y425547D01*
X757499Y425470D01*
X757625Y425389D01*
X757648Y425381D01*
X757669Y425369D01*
X757812Y425323D01*
X757954Y425272D01*
X757978Y425270D01*
X758001Y425262D01*
X758150Y425250D01*
X758300Y425233D01*
X758324Y425236D01*
X758348Y425234D01*
X758497Y425257D01*
X758646Y425274D01*
X758674Y425283D01*
X758693Y425286D01*
X758737Y425304D01*
X758879Y425349D01*
X762354Y426789D01*
X781646Y426789D01*
X785538Y425177D01*
X788517Y422198D01*
X790129Y418306D01*
X790129Y414094D01*
X788517Y410202D01*
X785538Y407223D01*
X781646Y405611D01*
X762354Y405611D01*
X758879Y407051D01*
X758734Y407092D01*
X758591Y407138D01*
X758567Y407140D01*
X758544Y407146D01*
X758393Y407154D01*
X758244Y407166D01*
X758220Y407162D01*
X758196Y407163D01*
X758048Y407136D01*
X757899Y407114D01*
X757877Y407105D01*
X757853Y407101D01*
X757715Y407041D01*
X757575Y406985D01*
X757555Y406971D01*
X757533Y406962D01*
X757412Y406872D01*
X757289Y406786D01*
X757273Y406768D01*
X757253Y406754D01*
X757156Y406639D01*
X757056Y406528D01*
X757044Y406506D01*
X757028Y406488D01*
X756960Y406354D01*
X756887Y406223D01*
X756881Y406199D01*
X756870Y406178D01*
X756833Y406032D01*
X756792Y405887D01*
X756790Y405858D01*
X756785Y405839D01*
X756785Y405792D01*
X756773Y405643D01*
X756773Y381065D01*
X756791Y380911D01*
X756804Y380756D01*
X756810Y380738D01*
X756813Y380719D01*
X756865Y380572D01*
X756914Y380425D01*
X756924Y380409D01*
X756930Y380391D01*
X757014Y380260D01*
X757095Y380127D01*
X757109Y380114D01*
X757119Y380098D01*
X757231Y379990D01*
X757340Y379879D01*
X757356Y379869D01*
X757370Y379856D01*
X757503Y379776D01*
X757634Y379693D01*
X757652Y379686D01*
X757669Y379677D01*
X757817Y379629D01*
X757964Y379578D01*
X757983Y379576D01*
X758001Y379570D01*
X758155Y379558D01*
X758310Y379542D01*
X758329Y379544D01*
X758348Y379543D01*
X758502Y379566D01*
X758656Y379585D01*
X758674Y379591D01*
X758693Y379594D01*
X758838Y379652D01*
X758983Y379705D01*
X759003Y379717D01*
X759017Y379723D01*
X759053Y379748D01*
X759160Y379813D01*
X760590Y380542D01*
X762099Y381033D01*
X763667Y381281D01*
X769501Y381281D01*
X769501Y372176D01*
X769504Y372150D01*
X769502Y372124D01*
X769524Y371977D01*
X769541Y371830D01*
X769549Y371805D01*
X769553Y371779D01*
X769608Y371642D01*
X769658Y371502D01*
X769672Y371480D01*
X769682Y371455D01*
X769767Y371334D01*
X769847Y371209D01*
X769860Y371197D01*
X769815Y371150D01*
X769801Y371127D01*
X769784Y371108D01*
X769712Y370978D01*
X769636Y370851D01*
X769628Y370826D01*
X769615Y370803D01*
X769575Y370660D01*
X769530Y370519D01*
X769527Y370493D01*
X769520Y370468D01*
X769501Y370224D01*
X769501Y361119D01*
X763667Y361119D01*
X762099Y361367D01*
X760590Y361858D01*
X759133Y362600D01*
X759057Y362643D01*
X758923Y362723D01*
X758905Y362729D01*
X758888Y362739D01*
X758739Y362782D01*
X758591Y362830D01*
X758572Y362831D01*
X758554Y362836D01*
X758399Y362845D01*
X758244Y362857D01*
X758225Y362855D01*
X758206Y362856D01*
X758053Y362829D01*
X757899Y362806D01*
X757881Y362799D01*
X757862Y362795D01*
X757719Y362734D01*
X757575Y362677D01*
X757560Y362666D01*
X757542Y362659D01*
X757416Y362566D01*
X757289Y362478D01*
X757276Y362464D01*
X757261Y362453D01*
X757160Y362335D01*
X757056Y362219D01*
X757046Y362203D01*
X757034Y362188D01*
X756962Y362051D01*
X756887Y361914D01*
X756882Y361896D01*
X756873Y361879D01*
X756835Y361729D01*
X756792Y361579D01*
X756791Y361556D01*
X756787Y361541D01*
X756786Y361498D01*
X756773Y361335D01*
X756773Y350980D01*
X756787Y350855D01*
X756794Y350728D01*
X756807Y350682D01*
X756813Y350634D01*
X756855Y350515D01*
X756890Y350394D01*
X756914Y350351D01*
X756930Y350306D01*
X756999Y350200D01*
X757060Y350089D01*
X757100Y350043D01*
X757119Y350013D01*
X757154Y349980D01*
X757219Y349903D01*
X826292Y280830D01*
X826391Y280752D01*
X826485Y280667D01*
X826527Y280644D01*
X826565Y280614D01*
X826679Y280560D01*
X826790Y280498D01*
X826836Y280485D01*
X826880Y280465D01*
X827003Y280438D01*
X827125Y280404D01*
X827186Y280399D01*
X827221Y280391D01*
X827269Y280392D01*
X827369Y280384D01*
X830017Y280384D01*
X833005Y279146D01*
X835291Y276860D01*
X836529Y273872D01*
X836529Y270638D01*
X835291Y267651D01*
X833005Y265364D01*
X830017Y264127D01*
X826783Y264127D01*
X823795Y265364D01*
X821509Y267651D01*
X820271Y270638D01*
X820271Y273286D01*
X820257Y273412D01*
X820250Y273538D01*
X820237Y273584D01*
X820231Y273632D01*
X820189Y273751D01*
X820154Y273873D01*
X820130Y273915D01*
X820114Y273961D01*
X820045Y274067D01*
X819984Y274177D01*
X819944Y274223D01*
X819925Y274253D01*
X819890Y274287D01*
X819825Y274363D01*
X765699Y328490D01*
X765659Y328521D01*
X765625Y328558D01*
X765523Y328629D01*
X765426Y328706D01*
X765380Y328728D01*
X765339Y328757D01*
X765223Y328802D01*
X765110Y328855D01*
X765061Y328866D01*
X765014Y328884D01*
X764891Y328903D01*
X764770Y328929D01*
X764720Y328928D01*
X764670Y328935D01*
X764545Y328925D01*
X764421Y328923D01*
X764373Y328911D01*
X764322Y328906D01*
X764204Y328868D01*
X764083Y328838D01*
X764039Y328815D01*
X763991Y328799D01*
X763884Y328735D01*
X763774Y328678D01*
X763735Y328645D01*
X763692Y328620D01*
X763603Y328533D01*
X763508Y328452D01*
X763478Y328412D01*
X763442Y328377D01*
X763375Y328272D01*
X763301Y328172D01*
X763281Y328126D01*
X763254Y328083D01*
X763212Y327966D01*
X763163Y327852D01*
X763154Y327803D01*
X763137Y327755D01*
X763123Y327631D01*
X763101Y327509D01*
X763104Y327459D01*
X763098Y327409D01*
X763113Y327285D01*
X763119Y327161D01*
X763133Y327113D01*
X763139Y327063D01*
X763214Y326830D01*
X763779Y325467D01*
X763779Y322544D01*
X763793Y322418D01*
X763800Y322292D01*
X763813Y322246D01*
X763819Y322198D01*
X763861Y322079D01*
X763896Y321957D01*
X763920Y321915D01*
X763936Y321870D01*
X764005Y321763D01*
X764066Y321653D01*
X764106Y321607D01*
X764125Y321577D01*
X764160Y321543D01*
X764225Y321467D01*
X772571Y313121D01*
X772670Y313042D01*
X772764Y312958D01*
X772806Y312934D01*
X772844Y312904D01*
X772958Y312850D01*
X773069Y312789D01*
X773115Y312776D01*
X773159Y312755D01*
X773282Y312729D01*
X773404Y312694D01*
X773465Y312689D01*
X773500Y312682D01*
X773548Y312683D01*
X773648Y312675D01*
X776158Y312675D01*
X777838Y311979D01*
X800654Y289163D01*
X801350Y287483D01*
X801350Y255442D01*
X800654Y253762D01*
X799153Y252261D01*
X796431Y249539D01*
X796384Y249479D01*
X796329Y249426D01*
X796276Y249343D01*
X796214Y249266D01*
X796182Y249197D01*
X796141Y249133D01*
X796108Y249040D01*
X796066Y248951D01*
X796049Y248877D01*
X796024Y248804D01*
X796013Y248706D01*
X795992Y248610D01*
X795993Y248534D01*
X795985Y248458D01*
X795996Y248360D01*
X795998Y248262D01*
X796017Y248188D01*
X796026Y248112D01*
X796072Y247970D01*
X796083Y247924D01*
X796092Y247907D01*
X796101Y247879D01*
X796841Y246092D01*
X796841Y242858D01*
X795604Y239870D01*
X793317Y237584D01*
X790329Y236346D01*
X787096Y236346D01*
X784108Y237584D01*
X781821Y239870D01*
X780584Y242858D01*
X780584Y246092D01*
X781821Y249080D01*
X784108Y251366D01*
X785905Y252110D01*
X785906Y252111D01*
X785908Y252112D01*
X786061Y252198D01*
X786209Y252280D01*
X786211Y252281D01*
X786213Y252282D01*
X786399Y252441D01*
X791758Y257800D01*
X791837Y257899D01*
X791921Y257993D01*
X791945Y258035D01*
X791975Y258073D01*
X792029Y258187D01*
X792090Y258298D01*
X792103Y258344D01*
X792124Y258388D01*
X792150Y258511D01*
X792185Y258633D01*
X792190Y258694D01*
X792197Y258729D01*
X792196Y258777D01*
X792204Y258877D01*
X792204Y284048D01*
X792190Y284174D01*
X792183Y284300D01*
X792170Y284346D01*
X792164Y284394D01*
X792122Y284513D01*
X792087Y284635D01*
X792063Y284677D01*
X792047Y284722D01*
X791978Y284829D01*
X791917Y284939D01*
X791877Y284985D01*
X791858Y285015D01*
X791823Y285049D01*
X791758Y285125D01*
X773800Y303083D01*
X773701Y303162D01*
X773607Y303246D01*
X773565Y303270D01*
X773527Y303300D01*
X773413Y303354D01*
X773302Y303415D01*
X773256Y303428D01*
X773212Y303449D01*
X773089Y303475D01*
X772967Y303510D01*
X772906Y303515D01*
X772871Y303522D01*
X772823Y303521D01*
X772723Y303529D01*
X770213Y303529D01*
X768533Y304225D01*
X757483Y315275D01*
X757384Y315354D01*
X757290Y315438D01*
X757248Y315462D01*
X757210Y315492D01*
X757096Y315546D01*
X756985Y315607D01*
X756939Y315620D01*
X756895Y315641D01*
X756772Y315667D01*
X756650Y315702D01*
X756589Y315707D01*
X756554Y315714D01*
X756506Y315713D01*
X756406Y315721D01*
X754033Y315721D01*
X752677Y316283D01*
X752532Y316324D01*
X752389Y316370D01*
X752365Y316372D01*
X752342Y316379D01*
X752191Y316386D01*
X752042Y316398D01*
X752018Y316394D01*
X751994Y316396D01*
X751846Y316369D01*
X751697Y316346D01*
X751675Y316337D01*
X751651Y316333D01*
X751513Y316273D01*
X751373Y316218D01*
X751353Y316204D01*
X751331Y316194D01*
X751210Y316104D01*
X751087Y316019D01*
X751071Y316001D01*
X751051Y315986D01*
X750954Y315871D01*
X750854Y315760D01*
X750842Y315739D01*
X750826Y315720D01*
X750758Y315587D01*
X750685Y315455D01*
X750679Y315432D01*
X750668Y315410D01*
X750631Y315264D01*
X750590Y315120D01*
X750588Y315090D01*
X750583Y315072D01*
X750583Y315025D01*
X750571Y314876D01*
X750571Y312577D01*
X750585Y312451D01*
X750592Y312325D01*
X750605Y312279D01*
X750611Y312231D01*
X750653Y312112D01*
X750688Y311990D01*
X750712Y311948D01*
X750728Y311903D01*
X750797Y311796D01*
X750858Y311686D01*
X750898Y311640D01*
X750917Y311610D01*
X750952Y311576D01*
X751017Y311500D01*
X776714Y285803D01*
X777410Y284122D01*
X777410Y267904D01*
X777425Y267778D01*
X777431Y267652D01*
X777445Y267606D01*
X777450Y267558D01*
X777493Y267439D01*
X777528Y267317D01*
X777551Y267275D01*
X777568Y267230D01*
X777636Y267123D01*
X777698Y267013D01*
X777737Y266967D01*
X777757Y266937D01*
X777791Y266903D01*
X777856Y266827D01*
X779729Y264955D01*
X780966Y261967D01*
X780966Y258733D01*
X779729Y255745D01*
X777442Y253459D01*
X774454Y252221D01*
X771221Y252221D01*
X769864Y252783D01*
X769720Y252824D01*
X769577Y252870D01*
X769553Y252872D01*
X769529Y252879D01*
X769379Y252886D01*
X769229Y252898D01*
X769205Y252894D01*
X769181Y252896D01*
X769033Y252869D01*
X768885Y252846D01*
X768862Y252837D01*
X768838Y252833D01*
X768700Y252773D01*
X768561Y252718D01*
X768541Y252704D01*
X768519Y252694D01*
X768398Y252604D01*
X768275Y252519D01*
X768258Y252501D01*
X768239Y252486D01*
X768142Y252371D01*
X768041Y252260D01*
X768029Y252239D01*
X768014Y252220D01*
X767945Y252087D01*
X767873Y251955D01*
X767866Y251932D01*
X767855Y251910D01*
X767819Y251764D01*
X767778Y251620D01*
X767776Y251590D01*
X767771Y251572D01*
X767770Y251525D01*
X767758Y251376D01*
X767758Y250441D01*
X767773Y250316D01*
X767779Y250190D01*
X767793Y250143D01*
X767798Y250095D01*
X767841Y249976D01*
X767876Y249855D01*
X767899Y249813D01*
X767916Y249767D01*
X767984Y249661D01*
X768046Y249551D01*
X768085Y249504D01*
X768105Y249474D01*
X768139Y249441D01*
X768204Y249364D01*
X768489Y249080D01*
X769727Y246092D01*
X769727Y242858D01*
X768489Y239870D01*
X766203Y237584D01*
X763215Y236346D01*
X759981Y236346D01*
X756993Y237584D01*
X754707Y239870D01*
X753469Y242858D01*
X753469Y246092D01*
X754707Y249080D01*
X755284Y249657D01*
X755316Y249697D01*
X755353Y249730D01*
X755424Y249833D01*
X755501Y249930D01*
X755523Y249976D01*
X755551Y250017D01*
X755597Y250133D01*
X755650Y250245D01*
X755661Y250295D01*
X755679Y250341D01*
X755697Y250464D01*
X755723Y250586D01*
X755722Y250636D01*
X755730Y250686D01*
X755719Y250810D01*
X755717Y250934D01*
X755705Y250983D01*
X755701Y251033D01*
X755663Y251152D01*
X755632Y251272D01*
X755609Y251317D01*
X755594Y251365D01*
X755530Y251472D01*
X755473Y251582D01*
X755440Y251621D01*
X755414Y251664D01*
X755327Y251753D01*
X755247Y251848D01*
X755206Y251878D01*
X755171Y251914D01*
X755067Y251981D01*
X754967Y252055D01*
X754920Y252075D01*
X754878Y252102D01*
X754761Y252144D01*
X754647Y252193D01*
X754597Y252202D01*
X754549Y252219D01*
X754426Y252232D01*
X754304Y252254D01*
X754253Y252252D01*
X754203Y252257D01*
X754080Y252243D01*
X753955Y252237D01*
X753907Y252223D01*
X753896Y252221D01*
X750583Y252221D01*
X749908Y252501D01*
X749860Y252515D01*
X749814Y252536D01*
X749693Y252562D01*
X749573Y252596D01*
X749523Y252599D01*
X749474Y252609D01*
X749349Y252607D01*
X749225Y252613D01*
X749176Y252604D01*
X749125Y252603D01*
X749005Y252573D01*
X748882Y252551D01*
X748836Y252531D01*
X748787Y252518D01*
X748677Y252462D01*
X748563Y252412D01*
X748522Y252382D01*
X748478Y252359D01*
X748383Y252278D01*
X748283Y252204D01*
X748250Y252166D01*
X748212Y252133D01*
X748138Y252033D01*
X748058Y251938D01*
X748035Y251893D01*
X748005Y251853D01*
X747956Y251739D01*
X747899Y251628D01*
X747887Y251579D01*
X747867Y251533D01*
X747845Y251410D01*
X747815Y251290D01*
X747814Y251239D01*
X747805Y251190D01*
X747812Y251065D01*
X747810Y250941D01*
X747821Y250892D01*
X747823Y250842D01*
X747858Y250722D01*
X747884Y250601D01*
X747906Y250555D01*
X747920Y250507D01*
X747980Y250398D01*
X748034Y250286D01*
X748065Y250246D01*
X748090Y250203D01*
X748248Y250016D01*
X749185Y249080D01*
X750423Y246092D01*
X750423Y242858D01*
X749185Y239870D01*
X746899Y237584D01*
X743911Y236346D01*
X740677Y236346D01*
X737689Y237584D01*
X735403Y239870D01*
X734165Y242858D01*
X734165Y246092D01*
X735403Y249080D01*
X737275Y250952D01*
X737354Y251051D01*
X737438Y251145D01*
X737462Y251187D01*
X737492Y251225D01*
X737546Y251339D01*
X737607Y251450D01*
X737620Y251496D01*
X737641Y251540D01*
X737667Y251663D01*
X737702Y251785D01*
X737707Y251846D01*
X737714Y251881D01*
X737713Y251929D01*
X737721Y252029D01*
X737721Y264487D01*
X737718Y264514D01*
X737720Y264540D01*
X737698Y264686D01*
X737681Y264834D01*
X737673Y264858D01*
X737669Y264884D01*
X737614Y265022D01*
X737564Y265162D01*
X737550Y265184D01*
X737540Y265208D01*
X737455Y265330D01*
X737375Y265455D01*
X737356Y265473D01*
X737341Y265494D01*
X737231Y265593D01*
X737124Y265697D01*
X737102Y265710D01*
X737082Y265728D01*
X736952Y265800D01*
X736825Y265876D01*
X736800Y265884D01*
X736777Y265896D01*
X736634Y265937D01*
X736493Y265982D01*
X736467Y265984D01*
X736442Y265991D01*
X736198Y266011D01*
X734200Y266011D01*
X732844Y266572D01*
X732699Y266614D01*
X732556Y266660D01*
X732532Y266661D01*
X732509Y266668D01*
X732358Y266675D01*
X732209Y266688D01*
X732185Y266684D01*
X732161Y266685D01*
X732013Y266658D01*
X731864Y266636D01*
X731842Y266627D01*
X731818Y266623D01*
X731680Y266563D01*
X731540Y266507D01*
X731520Y266493D01*
X731498Y266484D01*
X731377Y266394D01*
X731254Y266308D01*
X731238Y266290D01*
X731218Y266276D01*
X731121Y266161D01*
X731021Y266049D01*
X731009Y266028D01*
X730993Y266010D01*
X730925Y265876D01*
X730852Y265744D01*
X730846Y265721D01*
X730835Y265700D01*
X730798Y265554D01*
X730757Y265409D01*
X730755Y265380D01*
X730750Y265361D01*
X730750Y265314D01*
X730738Y265165D01*
X730738Y233985D01*
X730752Y233859D01*
X730759Y233733D01*
X730772Y233687D01*
X730778Y233639D01*
X730820Y233520D01*
X730855Y233398D01*
X730879Y233356D01*
X730895Y233311D01*
X730964Y233204D01*
X731025Y233094D01*
X731065Y233048D01*
X731084Y233018D01*
X731119Y232984D01*
X731184Y232908D01*
X733709Y230383D01*
X733808Y230304D01*
X733902Y230220D01*
X733944Y230196D01*
X733982Y230166D01*
X734096Y230112D01*
X734207Y230051D01*
X734253Y230038D01*
X734297Y230017D01*
X734420Y229991D01*
X734542Y229956D01*
X734603Y229951D01*
X734638Y229944D01*
X734686Y229945D01*
X734786Y229937D01*
X737434Y229937D01*
X740422Y228699D01*
X742708Y226413D01*
X743946Y223425D01*
X743946Y220191D01*
X742890Y217643D01*
X742883Y217618D01*
X742871Y217594D01*
X742835Y217451D01*
X742795Y217308D01*
X742793Y217282D01*
X742787Y217256D01*
X742785Y217108D01*
X742778Y216960D01*
X742782Y216934D01*
X742782Y216908D01*
X742814Y216763D01*
X742840Y216617D01*
X742851Y216593D01*
X742856Y216567D01*
X742920Y216433D01*
X742979Y216297D01*
X742995Y216276D01*
X743006Y216252D01*
X743098Y216137D01*
X743187Y216018D01*
X743207Y216001D01*
X743223Y215980D01*
X743340Y215888D01*
X743453Y215792D01*
X743476Y215780D01*
X743497Y215764D01*
X743715Y215653D01*
X744105Y215491D01*
X746391Y213205D01*
X747629Y210217D01*
X747629Y206983D01*
X746453Y204145D01*
X746446Y204120D01*
X746434Y204096D01*
X746398Y203952D01*
X746357Y203810D01*
X746356Y203783D01*
X746350Y203758D01*
X746348Y203610D01*
X746340Y203462D01*
X746345Y203436D01*
X746345Y203409D01*
X746376Y203265D01*
X746403Y203119D01*
X746413Y203095D01*
X746419Y203069D01*
X746483Y202935D01*
X746542Y202799D01*
X746558Y202778D01*
X746569Y202754D01*
X746661Y202638D01*
X746750Y202519D01*
X746770Y202502D01*
X746786Y202482D01*
X746902Y202390D01*
X747016Y202294D01*
X747039Y202282D01*
X747060Y202266D01*
X747278Y202155D01*
X747280Y202154D01*
X749566Y199867D01*
X750315Y198060D01*
X750388Y197929D01*
X750457Y197795D01*
X750472Y197777D01*
X750484Y197755D01*
X750585Y197644D01*
X750682Y197530D01*
X750702Y197515D01*
X750718Y197497D01*
X750842Y197412D01*
X750963Y197322D01*
X750985Y197313D01*
X751005Y197299D01*
X751145Y197244D01*
X751283Y197184D01*
X751307Y197180D01*
X751329Y197171D01*
X751478Y197149D01*
X751626Y197123D01*
X751650Y197124D01*
X751674Y197120D01*
X751824Y197133D01*
X751974Y197141D01*
X751997Y197147D01*
X752021Y197149D01*
X752164Y197196D01*
X752309Y197237D01*
X752330Y197249D01*
X752353Y197256D01*
X752482Y197334D01*
X752613Y197407D01*
X752635Y197426D01*
X752651Y197436D01*
X752685Y197469D01*
X752799Y197566D01*
X772107Y216874D01*
X773608Y218375D01*
X775288Y219071D01*
X877300Y219071D01*
X877326Y219074D01*
X877352Y219072D01*
X877499Y219094D01*
X877646Y219111D01*
X877671Y219119D01*
X877697Y219123D01*
X877835Y219178D01*
X877974Y219228D01*
X877996Y219242D01*
X878021Y219252D01*
X878142Y219337D01*
X878267Y219417D01*
X878285Y219436D01*
X878307Y219451D01*
X878406Y219561D01*
X878509Y219668D01*
X878523Y219690D01*
X878540Y219710D01*
X878612Y219840D01*
X878688Y219967D01*
X878696Y219992D01*
X878709Y220015D01*
X878749Y220158D01*
X878794Y220299D01*
X878796Y220325D01*
X878804Y220350D01*
X878823Y220594D01*
X878823Y222094D01*
X880061Y225082D01*
X882347Y227368D01*
X885335Y228606D01*
X888569Y228606D01*
X891557Y227368D01*
X893843Y225082D01*
X895081Y222094D01*
X895081Y218860D01*
X893971Y216182D01*
X893964Y216156D01*
X893952Y216133D01*
X893916Y215989D01*
X893876Y215847D01*
X893874Y215820D01*
X893868Y215795D01*
X893866Y215647D01*
X893859Y215498D01*
X893863Y215473D01*
X893863Y215446D01*
X893895Y215301D01*
X893921Y215156D01*
X893932Y215132D01*
X893937Y215106D01*
X894001Y214972D01*
X894060Y214836D01*
X894076Y214815D01*
X894087Y214791D01*
X894180Y214675D01*
X894268Y214556D01*
X894288Y214539D01*
X894304Y214519D01*
X894421Y214427D01*
X894534Y214331D01*
X894557Y214319D01*
X894578Y214303D01*
X894796Y214191D01*
X896134Y213637D01*
X898420Y211351D01*
X899658Y208363D01*
X899658Y205129D01*
X898420Y202141D01*
X896134Y199855D01*
X894515Y199184D01*
X894383Y199111D01*
X894250Y199042D01*
X894231Y199027D01*
X894210Y199015D01*
X894099Y198914D01*
X893984Y198817D01*
X893970Y198797D01*
X893952Y198781D01*
X893866Y198657D01*
X893777Y198536D01*
X893768Y198514D01*
X893754Y198494D01*
X893699Y198354D01*
X893639Y198216D01*
X893635Y198193D01*
X893626Y198170D01*
X893604Y198021D01*
X893578Y197873D01*
X893579Y197849D01*
X893575Y197825D01*
X893588Y197675D01*
X893596Y197525D01*
X893602Y197502D01*
X893604Y197478D01*
X893651Y197335D01*
X893692Y197190D01*
X893704Y197169D01*
X893711Y197146D01*
X893789Y197017D01*
X893862Y196886D01*
X893881Y196864D01*
X893891Y196848D01*
X893924Y196814D01*
X894021Y196700D01*
X894029Y196692D01*
X895266Y193704D01*
X895266Y190471D01*
X894029Y187483D01*
X891742Y185196D01*
X888754Y183959D01*
X885521Y183959D01*
X882533Y185196D01*
X880246Y187483D01*
X879009Y190471D01*
X879009Y193118D01*
X878994Y193244D01*
X878988Y193370D01*
X878974Y193417D01*
X878969Y193465D01*
X878926Y193584D01*
X878891Y193705D01*
X878868Y193747D01*
X878851Y193793D01*
X878783Y193899D01*
X878721Y194009D01*
X878682Y194056D01*
X878662Y194086D01*
X878628Y194119D01*
X878563Y194196D01*
X875471Y197287D01*
X875372Y197366D01*
X875278Y197450D01*
X875236Y197474D01*
X875198Y197504D01*
X875084Y197558D01*
X874973Y197619D01*
X874927Y197632D01*
X874883Y197653D01*
X874760Y197679D01*
X874638Y197714D01*
X874577Y197719D01*
X874542Y197726D01*
X874494Y197725D01*
X874394Y197733D01*
X783773Y197733D01*
X783648Y197719D01*
X783521Y197712D01*
X783475Y197699D01*
X783427Y197693D01*
X783308Y197651D01*
X783187Y197616D01*
X783144Y197592D01*
X783099Y197576D01*
X782993Y197507D01*
X782882Y197446D01*
X782836Y197406D01*
X782806Y197387D01*
X782773Y197352D01*
X782696Y197287D01*
X740282Y154873D01*
X738602Y154177D01*
X702604Y154177D01*
X702478Y154163D01*
X702352Y154156D01*
X702306Y154143D01*
X702258Y154137D01*
X702139Y154095D01*
X702017Y154060D01*
X701975Y154036D01*
X701930Y154020D01*
X701823Y153951D01*
X701713Y153890D01*
X701667Y153850D01*
X701637Y153831D01*
X701603Y153796D01*
X701527Y153731D01*
X699655Y151859D01*
X696667Y150621D01*
X693433Y150621D01*
G37*
%LPD*%
G36*
X487826Y626621D02*
X487826Y626621D01*
X487844Y626619D01*
X488026Y626640D01*
X488209Y626659D01*
X488226Y626664D01*
X488243Y626666D01*
X488418Y626723D01*
X488594Y626777D01*
X488609Y626785D01*
X488626Y626791D01*
X488786Y626881D01*
X488948Y626969D01*
X488961Y626980D01*
X488977Y626989D01*
X489116Y627109D01*
X489257Y627226D01*
X489268Y627240D01*
X489282Y627252D01*
X489394Y627397D01*
X489509Y627540D01*
X489517Y627556D01*
X489528Y627570D01*
X489610Y627735D01*
X489695Y627897D01*
X489700Y627914D01*
X489708Y627931D01*
X489755Y628109D01*
X489806Y628284D01*
X489808Y628302D01*
X489812Y628319D01*
X489839Y628650D01*
X489839Y856808D01*
X489837Y856826D01*
X489839Y856844D01*
X489818Y857026D01*
X489799Y857209D01*
X489794Y857226D01*
X489792Y857243D01*
X489735Y857418D01*
X489681Y857594D01*
X489673Y857609D01*
X489667Y857626D01*
X489577Y857786D01*
X489489Y857948D01*
X489478Y857961D01*
X489469Y857977D01*
X489349Y858116D01*
X489232Y858257D01*
X489218Y858268D01*
X489206Y858282D01*
X489061Y858394D01*
X488918Y858509D01*
X488902Y858517D01*
X488888Y858528D01*
X488723Y858610D01*
X488561Y858695D01*
X488544Y858700D01*
X488528Y858708D01*
X488349Y858755D01*
X488174Y858806D01*
X488156Y858808D01*
X488139Y858812D01*
X487808Y858839D01*
X342900Y858839D01*
X342882Y858837D01*
X342864Y858839D01*
X342682Y858818D01*
X342499Y858799D01*
X342482Y858794D01*
X342465Y858792D01*
X342290Y858735D01*
X342114Y858681D01*
X342099Y858673D01*
X342082Y858667D01*
X341922Y858577D01*
X341760Y858489D01*
X341747Y858478D01*
X341731Y858469D01*
X341592Y858349D01*
X341451Y858232D01*
X341440Y858218D01*
X341427Y858206D01*
X341314Y858061D01*
X341199Y857918D01*
X341191Y857902D01*
X341180Y857888D01*
X341098Y857723D01*
X341013Y857561D01*
X341008Y857544D01*
X341000Y857528D01*
X340953Y857349D01*
X340902Y857174D01*
X340900Y857156D01*
X340896Y857139D01*
X340869Y856808D01*
X340869Y736600D01*
X340871Y736573D01*
X340869Y736547D01*
X340891Y736373D01*
X340909Y736199D01*
X340917Y736174D01*
X340920Y736147D01*
X340976Y735982D01*
X341027Y735814D01*
X341040Y735791D01*
X341048Y735766D01*
X341135Y735614D01*
X341219Y735460D01*
X341236Y735440D01*
X341249Y735417D01*
X341464Y735164D01*
X449414Y627214D01*
X449434Y627197D01*
X449452Y627177D01*
X449590Y627069D01*
X449725Y626959D01*
X449749Y626946D01*
X449770Y626930D01*
X449927Y626852D01*
X450081Y626770D01*
X450106Y626762D01*
X450131Y626750D01*
X450300Y626705D01*
X450467Y626655D01*
X450493Y626653D01*
X450519Y626646D01*
X450850Y626619D01*
X487808Y626619D01*
X487826Y626621D01*
G37*
G36*
X225426Y649376D02*
X225426Y649376D01*
X225629Y649390D01*
X230004Y649992D01*
X230015Y649994D01*
X230027Y649995D01*
X230228Y650040D01*
X234459Y651301D01*
X234470Y651306D01*
X234482Y651308D01*
X234673Y651383D01*
X236014Y652019D01*
X241300Y652019D01*
X241318Y652021D01*
X241336Y652019D01*
X241518Y652040D01*
X241701Y652059D01*
X241718Y652064D01*
X241735Y652066D01*
X241910Y652123D01*
X242086Y652177D01*
X242101Y652185D01*
X242118Y652191D01*
X242278Y652281D01*
X242440Y652369D01*
X242453Y652380D01*
X242469Y652389D01*
X242608Y652509D01*
X242749Y652626D01*
X242760Y652640D01*
X242774Y652652D01*
X242886Y652797D01*
X243001Y652940D01*
X243009Y652956D01*
X243020Y652970D01*
X243102Y653135D01*
X243187Y653297D01*
X243192Y653314D01*
X243200Y653331D01*
X243247Y653509D01*
X243298Y653684D01*
X243300Y653702D01*
X243304Y653719D01*
X243331Y654050D01*
X243331Y656598D01*
X245931Y659013D01*
X245939Y659023D01*
X245949Y659030D01*
X246087Y659182D01*
X248826Y662645D01*
X248854Y662690D01*
X248888Y662729D01*
X248944Y662837D01*
X249008Y662939D01*
X249024Y662989D01*
X249049Y663036D01*
X249079Y663153D01*
X249117Y663267D01*
X249122Y663319D01*
X249135Y663370D01*
X249149Y663575D01*
X249149Y695325D01*
X249142Y695390D01*
X249144Y695455D01*
X249122Y695561D01*
X249109Y695668D01*
X249087Y695730D01*
X249074Y695794D01*
X249029Y695892D01*
X248992Y695994D01*
X248956Y696048D01*
X248929Y696107D01*
X248810Y696275D01*
X246022Y699681D01*
X246017Y699686D01*
X246013Y699692D01*
X245871Y699840D01*
X243331Y702153D01*
X243331Y711200D01*
X243329Y711227D01*
X243331Y711253D01*
X243309Y711427D01*
X243291Y711601D01*
X243284Y711626D01*
X243280Y711653D01*
X243225Y711818D01*
X243173Y711986D01*
X243160Y712009D01*
X243152Y712034D01*
X243065Y712186D01*
X242981Y712340D01*
X242964Y712360D01*
X242951Y712383D01*
X242736Y712636D01*
X167131Y788241D01*
X167131Y856808D01*
X167129Y856826D01*
X167131Y856844D01*
X167110Y857026D01*
X167091Y857209D01*
X167086Y857226D01*
X167084Y857243D01*
X167027Y857418D01*
X166973Y857594D01*
X166965Y857609D01*
X166959Y857626D01*
X166869Y857786D01*
X166781Y857948D01*
X166770Y857961D01*
X166761Y857977D01*
X166641Y858116D01*
X166524Y858257D01*
X166510Y858268D01*
X166498Y858282D01*
X166353Y858394D01*
X166210Y858509D01*
X166194Y858517D01*
X166180Y858528D01*
X166015Y858610D01*
X165853Y858695D01*
X165836Y858700D01*
X165820Y858708D01*
X165641Y858755D01*
X165466Y858806D01*
X165448Y858808D01*
X165431Y858812D01*
X165100Y858839D01*
X88900Y858839D01*
X88882Y858837D01*
X88864Y858839D01*
X88682Y858818D01*
X88499Y858799D01*
X88482Y858794D01*
X88465Y858792D01*
X88290Y858735D01*
X88114Y858681D01*
X88099Y858673D01*
X88082Y858667D01*
X87922Y858577D01*
X87760Y858489D01*
X87747Y858478D01*
X87731Y858469D01*
X87592Y858349D01*
X87451Y858232D01*
X87440Y858218D01*
X87427Y858206D01*
X87314Y858061D01*
X87199Y857918D01*
X87191Y857902D01*
X87180Y857888D01*
X87098Y857723D01*
X87013Y857561D01*
X87008Y857544D01*
X87000Y857528D01*
X86953Y857349D01*
X86902Y857174D01*
X86900Y857156D01*
X86896Y857139D01*
X86869Y856808D01*
X86869Y717550D01*
X86871Y717523D01*
X86869Y717497D01*
X86891Y717323D01*
X86909Y717149D01*
X86917Y717124D01*
X86920Y717097D01*
X86976Y716932D01*
X87027Y716764D01*
X87040Y716741D01*
X87048Y716716D01*
X87135Y716564D01*
X87219Y716410D01*
X87236Y716390D01*
X87249Y716367D01*
X87464Y716114D01*
X150964Y652614D01*
X150984Y652597D01*
X151002Y652577D01*
X151140Y652469D01*
X151275Y652359D01*
X151299Y652346D01*
X151320Y652330D01*
X151477Y652252D01*
X151631Y652170D01*
X151656Y652162D01*
X151681Y652150D01*
X151850Y652105D01*
X152017Y652055D01*
X152043Y652053D01*
X152069Y652046D01*
X152400Y652019D01*
X171944Y652019D01*
X175180Y650749D01*
X175189Y650746D01*
X175197Y650742D01*
X175394Y650683D01*
X179558Y649733D01*
X179567Y649731D01*
X179576Y649728D01*
X179779Y649699D01*
X184038Y649380D01*
X184070Y649381D01*
X184150Y649376D01*
X225425Y649376D01*
X225426Y649376D01*
G37*
%LPC*%
G36*
X559693Y180411D02*
X559693Y180411D01*
X555985Y181947D01*
X553147Y184785D01*
X551611Y188493D01*
X551611Y192054D01*
X551597Y192180D01*
X551590Y192306D01*
X551577Y192352D01*
X551571Y192400D01*
X551529Y192519D01*
X551494Y192641D01*
X551470Y192683D01*
X551454Y192728D01*
X551385Y192835D01*
X551324Y192945D01*
X551284Y192991D01*
X551265Y193021D01*
X551230Y193055D01*
X551165Y193131D01*
X546048Y198248D01*
X544262Y200034D01*
X543411Y202088D01*
X543411Y331312D01*
X544262Y333366D01*
X551165Y340269D01*
X551244Y340368D01*
X551328Y340462D01*
X551352Y340504D01*
X551382Y340542D01*
X551436Y340656D01*
X551497Y340767D01*
X551510Y340813D01*
X551531Y340857D01*
X551557Y340980D01*
X551592Y341102D01*
X551597Y341163D01*
X551604Y341198D01*
X551603Y341246D01*
X551611Y341346D01*
X551611Y344907D01*
X553147Y348615D01*
X555985Y351453D01*
X559693Y352989D01*
X563707Y352989D01*
X567415Y351453D01*
X570253Y348615D01*
X571789Y344907D01*
X571789Y340893D01*
X570900Y338748D01*
X570886Y338700D01*
X570865Y338654D01*
X570839Y338533D01*
X570805Y338413D01*
X570802Y338363D01*
X570792Y338314D01*
X570794Y338190D01*
X570788Y338065D01*
X570797Y338016D01*
X570798Y337965D01*
X570828Y337845D01*
X570850Y337722D01*
X570870Y337676D01*
X570883Y337627D01*
X570940Y337517D01*
X570989Y337403D01*
X571019Y337362D01*
X571042Y337317D01*
X571123Y337223D01*
X571197Y337123D01*
X571235Y337090D01*
X571268Y337052D01*
X571368Y336978D01*
X571463Y336898D01*
X571508Y336875D01*
X571548Y336845D01*
X571663Y336796D01*
X571773Y336739D01*
X571822Y336727D01*
X571868Y336707D01*
X571991Y336685D01*
X572111Y336655D01*
X572162Y336654D01*
X572211Y336645D01*
X572336Y336652D01*
X572460Y336650D01*
X572509Y336661D01*
X572559Y336663D01*
X572679Y336698D01*
X572800Y336724D01*
X572846Y336746D01*
X572894Y336760D01*
X573003Y336820D01*
X573115Y336874D01*
X573155Y336905D01*
X573198Y336930D01*
X573385Y337088D01*
X576565Y340269D01*
X576644Y340368D01*
X576728Y340462D01*
X576752Y340504D01*
X576782Y340542D01*
X576836Y340656D01*
X576897Y340767D01*
X576910Y340813D01*
X576931Y340857D01*
X576957Y340980D01*
X576992Y341102D01*
X576997Y341163D01*
X577004Y341198D01*
X577003Y341246D01*
X577011Y341346D01*
X577011Y344907D01*
X578547Y348615D01*
X581385Y351453D01*
X585093Y352989D01*
X589107Y352989D01*
X592815Y351453D01*
X595653Y348615D01*
X597189Y344907D01*
X597189Y340893D01*
X596300Y338748D01*
X596286Y338700D01*
X596265Y338654D01*
X596239Y338533D01*
X596205Y338413D01*
X596202Y338363D01*
X596192Y338314D01*
X596194Y338190D01*
X596188Y338065D01*
X596197Y338016D01*
X596198Y337965D01*
X596228Y337845D01*
X596250Y337722D01*
X596270Y337676D01*
X596283Y337627D01*
X596340Y337517D01*
X596389Y337403D01*
X596419Y337362D01*
X596442Y337317D01*
X596523Y337223D01*
X596597Y337123D01*
X596635Y337090D01*
X596668Y337052D01*
X596768Y336978D01*
X596863Y336898D01*
X596908Y336875D01*
X596948Y336845D01*
X597063Y336796D01*
X597173Y336739D01*
X597222Y336727D01*
X597268Y336707D01*
X597391Y336685D01*
X597511Y336655D01*
X597562Y336654D01*
X597611Y336645D01*
X597736Y336652D01*
X597860Y336650D01*
X597909Y336661D01*
X597959Y336663D01*
X598079Y336698D01*
X598200Y336724D01*
X598246Y336746D01*
X598294Y336760D01*
X598403Y336820D01*
X598515Y336874D01*
X598555Y336905D01*
X598598Y336930D01*
X598785Y337088D01*
X601965Y340269D01*
X602044Y340368D01*
X602128Y340462D01*
X602152Y340504D01*
X602182Y340542D01*
X602236Y340656D01*
X602297Y340767D01*
X602310Y340813D01*
X602331Y340857D01*
X602357Y340980D01*
X602392Y341102D01*
X602397Y341163D01*
X602404Y341198D01*
X602403Y341246D01*
X602411Y341346D01*
X602411Y344907D01*
X603947Y348615D01*
X606785Y351453D01*
X610493Y352989D01*
X614507Y352989D01*
X618215Y351453D01*
X621053Y348615D01*
X622589Y344907D01*
X622589Y340893D01*
X621700Y338748D01*
X621686Y338700D01*
X621665Y338654D01*
X621639Y338533D01*
X621605Y338413D01*
X621602Y338363D01*
X621592Y338314D01*
X621594Y338190D01*
X621588Y338065D01*
X621597Y338016D01*
X621598Y337965D01*
X621628Y337845D01*
X621650Y337722D01*
X621670Y337676D01*
X621683Y337627D01*
X621740Y337517D01*
X621789Y337403D01*
X621819Y337362D01*
X621842Y337317D01*
X621923Y337223D01*
X621997Y337123D01*
X622035Y337090D01*
X622068Y337052D01*
X622168Y336978D01*
X622263Y336898D01*
X622308Y336875D01*
X622348Y336845D01*
X622463Y336796D01*
X622573Y336739D01*
X622622Y336727D01*
X622668Y336707D01*
X622791Y336685D01*
X622911Y336655D01*
X622962Y336654D01*
X623011Y336645D01*
X623136Y336652D01*
X623260Y336650D01*
X623309Y336661D01*
X623359Y336663D01*
X623479Y336698D01*
X623600Y336724D01*
X623646Y336746D01*
X623694Y336760D01*
X623803Y336820D01*
X623915Y336874D01*
X623955Y336905D01*
X623998Y336930D01*
X624185Y337088D01*
X627365Y340269D01*
X627444Y340368D01*
X627528Y340462D01*
X627552Y340504D01*
X627582Y340542D01*
X627636Y340656D01*
X627697Y340767D01*
X627710Y340813D01*
X627731Y340857D01*
X627757Y340980D01*
X627792Y341102D01*
X627797Y341163D01*
X627804Y341198D01*
X627803Y341246D01*
X627811Y341346D01*
X627811Y344907D01*
X629347Y348615D01*
X632185Y351453D01*
X635893Y352989D01*
X639907Y352989D01*
X643615Y351453D01*
X646453Y348615D01*
X647989Y344907D01*
X647989Y340893D01*
X646453Y337185D01*
X643615Y334347D01*
X639907Y332811D01*
X636346Y332811D01*
X636220Y332797D01*
X636094Y332790D01*
X636048Y332777D01*
X636000Y332771D01*
X635881Y332729D01*
X635759Y332694D01*
X635717Y332670D01*
X635672Y332654D01*
X635565Y332585D01*
X635455Y332524D01*
X635409Y332484D01*
X635379Y332465D01*
X635345Y332430D01*
X635269Y332365D01*
X631235Y328331D01*
X631156Y328232D01*
X631072Y328138D01*
X631048Y328096D01*
X631018Y328058D01*
X630964Y327944D01*
X630903Y327833D01*
X630890Y327787D01*
X630869Y327743D01*
X630843Y327620D01*
X630808Y327498D01*
X630803Y327437D01*
X630796Y327402D01*
X630797Y327354D01*
X630789Y327254D01*
X630789Y302354D01*
X630806Y302205D01*
X630818Y302055D01*
X630826Y302032D01*
X630829Y302008D01*
X630879Y301867D01*
X630925Y301723D01*
X630938Y301703D01*
X630946Y301680D01*
X631028Y301553D01*
X631105Y301425D01*
X631122Y301407D01*
X631135Y301387D01*
X631244Y301282D01*
X631348Y301175D01*
X631368Y301162D01*
X631386Y301145D01*
X631515Y301068D01*
X631641Y300986D01*
X631664Y300978D01*
X631685Y300966D01*
X631828Y300920D01*
X631970Y300870D01*
X631994Y300867D01*
X632017Y300860D01*
X632166Y300848D01*
X632316Y300831D01*
X632340Y300834D01*
X632364Y300832D01*
X632513Y300854D01*
X632662Y300872D01*
X632690Y300881D01*
X632709Y300883D01*
X632753Y300901D01*
X632895Y300947D01*
X635893Y302189D01*
X639907Y302189D01*
X643615Y300653D01*
X646453Y297815D01*
X647989Y294107D01*
X647989Y290093D01*
X646453Y286385D01*
X643615Y283547D01*
X639907Y282011D01*
X635893Y282011D01*
X632895Y283253D01*
X632750Y283295D01*
X632607Y283340D01*
X632583Y283342D01*
X632560Y283349D01*
X632409Y283356D01*
X632260Y283368D01*
X632236Y283365D01*
X632212Y283366D01*
X632064Y283339D01*
X631915Y283317D01*
X631893Y283308D01*
X631869Y283303D01*
X631731Y283243D01*
X631591Y283188D01*
X631571Y283174D01*
X631549Y283164D01*
X631428Y283075D01*
X631305Y282989D01*
X631289Y282971D01*
X631269Y282957D01*
X631172Y282842D01*
X631072Y282730D01*
X631060Y282709D01*
X631044Y282691D01*
X630976Y282557D01*
X630903Y282425D01*
X630897Y282402D01*
X630886Y282380D01*
X630849Y282235D01*
X630808Y282090D01*
X630806Y282061D01*
X630801Y282042D01*
X630801Y281995D01*
X630789Y281846D01*
X630789Y276954D01*
X630806Y276805D01*
X630818Y276655D01*
X630826Y276632D01*
X630829Y276608D01*
X630879Y276467D01*
X630925Y276323D01*
X630938Y276303D01*
X630946Y276280D01*
X631028Y276153D01*
X631105Y276025D01*
X631122Y276007D01*
X631135Y275987D01*
X631244Y275882D01*
X631348Y275775D01*
X631368Y275762D01*
X631386Y275745D01*
X631515Y275668D01*
X631641Y275586D01*
X631664Y275578D01*
X631685Y275566D01*
X631828Y275520D01*
X631970Y275470D01*
X631994Y275467D01*
X632017Y275460D01*
X632166Y275448D01*
X632316Y275431D01*
X632340Y275434D01*
X632364Y275432D01*
X632513Y275454D01*
X632662Y275472D01*
X632690Y275481D01*
X632709Y275483D01*
X632753Y275501D01*
X632895Y275547D01*
X635893Y276789D01*
X639907Y276789D01*
X643615Y275253D01*
X646453Y272415D01*
X647989Y268707D01*
X647989Y264693D01*
X646453Y260985D01*
X643615Y258147D01*
X639907Y256611D01*
X635893Y256611D01*
X632895Y257853D01*
X632750Y257895D01*
X632607Y257940D01*
X632583Y257942D01*
X632560Y257949D01*
X632409Y257956D01*
X632260Y257968D01*
X632236Y257965D01*
X632212Y257966D01*
X632064Y257939D01*
X631915Y257917D01*
X631893Y257908D01*
X631869Y257903D01*
X631731Y257843D01*
X631591Y257788D01*
X631571Y257774D01*
X631549Y257764D01*
X631428Y257675D01*
X631305Y257589D01*
X631289Y257571D01*
X631269Y257557D01*
X631172Y257442D01*
X631072Y257330D01*
X631060Y257309D01*
X631044Y257291D01*
X630976Y257157D01*
X630903Y257025D01*
X630897Y257002D01*
X630886Y256980D01*
X630849Y256835D01*
X630808Y256690D01*
X630806Y256661D01*
X630801Y256642D01*
X630801Y256595D01*
X630789Y256446D01*
X630789Y226154D01*
X630806Y226005D01*
X630818Y225855D01*
X630826Y225832D01*
X630829Y225808D01*
X630879Y225667D01*
X630925Y225523D01*
X630938Y225503D01*
X630946Y225480D01*
X631028Y225353D01*
X631105Y225225D01*
X631122Y225207D01*
X631135Y225187D01*
X631244Y225082D01*
X631348Y224975D01*
X631368Y224962D01*
X631386Y224945D01*
X631515Y224868D01*
X631641Y224786D01*
X631664Y224778D01*
X631685Y224766D01*
X631828Y224720D01*
X631970Y224670D01*
X631994Y224667D01*
X632017Y224660D01*
X632166Y224648D01*
X632316Y224631D01*
X632340Y224634D01*
X632364Y224632D01*
X632513Y224654D01*
X632662Y224672D01*
X632690Y224681D01*
X632709Y224683D01*
X632753Y224701D01*
X632895Y224747D01*
X635893Y225989D01*
X639907Y225989D01*
X643615Y224453D01*
X646453Y221615D01*
X647989Y217907D01*
X647989Y213893D01*
X646453Y210185D01*
X643615Y207347D01*
X639907Y205811D01*
X635893Y205811D01*
X633748Y206700D01*
X633700Y206714D01*
X633654Y206735D01*
X633533Y206761D01*
X633413Y206795D01*
X633363Y206798D01*
X633314Y206808D01*
X633190Y206806D01*
X633065Y206812D01*
X633016Y206803D01*
X632965Y206802D01*
X632845Y206772D01*
X632722Y206750D01*
X632676Y206730D01*
X632627Y206717D01*
X632517Y206661D01*
X632403Y206611D01*
X632362Y206581D01*
X632318Y206558D01*
X632223Y206477D01*
X632123Y206403D01*
X632090Y206365D01*
X632052Y206332D01*
X631978Y206232D01*
X631898Y206137D01*
X631875Y206092D01*
X631845Y206052D01*
X631796Y205937D01*
X631739Y205827D01*
X631727Y205778D01*
X631707Y205732D01*
X631685Y205609D01*
X631655Y205489D01*
X631654Y205438D01*
X631645Y205389D01*
X631652Y205264D01*
X631650Y205140D01*
X631661Y205091D01*
X631663Y205041D01*
X631698Y204921D01*
X631724Y204800D01*
X631746Y204754D01*
X631760Y204706D01*
X631820Y204597D01*
X631874Y204485D01*
X631905Y204445D01*
X631930Y204402D01*
X632088Y204215D01*
X632091Y204213D01*
X632091Y204212D01*
X635269Y201035D01*
X635368Y200956D01*
X635462Y200872D01*
X635504Y200848D01*
X635542Y200818D01*
X635656Y200764D01*
X635767Y200703D01*
X635813Y200690D01*
X635857Y200669D01*
X635980Y200643D01*
X636102Y200608D01*
X636163Y200603D01*
X636198Y200596D01*
X636246Y200597D01*
X636346Y200589D01*
X639907Y200589D01*
X643615Y199053D01*
X646453Y196215D01*
X647989Y192507D01*
X647989Y188493D01*
X646453Y184785D01*
X643615Y181947D01*
X639907Y180411D01*
X635893Y180411D01*
X632185Y181947D01*
X629347Y184785D01*
X627811Y188493D01*
X627811Y192054D01*
X627797Y192180D01*
X627790Y192306D01*
X627777Y192352D01*
X627771Y192400D01*
X627729Y192519D01*
X627694Y192641D01*
X627670Y192683D01*
X627654Y192728D01*
X627585Y192835D01*
X627524Y192945D01*
X627484Y192991D01*
X627465Y193021D01*
X627430Y193055D01*
X627365Y193131D01*
X624185Y196312D01*
X624145Y196343D01*
X624111Y196380D01*
X624009Y196451D01*
X623912Y196528D01*
X623866Y196550D01*
X623825Y196578D01*
X623709Y196624D01*
X623597Y196677D01*
X623547Y196688D01*
X623501Y196706D01*
X623377Y196724D01*
X623256Y196751D01*
X623206Y196750D01*
X623156Y196757D01*
X623031Y196747D01*
X622907Y196745D01*
X622859Y196732D01*
X622808Y196728D01*
X622690Y196690D01*
X622569Y196660D01*
X622525Y196637D01*
X622477Y196621D01*
X622370Y196557D01*
X622260Y196500D01*
X622221Y196467D01*
X622178Y196441D01*
X622089Y196355D01*
X621994Y196274D01*
X621964Y196234D01*
X621928Y196199D01*
X621861Y196094D01*
X621787Y195994D01*
X621767Y195948D01*
X621740Y195905D01*
X621698Y195788D01*
X621649Y195674D01*
X621640Y195624D01*
X621623Y195577D01*
X621609Y195453D01*
X621587Y195331D01*
X621590Y195281D01*
X621584Y195230D01*
X621599Y195107D01*
X621605Y194983D01*
X621619Y194934D01*
X621625Y194884D01*
X621700Y194652D01*
X622589Y192507D01*
X622589Y188493D01*
X621053Y184785D01*
X618215Y181947D01*
X614507Y180411D01*
X610493Y180411D01*
X606785Y181947D01*
X603947Y184785D01*
X602411Y188493D01*
X602411Y192054D01*
X602397Y192180D01*
X602390Y192306D01*
X602377Y192352D01*
X602371Y192400D01*
X602329Y192519D01*
X602294Y192641D01*
X602270Y192683D01*
X602254Y192728D01*
X602185Y192835D01*
X602124Y192945D01*
X602084Y192991D01*
X602065Y193021D01*
X602030Y193055D01*
X601965Y193131D01*
X598785Y196312D01*
X598745Y196343D01*
X598711Y196380D01*
X598609Y196451D01*
X598512Y196528D01*
X598466Y196550D01*
X598425Y196578D01*
X598309Y196624D01*
X598197Y196677D01*
X598147Y196688D01*
X598101Y196706D01*
X597977Y196724D01*
X597856Y196751D01*
X597806Y196750D01*
X597756Y196757D01*
X597631Y196747D01*
X597507Y196745D01*
X597459Y196732D01*
X597408Y196728D01*
X597290Y196690D01*
X597169Y196660D01*
X597125Y196637D01*
X597077Y196621D01*
X596970Y196557D01*
X596860Y196500D01*
X596821Y196467D01*
X596778Y196441D01*
X596689Y196355D01*
X596594Y196274D01*
X596564Y196234D01*
X596528Y196199D01*
X596461Y196094D01*
X596387Y195994D01*
X596367Y195948D01*
X596340Y195905D01*
X596298Y195788D01*
X596249Y195674D01*
X596240Y195624D01*
X596223Y195577D01*
X596209Y195453D01*
X596187Y195331D01*
X596190Y195281D01*
X596184Y195230D01*
X596199Y195107D01*
X596205Y194983D01*
X596219Y194934D01*
X596225Y194884D01*
X596300Y194652D01*
X597189Y192507D01*
X597189Y188493D01*
X595653Y184785D01*
X592815Y181947D01*
X589107Y180411D01*
X585093Y180411D01*
X581385Y181947D01*
X578547Y184785D01*
X577011Y188493D01*
X577011Y192054D01*
X576997Y192180D01*
X576990Y192306D01*
X576977Y192352D01*
X576971Y192400D01*
X576929Y192519D01*
X576894Y192641D01*
X576870Y192683D01*
X576854Y192728D01*
X576785Y192835D01*
X576724Y192945D01*
X576684Y192991D01*
X576665Y193021D01*
X576630Y193055D01*
X576565Y193131D01*
X573385Y196312D01*
X573345Y196343D01*
X573311Y196380D01*
X573209Y196451D01*
X573112Y196528D01*
X573066Y196550D01*
X573025Y196578D01*
X572909Y196624D01*
X572797Y196677D01*
X572747Y196688D01*
X572701Y196706D01*
X572577Y196724D01*
X572456Y196751D01*
X572406Y196750D01*
X572356Y196757D01*
X572231Y196747D01*
X572107Y196745D01*
X572059Y196732D01*
X572008Y196728D01*
X571890Y196690D01*
X571769Y196660D01*
X571725Y196637D01*
X571677Y196621D01*
X571570Y196557D01*
X571460Y196500D01*
X571421Y196467D01*
X571378Y196441D01*
X571289Y196355D01*
X571194Y196274D01*
X571164Y196234D01*
X571128Y196199D01*
X571061Y196094D01*
X570987Y195994D01*
X570967Y195948D01*
X570940Y195905D01*
X570898Y195788D01*
X570849Y195674D01*
X570840Y195624D01*
X570823Y195577D01*
X570809Y195453D01*
X570787Y195331D01*
X570790Y195281D01*
X570784Y195230D01*
X570799Y195107D01*
X570805Y194983D01*
X570819Y194934D01*
X570825Y194884D01*
X570900Y194652D01*
X571789Y192507D01*
X571789Y188493D01*
X570253Y184785D01*
X567415Y181947D01*
X563707Y180411D01*
X559693Y180411D01*
G37*
%LPD*%
G36*
X317518Y734571D02*
X317518Y734571D01*
X317536Y734569D01*
X317718Y734590D01*
X317901Y734609D01*
X317918Y734614D01*
X317935Y734616D01*
X318110Y734673D01*
X318286Y734727D01*
X318301Y734735D01*
X318318Y734741D01*
X318478Y734831D01*
X318640Y734919D01*
X318653Y734930D01*
X318669Y734939D01*
X318808Y735059D01*
X318949Y735176D01*
X318960Y735190D01*
X318974Y735202D01*
X319086Y735347D01*
X319201Y735490D01*
X319209Y735506D01*
X319220Y735520D01*
X319302Y735685D01*
X319387Y735847D01*
X319392Y735864D01*
X319400Y735881D01*
X319447Y736059D01*
X319498Y736234D01*
X319500Y736252D01*
X319504Y736269D01*
X319531Y736600D01*
X319531Y856808D01*
X319529Y856826D01*
X319531Y856844D01*
X319510Y857026D01*
X319491Y857209D01*
X319486Y857226D01*
X319484Y857243D01*
X319427Y857418D01*
X319373Y857594D01*
X319365Y857609D01*
X319359Y857626D01*
X319269Y857786D01*
X319181Y857948D01*
X319170Y857961D01*
X319161Y857977D01*
X319041Y858116D01*
X318924Y858257D01*
X318910Y858268D01*
X318898Y858282D01*
X318753Y858394D01*
X318610Y858509D01*
X318594Y858517D01*
X318580Y858528D01*
X318415Y858610D01*
X318253Y858695D01*
X318236Y858700D01*
X318220Y858708D01*
X318041Y858755D01*
X317866Y858806D01*
X317848Y858808D01*
X317831Y858812D01*
X317500Y858839D01*
X190500Y858839D01*
X190482Y858837D01*
X190464Y858839D01*
X190282Y858818D01*
X190099Y858799D01*
X190082Y858794D01*
X190065Y858792D01*
X189890Y858735D01*
X189714Y858681D01*
X189699Y858673D01*
X189682Y858667D01*
X189522Y858577D01*
X189360Y858489D01*
X189347Y858478D01*
X189331Y858469D01*
X189192Y858349D01*
X189051Y858232D01*
X189040Y858218D01*
X189027Y858206D01*
X188914Y858061D01*
X188799Y857918D01*
X188791Y857902D01*
X188780Y857888D01*
X188698Y857723D01*
X188613Y857561D01*
X188608Y857544D01*
X188600Y857528D01*
X188553Y857349D01*
X188502Y857174D01*
X188500Y857156D01*
X188496Y857139D01*
X188469Y856808D01*
X188469Y800100D01*
X188471Y800073D01*
X188469Y800047D01*
X188491Y799873D01*
X188509Y799699D01*
X188517Y799674D01*
X188520Y799647D01*
X188576Y799482D01*
X188627Y799314D01*
X188640Y799291D01*
X188648Y799266D01*
X188735Y799114D01*
X188819Y798960D01*
X188836Y798940D01*
X188849Y798917D01*
X189064Y798664D01*
X252564Y735164D01*
X252584Y735147D01*
X252602Y735127D01*
X252740Y735019D01*
X252875Y734909D01*
X252899Y734896D01*
X252920Y734880D01*
X253077Y734802D01*
X253231Y734720D01*
X253256Y734712D01*
X253281Y734700D01*
X253450Y734655D01*
X253617Y734605D01*
X253643Y734603D01*
X253669Y734596D01*
X254000Y734569D01*
X317500Y734569D01*
X317518Y734571D01*
G37*
G36*
X425468Y588521D02*
X425468Y588521D01*
X425486Y588519D01*
X425668Y588540D01*
X425851Y588559D01*
X425868Y588564D01*
X425885Y588566D01*
X426060Y588623D01*
X426236Y588677D01*
X426251Y588685D01*
X426268Y588691D01*
X426428Y588781D01*
X426590Y588869D01*
X426603Y588880D01*
X426619Y588889D01*
X426758Y589009D01*
X426899Y589126D01*
X426910Y589140D01*
X426924Y589152D01*
X427036Y589297D01*
X427151Y589440D01*
X427159Y589456D01*
X427170Y589470D01*
X427252Y589635D01*
X427337Y589797D01*
X427342Y589814D01*
X427350Y589831D01*
X427397Y590009D01*
X427448Y590184D01*
X427450Y590202D01*
X427454Y590219D01*
X427481Y590550D01*
X427481Y615950D01*
X427479Y615977D01*
X427481Y616003D01*
X427459Y616177D01*
X427441Y616351D01*
X427434Y616376D01*
X427430Y616403D01*
X427375Y616568D01*
X427323Y616736D01*
X427310Y616759D01*
X427302Y616784D01*
X427215Y616936D01*
X427131Y617090D01*
X427114Y617110D01*
X427101Y617133D01*
X426886Y617386D01*
X350006Y694267D01*
X349947Y694388D01*
X349942Y694396D01*
X349939Y694405D01*
X349835Y694582D01*
X347430Y698111D01*
X347423Y698118D01*
X347419Y698126D01*
X347290Y698286D01*
X344385Y701417D01*
X344378Y701423D01*
X344372Y701431D01*
X344221Y701569D01*
X340882Y704232D01*
X340874Y704237D01*
X340867Y704244D01*
X340697Y704358D01*
X338846Y705427D01*
X337986Y706286D01*
X337966Y706303D01*
X337948Y706324D01*
X337810Y706431D01*
X337675Y706541D01*
X337651Y706554D01*
X337630Y706570D01*
X337473Y706648D01*
X337319Y706730D01*
X337294Y706738D01*
X337270Y706750D01*
X337100Y706795D01*
X336933Y706845D01*
X336907Y706847D01*
X336881Y706854D01*
X336550Y706881D01*
X336056Y706881D01*
X332820Y708151D01*
X332811Y708154D01*
X332803Y708158D01*
X332606Y708217D01*
X328443Y709168D01*
X328433Y709169D01*
X328424Y709172D01*
X328221Y709201D01*
X323962Y709520D01*
X323930Y709519D01*
X323850Y709524D01*
X282575Y709524D01*
X282574Y709524D01*
X282371Y709510D01*
X277996Y708909D01*
X277985Y708906D01*
X277973Y708905D01*
X277772Y708860D01*
X273541Y707599D01*
X273530Y707594D01*
X273518Y707592D01*
X273327Y707517D01*
X271986Y706881D01*
X266700Y706881D01*
X266682Y706879D01*
X266664Y706881D01*
X266482Y706860D01*
X266299Y706841D01*
X266282Y706836D01*
X266265Y706834D01*
X266090Y706777D01*
X265914Y706723D01*
X265899Y706715D01*
X265882Y706709D01*
X265722Y706619D01*
X265560Y706531D01*
X265547Y706520D01*
X265531Y706511D01*
X265392Y706391D01*
X265251Y706274D01*
X265240Y706260D01*
X265227Y706248D01*
X265114Y706103D01*
X264999Y705960D01*
X264991Y705944D01*
X264980Y705930D01*
X264898Y705765D01*
X264813Y705603D01*
X264808Y705586D01*
X264800Y705570D01*
X264753Y705391D01*
X264702Y705216D01*
X264700Y705198D01*
X264696Y705181D01*
X264669Y704850D01*
X264669Y702302D01*
X262069Y699887D01*
X262061Y699877D01*
X262051Y699870D01*
X261913Y699718D01*
X259174Y696255D01*
X259146Y696210D01*
X259112Y696171D01*
X259056Y696064D01*
X258992Y695961D01*
X258976Y695911D01*
X258951Y695864D01*
X258921Y695747D01*
X258883Y695633D01*
X258878Y695581D01*
X258865Y695530D01*
X258851Y695325D01*
X258851Y663575D01*
X258858Y663510D01*
X258856Y663445D01*
X258878Y663339D01*
X258891Y663232D01*
X258913Y663170D01*
X258926Y663106D01*
X258971Y663008D01*
X259008Y662906D01*
X259044Y662852D01*
X259071Y662793D01*
X259190Y662625D01*
X261978Y659219D01*
X261983Y659214D01*
X261987Y659208D01*
X262129Y659060D01*
X264669Y656747D01*
X264669Y654050D01*
X264671Y654023D01*
X264669Y653997D01*
X264691Y653823D01*
X264709Y653649D01*
X264717Y653624D01*
X264720Y653597D01*
X264776Y653432D01*
X264827Y653264D01*
X264840Y653241D01*
X264848Y653216D01*
X264935Y653064D01*
X265019Y652910D01*
X265036Y652890D01*
X265049Y652867D01*
X265264Y652614D01*
X328764Y589114D01*
X328784Y589097D01*
X328802Y589077D01*
X328940Y588969D01*
X329075Y588859D01*
X329099Y588846D01*
X329120Y588830D01*
X329277Y588752D01*
X329431Y588670D01*
X329456Y588662D01*
X329481Y588650D01*
X329650Y588605D01*
X329817Y588555D01*
X329843Y588553D01*
X329869Y588546D01*
X330200Y588519D01*
X425450Y588519D01*
X425468Y588521D01*
G37*
%LPC*%
G36*
X46688Y124839D02*
X46688Y124839D01*
X40288Y126554D01*
X34551Y129866D01*
X29866Y134551D01*
X26554Y140288D01*
X24839Y146688D01*
X24839Y153312D01*
X26554Y159712D01*
X29866Y165449D01*
X34551Y170134D01*
X40288Y173446D01*
X46688Y175161D01*
X53312Y175161D01*
X59712Y173446D01*
X62230Y171992D01*
X62364Y171932D01*
X62493Y171864D01*
X62547Y171849D01*
X62597Y171826D01*
X62740Y171793D01*
X62880Y171753D01*
X62936Y171748D01*
X62990Y171736D01*
X63136Y171732D01*
X63282Y171720D01*
X63337Y171727D01*
X63392Y171725D01*
X63536Y171750D01*
X63681Y171767D01*
X63734Y171784D01*
X63789Y171794D01*
X63925Y171846D01*
X64064Y171892D01*
X64113Y171919D01*
X64164Y171939D01*
X64287Y172018D01*
X64415Y172090D01*
X64457Y172126D01*
X64504Y172156D01*
X64609Y172257D01*
X64720Y172353D01*
X64753Y172397D01*
X64794Y172435D01*
X64877Y172556D01*
X64966Y172671D01*
X64991Y172721D01*
X65023Y172766D01*
X65081Y172901D01*
X65146Y173031D01*
X65160Y173085D01*
X65182Y173136D01*
X65212Y173279D01*
X65250Y173420D01*
X65255Y173483D01*
X65265Y173530D01*
X65266Y173614D01*
X65277Y173751D01*
X65277Y206815D01*
X65275Y206841D01*
X65277Y206867D01*
X65255Y207041D01*
X65237Y207215D01*
X65230Y207241D01*
X65226Y207267D01*
X65171Y207433D01*
X65119Y207600D01*
X65107Y207623D01*
X65098Y207649D01*
X65011Y207800D01*
X64927Y207954D01*
X64911Y207974D01*
X64897Y207997D01*
X64683Y208251D01*
X64619Y208314D01*
X64612Y208320D01*
X64606Y208327D01*
X64457Y208447D01*
X64308Y208569D01*
X64300Y208574D01*
X64292Y208579D01*
X64123Y208667D01*
X63952Y208758D01*
X63943Y208761D01*
X63935Y208765D01*
X63751Y208818D01*
X63566Y208873D01*
X63557Y208874D01*
X63548Y208876D01*
X63357Y208892D01*
X63165Y208909D01*
X63156Y208908D01*
X63147Y208909D01*
X62957Y208887D01*
X62765Y208866D01*
X62756Y208863D01*
X62747Y208862D01*
X62565Y208803D01*
X62381Y208745D01*
X62373Y208740D01*
X62364Y208737D01*
X62196Y208642D01*
X62029Y208550D01*
X62022Y208544D01*
X62014Y208539D01*
X61868Y208413D01*
X61722Y208289D01*
X61716Y208282D01*
X61709Y208276D01*
X61591Y208125D01*
X61472Y207974D01*
X61468Y207965D01*
X61462Y207958D01*
X61377Y207786D01*
X61289Y207615D01*
X61287Y207606D01*
X61283Y207598D01*
X61233Y207411D01*
X61181Y207227D01*
X61181Y207218D01*
X61178Y207209D01*
X61151Y206878D01*
X61151Y204253D01*
X59527Y200332D01*
X56526Y197330D01*
X52605Y195706D01*
X33120Y195706D01*
X29199Y197330D01*
X26198Y200332D01*
X24574Y204253D01*
X24574Y208497D01*
X26198Y212418D01*
X29199Y215420D01*
X33120Y217044D01*
X50986Y217044D01*
X51119Y217057D01*
X51253Y217061D01*
X51319Y217077D01*
X51386Y217084D01*
X51514Y217123D01*
X51645Y217154D01*
X51706Y217182D01*
X51771Y217202D01*
X51889Y217266D01*
X52011Y217321D01*
X52066Y217361D01*
X52125Y217394D01*
X52228Y217479D01*
X52337Y217558D01*
X52382Y217608D01*
X52434Y217651D01*
X52518Y217756D01*
X52609Y217854D01*
X52644Y217912D01*
X52687Y217965D01*
X52748Y218084D01*
X52818Y218199D01*
X52841Y218262D01*
X52872Y218322D01*
X52909Y218451D01*
X52955Y218577D01*
X52965Y218644D01*
X52984Y218709D01*
X52995Y218843D01*
X53014Y218975D01*
X53011Y219043D01*
X53017Y219111D01*
X53001Y219244D01*
X52994Y219377D01*
X52978Y219443D01*
X52970Y219510D01*
X52928Y219638D01*
X52895Y219768D01*
X52866Y219829D01*
X52845Y219893D01*
X52779Y220010D01*
X52721Y220131D01*
X52680Y220185D01*
X52647Y220244D01*
X52559Y220345D01*
X52479Y220452D01*
X52428Y220497D01*
X52384Y220548D01*
X52278Y220631D01*
X52178Y220720D01*
X52111Y220760D01*
X52066Y220795D01*
X51996Y220830D01*
X51894Y220892D01*
X51797Y220929D01*
X51705Y220975D01*
X51610Y221000D01*
X51518Y221035D01*
X51416Y221052D01*
X51316Y221079D01*
X51198Y221089D01*
X51121Y221102D01*
X51063Y221100D01*
X50986Y221106D01*
X33120Y221106D01*
X29199Y222730D01*
X26198Y225732D01*
X24574Y229653D01*
X24574Y233897D01*
X26198Y237818D01*
X29199Y240820D01*
X33120Y242444D01*
X46223Y242444D01*
X46356Y242457D01*
X46490Y242461D01*
X46556Y242477D01*
X46624Y242484D01*
X46752Y242523D01*
X46882Y242554D01*
X46944Y242582D01*
X47009Y242602D01*
X47126Y242666D01*
X47248Y242721D01*
X47303Y242761D01*
X47363Y242794D01*
X47466Y242879D01*
X47574Y242958D01*
X47620Y243008D01*
X47672Y243051D01*
X47756Y243156D01*
X47847Y243254D01*
X47882Y243312D01*
X47924Y243365D01*
X47986Y243484D01*
X48056Y243599D01*
X48079Y243662D01*
X48110Y243722D01*
X48147Y243851D01*
X48192Y243977D01*
X48202Y244044D01*
X48221Y244109D01*
X48232Y244243D01*
X48252Y244375D01*
X48249Y244443D01*
X48254Y244511D01*
X48238Y244644D01*
X48232Y244777D01*
X48215Y244843D01*
X48207Y244910D01*
X48166Y245038D01*
X48133Y245168D01*
X48103Y245229D01*
X48082Y245293D01*
X48016Y245410D01*
X47958Y245531D01*
X47918Y245585D01*
X47884Y245644D01*
X47797Y245745D01*
X47716Y245852D01*
X47666Y245897D01*
X47621Y245948D01*
X47515Y246031D01*
X47415Y246120D01*
X47348Y246160D01*
X47303Y246195D01*
X47233Y246230D01*
X47132Y246292D01*
X47131Y246292D01*
X47035Y246329D01*
X46943Y246375D01*
X46847Y246400D01*
X46755Y246435D01*
X46654Y246452D01*
X46554Y246479D01*
X46435Y246489D01*
X46358Y246502D01*
X46301Y246500D01*
X46223Y246506D01*
X33120Y246506D01*
X29199Y248130D01*
X26198Y251132D01*
X24574Y255053D01*
X24574Y259297D01*
X26198Y263218D01*
X29199Y266220D01*
X33120Y267844D01*
X52605Y267844D01*
X56119Y266388D01*
X56132Y266384D01*
X56143Y266378D01*
X56323Y266326D01*
X56504Y266272D01*
X56517Y266270D01*
X56530Y266267D01*
X56718Y266251D01*
X56905Y266234D01*
X56918Y266235D01*
X56932Y266234D01*
X57119Y266256D01*
X57305Y266275D01*
X57318Y266279D01*
X57331Y266281D01*
X57511Y266339D01*
X57690Y266395D01*
X57701Y266401D01*
X57714Y266406D01*
X57879Y266498D01*
X58043Y266588D01*
X58053Y266597D01*
X58065Y266604D01*
X58207Y266727D01*
X58351Y266847D01*
X58359Y266858D01*
X58370Y266867D01*
X58485Y267015D01*
X58602Y267162D01*
X58608Y267174D01*
X58616Y267185D01*
X58700Y267354D01*
X58786Y267520D01*
X58790Y267533D01*
X58796Y267545D01*
X58845Y267728D01*
X58896Y267908D01*
X58897Y267921D01*
X58900Y267934D01*
X58927Y268265D01*
X58927Y272165D01*
X58922Y272216D01*
X58925Y272268D01*
X58902Y272416D01*
X58887Y272565D01*
X58872Y272615D01*
X58864Y272666D01*
X58813Y272807D01*
X58769Y272950D01*
X58744Y272996D01*
X58727Y273045D01*
X58649Y273172D01*
X58577Y273304D01*
X58544Y273344D01*
X58517Y273388D01*
X58415Y273499D01*
X58320Y273613D01*
X58279Y273646D01*
X58244Y273684D01*
X58123Y273772D01*
X58006Y273866D01*
X57960Y273890D01*
X57918Y273920D01*
X57781Y273982D01*
X57649Y274051D01*
X57599Y274066D01*
X57551Y274087D01*
X57406Y274121D01*
X57262Y274163D01*
X57210Y274167D01*
X57159Y274179D01*
X57010Y274183D01*
X56860Y274196D01*
X56809Y274190D01*
X56757Y274191D01*
X56609Y274166D01*
X56461Y274149D01*
X56411Y274133D01*
X56360Y274124D01*
X56220Y274070D01*
X56078Y274024D01*
X56033Y273998D01*
X55984Y273980D01*
X55933Y273948D01*
X54383Y273159D01*
X52862Y272664D01*
X51282Y272414D01*
X45402Y272414D01*
X45402Y282067D01*
X45400Y282085D01*
X45401Y282102D01*
X45380Y282285D01*
X45362Y282467D01*
X45357Y282484D01*
X45355Y282502D01*
X45329Y282580D01*
X45369Y282717D01*
X45370Y282735D01*
X45375Y282752D01*
X45402Y283083D01*
X45402Y292736D01*
X51282Y292736D01*
X52949Y292472D01*
X53019Y292451D01*
X53094Y292444D01*
X53167Y292428D01*
X53294Y292426D01*
X53420Y292414D01*
X53495Y292423D01*
X53570Y292421D01*
X53694Y292444D01*
X53820Y292458D01*
X53892Y292481D01*
X53966Y292494D01*
X54084Y292541D01*
X54204Y292579D01*
X54270Y292616D01*
X54340Y292644D01*
X54446Y292713D01*
X54557Y292774D01*
X54614Y292823D01*
X54677Y292864D01*
X54767Y292953D01*
X54864Y293035D01*
X54910Y293094D01*
X54964Y293146D01*
X55035Y293251D01*
X55113Y293351D01*
X55147Y293418D01*
X55189Y293480D01*
X55238Y293597D01*
X55296Y293710D01*
X55316Y293782D01*
X55345Y293851D01*
X55370Y293975D01*
X55404Y294097D01*
X55409Y294172D01*
X55424Y294246D01*
X55424Y294372D01*
X55433Y294499D01*
X55424Y294574D01*
X55424Y294649D01*
X55398Y294773D01*
X55383Y294898D01*
X55359Y294970D01*
X55344Y295043D01*
X55295Y295160D01*
X55254Y295280D01*
X55217Y295345D01*
X55188Y295414D01*
X55117Y295519D01*
X55053Y295629D01*
X54997Y295695D01*
X54962Y295747D01*
X54909Y295799D01*
X54839Y295882D01*
X54009Y296711D01*
X53989Y296728D01*
X53971Y296749D01*
X53833Y296856D01*
X53698Y296966D01*
X53674Y296979D01*
X53653Y296995D01*
X53496Y297073D01*
X53342Y297155D01*
X53317Y297163D01*
X53293Y297175D01*
X53123Y297220D01*
X52956Y297270D01*
X52930Y297272D01*
X52904Y297279D01*
X52573Y297306D01*
X33120Y297306D01*
X29199Y298930D01*
X26198Y301932D01*
X24574Y305853D01*
X24574Y310097D01*
X26198Y314018D01*
X29199Y317020D01*
X33120Y318644D01*
X52605Y318644D01*
X56526Y317020D01*
X59527Y314018D01*
X61151Y310097D01*
X61151Y305853D01*
X60689Y304738D01*
X60683Y304717D01*
X60673Y304697D01*
X60625Y304524D01*
X60573Y304353D01*
X60571Y304331D01*
X60565Y304309D01*
X60552Y304129D01*
X60535Y303952D01*
X60537Y303930D01*
X60536Y303907D01*
X60558Y303729D01*
X60577Y303551D01*
X60583Y303530D01*
X60586Y303508D01*
X60643Y303338D01*
X60696Y303167D01*
X60707Y303147D01*
X60714Y303126D01*
X60804Y302971D01*
X60890Y302814D01*
X60904Y302797D01*
X60915Y302777D01*
X61130Y302524D01*
X67377Y296278D01*
X68073Y294597D01*
X68073Y248798D01*
X68075Y248771D01*
X68073Y248745D01*
X68095Y248571D01*
X68113Y248397D01*
X68120Y248372D01*
X68124Y248345D01*
X68179Y248180D01*
X68231Y248012D01*
X68244Y247989D01*
X68252Y247964D01*
X68339Y247812D01*
X68423Y247658D01*
X68440Y247638D01*
X68453Y247615D01*
X68668Y247362D01*
X86427Y229603D01*
X87123Y227922D01*
X87123Y193235D01*
X87125Y193209D01*
X87123Y193182D01*
X87145Y193008D01*
X87163Y192835D01*
X87170Y192809D01*
X87174Y192783D01*
X87229Y192617D01*
X87281Y192450D01*
X87294Y192426D01*
X87302Y192401D01*
X87389Y192249D01*
X87473Y192096D01*
X87490Y192075D01*
X87503Y192052D01*
X87718Y191799D01*
X95952Y183565D01*
X96648Y181885D01*
X96648Y177627D01*
X96650Y177600D01*
X96648Y177574D01*
X96670Y177400D01*
X96688Y177226D01*
X96695Y177201D01*
X96699Y177174D01*
X96754Y177009D01*
X96806Y176841D01*
X96819Y176818D01*
X96827Y176792D01*
X96914Y176641D01*
X96998Y176487D01*
X97015Y176467D01*
X97028Y176444D01*
X97243Y176191D01*
X98966Y174467D01*
X100204Y171479D01*
X100204Y168246D01*
X98966Y165258D01*
X96680Y162971D01*
X93692Y161734D01*
X92710Y161734D01*
X92692Y161732D01*
X92674Y161733D01*
X92492Y161712D01*
X92309Y161694D01*
X92292Y161689D01*
X92275Y161687D01*
X92100Y161630D01*
X91924Y161576D01*
X91909Y161567D01*
X91892Y161562D01*
X91732Y161471D01*
X91570Y161384D01*
X91557Y161373D01*
X91541Y161364D01*
X91402Y161244D01*
X91261Y161126D01*
X91250Y161112D01*
X91236Y161101D01*
X91124Y160956D01*
X91009Y160812D01*
X91001Y160797D01*
X90990Y160783D01*
X90908Y160618D01*
X90823Y160455D01*
X90818Y160438D01*
X90810Y160422D01*
X90763Y160244D01*
X90712Y160068D01*
X90710Y160050D01*
X90706Y160033D01*
X90679Y159703D01*
X90679Y157133D01*
X89441Y154145D01*
X87155Y151859D01*
X84167Y150621D01*
X80933Y150621D01*
X77969Y151849D01*
X77956Y151853D01*
X77945Y151859D01*
X77764Y151911D01*
X77584Y151965D01*
X77571Y151967D01*
X77558Y151970D01*
X77370Y151986D01*
X77183Y152003D01*
X77170Y152002D01*
X77156Y152003D01*
X76969Y151981D01*
X76783Y151962D01*
X76770Y151958D01*
X76757Y151956D01*
X76577Y151898D01*
X76398Y151842D01*
X76387Y151836D01*
X76374Y151831D01*
X76209Y151739D01*
X76045Y151649D01*
X76035Y151640D01*
X76023Y151634D01*
X75881Y151511D01*
X75737Y151390D01*
X75729Y151379D01*
X75718Y151370D01*
X75603Y151222D01*
X75486Y151075D01*
X75480Y151063D01*
X75472Y151052D01*
X75388Y150884D01*
X75302Y150717D01*
X75298Y150704D01*
X75292Y150692D01*
X75243Y150509D01*
X75192Y150329D01*
X75191Y150316D01*
X75188Y150303D01*
X75161Y149972D01*
X75161Y146688D01*
X73446Y140288D01*
X70134Y134551D01*
X65449Y129866D01*
X59712Y126554D01*
X53312Y124839D01*
X46688Y124839D01*
G37*
%LPD*%
%LPC*%
G36*
X610394Y26321D02*
X610394Y26321D01*
X606502Y27933D01*
X603523Y30912D01*
X601911Y34804D01*
X601911Y54096D01*
X603523Y57988D01*
X606502Y60967D01*
X610394Y62579D01*
X614606Y62579D01*
X615425Y62240D01*
X615498Y62219D01*
X615568Y62188D01*
X615665Y62171D01*
X615760Y62144D01*
X615836Y62140D01*
X615911Y62127D01*
X616010Y62132D01*
X616108Y62127D01*
X616183Y62141D01*
X616259Y62145D01*
X616354Y62172D01*
X616451Y62190D01*
X616521Y62220D01*
X616594Y62241D01*
X616680Y62289D01*
X616770Y62329D01*
X616832Y62374D01*
X616898Y62411D01*
X617012Y62508D01*
X617050Y62536D01*
X617062Y62551D01*
X617085Y62570D01*
X649309Y94795D01*
X651177Y95568D01*
X741586Y95568D01*
X741661Y95577D01*
X741738Y95576D01*
X741834Y95597D01*
X741932Y95608D01*
X742004Y95634D01*
X742078Y95650D01*
X742167Y95692D01*
X742260Y95726D01*
X742324Y95767D01*
X742393Y95800D01*
X742470Y95861D01*
X742553Y95915D01*
X742606Y95970D01*
X742666Y96017D01*
X742727Y96094D01*
X742795Y96165D01*
X742834Y96231D01*
X742881Y96291D01*
X742950Y96424D01*
X742974Y96464D01*
X742980Y96482D01*
X742993Y96509D01*
X743721Y98267D01*
X746008Y100554D01*
X748996Y101791D01*
X752229Y101791D01*
X755217Y100554D01*
X757504Y98267D01*
X757787Y97582D01*
X757836Y97494D01*
X757876Y97402D01*
X757921Y97342D01*
X757957Y97277D01*
X758024Y97203D01*
X758084Y97122D01*
X758141Y97074D01*
X758191Y97019D01*
X758274Y96962D01*
X758350Y96897D01*
X758416Y96863D01*
X758478Y96821D01*
X758571Y96784D01*
X758660Y96739D01*
X758733Y96721D01*
X758802Y96693D01*
X758901Y96679D01*
X758999Y96654D01*
X759073Y96653D01*
X759147Y96642D01*
X759247Y96651D01*
X759347Y96649D01*
X759420Y96665D01*
X759494Y96671D01*
X759590Y96702D01*
X759688Y96724D01*
X759755Y96756D01*
X759826Y96778D01*
X759912Y96830D01*
X760002Y96873D01*
X760060Y96920D01*
X760124Y96958D01*
X760196Y97028D01*
X760275Y97091D01*
X760321Y97149D01*
X760374Y97201D01*
X760428Y97285D01*
X760491Y97364D01*
X760536Y97454D01*
X760562Y97494D01*
X760574Y97528D01*
X760602Y97582D01*
X761184Y98987D01*
X761205Y99007D01*
X761275Y99096D01*
X761285Y99106D01*
X761290Y99115D01*
X761299Y99126D01*
X761395Y99240D01*
X761406Y99261D01*
X761421Y99280D01*
X761486Y99417D01*
X761554Y99550D01*
X761560Y99574D01*
X761570Y99596D01*
X761602Y99742D01*
X761638Y99888D01*
X761639Y99913D01*
X761644Y99936D01*
X761641Y100086D01*
X761643Y100237D01*
X761638Y100261D01*
X761638Y100285D01*
X761601Y100431D01*
X761569Y100577D01*
X761559Y100599D01*
X761553Y100623D01*
X761484Y100757D01*
X761419Y100892D01*
X761404Y100911D01*
X761393Y100932D01*
X761295Y101047D01*
X761202Y101165D01*
X761183Y101180D01*
X761167Y101198D01*
X761046Y101287D01*
X760928Y101380D01*
X760902Y101394D01*
X760887Y101405D01*
X760844Y101424D01*
X760711Y101492D01*
X758462Y102423D01*
X755520Y105365D01*
X755421Y105444D01*
X755327Y105528D01*
X755285Y105552D01*
X755247Y105582D01*
X755133Y105636D01*
X755022Y105697D01*
X754976Y105710D01*
X754932Y105731D01*
X754809Y105757D01*
X754687Y105792D01*
X754626Y105797D01*
X754591Y105804D01*
X754543Y105803D01*
X754443Y105811D01*
X724557Y105811D01*
X724431Y105797D01*
X724305Y105790D01*
X724259Y105777D01*
X724211Y105771D01*
X724092Y105729D01*
X723970Y105694D01*
X723928Y105670D01*
X723883Y105654D01*
X723776Y105585D01*
X723666Y105524D01*
X723620Y105484D01*
X723590Y105465D01*
X723556Y105430D01*
X723480Y105365D01*
X720538Y102423D01*
X716646Y100811D01*
X697354Y100811D01*
X693462Y102423D01*
X690483Y105402D01*
X688871Y109294D01*
X688871Y113506D01*
X690483Y117398D01*
X693462Y120377D01*
X697354Y121989D01*
X716646Y121989D01*
X720538Y120377D01*
X723480Y117435D01*
X723579Y117356D01*
X723673Y117272D01*
X723715Y117248D01*
X723753Y117218D01*
X723867Y117164D01*
X723978Y117103D01*
X724024Y117090D01*
X724068Y117069D01*
X724191Y117043D01*
X724313Y117008D01*
X724374Y117003D01*
X724409Y116996D01*
X724457Y116997D01*
X724557Y116989D01*
X754443Y116989D01*
X754569Y117003D01*
X754695Y117010D01*
X754741Y117023D01*
X754789Y117029D01*
X754908Y117071D01*
X755030Y117106D01*
X755072Y117130D01*
X755117Y117146D01*
X755224Y117215D01*
X755334Y117276D01*
X755380Y117316D01*
X755410Y117335D01*
X755444Y117370D01*
X755520Y117435D01*
X758462Y120377D01*
X762354Y121989D01*
X776603Y121989D01*
X776729Y122003D01*
X776855Y122010D01*
X776902Y122023D01*
X776950Y122029D01*
X777069Y122071D01*
X777190Y122106D01*
X777232Y122130D01*
X777278Y122146D01*
X777384Y122215D01*
X777494Y122276D01*
X777541Y122316D01*
X777571Y122335D01*
X777604Y122370D01*
X777681Y122435D01*
X796013Y140767D01*
X796091Y140866D01*
X796176Y140960D01*
X796199Y141002D01*
X796229Y141040D01*
X796283Y141154D01*
X796344Y141265D01*
X796358Y141311D01*
X796378Y141355D01*
X796405Y141478D01*
X796439Y141600D01*
X796444Y141661D01*
X796452Y141696D01*
X796451Y141744D01*
X796459Y141844D01*
X796459Y144492D01*
X797696Y147480D01*
X799983Y149766D01*
X802971Y151004D01*
X806204Y151004D01*
X809192Y149766D01*
X811479Y147480D01*
X812716Y144492D01*
X812716Y141258D01*
X811479Y138270D01*
X809192Y135984D01*
X806204Y134746D01*
X803557Y134746D01*
X803431Y134732D01*
X803305Y134725D01*
X803258Y134712D01*
X803210Y134706D01*
X803091Y134664D01*
X802970Y134629D01*
X802928Y134605D01*
X802882Y134589D01*
X802776Y134520D01*
X802666Y134459D01*
X802620Y134419D01*
X802589Y134400D01*
X802556Y134365D01*
X802479Y134300D01*
X788124Y119945D01*
X788108Y119924D01*
X788088Y119907D01*
X788000Y119788D01*
X787907Y119672D01*
X787896Y119648D01*
X787881Y119627D01*
X787822Y119491D01*
X787759Y119357D01*
X787753Y119331D01*
X787743Y119307D01*
X787716Y119160D01*
X787685Y119016D01*
X787686Y118990D01*
X787681Y118964D01*
X787689Y118815D01*
X787691Y118668D01*
X787698Y118642D01*
X787699Y118616D01*
X787740Y118474D01*
X787776Y118330D01*
X787788Y118306D01*
X787795Y118281D01*
X787868Y118152D01*
X787936Y118020D01*
X787953Y118000D01*
X787966Y117977D01*
X788124Y117791D01*
X788517Y117398D01*
X790129Y113506D01*
X790129Y109294D01*
X788517Y105402D01*
X785538Y102423D01*
X781646Y100811D01*
X776490Y100811D01*
X776341Y100794D01*
X776191Y100782D01*
X776168Y100774D01*
X776144Y100771D01*
X776003Y100721D01*
X775859Y100675D01*
X775839Y100662D01*
X775816Y100654D01*
X775689Y100572D01*
X775561Y100495D01*
X775543Y100478D01*
X775523Y100465D01*
X775418Y100357D01*
X775311Y100252D01*
X775298Y100232D01*
X775281Y100214D01*
X775203Y100085D01*
X775122Y99959D01*
X775114Y99936D01*
X775102Y99915D01*
X775056Y99772D01*
X775006Y99630D01*
X775003Y99606D01*
X774996Y99583D01*
X774984Y99434D01*
X774967Y99284D01*
X774970Y99260D01*
X774968Y99236D01*
X774990Y99087D01*
X775008Y98938D01*
X775017Y98910D01*
X775019Y98891D01*
X775037Y98847D01*
X775083Y98705D01*
X776204Y95999D01*
X776204Y92765D01*
X774966Y89777D01*
X772680Y87491D01*
X769692Y86253D01*
X767762Y86253D01*
X767637Y86239D01*
X767511Y86232D01*
X767464Y86219D01*
X767416Y86213D01*
X767297Y86171D01*
X767176Y86136D01*
X767134Y86112D01*
X767088Y86096D01*
X766982Y86027D01*
X766872Y85966D01*
X766825Y85926D01*
X766795Y85907D01*
X766762Y85872D01*
X766685Y85807D01*
X759196Y78318D01*
X759094Y78189D01*
X758990Y78061D01*
X758985Y78052D01*
X758979Y78045D01*
X758909Y77896D01*
X758837Y77748D01*
X758835Y77738D01*
X758831Y77730D01*
X758812Y77644D01*
X758757Y77664D01*
X758598Y77720D01*
X758593Y77720D01*
X758589Y77722D01*
X758421Y77740D01*
X758252Y77759D01*
X758247Y77758D01*
X758242Y77759D01*
X758073Y77738D01*
X757905Y77718D01*
X757900Y77716D01*
X757896Y77716D01*
X757879Y77709D01*
X757673Y77643D01*
X757254Y77469D01*
X721143Y77469D01*
X721098Y77464D01*
X721052Y77467D01*
X720925Y77444D01*
X720797Y77429D01*
X720754Y77414D01*
X720709Y77406D01*
X720590Y77355D01*
X720469Y77312D01*
X720430Y77287D01*
X720388Y77269D01*
X720284Y77193D01*
X720176Y77123D01*
X720144Y77090D01*
X720107Y77063D01*
X720023Y76965D01*
X719934Y76872D01*
X719910Y76833D01*
X719881Y76799D01*
X719821Y76684D01*
X719755Y76573D01*
X719741Y76530D01*
X719720Y76489D01*
X719688Y76364D01*
X719648Y76241D01*
X719645Y76196D01*
X719634Y76152D01*
X719631Y76022D01*
X719621Y75894D01*
X719627Y75849D01*
X719626Y75803D01*
X719653Y75677D01*
X719672Y75549D01*
X719689Y75507D01*
X719698Y75462D01*
X719753Y75345D01*
X719801Y75225D01*
X719827Y75188D01*
X719846Y75147D01*
X719926Y75045D01*
X720000Y74939D01*
X720034Y74909D01*
X720062Y74873D01*
X720248Y74714D01*
X721107Y74089D01*
X722229Y72967D01*
X723162Y71683D01*
X723882Y70270D01*
X724327Y68899D01*
X707976Y68899D01*
X707950Y68896D01*
X707924Y68898D01*
X707777Y68876D01*
X707630Y68859D01*
X707605Y68851D01*
X707579Y68847D01*
X707442Y68792D01*
X707302Y68742D01*
X707280Y68728D01*
X707255Y68718D01*
X707134Y68633D01*
X707009Y68553D01*
X706997Y68540D01*
X706950Y68585D01*
X706927Y68599D01*
X706908Y68616D01*
X706778Y68688D01*
X706651Y68764D01*
X706626Y68772D01*
X706603Y68785D01*
X706460Y68825D01*
X706319Y68870D01*
X706293Y68872D01*
X706268Y68880D01*
X706024Y68899D01*
X689673Y68899D01*
X690118Y70270D01*
X690838Y71683D01*
X691771Y72967D01*
X692893Y74089D01*
X693752Y74714D01*
X693786Y74744D01*
X693824Y74769D01*
X693914Y74862D01*
X694009Y74949D01*
X694035Y74987D01*
X694066Y75020D01*
X694133Y75131D01*
X694205Y75237D01*
X694222Y75280D01*
X694245Y75319D01*
X694285Y75442D01*
X694331Y75562D01*
X694338Y75608D01*
X694352Y75651D01*
X694362Y75780D01*
X694380Y75907D01*
X694376Y75953D01*
X694379Y75998D01*
X694360Y76126D01*
X694349Y76255D01*
X694335Y76298D01*
X694328Y76343D01*
X694280Y76463D01*
X694240Y76586D01*
X694216Y76624D01*
X694199Y76667D01*
X694125Y76773D01*
X694058Y76883D01*
X694026Y76916D01*
X694000Y76953D01*
X693904Y77039D01*
X693814Y77131D01*
X693775Y77156D01*
X693741Y77186D01*
X693628Y77249D01*
X693519Y77318D01*
X693476Y77333D01*
X693436Y77355D01*
X693312Y77390D01*
X693190Y77432D01*
X693145Y77437D01*
X693101Y77450D01*
X692857Y77469D01*
X658098Y77469D01*
X657972Y77455D01*
X657846Y77448D01*
X657800Y77435D01*
X657752Y77429D01*
X657633Y77387D01*
X657511Y77352D01*
X657469Y77328D01*
X657424Y77312D01*
X657317Y77243D01*
X657207Y77182D01*
X657161Y77142D01*
X657131Y77123D01*
X657097Y77088D01*
X657021Y77023D01*
X643436Y63438D01*
X643343Y63321D01*
X643245Y63205D01*
X643234Y63184D01*
X643219Y63165D01*
X643155Y63029D01*
X643086Y62895D01*
X643080Y62872D01*
X643070Y62850D01*
X643038Y62703D01*
X643002Y62557D01*
X643002Y62533D01*
X642997Y62509D01*
X642999Y62359D01*
X642997Y62208D01*
X643002Y62185D01*
X643003Y62161D01*
X643039Y62015D01*
X643071Y61868D01*
X643082Y61846D01*
X643088Y61823D01*
X643157Y61689D01*
X643221Y61553D01*
X643236Y61534D01*
X643247Y61513D01*
X643345Y61398D01*
X643439Y61281D01*
X643457Y61266D01*
X643473Y61247D01*
X643594Y61158D01*
X643712Y61065D01*
X643738Y61052D01*
X643753Y61040D01*
X643797Y61022D01*
X643892Y60973D01*
X646877Y57988D01*
X648489Y54096D01*
X648489Y34804D01*
X646877Y30912D01*
X643898Y27933D01*
X640006Y26321D01*
X635794Y26321D01*
X631902Y27933D01*
X628923Y30912D01*
X627311Y34804D01*
X627311Y54096D01*
X627442Y54413D01*
X627456Y54461D01*
X627478Y54507D01*
X627504Y54628D01*
X627538Y54748D01*
X627540Y54798D01*
X627551Y54847D01*
X627549Y54972D01*
X627555Y55096D01*
X627546Y55145D01*
X627545Y55196D01*
X627515Y55316D01*
X627492Y55439D01*
X627472Y55485D01*
X627460Y55534D01*
X627403Y55644D01*
X627354Y55758D01*
X627324Y55799D01*
X627300Y55844D01*
X627220Y55938D01*
X627146Y56038D01*
X627107Y56071D01*
X627075Y56109D01*
X626975Y56183D01*
X626880Y56263D01*
X626835Y56286D01*
X626794Y56316D01*
X626680Y56365D01*
X626569Y56422D01*
X626521Y56434D01*
X626474Y56454D01*
X626352Y56476D01*
X626231Y56506D01*
X626181Y56507D01*
X626131Y56516D01*
X626007Y56509D01*
X625883Y56511D01*
X625833Y56501D01*
X625783Y56498D01*
X625664Y56464D01*
X625542Y56437D01*
X625497Y56415D01*
X625448Y56401D01*
X625340Y56341D01*
X625228Y56287D01*
X625188Y56256D01*
X625144Y56231D01*
X624958Y56073D01*
X623535Y54650D01*
X623456Y54551D01*
X623372Y54457D01*
X623348Y54414D01*
X623318Y54377D01*
X623264Y54262D01*
X623203Y54152D01*
X623190Y54105D01*
X623169Y54062D01*
X623143Y53938D01*
X623108Y53816D01*
X623103Y53756D01*
X623096Y53721D01*
X623097Y53673D01*
X623089Y53573D01*
X623089Y34804D01*
X621477Y30912D01*
X618498Y27933D01*
X614606Y26321D01*
X610394Y26321D01*
G37*
%LPD*%
%LPC*%
G36*
X119033Y23621D02*
X119033Y23621D01*
X116045Y24859D01*
X98208Y42696D01*
X98187Y42713D01*
X98170Y42734D01*
X98032Y42841D01*
X97896Y42951D01*
X97873Y42964D01*
X97852Y42980D01*
X97695Y43058D01*
X97541Y43140D01*
X97515Y43148D01*
X97491Y43160D01*
X97322Y43205D01*
X97155Y43255D01*
X97128Y43257D01*
X97102Y43264D01*
X96772Y43291D01*
X94573Y43291D01*
X89718Y45302D01*
X86002Y49018D01*
X83991Y53873D01*
X83991Y59127D01*
X86002Y63982D01*
X89718Y67698D01*
X94573Y69709D01*
X99827Y69709D01*
X104682Y67698D01*
X108398Y63982D01*
X110409Y59127D01*
X110409Y54328D01*
X110411Y54302D01*
X110409Y54275D01*
X110431Y54101D01*
X110449Y53928D01*
X110456Y53902D01*
X110460Y53876D01*
X110515Y53710D01*
X110567Y53543D01*
X110580Y53519D01*
X110588Y53494D01*
X110675Y53342D01*
X110759Y53189D01*
X110776Y53168D01*
X110789Y53145D01*
X111004Y52892D01*
X123422Y40474D01*
X123443Y40457D01*
X123460Y40436D01*
X123598Y40329D01*
X123734Y40219D01*
X123757Y40206D01*
X123778Y40190D01*
X123935Y40112D01*
X124089Y40030D01*
X124115Y40022D01*
X124139Y40010D01*
X124308Y39965D01*
X124475Y39915D01*
X124502Y39913D01*
X124528Y39906D01*
X124858Y39879D01*
X135886Y39879D01*
X135895Y39880D01*
X135904Y39879D01*
X136095Y39900D01*
X136286Y39919D01*
X136295Y39921D01*
X136304Y39922D01*
X136486Y39980D01*
X136671Y40037D01*
X136679Y40041D01*
X136688Y40044D01*
X136856Y40137D01*
X137025Y40229D01*
X137032Y40234D01*
X137040Y40239D01*
X137188Y40364D01*
X137335Y40486D01*
X137340Y40493D01*
X137347Y40499D01*
X137467Y40651D01*
X137587Y40800D01*
X137591Y40808D01*
X137597Y40815D01*
X137684Y40988D01*
X137773Y41157D01*
X137775Y41166D01*
X137779Y41174D01*
X137831Y41360D01*
X137884Y41544D01*
X137885Y41553D01*
X137887Y41562D01*
X137901Y41754D01*
X137917Y41946D01*
X137916Y41954D01*
X137916Y41963D01*
X137892Y42156D01*
X137870Y42345D01*
X137867Y42354D01*
X137866Y42363D01*
X137805Y42546D01*
X137745Y42728D01*
X137741Y42736D01*
X137738Y42744D01*
X137642Y42910D01*
X137547Y43079D01*
X137541Y43086D01*
X137537Y43093D01*
X137322Y43346D01*
X135591Y45077D01*
X135591Y67923D01*
X137377Y69709D01*
X160223Y69709D01*
X162009Y67923D01*
X162009Y45077D01*
X160278Y43346D01*
X160272Y43339D01*
X160265Y43334D01*
X160145Y43184D01*
X160023Y43035D01*
X160019Y43027D01*
X160013Y43020D01*
X159925Y42850D01*
X159834Y42679D01*
X159832Y42670D01*
X159827Y42663D01*
X159774Y42478D01*
X159719Y42293D01*
X159719Y42284D01*
X159716Y42276D01*
X159700Y42085D01*
X159683Y41892D01*
X159684Y41883D01*
X159683Y41874D01*
X159705Y41685D01*
X159726Y41492D01*
X159729Y41483D01*
X159730Y41475D01*
X159789Y41293D01*
X159848Y41108D01*
X159852Y41100D01*
X159855Y41092D01*
X159951Y40922D01*
X160043Y40756D01*
X160048Y40749D01*
X160053Y40741D01*
X160179Y40595D01*
X160303Y40449D01*
X160310Y40443D01*
X160316Y40436D01*
X160468Y40319D01*
X160619Y40199D01*
X160627Y40195D01*
X160634Y40190D01*
X160806Y40104D01*
X160978Y40017D01*
X160987Y40014D01*
X160995Y40010D01*
X161181Y39960D01*
X161366Y39909D01*
X161375Y39908D01*
X161383Y39906D01*
X161714Y39879D01*
X173592Y39879D01*
X173618Y39881D01*
X173645Y39879D01*
X173819Y39901D01*
X173992Y39919D01*
X174018Y39926D01*
X174044Y39930D01*
X174210Y39985D01*
X174377Y40037D01*
X174401Y40050D01*
X174426Y40058D01*
X174578Y40145D01*
X174731Y40229D01*
X174752Y40246D01*
X174775Y40259D01*
X175028Y40474D01*
X185462Y50908D01*
X185476Y50925D01*
X185493Y50940D01*
X185604Y51081D01*
X185717Y51219D01*
X185728Y51239D01*
X185741Y51257D01*
X185822Y51417D01*
X185906Y51575D01*
X185912Y51596D01*
X185922Y51616D01*
X185969Y51789D01*
X186021Y51961D01*
X186023Y51983D01*
X186028Y52005D01*
X186041Y52183D01*
X186057Y52362D01*
X186055Y52384D01*
X186056Y52406D01*
X186033Y52583D01*
X186014Y52762D01*
X186007Y52784D01*
X186004Y52806D01*
X185902Y53122D01*
X185591Y53873D01*
X185591Y59127D01*
X187602Y63982D01*
X191318Y67698D01*
X196173Y69709D01*
X201427Y69709D01*
X206282Y67698D01*
X209998Y63982D01*
X212009Y59127D01*
X212009Y53873D01*
X209998Y49018D01*
X206282Y45302D01*
X201348Y43258D01*
X201278Y43251D01*
X201252Y43244D01*
X201226Y43240D01*
X201060Y43185D01*
X200893Y43133D01*
X200869Y43120D01*
X200844Y43112D01*
X200692Y43025D01*
X200539Y42941D01*
X200518Y42924D01*
X200495Y42911D01*
X200242Y42696D01*
X182405Y24859D01*
X179417Y23621D01*
X119033Y23621D01*
G37*
%LPD*%
%LPC*%
G36*
X446688Y693839D02*
X446688Y693839D01*
X440288Y695554D01*
X434551Y698866D01*
X429866Y703551D01*
X426554Y709288D01*
X424839Y715688D01*
X424839Y722312D01*
X426554Y728712D01*
X429866Y734449D01*
X434551Y739134D01*
X440288Y742446D01*
X446688Y744161D01*
X453312Y744161D01*
X459712Y742446D01*
X465449Y739134D01*
X470134Y734449D01*
X473446Y728712D01*
X475161Y722312D01*
X475161Y715688D01*
X473446Y709288D01*
X470134Y703551D01*
X465449Y698866D01*
X459712Y695554D01*
X453312Y693839D01*
X446688Y693839D01*
G37*
%LPD*%
%LPC*%
G36*
X446688Y124839D02*
X446688Y124839D01*
X440288Y126554D01*
X434551Y129866D01*
X429866Y134551D01*
X426554Y140288D01*
X424839Y146688D01*
X424839Y153312D01*
X426554Y159712D01*
X429866Y165449D01*
X434551Y170134D01*
X440288Y173446D01*
X446688Y175161D01*
X453312Y175161D01*
X459712Y173446D01*
X465449Y170134D01*
X470134Y165449D01*
X473446Y159712D01*
X475161Y153312D01*
X475161Y146688D01*
X473446Y140288D01*
X470134Y134551D01*
X465449Y129866D01*
X459712Y126554D01*
X453312Y124839D01*
X446688Y124839D01*
G37*
%LPD*%
%LPC*%
G36*
X35777Y43291D02*
X35777Y43291D01*
X33991Y45077D01*
X33991Y67923D01*
X35777Y69709D01*
X58623Y69709D01*
X60409Y67923D01*
X60409Y45077D01*
X58623Y43291D01*
X35777Y43291D01*
G37*
%LPD*%
%LPC*%
G36*
X33120Y322706D02*
X33120Y322706D01*
X29199Y324330D01*
X26198Y327332D01*
X24574Y331253D01*
X24574Y335497D01*
X26198Y339418D01*
X29199Y342420D01*
X33120Y344044D01*
X52605Y344044D01*
X56526Y342420D01*
X59527Y339418D01*
X61151Y335497D01*
X61151Y331253D01*
X59527Y327332D01*
X56526Y324330D01*
X52605Y322706D01*
X33120Y322706D01*
G37*
%LPD*%
%LPC*%
G36*
X731028Y438911D02*
X731028Y438911D01*
X727107Y440536D01*
X724106Y443537D01*
X722481Y447458D01*
X722481Y466942D01*
X724106Y470863D01*
X727107Y473864D01*
X731028Y475489D01*
X735272Y475489D01*
X739193Y473864D01*
X742194Y470863D01*
X743819Y466942D01*
X743819Y447458D01*
X742194Y443537D01*
X739193Y440536D01*
X735272Y438911D01*
X731028Y438911D01*
G37*
%LPD*%
%LPC*%
G36*
X832628Y438911D02*
X832628Y438911D01*
X828707Y440536D01*
X825706Y443537D01*
X824081Y447458D01*
X824081Y466942D01*
X825706Y470863D01*
X828707Y473864D01*
X832628Y475489D01*
X836872Y475489D01*
X840793Y473864D01*
X843794Y470863D01*
X845419Y466942D01*
X845419Y447458D01*
X843794Y443537D01*
X840793Y440536D01*
X836872Y438911D01*
X832628Y438911D01*
G37*
%LPD*%
%LPC*%
G36*
X858028Y438911D02*
X858028Y438911D01*
X854107Y440536D01*
X851106Y443537D01*
X849481Y447458D01*
X849481Y466942D01*
X851106Y470863D01*
X854107Y473864D01*
X858028Y475489D01*
X862272Y475489D01*
X866193Y473864D01*
X869194Y470863D01*
X870819Y466942D01*
X870819Y447458D01*
X869194Y443537D01*
X866193Y440536D01*
X862272Y438911D01*
X858028Y438911D01*
G37*
%LPD*%
%LPC*%
G36*
X781828Y438911D02*
X781828Y438911D01*
X777907Y440536D01*
X774906Y443537D01*
X773281Y447458D01*
X773281Y466942D01*
X774906Y470863D01*
X777907Y473864D01*
X781828Y475489D01*
X786072Y475489D01*
X789993Y473864D01*
X792994Y470863D01*
X794619Y466942D01*
X794619Y447458D01*
X792994Y443537D01*
X789993Y440536D01*
X786072Y438911D01*
X781828Y438911D01*
G37*
%LPD*%
%LPC*%
G36*
X270944Y140621D02*
X270944Y140621D01*
X267052Y142233D01*
X264073Y145212D01*
X262461Y149104D01*
X262461Y168396D01*
X264073Y172288D01*
X267052Y175267D01*
X270944Y176879D01*
X275156Y176879D01*
X279048Y175267D01*
X282027Y172288D01*
X283639Y168396D01*
X283639Y149104D01*
X282027Y145212D01*
X279048Y142233D01*
X275156Y140621D01*
X270944Y140621D01*
G37*
%LPD*%
%LPC*%
G36*
X328094Y140621D02*
X328094Y140621D01*
X324202Y142233D01*
X321223Y145212D01*
X319611Y149104D01*
X319611Y168396D01*
X321223Y172288D01*
X324202Y175267D01*
X328094Y176879D01*
X332306Y176879D01*
X336198Y175267D01*
X339177Y172288D01*
X340789Y168396D01*
X340789Y149104D01*
X339177Y145212D01*
X336198Y142233D01*
X332306Y140621D01*
X328094Y140621D01*
G37*
%LPD*%
%LPC*%
G36*
X245544Y140621D02*
X245544Y140621D01*
X241652Y142233D01*
X238673Y145212D01*
X237061Y149104D01*
X237061Y168396D01*
X238673Y172288D01*
X241652Y175267D01*
X245544Y176879D01*
X249756Y176879D01*
X253648Y175267D01*
X256627Y172288D01*
X258239Y168396D01*
X258239Y149104D01*
X256627Y145212D01*
X253648Y142233D01*
X249756Y140621D01*
X245544Y140621D01*
G37*
%LPD*%
%LPC*%
G36*
X220144Y140621D02*
X220144Y140621D01*
X216252Y142233D01*
X213273Y145212D01*
X211661Y149104D01*
X211661Y168396D01*
X213273Y172288D01*
X216252Y175267D01*
X220144Y176879D01*
X224356Y176879D01*
X228248Y175267D01*
X231227Y172288D01*
X232839Y168396D01*
X232839Y149104D01*
X231227Y145212D01*
X228248Y142233D01*
X224356Y140621D01*
X220144Y140621D01*
G37*
%LPD*%
%LPC*%
G36*
X353494Y140621D02*
X353494Y140621D01*
X349602Y142233D01*
X346623Y145212D01*
X345011Y149104D01*
X345011Y168396D01*
X346623Y172288D01*
X349602Y175267D01*
X353494Y176879D01*
X357706Y176879D01*
X361598Y175267D01*
X364577Y172288D01*
X366189Y168396D01*
X366189Y149104D01*
X364577Y145212D01*
X361598Y142233D01*
X357706Y140621D01*
X353494Y140621D01*
G37*
%LPD*%
%LPC*%
G36*
X584994Y26321D02*
X584994Y26321D01*
X581102Y27933D01*
X578123Y30912D01*
X576511Y34804D01*
X576511Y54096D01*
X578123Y57988D01*
X581102Y60967D01*
X584994Y62579D01*
X589206Y62579D01*
X593098Y60967D01*
X596077Y57988D01*
X597689Y54096D01*
X597689Y34804D01*
X596077Y30912D01*
X593098Y27933D01*
X589206Y26321D01*
X584994Y26321D01*
G37*
%LPD*%
%LPC*%
G36*
X450173Y43291D02*
X450173Y43291D01*
X445318Y45302D01*
X441602Y49018D01*
X439591Y53873D01*
X439591Y59127D01*
X441602Y63982D01*
X445318Y67698D01*
X450173Y69709D01*
X455427Y69709D01*
X460282Y67698D01*
X463998Y63982D01*
X466009Y59127D01*
X466009Y53873D01*
X463998Y49018D01*
X460282Y45302D01*
X455427Y43291D01*
X450173Y43291D01*
G37*
%LPD*%
%LPC*%
G36*
X323750Y398567D02*
X323750Y398567D01*
X320202Y400037D01*
X317487Y402752D01*
X316017Y406300D01*
X316017Y410140D01*
X317487Y413688D01*
X329541Y425742D01*
X331914Y426725D01*
X333089Y427212D01*
X336929Y427212D01*
X340477Y425742D01*
X343192Y423027D01*
X344662Y419479D01*
X344662Y415639D01*
X343192Y412091D01*
X331138Y400037D01*
X331056Y400003D01*
X327590Y398567D01*
X323750Y398567D01*
G37*
%LPD*%
%LPC*%
G36*
X305789Y416528D02*
X305789Y416528D01*
X302241Y417997D01*
X299526Y420712D01*
X298057Y424260D01*
X298057Y428100D01*
X299526Y431648D01*
X311581Y443703D01*
X315129Y445172D01*
X318969Y445172D01*
X322517Y443703D01*
X325232Y440988D01*
X326701Y437440D01*
X326701Y433600D01*
X325232Y430052D01*
X313177Y417997D01*
X309629Y416528D01*
X305789Y416528D01*
G37*
%LPD*%
%LPC*%
G36*
X341710Y380607D02*
X341710Y380607D01*
X338162Y382076D01*
X335447Y384791D01*
X333978Y388339D01*
X333978Y392179D01*
X335447Y395727D01*
X347502Y407782D01*
X351050Y409251D01*
X354890Y409251D01*
X358438Y407782D01*
X361153Y405067D01*
X362622Y401519D01*
X362622Y397679D01*
X361153Y394131D01*
X349098Y382076D01*
X345550Y380607D01*
X341710Y380607D01*
G37*
%LPD*%
%LPC*%
G36*
X271002Y454901D02*
X271002Y454901D01*
X267125Y456507D01*
X264627Y459005D01*
X264613Y459016D01*
X264602Y459030D01*
X264458Y459143D01*
X264316Y459260D01*
X264300Y459268D01*
X264286Y459279D01*
X264122Y459362D01*
X263960Y459448D01*
X263943Y459454D01*
X263927Y459462D01*
X263750Y459511D01*
X263574Y459563D01*
X263556Y459565D01*
X263539Y459570D01*
X263356Y459583D01*
X263173Y459600D01*
X263155Y459598D01*
X263137Y459599D01*
X262955Y459576D01*
X262773Y459556D01*
X262756Y459551D01*
X262738Y459549D01*
X262564Y459490D01*
X262389Y459435D01*
X262373Y459426D01*
X262356Y459420D01*
X262197Y459329D01*
X262037Y459240D01*
X262023Y459228D01*
X262007Y459219D01*
X261754Y459005D01*
X260541Y457791D01*
X259262Y456862D01*
X257854Y456145D01*
X256351Y455657D01*
X256031Y455606D01*
X256031Y465450D01*
X256031Y475294D01*
X256351Y475243D01*
X257854Y474755D01*
X259262Y474038D01*
X260541Y473109D01*
X261754Y471895D01*
X261768Y471884D01*
X261780Y471870D01*
X261924Y471756D01*
X262066Y471640D01*
X262082Y471632D01*
X262096Y471621D01*
X262260Y471537D01*
X262422Y471452D01*
X262439Y471446D01*
X262455Y471438D01*
X262632Y471389D01*
X262808Y471337D01*
X262825Y471335D01*
X262843Y471330D01*
X263026Y471317D01*
X263209Y471300D01*
X263226Y471302D01*
X263244Y471301D01*
X263426Y471324D01*
X263609Y471344D01*
X263626Y471349D01*
X263644Y471351D01*
X263817Y471410D01*
X263993Y471465D01*
X264008Y471474D01*
X264025Y471480D01*
X264183Y471571D01*
X264345Y471660D01*
X264359Y471672D01*
X264374Y471681D01*
X264627Y471895D01*
X267125Y474393D01*
X271002Y475999D01*
X275198Y475999D01*
X279075Y474393D01*
X282043Y471425D01*
X283649Y467548D01*
X283649Y463352D01*
X282043Y459475D01*
X279075Y456507D01*
X275198Y454901D01*
X271002Y454901D01*
G37*
%LPD*%
%LPC*%
G36*
X232802Y454901D02*
X232802Y454901D01*
X228925Y456507D01*
X225957Y459475D01*
X224351Y463352D01*
X224351Y467548D01*
X225957Y471425D01*
X228925Y474393D01*
X232802Y475999D01*
X236998Y475999D01*
X240875Y474393D01*
X243373Y471895D01*
X243387Y471884D01*
X243398Y471870D01*
X243542Y471757D01*
X243684Y471640D01*
X243700Y471632D01*
X243714Y471621D01*
X243878Y471538D01*
X244040Y471452D01*
X244057Y471446D01*
X244073Y471438D01*
X244250Y471389D01*
X244426Y471337D01*
X244444Y471335D01*
X244461Y471330D01*
X244644Y471317D01*
X244827Y471300D01*
X244845Y471302D01*
X244863Y471301D01*
X245045Y471324D01*
X245227Y471344D01*
X245244Y471349D01*
X245262Y471351D01*
X245436Y471410D01*
X245611Y471465D01*
X245627Y471474D01*
X245644Y471480D01*
X245803Y471571D01*
X245963Y471660D01*
X245977Y471672D01*
X245993Y471681D01*
X246246Y471895D01*
X247459Y473109D01*
X248738Y474038D01*
X250146Y474755D01*
X251649Y475243D01*
X251969Y475294D01*
X251969Y465450D01*
X251969Y455606D01*
X251649Y455657D01*
X250146Y456145D01*
X248738Y456862D01*
X247459Y457791D01*
X246246Y459005D01*
X246232Y459016D01*
X246220Y459030D01*
X246076Y459144D01*
X245934Y459260D01*
X245918Y459268D01*
X245904Y459279D01*
X245740Y459363D01*
X245578Y459448D01*
X245561Y459454D01*
X245545Y459462D01*
X245368Y459511D01*
X245192Y459563D01*
X245175Y459565D01*
X245157Y459570D01*
X244974Y459583D01*
X244791Y459600D01*
X244774Y459598D01*
X244756Y459599D01*
X244574Y459576D01*
X244391Y459556D01*
X244374Y459551D01*
X244356Y459549D01*
X244183Y459490D01*
X244007Y459435D01*
X243992Y459426D01*
X243975Y459420D01*
X243817Y459329D01*
X243655Y459240D01*
X243641Y459228D01*
X243626Y459219D01*
X243373Y459005D01*
X240875Y456507D01*
X236998Y454901D01*
X232802Y454901D01*
G37*
%LPD*%
G36*
X721740Y339027D02*
X721740Y339027D01*
X721814Y339028D01*
X721911Y339052D01*
X722011Y339067D01*
X722080Y339095D01*
X722152Y339113D01*
X722242Y339159D01*
X722335Y339196D01*
X722396Y339238D01*
X722462Y339273D01*
X722539Y339338D01*
X722621Y339395D01*
X722671Y339450D01*
X722727Y339498D01*
X722787Y339579D01*
X722854Y339654D01*
X722890Y339719D01*
X722935Y339779D01*
X722974Y339871D01*
X723023Y339959D01*
X723043Y340030D01*
X723073Y340099D01*
X723090Y340197D01*
X723118Y340294D01*
X723126Y340394D01*
X723134Y340442D01*
X723132Y340477D01*
X723137Y340538D01*
X723137Y361996D01*
X723120Y362151D01*
X723106Y362305D01*
X723100Y362323D01*
X723097Y362343D01*
X723045Y362489D01*
X722996Y362636D01*
X722986Y362652D01*
X722980Y362671D01*
X722896Y362801D01*
X722815Y362933D01*
X722801Y362947D01*
X722791Y362963D01*
X722679Y363071D01*
X722570Y363182D01*
X722554Y363192D01*
X722540Y363206D01*
X722407Y363285D01*
X722276Y363368D01*
X722258Y363375D01*
X722241Y363384D01*
X722093Y363432D01*
X721947Y363483D01*
X721928Y363485D01*
X721909Y363491D01*
X721755Y363503D01*
X721600Y363519D01*
X721581Y363517D01*
X721562Y363519D01*
X721408Y363496D01*
X721254Y363476D01*
X721236Y363470D01*
X721217Y363467D01*
X721073Y363409D01*
X720927Y363356D01*
X720908Y363344D01*
X720893Y363338D01*
X720857Y363313D01*
X720719Y363229D01*
X719823Y362578D01*
X718410Y361858D01*
X716901Y361367D01*
X715333Y361119D01*
X709499Y361119D01*
X709499Y370224D01*
X709496Y370250D01*
X709498Y370276D01*
X709476Y370423D01*
X709459Y370570D01*
X709451Y370595D01*
X709447Y370621D01*
X709392Y370758D01*
X709342Y370898D01*
X709328Y370920D01*
X709318Y370945D01*
X709233Y371066D01*
X709153Y371191D01*
X709134Y371209D01*
X709119Y371231D01*
X709009Y371330D01*
X708902Y371433D01*
X708880Y371447D01*
X708860Y371464D01*
X708730Y371536D01*
X708603Y371612D01*
X708578Y371620D01*
X708555Y371633D01*
X708412Y371673D01*
X708271Y371718D01*
X708245Y371720D01*
X708220Y371727D01*
X707976Y371747D01*
X706024Y371747D01*
X705998Y371744D01*
X705972Y371746D01*
X705825Y371724D01*
X705678Y371707D01*
X705653Y371698D01*
X705627Y371694D01*
X705489Y371640D01*
X705350Y371590D01*
X705328Y371575D01*
X705303Y371566D01*
X705182Y371481D01*
X705057Y371401D01*
X705039Y371382D01*
X705017Y371367D01*
X704918Y371257D01*
X704815Y371150D01*
X704801Y371127D01*
X704784Y371108D01*
X704712Y370978D01*
X704636Y370851D01*
X704628Y370826D01*
X704615Y370803D01*
X704575Y370660D01*
X704530Y370519D01*
X704527Y370493D01*
X704520Y370468D01*
X704501Y370224D01*
X704501Y361119D01*
X702556Y361119D01*
X702456Y361108D01*
X702356Y361106D01*
X702284Y361088D01*
X702210Y361079D01*
X702115Y361046D01*
X702018Y361021D01*
X701952Y360987D01*
X701882Y360962D01*
X701797Y360907D01*
X701708Y360861D01*
X701651Y360813D01*
X701589Y360773D01*
X701519Y360701D01*
X701443Y360636D01*
X701398Y360576D01*
X701347Y360522D01*
X701295Y360436D01*
X701235Y360355D01*
X701206Y360287D01*
X701168Y360223D01*
X701137Y360127D01*
X701097Y360035D01*
X701084Y359962D01*
X701062Y359891D01*
X701054Y359791D01*
X701036Y359692D01*
X701040Y359618D01*
X701034Y359544D01*
X701049Y359444D01*
X701054Y359344D01*
X701074Y359273D01*
X701085Y359199D01*
X701122Y359106D01*
X701150Y359009D01*
X701187Y358944D01*
X701214Y358875D01*
X701271Y358793D01*
X701320Y358705D01*
X701386Y358629D01*
X701413Y358589D01*
X701439Y358565D01*
X701479Y358519D01*
X720537Y339461D01*
X720615Y339399D01*
X720688Y339329D01*
X720752Y339290D01*
X720810Y339244D01*
X720901Y339201D01*
X720987Y339150D01*
X721058Y339127D01*
X721125Y339095D01*
X721223Y339074D01*
X721319Y339044D01*
X721393Y339038D01*
X721466Y339022D01*
X721566Y339024D01*
X721666Y339016D01*
X721740Y339027D01*
G37*
%LPC*%
G36*
X661293Y180411D02*
X661293Y180411D01*
X657585Y181947D01*
X654747Y184785D01*
X653211Y188493D01*
X653211Y192507D01*
X654747Y196215D01*
X657585Y199053D01*
X661293Y200589D01*
X665307Y200589D01*
X669015Y199053D01*
X671853Y196215D01*
X673389Y192507D01*
X673389Y188493D01*
X671853Y184785D01*
X669015Y181947D01*
X665307Y180411D01*
X661293Y180411D01*
G37*
%LPD*%
%LPC*%
G36*
X661293Y205811D02*
X661293Y205811D01*
X657585Y207347D01*
X654747Y210185D01*
X653211Y213893D01*
X653211Y217907D01*
X654747Y221615D01*
X657585Y224453D01*
X661293Y225989D01*
X665307Y225989D01*
X669015Y224453D01*
X671853Y221615D01*
X673389Y217907D01*
X673389Y213893D01*
X671853Y210185D01*
X669015Y207347D01*
X665307Y205811D01*
X661293Y205811D01*
G37*
%LPD*%
%LPC*%
G36*
X661293Y256611D02*
X661293Y256611D01*
X657585Y258147D01*
X654747Y260985D01*
X653211Y264693D01*
X653211Y268707D01*
X654747Y272415D01*
X657585Y275253D01*
X661293Y276789D01*
X665307Y276789D01*
X669015Y275253D01*
X671853Y272415D01*
X673389Y268707D01*
X673389Y264693D01*
X671853Y260985D01*
X669015Y258147D01*
X665307Y256611D01*
X661293Y256611D01*
G37*
%LPD*%
%LPC*%
G36*
X661293Y282011D02*
X661293Y282011D01*
X657585Y283547D01*
X654747Y286385D01*
X653211Y290093D01*
X653211Y294107D01*
X654747Y297815D01*
X657585Y300653D01*
X661293Y302189D01*
X665307Y302189D01*
X669015Y300653D01*
X671853Y297815D01*
X673389Y294107D01*
X673389Y290093D01*
X671853Y286385D01*
X669015Y283547D01*
X665307Y282011D01*
X661293Y282011D01*
G37*
%LPD*%
%LPC*%
G36*
X585093Y129611D02*
X585093Y129611D01*
X581385Y131147D01*
X578547Y133985D01*
X577011Y137693D01*
X577011Y141707D01*
X578547Y145415D01*
X581385Y148253D01*
X585093Y149789D01*
X589107Y149789D01*
X592815Y148253D01*
X595653Y145415D01*
X597189Y141707D01*
X597189Y137693D01*
X595653Y133985D01*
X592815Y131147D01*
X589107Y129611D01*
X585093Y129611D01*
G37*
%LPD*%
%LPC*%
G36*
X559693Y129611D02*
X559693Y129611D01*
X555985Y131147D01*
X553147Y133985D01*
X551611Y137693D01*
X551611Y141707D01*
X553147Y145415D01*
X555985Y148253D01*
X559693Y149789D01*
X563707Y149789D01*
X567415Y148253D01*
X570253Y145415D01*
X571789Y141707D01*
X571789Y137693D01*
X570253Y133985D01*
X567415Y131147D01*
X563707Y129611D01*
X559693Y129611D01*
G37*
%LPD*%
%LPC*%
G36*
X661293Y129611D02*
X661293Y129611D01*
X657585Y131147D01*
X654747Y133985D01*
X653211Y137693D01*
X653211Y141707D01*
X654747Y145415D01*
X657585Y148253D01*
X661293Y149789D01*
X665307Y149789D01*
X669015Y148253D01*
X671853Y145415D01*
X673389Y141707D01*
X673389Y137693D01*
X671853Y133985D01*
X669015Y131147D01*
X665307Y129611D01*
X661293Y129611D01*
G37*
%LPD*%
%LPC*%
G36*
X635893Y129611D02*
X635893Y129611D01*
X632185Y131147D01*
X629347Y133985D01*
X627811Y137693D01*
X627811Y141707D01*
X629347Y145415D01*
X632185Y148253D01*
X635893Y149789D01*
X639907Y149789D01*
X643615Y148253D01*
X646453Y145415D01*
X647989Y141707D01*
X647989Y137693D01*
X646453Y133985D01*
X643615Y131147D01*
X639907Y129611D01*
X635893Y129611D01*
G37*
%LPD*%
%LPC*%
G36*
X610493Y129611D02*
X610493Y129611D01*
X606785Y131147D01*
X603947Y133985D01*
X602411Y137693D01*
X602411Y141707D01*
X603947Y145415D01*
X606785Y148253D01*
X610493Y149789D01*
X614507Y149789D01*
X618215Y148253D01*
X621053Y145415D01*
X622589Y141707D01*
X622589Y137693D01*
X621053Y133985D01*
X618215Y131147D01*
X614507Y129611D01*
X610493Y129611D01*
G37*
%LPD*%
%LPC*%
G36*
X811889Y459739D02*
X811889Y459739D01*
X811889Y474679D01*
X813250Y474236D01*
X814675Y473510D01*
X815969Y472570D01*
X817100Y471439D01*
X818040Y470145D01*
X818766Y468720D01*
X819261Y467199D01*
X819511Y465620D01*
X819511Y459739D01*
X811889Y459739D01*
G37*
%LPD*%
%LPC*%
G36*
X811889Y454661D02*
X811889Y454661D01*
X819511Y454661D01*
X819511Y448780D01*
X819261Y447201D01*
X818766Y445680D01*
X818040Y444255D01*
X817100Y442961D01*
X815969Y441830D01*
X814675Y440890D01*
X813250Y440164D01*
X811889Y439721D01*
X811889Y454661D01*
G37*
%LPD*%
%LPC*%
G36*
X799189Y459739D02*
X799189Y459739D01*
X799189Y465620D01*
X799439Y467199D01*
X799934Y468720D01*
X800660Y470145D01*
X801600Y471439D01*
X802731Y472570D01*
X804025Y473510D01*
X805450Y474236D01*
X806811Y474679D01*
X806811Y459739D01*
X799189Y459739D01*
G37*
%LPD*%
%LPC*%
G36*
X25384Y285114D02*
X25384Y285114D01*
X25826Y286475D01*
X26552Y287900D01*
X27492Y289194D01*
X28623Y290325D01*
X29917Y291265D01*
X31342Y291991D01*
X32863Y292486D01*
X34443Y292736D01*
X40323Y292736D01*
X40323Y285114D01*
X25384Y285114D01*
G37*
%LPD*%
%LPC*%
G36*
X805450Y440164D02*
X805450Y440164D01*
X804025Y440890D01*
X802731Y441830D01*
X801600Y442961D01*
X800660Y444255D01*
X799934Y445680D01*
X799439Y447201D01*
X799189Y448780D01*
X799189Y454661D01*
X806811Y454661D01*
X806811Y439721D01*
X805450Y440164D01*
G37*
%LPD*%
%LPC*%
G36*
X34443Y272414D02*
X34443Y272414D01*
X32863Y272664D01*
X31342Y273159D01*
X29917Y273885D01*
X28623Y274825D01*
X27492Y275956D01*
X26552Y277250D01*
X25826Y278675D01*
X25384Y280036D01*
X40323Y280036D01*
X40323Y272414D01*
X34443Y272414D01*
G37*
%LPD*%
%LPC*%
G36*
X405720Y59420D02*
X405720Y59420D01*
X405720Y69201D01*
X413295Y69201D01*
X413941Y69028D01*
X414520Y68693D01*
X414993Y68220D01*
X415328Y67641D01*
X415501Y66995D01*
X415501Y59420D01*
X405720Y59420D01*
G37*
%LPD*%
%LPC*%
G36*
X405720Y53580D02*
X405720Y53580D01*
X415501Y53580D01*
X415501Y46005D01*
X415328Y45359D01*
X414993Y44780D01*
X414520Y44307D01*
X413941Y43972D01*
X413295Y43799D01*
X405720Y43799D01*
X405720Y53580D01*
G37*
%LPD*%
%LPC*%
G36*
X390099Y59420D02*
X390099Y59420D01*
X390099Y66995D01*
X390272Y67641D01*
X390607Y68220D01*
X391080Y68693D01*
X391659Y69028D01*
X392305Y69201D01*
X399880Y69201D01*
X399880Y59420D01*
X390099Y59420D01*
G37*
%LPD*%
%LPC*%
G36*
X392305Y43799D02*
X392305Y43799D01*
X391659Y43972D01*
X391080Y44307D01*
X390607Y44780D01*
X390272Y45359D01*
X390099Y46005D01*
X390099Y53580D01*
X399880Y53580D01*
X399880Y43799D01*
X392305Y43799D01*
G37*
%LPD*%
%LPC*%
G36*
X754673Y68899D02*
X754673Y68899D01*
X755118Y70270D01*
X755838Y71683D01*
X756771Y72967D01*
X757893Y74089D01*
X759151Y75003D01*
X759275Y75118D01*
X759401Y75232D01*
X759404Y75236D01*
X759408Y75239D01*
X759504Y75380D01*
X759600Y75518D01*
X759601Y75523D01*
X759604Y75527D01*
X759666Y75687D01*
X759722Y75830D01*
X759816Y75788D01*
X759825Y75786D01*
X759834Y75782D01*
X759996Y75753D01*
X760158Y75722D01*
X760167Y75722D01*
X760177Y75721D01*
X760342Y75729D01*
X760506Y75735D01*
X760517Y75738D01*
X760525Y75738D01*
X760554Y75747D01*
X760744Y75792D01*
X762099Y76233D01*
X763667Y76481D01*
X769501Y76481D01*
X769501Y68899D01*
X754673Y68899D01*
G37*
%LPD*%
%LPC*%
G36*
X665799Y46949D02*
X665799Y46949D01*
X665799Y61777D01*
X667170Y61332D01*
X668583Y60612D01*
X669867Y59679D01*
X670989Y58557D01*
X671922Y57273D01*
X672642Y55860D01*
X673133Y54351D01*
X673381Y52783D01*
X673381Y46949D01*
X665799Y46949D01*
G37*
%LPD*%
%LPC*%
G36*
X199349Y161249D02*
X199349Y161249D01*
X199349Y176077D01*
X200720Y175632D01*
X202134Y174912D01*
X203417Y173979D01*
X204539Y172857D01*
X205472Y171574D01*
X206192Y170160D01*
X206682Y168651D01*
X206931Y167083D01*
X206931Y161249D01*
X199349Y161249D01*
G37*
%LPD*%
%LPC*%
G36*
X307299Y161249D02*
X307299Y161249D01*
X307299Y176077D01*
X308670Y175632D01*
X310084Y174912D01*
X311367Y173979D01*
X312489Y172857D01*
X313422Y171574D01*
X314142Y170160D01*
X314632Y168651D01*
X314881Y167083D01*
X314881Y161249D01*
X307299Y161249D01*
G37*
%LPD*%
%LPC*%
G36*
X774499Y373699D02*
X774499Y373699D01*
X774499Y381281D01*
X780333Y381281D01*
X781901Y381033D01*
X783410Y380542D01*
X784823Y379822D01*
X786107Y378889D01*
X787229Y377767D01*
X788162Y376483D01*
X788882Y375070D01*
X789327Y373699D01*
X774499Y373699D01*
G37*
%LPD*%
%LPC*%
G36*
X774499Y68899D02*
X774499Y68899D01*
X774499Y76481D01*
X780333Y76481D01*
X781901Y76233D01*
X783410Y75742D01*
X784823Y75022D01*
X786107Y74089D01*
X787229Y72967D01*
X788162Y71683D01*
X788882Y70270D01*
X789327Y68899D01*
X774499Y68899D01*
G37*
%LPD*%
%LPC*%
G36*
X199349Y156251D02*
X199349Y156251D01*
X206931Y156251D01*
X206931Y150417D01*
X206682Y148849D01*
X206192Y147340D01*
X205472Y145926D01*
X204539Y144643D01*
X203417Y143521D01*
X202134Y142588D01*
X200720Y141868D01*
X199349Y141423D01*
X199349Y156251D01*
G37*
%LPD*%
%LPC*%
G36*
X307299Y156251D02*
X307299Y156251D01*
X314881Y156251D01*
X314881Y150417D01*
X314632Y148849D01*
X314142Y147340D01*
X313422Y145926D01*
X312489Y144643D01*
X311367Y143521D01*
X310084Y142588D01*
X308670Y141868D01*
X307299Y141423D01*
X307299Y156251D01*
G37*
%LPD*%
%LPC*%
G36*
X665799Y41951D02*
X665799Y41951D01*
X673381Y41951D01*
X673381Y36117D01*
X673133Y34549D01*
X672642Y33040D01*
X671922Y31627D01*
X670989Y30343D01*
X669867Y29221D01*
X668583Y28288D01*
X667170Y27568D01*
X665799Y27123D01*
X665799Y41951D01*
G37*
%LPD*%
%LPC*%
G36*
X774499Y56319D02*
X774499Y56319D01*
X774499Y63901D01*
X789327Y63901D01*
X788882Y62530D01*
X788162Y61117D01*
X787229Y59833D01*
X786107Y58711D01*
X784823Y57778D01*
X783410Y57058D01*
X781901Y56567D01*
X780333Y56319D01*
X774499Y56319D01*
G37*
%LPD*%
%LPC*%
G36*
X709499Y56319D02*
X709499Y56319D01*
X709499Y63901D01*
X724327Y63901D01*
X723882Y62530D01*
X723162Y61117D01*
X722229Y59833D01*
X721107Y58711D01*
X719823Y57778D01*
X718410Y57058D01*
X716901Y56567D01*
X715333Y56319D01*
X709499Y56319D01*
G37*
%LPD*%
%LPC*%
G36*
X774499Y361119D02*
X774499Y361119D01*
X774499Y368701D01*
X789327Y368701D01*
X788882Y367330D01*
X788162Y365917D01*
X787229Y364633D01*
X786107Y363511D01*
X784823Y362578D01*
X783410Y361858D01*
X781901Y361367D01*
X780333Y361119D01*
X774499Y361119D01*
G37*
%LPD*%
%LPC*%
G36*
X653219Y46949D02*
X653219Y46949D01*
X653219Y52783D01*
X653467Y54351D01*
X653958Y55860D01*
X654678Y57273D01*
X655611Y58557D01*
X656733Y59679D01*
X658017Y60612D01*
X659430Y61332D01*
X660801Y61777D01*
X660801Y46949D01*
X653219Y46949D01*
G37*
%LPD*%
%LPC*%
G36*
X186769Y161249D02*
X186769Y161249D01*
X186769Y167083D01*
X187018Y168651D01*
X187508Y170160D01*
X188228Y171574D01*
X189161Y172857D01*
X190283Y173979D01*
X191566Y174912D01*
X192980Y175632D01*
X194351Y176077D01*
X194351Y161249D01*
X186769Y161249D01*
G37*
%LPD*%
%LPC*%
G36*
X294719Y161249D02*
X294719Y161249D01*
X294719Y167083D01*
X294968Y168651D01*
X295458Y170160D01*
X296178Y171574D01*
X297111Y172857D01*
X298233Y173979D01*
X299516Y174912D01*
X300930Y175632D01*
X302301Y176077D01*
X302301Y161249D01*
X294719Y161249D01*
G37*
%LPD*%
%LPC*%
G36*
X763667Y56319D02*
X763667Y56319D01*
X762099Y56567D01*
X760590Y57058D01*
X759177Y57778D01*
X757893Y58711D01*
X756771Y59833D01*
X755838Y61117D01*
X755118Y62530D01*
X754673Y63901D01*
X769501Y63901D01*
X769501Y56319D01*
X763667Y56319D01*
G37*
%LPD*%
%LPC*%
G36*
X698667Y56319D02*
X698667Y56319D01*
X697099Y56567D01*
X695590Y57058D01*
X694177Y57778D01*
X692893Y58711D01*
X691771Y59833D01*
X690838Y61117D01*
X690118Y62530D01*
X689673Y63901D01*
X704501Y63901D01*
X704501Y56319D01*
X698667Y56319D01*
G37*
%LPD*%
%LPC*%
G36*
X659430Y27568D02*
X659430Y27568D01*
X658017Y28288D01*
X656733Y29221D01*
X655611Y30343D01*
X654678Y31627D01*
X653958Y33040D01*
X653467Y34549D01*
X653219Y36117D01*
X653219Y41951D01*
X660801Y41951D01*
X660801Y27123D01*
X659430Y27568D01*
G37*
%LPD*%
%LPC*%
G36*
X192980Y141868D02*
X192980Y141868D01*
X191566Y142588D01*
X190283Y143521D01*
X189161Y144643D01*
X188228Y145926D01*
X187508Y147340D01*
X187018Y148849D01*
X186769Y150417D01*
X186769Y156251D01*
X194351Y156251D01*
X194351Y141423D01*
X192980Y141868D01*
G37*
%LPD*%
%LPC*%
G36*
X300930Y141868D02*
X300930Y141868D01*
X299516Y142588D01*
X298233Y143521D01*
X297111Y144643D01*
X296178Y145926D01*
X295458Y147340D01*
X294968Y148849D01*
X294719Y150417D01*
X294719Y156251D01*
X302301Y156251D01*
X302301Y141423D01*
X300930Y141868D01*
G37*
%LPD*%
D10*
X165100Y685800D03*
X342900Y685800D03*
D11*
X324000Y679450D02*
X284000Y679450D01*
X224000Y679450D02*
X184000Y679450D01*
D12*
X234900Y465450D03*
X254000Y465450D03*
X273100Y465450D03*
D10*
X342900Y673100D03*
X165100Y673100D03*
X335750Y663200D03*
X324000Y659450D03*
X310750Y659450D03*
X297500Y659450D03*
X284000Y659450D03*
X272250Y663200D03*
X265000Y673200D03*
X265000Y685700D03*
X272250Y695700D03*
X284000Y699450D03*
X297500Y699450D03*
X310750Y699450D03*
X324000Y699450D03*
X335750Y695700D03*
X172250Y663200D03*
X184000Y659450D03*
X197250Y659450D03*
X210750Y659450D03*
X224000Y659450D03*
X235750Y663200D03*
X243000Y673200D03*
X243000Y685700D03*
X235750Y695700D03*
X224000Y699450D03*
X210750Y699450D03*
X197250Y699450D03*
X184000Y699450D03*
X172250Y695700D03*
D13*
X301200Y812500D03*
D14*
X351200Y812500D03*
D13*
X148800Y812500D03*
D14*
X198800Y812500D03*
D15*
X449580Y636562D02*
X464820Y636562D01*
X414020Y611162D02*
X398780Y611162D01*
X449580Y585762D02*
X464820Y585762D01*
D16*
X317049Y435520D02*
X307709Y426180D01*
X325670Y408220D02*
X335009Y417559D01*
X388891Y471441D02*
X398230Y480780D01*
X380270Y498741D02*
X370930Y489401D01*
X352970Y399599D02*
X343630Y390259D01*
X406851Y453480D02*
X416191Y462820D01*
D13*
X402800Y56500D03*
D14*
X452800Y56500D03*
D15*
X50483Y333375D02*
X35243Y333375D01*
X35243Y307975D02*
X50483Y307975D01*
X50483Y282575D02*
X35243Y282575D01*
X35243Y257175D02*
X50483Y257175D01*
X50483Y231775D02*
X35243Y231775D01*
X35243Y206375D02*
X50483Y206375D01*
D13*
X47200Y56500D03*
D14*
X97200Y56500D03*
D13*
X148800Y56500D03*
D14*
X198800Y56500D03*
D17*
X196850Y151210D02*
X196850Y166290D01*
X222250Y166290D02*
X222250Y151210D01*
X247650Y151210D02*
X247650Y166290D01*
X273050Y166290D02*
X273050Y151210D01*
D18*
X561700Y139700D03*
X587100Y139700D03*
X612500Y139700D03*
X637900Y139700D03*
X663300Y139700D03*
X663300Y190500D03*
X637900Y190500D03*
X612500Y190500D03*
X587100Y190500D03*
X561700Y190500D03*
X561700Y215900D03*
X587100Y215900D03*
X612500Y215900D03*
X637900Y215900D03*
X663300Y215900D03*
X663300Y266700D03*
X637900Y266700D03*
X612500Y266700D03*
X587100Y266700D03*
X561700Y266700D03*
X561700Y292100D03*
X587100Y292100D03*
X612500Y292100D03*
X637900Y292100D03*
X663300Y292100D03*
X663300Y342900D03*
X637900Y342900D03*
X612500Y342900D03*
X587100Y342900D03*
X561700Y342900D03*
D17*
X663300Y51990D02*
X663300Y36910D01*
X637900Y36910D02*
X637900Y51990D01*
X612500Y51990D02*
X612500Y36910D01*
X587100Y36910D02*
X587100Y51990D01*
D15*
X860150Y449580D02*
X860150Y464820D01*
X834750Y464820D02*
X834750Y449580D01*
X809350Y449580D02*
X809350Y464820D01*
X783950Y464820D02*
X783950Y449580D01*
X758550Y449580D02*
X758550Y464820D01*
X733150Y464820D02*
X733150Y449580D01*
D17*
X764460Y66400D02*
X779540Y66400D01*
X714540Y66400D02*
X699460Y66400D01*
X764460Y111400D02*
X779540Y111400D01*
X714540Y111400D02*
X699460Y111400D01*
X764460Y371200D02*
X779540Y371200D01*
X714540Y371200D02*
X699460Y371200D01*
X764460Y416200D02*
X779540Y416200D01*
X714540Y416200D02*
X699460Y416200D01*
X304800Y166290D02*
X304800Y151210D01*
X330200Y151210D02*
X330200Y166290D01*
X355600Y166290D02*
X355600Y151210D01*
D19*
X171450Y109538D03*
X85725Y290513D03*
X376238Y307975D03*
X406718Y323850D03*
X50800Y381000D03*
X406718Y211138D03*
X365125Y200025D03*
X79375Y109538D03*
X390525Y273050D03*
X130175Y273050D03*
X328613Y207963D03*
X276225Y323850D03*
X334963Y365125D03*
X231775Y306388D03*
X98425Y241300D03*
X142875Y239713D03*
X168275Y157163D03*
X250825Y87313D03*
X368300Y39688D03*
X381000Y39688D03*
X238125Y411163D03*
X374650Y52388D03*
X407988Y155575D03*
X381000Y123825D03*
D20*
X92075Y577850D03*
D21*
X165100Y577850D01*
D20*
X165100Y577850D03*
X152400Y546100D03*
D21*
X81100Y546100D01*
X47650Y579550D01*
X39800Y579550D01*
D20*
X39800Y579550D03*
X107950Y457200D03*
D21*
X107950Y476250D01*
X50800Y533400D01*
D20*
X50800Y533400D03*
D21*
X406851Y453480D02*
X457200Y503829D01*
X457200Y585762D01*
D19*
X355600Y679450D03*
X355600Y654050D03*
X374650Y654050D03*
X298450Y635000D03*
X317500Y635000D03*
X336550Y635000D03*
X355600Y635000D03*
X374650Y635000D03*
X393700Y635000D03*
X317500Y615950D03*
X336550Y615950D03*
X355600Y615950D03*
X374650Y615950D03*
X336550Y596900D03*
X355600Y596900D03*
X374650Y596900D03*
X393700Y596900D03*
X412750Y596900D03*
X349250Y850900D03*
X368300Y850900D03*
X387350Y850900D03*
X406400Y850900D03*
X425450Y850900D03*
X444500Y850900D03*
X463550Y850900D03*
X482600Y850900D03*
X349250Y831850D03*
X368300Y831850D03*
X387350Y831850D03*
X406400Y831850D03*
X425450Y831850D03*
X444500Y831850D03*
X463550Y831850D03*
X482600Y831850D03*
X387350Y812800D03*
X406400Y812800D03*
X425450Y812800D03*
X444500Y812800D03*
X463550Y812800D03*
X482600Y812800D03*
X349250Y793750D03*
X368300Y793750D03*
X387350Y793750D03*
X406400Y793750D03*
X425450Y793750D03*
X444500Y793750D03*
X463550Y793750D03*
X482600Y793750D03*
X349250Y774700D03*
X368300Y774700D03*
X387350Y774700D03*
X406400Y774700D03*
X425450Y774700D03*
X444500Y774700D03*
X463550Y774700D03*
X482600Y774700D03*
X349250Y755650D03*
X368300Y755650D03*
X387350Y755650D03*
X406400Y755650D03*
X425450Y755650D03*
X444500Y755650D03*
X463550Y755650D03*
X482600Y755650D03*
X482600Y736600D03*
X406400Y736600D03*
X387350Y736600D03*
X368300Y736600D03*
X349250Y736600D03*
X368300Y717550D03*
X387350Y717550D03*
X406400Y717550D03*
X387350Y698500D03*
X406400Y698500D03*
X425450Y698500D03*
X482600Y698500D03*
X482600Y717550D03*
X406400Y679450D03*
X425450Y679450D03*
X444500Y679450D03*
X463550Y679450D03*
X482600Y679450D03*
X425450Y660400D03*
X444500Y660400D03*
X463550Y660400D03*
X482600Y660400D03*
X368300Y812800D03*
X482600Y641350D03*
X196850Y850900D03*
X215900Y850900D03*
X234950Y850900D03*
X254000Y850900D03*
X273050Y850900D03*
X292100Y850900D03*
X311150Y850900D03*
X311150Y831850D03*
X292100Y831850D03*
X273050Y831850D03*
X254000Y831850D03*
X234950Y831850D03*
X215900Y831850D03*
X234950Y812800D03*
X254000Y812800D03*
X273050Y812800D03*
X215900Y793750D03*
X234950Y793750D03*
X254000Y793750D03*
X273050Y793750D03*
X292100Y793750D03*
X311150Y793750D03*
X234950Y774700D03*
X254000Y774700D03*
X273050Y774700D03*
X292100Y774700D03*
X311150Y774700D03*
X254000Y755650D03*
X273050Y755650D03*
X292100Y755650D03*
X311150Y755650D03*
X196850Y831850D03*
X215900Y812800D03*
X95250Y781050D03*
X95250Y819150D03*
X114300Y819150D03*
X114300Y800100D03*
X95250Y800100D03*
X114300Y781050D03*
X133350Y781050D03*
X152400Y781050D03*
X95250Y762000D03*
X114300Y762000D03*
X133350Y762000D03*
X152400Y762000D03*
X171450Y762000D03*
X95250Y742950D03*
X114300Y742950D03*
X133350Y742950D03*
X152400Y742950D03*
X171450Y742950D03*
X190500Y742950D03*
X95250Y723900D03*
X114300Y723900D03*
X133350Y723900D03*
X152400Y723900D03*
X171450Y723900D03*
X190500Y723900D03*
X209550Y723900D03*
X114300Y704850D03*
X133350Y704850D03*
X152400Y704850D03*
X133350Y685800D03*
X152400Y685800D03*
X152400Y666750D03*
X133350Y819150D03*
X133350Y800100D03*
X92075Y169863D03*
D22*
X82550Y190500D02*
X82550Y227013D01*
X63500Y246063D01*
X63500Y293688D01*
X49213Y307975D01*
X42863Y307975D01*
X82550Y190500D02*
X92075Y180975D01*
X92075Y169863D01*
D19*
X80963Y177800D03*
D22*
X76200Y182563D02*
X76200Y223838D01*
X42863Y257175D01*
X76200Y182563D02*
X80963Y177800D01*
D19*
X82550Y158750D03*
D22*
X69850Y171450D01*
X69850Y209550D01*
X47625Y231775D01*
X42863Y231775D01*
D21*
X97200Y56500D02*
X97200Y55200D01*
X120650Y31750D01*
X177800Y31750D01*
X198800Y52750D01*
X198800Y56500D01*
D19*
X750613Y93663D03*
D23*
X747438Y90488D02*
X652188Y90488D01*
X612500Y50800D01*
X747438Y90488D02*
X750613Y93663D01*
X612500Y50800D02*
X612500Y44450D01*
D19*
X768075Y94382D03*
D23*
X756243Y82550D01*
X655363Y82550D01*
X637900Y65088D01*
X637900Y44450D01*
D22*
X752200Y450850D02*
X758550Y457200D01*
D19*
X828400Y272255D03*
D22*
X752200Y348455D01*
X752200Y450850D01*
D19*
X767449Y170899D03*
X871263Y241300D03*
X787125Y260350D03*
X895075Y260350D03*
X895075Y285750D03*
X771250Y298450D03*
X555350Y95250D03*
X612500Y107950D03*
X637900Y107950D03*
X804588Y126492D03*
X872850Y69850D03*
X758550Y144463D03*
X796650Y396875D03*
X847450Y397510D03*
D24*
X561700Y190500D02*
X549000Y203200D01*
X549000Y266700D01*
X549000Y330200D01*
X561700Y342900D01*
X561700Y266700D02*
X549000Y266700D01*
X574400Y203200D02*
X587100Y190500D01*
X574400Y203200D02*
X574400Y266700D01*
X574400Y330200D01*
X587100Y342900D01*
X587100Y266700D02*
X574400Y266700D01*
X609325Y193675D02*
X612500Y190500D01*
X609325Y193675D02*
X599800Y203200D01*
X599800Y266700D01*
X599800Y330200D01*
X612500Y342900D01*
X612500Y266700D02*
X599800Y266700D01*
X625200Y203200D02*
X637900Y190500D01*
X625200Y203200D02*
X625200Y266700D01*
X625200Y330200D01*
X637900Y342900D01*
X637900Y266700D02*
X625200Y266700D01*
D19*
X772838Y260350D03*
X663300Y431800D03*
D22*
X772838Y283213D02*
X772838Y260350D01*
X772838Y283213D02*
X745998Y310052D01*
X745998Y387202D01*
X688093Y404088D02*
X663300Y428881D01*
X688093Y404088D02*
X729112Y404088D01*
X745998Y387202D01*
X663300Y428881D02*
X663300Y431800D01*
D19*
X761598Y244475D03*
X650600Y425450D03*
D22*
X739902Y307527D02*
X763186Y284243D01*
X739902Y384677D02*
X726587Y397992D01*
X739902Y384677D02*
X739902Y307527D01*
X763186Y284243D02*
X763186Y246063D01*
X726587Y397992D02*
X675521Y397992D01*
X650600Y422913D01*
X650600Y425450D01*
X763186Y246063D02*
X761598Y244475D01*
D19*
X752200Y260350D03*
X637900Y431800D03*
D22*
X753788Y268288D02*
X752200Y266700D01*
X753788Y285020D02*
X733806Y305002D01*
X733806Y382152D01*
X753788Y285020D02*
X753788Y268288D01*
X733806Y382152D02*
X724062Y391896D01*
X670504Y391896D01*
X641029Y431800D02*
X637900Y431800D01*
X640948Y429448D02*
X640948Y421452D01*
X640948Y429448D02*
X641029Y429529D01*
X641029Y431800D01*
X640948Y421452D02*
X670504Y391896D01*
X752200Y266700D02*
X752200Y260350D01*
D19*
X742294Y244475D03*
X625200Y425450D03*
D22*
X746302Y269423D02*
X742294Y265415D01*
X742294Y244475D01*
X746302Y269423D02*
X746302Y283885D01*
X727710Y302477D01*
X727710Y379627D01*
X721537Y385800D01*
X664850Y385800D02*
X625200Y425450D01*
X664850Y385800D02*
X721537Y385800D01*
D19*
X735817Y274139D03*
X612500Y431800D03*
D22*
X735817Y285749D02*
X735817Y274139D01*
X735817Y285749D02*
X721614Y299952D01*
X721614Y331917D01*
X673827Y379704D01*
X615548Y428752D02*
X612500Y431800D01*
X615548Y428752D02*
X615548Y421452D01*
X657296Y379704D01*
X673827Y379704D01*
D19*
X887138Y192088D03*
D22*
X876919Y202306D01*
X781248Y202306D01*
X757646Y178704D01*
X737692Y158750D01*
D19*
X695050Y158750D03*
D22*
X737692Y158750D01*
D19*
X891529Y206746D03*
D22*
X889873Y208402D02*
X778723Y208402D01*
X748248Y177927D01*
X737739Y177927D01*
X701654Y214012D01*
X701654Y215646D01*
D19*
X695050Y222250D03*
D22*
X701654Y215646D01*
X889873Y208402D02*
X891529Y206746D01*
D19*
X886952Y220477D03*
D22*
X776198Y214498D02*
X745723Y184023D01*
X740265Y184023D01*
D19*
X693674Y298450D03*
D22*
X707750Y216538D02*
X740265Y184023D01*
X707750Y279331D02*
X697230Y289851D01*
X697230Y294894D01*
X707750Y279331D02*
X707750Y216538D01*
X697230Y294894D02*
X693674Y298450D01*
X776198Y214498D02*
X880973Y214498D01*
X886952Y220477D01*
D19*
X898250Y142875D03*
D22*
X898250Y150813D02*
X917300Y169863D01*
X898250Y150813D02*
X898250Y142875D01*
X917300Y169863D02*
X917300Y343850D01*
X894704Y366446D01*
X894704Y371475D01*
D19*
X894704Y371475D03*
X885550Y133350D03*
D22*
X888598Y136398D01*
X888598Y150048D01*
X910950Y172400D01*
X910950Y339725D02*
X880788Y369888D01*
D19*
X880788Y369888D03*
D22*
X910950Y339725D02*
X910950Y172400D01*
D19*
X788713Y244475D03*
D22*
X775248Y308102D02*
X771123Y308102D01*
X755375Y323850D01*
X788713Y248288D02*
X788713Y244475D01*
X788713Y248288D02*
X796777Y256352D01*
X796777Y286573D01*
X775248Y308102D01*
X755650Y323850D02*
X755375Y323850D01*
D19*
X755650Y323850D03*
D24*
X772000Y111400D02*
X707000Y111400D01*
D19*
X804588Y142875D03*
D22*
X773113Y111400D01*
X772000Y111400D01*
D19*
X735817Y221808D03*
X599800Y425450D03*
D22*
X726165Y286780D02*
X726165Y231460D01*
X735817Y221808D01*
X715518Y297427D02*
X715518Y329392D01*
X715518Y297427D02*
X726165Y286780D01*
X602929Y425450D02*
X599800Y425450D01*
X671302Y373608D02*
X715518Y329392D01*
X654771Y373608D02*
X602929Y425450D01*
X654771Y373608D02*
X671302Y373608D01*
D19*
X739500Y208600D03*
X587100Y431800D03*
D22*
X735944Y212156D02*
X739500Y208600D01*
X735944Y212156D02*
X731819Y212156D01*
X720069Y223906D01*
X720069Y284255D01*
X709422Y294902D02*
X709422Y326867D01*
X709422Y294902D02*
X720069Y284255D01*
X709422Y326867D02*
X668777Y367512D01*
X587958Y431800D02*
X587100Y431800D01*
X587958Y431800D02*
X590148Y429610D01*
X590148Y425450D02*
X590148Y421452D01*
X590148Y425450D02*
X590148Y429610D01*
X652246Y367512D02*
X668777Y367512D01*
X595802Y415798D02*
X590148Y421452D01*
X595802Y415798D02*
X603960Y415798D01*
X652246Y367512D01*
D19*
X573605Y425450D03*
D22*
X735375Y199075D02*
X735502Y198948D01*
X735375Y199075D02*
X713973Y220477D01*
X713973Y281730D02*
X703326Y292377D01*
X703326Y324342D01*
X666252Y361416D01*
X713973Y281730D02*
X713973Y220477D01*
X666252Y361416D02*
X649721Y361416D01*
X601435Y409702D02*
X593277Y409702D01*
X577448Y425450D02*
X577448Y425531D01*
X593277Y409702D01*
X601435Y409702D02*
X649721Y361416D01*
D19*
X742675Y195263D03*
D22*
X738990Y198948D02*
X735502Y198948D01*
X738990Y198948D02*
X742675Y195263D01*
X577448Y425450D02*
X573605Y425450D01*
M02*
