G04 EAGLE Gerber X2 export*
%TF.Part,Single*%
%TF.FileFunction,Copper,L1,Top,Mixed*%
%TF.FilePolarity,Positive*%
%TF.GenerationSoftware,Autodesk,EAGLE,9.1.0*%
%TF.CreationDate,2018-08-14T15:45:10Z*%
G75*
%MOMM*%
%FSLAX34Y34*%
%LPD*%
%AMOC8*
5,1,8,0,0,1.08239X$1,22.5*%
G01*
%ADD10C,1.008000*%
%ADD11C,4.000000*%
%ADD12C,1.500000*%
%ADD13R,1.100000X1.000000*%
%ADD14R,1.000000X1.100000*%
%ADD15R,2.032000X2.032000*%
%ADD16C,2.032000*%
%ADD17R,1.000000X1.400000*%
%ADD18R,1.600000X1.803000*%
%ADD19R,1.803000X1.600000*%
%ADD20R,1.400000X1.800000*%
%ADD21R,0.700000X0.500000*%
%ADD22R,2.500000X2.550000*%
%ADD23R,0.800000X1.200000*%
%ADD24C,1.524000*%
%ADD25C,1.320800*%
%ADD26R,1.600000X1.800000*%
%ADD27R,2.000000X1.600000*%
%ADD28R,1.600000X2.000000*%
%ADD29R,1.200000X0.400000*%
%ADD30R,0.400000X1.200000*%
%ADD31R,1.219200X2.235200*%
%ADD32R,3.600000X2.200000*%
%ADD33R,2.400000X1.600000*%
%ADD34R,2.000000X5.500000*%
%ADD35R,1.981200X0.558800*%
%ADD36R,0.660400X2.032000*%
%ADD37C,1.508000*%
%ADD38C,1.016000*%
%ADD39C,0.508000*%
%ADD40C,0.812800*%
%ADD41C,0.304800*%
%ADD42C,1.016000*%
%ADD43C,0.406400*%
%ADD44C,1.006400*%
%ADD45C,0.609600*%

G36*
X487826Y626621D02*
X487826Y626621D01*
X487844Y626619D01*
X488026Y626640D01*
X488209Y626659D01*
X488226Y626664D01*
X488243Y626666D01*
X488418Y626723D01*
X488594Y626777D01*
X488609Y626785D01*
X488626Y626791D01*
X488786Y626881D01*
X488948Y626969D01*
X488961Y626980D01*
X488977Y626989D01*
X489116Y627109D01*
X489257Y627226D01*
X489268Y627240D01*
X489282Y627252D01*
X489394Y627397D01*
X489509Y627540D01*
X489517Y627556D01*
X489528Y627570D01*
X489610Y627735D01*
X489695Y627897D01*
X489700Y627914D01*
X489708Y627931D01*
X489755Y628109D01*
X489806Y628284D01*
X489808Y628302D01*
X489812Y628319D01*
X489839Y628650D01*
X489839Y856808D01*
X489837Y856826D01*
X489839Y856844D01*
X489818Y857026D01*
X489799Y857209D01*
X489794Y857226D01*
X489792Y857243D01*
X489735Y857418D01*
X489681Y857594D01*
X489673Y857609D01*
X489667Y857626D01*
X489577Y857786D01*
X489489Y857948D01*
X489478Y857961D01*
X489469Y857977D01*
X489349Y858116D01*
X489232Y858257D01*
X489218Y858268D01*
X489206Y858282D01*
X489061Y858394D01*
X488918Y858509D01*
X488902Y858517D01*
X488888Y858528D01*
X488723Y858610D01*
X488561Y858695D01*
X488544Y858700D01*
X488528Y858708D01*
X488349Y858755D01*
X488174Y858806D01*
X488156Y858808D01*
X488139Y858812D01*
X487808Y858839D01*
X342900Y858839D01*
X342882Y858837D01*
X342864Y858839D01*
X342682Y858818D01*
X342499Y858799D01*
X342482Y858794D01*
X342465Y858792D01*
X342290Y858735D01*
X342114Y858681D01*
X342099Y858673D01*
X342082Y858667D01*
X341922Y858577D01*
X341760Y858489D01*
X341747Y858478D01*
X341731Y858469D01*
X341592Y858349D01*
X341451Y858232D01*
X341440Y858218D01*
X341427Y858206D01*
X341314Y858061D01*
X341199Y857918D01*
X341191Y857902D01*
X341180Y857888D01*
X341098Y857723D01*
X341013Y857561D01*
X341008Y857544D01*
X341000Y857528D01*
X340953Y857349D01*
X340902Y857174D01*
X340900Y857156D01*
X340896Y857139D01*
X340869Y856808D01*
X340869Y736600D01*
X340871Y736573D01*
X340869Y736547D01*
X340891Y736373D01*
X340909Y736199D01*
X340917Y736174D01*
X340920Y736147D01*
X340976Y735982D01*
X341027Y735814D01*
X341040Y735791D01*
X341048Y735766D01*
X341135Y735614D01*
X341219Y735460D01*
X341236Y735440D01*
X341249Y735417D01*
X341464Y735164D01*
X449414Y627214D01*
X449434Y627197D01*
X449452Y627177D01*
X449590Y627069D01*
X449725Y626959D01*
X449749Y626946D01*
X449770Y626930D01*
X449927Y626852D01*
X450081Y626770D01*
X450106Y626762D01*
X450131Y626750D01*
X450300Y626705D01*
X450467Y626655D01*
X450493Y626653D01*
X450519Y626646D01*
X450850Y626619D01*
X487808Y626619D01*
X487826Y626621D01*
G37*
G36*
X225426Y649376D02*
X225426Y649376D01*
X225629Y649390D01*
X230004Y649992D01*
X230015Y649994D01*
X230027Y649995D01*
X230228Y650040D01*
X234459Y651301D01*
X234470Y651306D01*
X234482Y651308D01*
X234673Y651383D01*
X236014Y652019D01*
X241300Y652019D01*
X241318Y652021D01*
X241336Y652019D01*
X241518Y652040D01*
X241701Y652059D01*
X241718Y652064D01*
X241735Y652066D01*
X241910Y652123D01*
X242086Y652177D01*
X242101Y652185D01*
X242118Y652191D01*
X242278Y652281D01*
X242440Y652369D01*
X242453Y652380D01*
X242469Y652389D01*
X242608Y652509D01*
X242749Y652626D01*
X242760Y652640D01*
X242774Y652652D01*
X242886Y652797D01*
X243001Y652940D01*
X243009Y652956D01*
X243020Y652970D01*
X243102Y653135D01*
X243187Y653297D01*
X243192Y653314D01*
X243200Y653331D01*
X243247Y653509D01*
X243298Y653684D01*
X243300Y653702D01*
X243304Y653719D01*
X243331Y654050D01*
X243331Y656598D01*
X245931Y659013D01*
X245939Y659023D01*
X245949Y659030D01*
X246087Y659182D01*
X248826Y662645D01*
X248854Y662690D01*
X248888Y662729D01*
X248944Y662837D01*
X249008Y662939D01*
X249024Y662989D01*
X249049Y663036D01*
X249079Y663153D01*
X249117Y663267D01*
X249122Y663319D01*
X249135Y663370D01*
X249149Y663575D01*
X249149Y695325D01*
X249142Y695390D01*
X249144Y695455D01*
X249122Y695561D01*
X249109Y695668D01*
X249087Y695730D01*
X249074Y695794D01*
X249029Y695892D01*
X248992Y695994D01*
X248956Y696048D01*
X248929Y696107D01*
X248810Y696275D01*
X246022Y699681D01*
X246017Y699686D01*
X246013Y699692D01*
X245871Y699840D01*
X243331Y702153D01*
X243331Y711200D01*
X243329Y711227D01*
X243331Y711253D01*
X243309Y711427D01*
X243291Y711601D01*
X243284Y711626D01*
X243280Y711653D01*
X243225Y711818D01*
X243173Y711986D01*
X243160Y712009D01*
X243152Y712034D01*
X243065Y712186D01*
X242981Y712340D01*
X242964Y712360D01*
X242951Y712383D01*
X242736Y712636D01*
X167131Y788241D01*
X167131Y825500D01*
X167129Y825518D01*
X167131Y825536D01*
X167110Y825718D01*
X167091Y825901D01*
X167086Y825918D01*
X167084Y825935D01*
X167027Y826110D01*
X166973Y826286D01*
X166965Y826301D01*
X166959Y826318D01*
X166869Y826478D01*
X166781Y826640D01*
X166770Y826653D01*
X166761Y826669D01*
X166641Y826808D01*
X166524Y826949D01*
X166510Y826960D01*
X166498Y826974D01*
X166353Y827086D01*
X166210Y827201D01*
X166194Y827209D01*
X166180Y827220D01*
X166015Y827302D01*
X165853Y827387D01*
X165836Y827392D01*
X165820Y827400D01*
X165641Y827447D01*
X165466Y827498D01*
X165448Y827500D01*
X165431Y827504D01*
X165100Y827531D01*
X88900Y827531D01*
X88882Y827529D01*
X88864Y827531D01*
X88682Y827510D01*
X88499Y827491D01*
X88482Y827486D01*
X88465Y827484D01*
X88290Y827427D01*
X88114Y827373D01*
X88099Y827365D01*
X88082Y827359D01*
X87922Y827269D01*
X87760Y827181D01*
X87747Y827170D01*
X87731Y827161D01*
X87592Y827041D01*
X87451Y826924D01*
X87440Y826910D01*
X87427Y826898D01*
X87314Y826753D01*
X87199Y826610D01*
X87191Y826594D01*
X87180Y826580D01*
X87098Y826415D01*
X87013Y826253D01*
X87008Y826236D01*
X87000Y826220D01*
X86953Y826041D01*
X86902Y825866D01*
X86900Y825848D01*
X86896Y825831D01*
X86869Y825500D01*
X86869Y717550D01*
X86871Y717523D01*
X86869Y717497D01*
X86891Y717323D01*
X86909Y717149D01*
X86917Y717124D01*
X86920Y717097D01*
X86976Y716932D01*
X87027Y716764D01*
X87040Y716741D01*
X87048Y716716D01*
X87135Y716564D01*
X87219Y716410D01*
X87236Y716390D01*
X87249Y716367D01*
X87464Y716114D01*
X150964Y652614D01*
X150984Y652597D01*
X151002Y652577D01*
X151140Y652469D01*
X151275Y652359D01*
X151299Y652346D01*
X151320Y652330D01*
X151477Y652252D01*
X151631Y652170D01*
X151656Y652162D01*
X151681Y652150D01*
X151850Y652105D01*
X152017Y652055D01*
X152043Y652053D01*
X152069Y652046D01*
X152400Y652019D01*
X171944Y652019D01*
X175180Y650749D01*
X175189Y650746D01*
X175197Y650742D01*
X175394Y650683D01*
X179558Y649733D01*
X179567Y649731D01*
X179576Y649728D01*
X179779Y649699D01*
X184038Y649380D01*
X184070Y649381D01*
X184150Y649376D01*
X225425Y649376D01*
X225426Y649376D01*
G37*
G36*
X317518Y734571D02*
X317518Y734571D01*
X317536Y734569D01*
X317718Y734590D01*
X317901Y734609D01*
X317918Y734614D01*
X317935Y734616D01*
X318110Y734673D01*
X318286Y734727D01*
X318301Y734735D01*
X318318Y734741D01*
X318478Y734831D01*
X318640Y734919D01*
X318653Y734930D01*
X318669Y734939D01*
X318808Y735059D01*
X318949Y735176D01*
X318960Y735190D01*
X318974Y735202D01*
X319086Y735347D01*
X319201Y735490D01*
X319209Y735506D01*
X319220Y735520D01*
X319302Y735685D01*
X319387Y735847D01*
X319392Y735864D01*
X319400Y735881D01*
X319447Y736059D01*
X319498Y736234D01*
X319500Y736252D01*
X319504Y736269D01*
X319531Y736600D01*
X319531Y856808D01*
X319529Y856826D01*
X319531Y856844D01*
X319510Y857026D01*
X319491Y857209D01*
X319486Y857226D01*
X319484Y857243D01*
X319427Y857418D01*
X319373Y857594D01*
X319365Y857609D01*
X319359Y857626D01*
X319269Y857786D01*
X319181Y857948D01*
X319170Y857961D01*
X319161Y857977D01*
X319041Y858116D01*
X318924Y858257D01*
X318910Y858268D01*
X318898Y858282D01*
X318753Y858394D01*
X318610Y858509D01*
X318594Y858517D01*
X318580Y858528D01*
X318415Y858610D01*
X318253Y858695D01*
X318236Y858700D01*
X318220Y858708D01*
X318041Y858755D01*
X317866Y858806D01*
X317848Y858808D01*
X317831Y858812D01*
X317500Y858839D01*
X190500Y858839D01*
X190482Y858837D01*
X190464Y858839D01*
X190282Y858818D01*
X190099Y858799D01*
X190082Y858794D01*
X190065Y858792D01*
X189890Y858735D01*
X189714Y858681D01*
X189699Y858673D01*
X189682Y858667D01*
X189522Y858577D01*
X189360Y858489D01*
X189347Y858478D01*
X189331Y858469D01*
X189192Y858349D01*
X189051Y858232D01*
X189040Y858218D01*
X189027Y858206D01*
X188914Y858061D01*
X188799Y857918D01*
X188791Y857902D01*
X188780Y857888D01*
X188698Y857723D01*
X188613Y857561D01*
X188608Y857544D01*
X188600Y857528D01*
X188553Y857349D01*
X188502Y857174D01*
X188500Y857156D01*
X188496Y857139D01*
X188469Y856808D01*
X188469Y800100D01*
X188471Y800073D01*
X188469Y800047D01*
X188491Y799873D01*
X188509Y799699D01*
X188517Y799674D01*
X188520Y799647D01*
X188576Y799482D01*
X188627Y799314D01*
X188640Y799291D01*
X188648Y799266D01*
X188735Y799114D01*
X188819Y798960D01*
X188836Y798940D01*
X188849Y798917D01*
X189064Y798664D01*
X252564Y735164D01*
X252584Y735147D01*
X252602Y735127D01*
X252740Y735019D01*
X252875Y734909D01*
X252899Y734896D01*
X252920Y734880D01*
X253077Y734802D01*
X253231Y734720D01*
X253256Y734712D01*
X253281Y734700D01*
X253450Y734655D01*
X253617Y734605D01*
X253643Y734603D01*
X253669Y734596D01*
X254000Y734569D01*
X317500Y734569D01*
X317518Y734571D01*
G37*
G36*
X425468Y588521D02*
X425468Y588521D01*
X425486Y588519D01*
X425668Y588540D01*
X425851Y588559D01*
X425868Y588564D01*
X425885Y588566D01*
X426060Y588623D01*
X426236Y588677D01*
X426251Y588685D01*
X426268Y588691D01*
X426428Y588781D01*
X426590Y588869D01*
X426603Y588880D01*
X426619Y588889D01*
X426758Y589009D01*
X426899Y589126D01*
X426910Y589140D01*
X426924Y589152D01*
X427036Y589297D01*
X427151Y589440D01*
X427159Y589456D01*
X427170Y589470D01*
X427252Y589635D01*
X427337Y589797D01*
X427342Y589814D01*
X427350Y589831D01*
X427397Y590009D01*
X427448Y590184D01*
X427450Y590202D01*
X427454Y590219D01*
X427481Y590550D01*
X427481Y615950D01*
X427479Y615977D01*
X427481Y616003D01*
X427459Y616177D01*
X427441Y616351D01*
X427434Y616376D01*
X427430Y616403D01*
X427375Y616568D01*
X427323Y616736D01*
X427310Y616759D01*
X427302Y616784D01*
X427215Y616936D01*
X427131Y617090D01*
X427114Y617110D01*
X427101Y617133D01*
X426886Y617386D01*
X350006Y694267D01*
X349947Y694388D01*
X349942Y694396D01*
X349939Y694405D01*
X349835Y694582D01*
X347430Y698111D01*
X347423Y698118D01*
X347419Y698126D01*
X347290Y698286D01*
X344385Y701417D01*
X344378Y701423D01*
X344372Y701431D01*
X344221Y701569D01*
X340882Y704232D01*
X340874Y704237D01*
X340867Y704244D01*
X340697Y704358D01*
X338846Y705427D01*
X337986Y706286D01*
X337966Y706303D01*
X337948Y706324D01*
X337810Y706431D01*
X337675Y706541D01*
X337651Y706554D01*
X337630Y706570D01*
X337473Y706648D01*
X337319Y706730D01*
X337294Y706738D01*
X337270Y706750D01*
X337100Y706795D01*
X336933Y706845D01*
X336907Y706847D01*
X336881Y706854D01*
X336550Y706881D01*
X336056Y706881D01*
X332820Y708151D01*
X332811Y708154D01*
X332803Y708158D01*
X332606Y708217D01*
X328443Y709168D01*
X328433Y709169D01*
X328424Y709172D01*
X328221Y709201D01*
X323962Y709520D01*
X323930Y709519D01*
X323850Y709524D01*
X282575Y709524D01*
X282574Y709524D01*
X282371Y709510D01*
X277996Y708909D01*
X277985Y708906D01*
X277973Y708905D01*
X277772Y708860D01*
X273541Y707599D01*
X273530Y707594D01*
X273518Y707592D01*
X273327Y707517D01*
X271986Y706881D01*
X266700Y706881D01*
X266682Y706879D01*
X266664Y706881D01*
X266482Y706860D01*
X266299Y706841D01*
X266282Y706836D01*
X266265Y706834D01*
X266090Y706777D01*
X265914Y706723D01*
X265899Y706715D01*
X265882Y706709D01*
X265722Y706619D01*
X265560Y706531D01*
X265547Y706520D01*
X265531Y706511D01*
X265392Y706391D01*
X265251Y706274D01*
X265240Y706260D01*
X265227Y706248D01*
X265114Y706103D01*
X264999Y705960D01*
X264991Y705944D01*
X264980Y705930D01*
X264898Y705765D01*
X264813Y705603D01*
X264808Y705586D01*
X264800Y705570D01*
X264753Y705391D01*
X264702Y705216D01*
X264700Y705198D01*
X264696Y705181D01*
X264669Y704850D01*
X264669Y702302D01*
X262069Y699887D01*
X262061Y699877D01*
X262051Y699870D01*
X261913Y699718D01*
X259174Y696255D01*
X259146Y696210D01*
X259112Y696171D01*
X259056Y696064D01*
X258992Y695961D01*
X258976Y695911D01*
X258951Y695864D01*
X258921Y695747D01*
X258883Y695633D01*
X258878Y695581D01*
X258865Y695530D01*
X258851Y695325D01*
X258851Y663575D01*
X258858Y663510D01*
X258856Y663445D01*
X258878Y663339D01*
X258891Y663232D01*
X258913Y663170D01*
X258926Y663106D01*
X258971Y663008D01*
X259008Y662906D01*
X259044Y662852D01*
X259071Y662793D01*
X259190Y662625D01*
X261978Y659219D01*
X261983Y659214D01*
X261987Y659208D01*
X262129Y659060D01*
X264669Y656747D01*
X264669Y654050D01*
X264671Y654023D01*
X264669Y653997D01*
X264691Y653823D01*
X264709Y653649D01*
X264717Y653624D01*
X264720Y653597D01*
X264776Y653432D01*
X264827Y653264D01*
X264840Y653241D01*
X264848Y653216D01*
X264935Y653064D01*
X265019Y652910D01*
X265036Y652890D01*
X265049Y652867D01*
X265264Y652614D01*
X328764Y589114D01*
X328784Y589097D01*
X328802Y589077D01*
X328940Y588969D01*
X329075Y588859D01*
X329099Y588846D01*
X329120Y588830D01*
X329277Y588752D01*
X329431Y588670D01*
X329456Y588662D01*
X329481Y588650D01*
X329650Y588605D01*
X329817Y588555D01*
X329843Y588553D01*
X329869Y588546D01*
X330200Y588519D01*
X425450Y588519D01*
X425468Y588521D01*
G37*
%LPC*%
G36*
X446688Y693839D02*
X446688Y693839D01*
X440288Y695554D01*
X434551Y698866D01*
X429866Y703551D01*
X426554Y709288D01*
X424839Y715688D01*
X424839Y722312D01*
X426554Y728712D01*
X429866Y734449D01*
X434551Y739134D01*
X440288Y742446D01*
X446688Y744161D01*
X453312Y744161D01*
X459712Y742446D01*
X465449Y739134D01*
X470134Y734449D01*
X473446Y728712D01*
X475161Y722312D01*
X475161Y715688D01*
X473446Y709288D01*
X470134Y703551D01*
X465449Y698866D01*
X459712Y695554D01*
X453312Y693839D01*
X446688Y693839D01*
G37*
%LPD*%
D10*
X165100Y685800D03*
X342900Y685800D03*
D11*
X324000Y679450D02*
X284000Y679450D01*
X224000Y679450D02*
X184000Y679450D01*
D12*
X234900Y465450D03*
X254000Y465450D03*
X273100Y465450D03*
D10*
X342900Y673100D03*
X165100Y673100D03*
X335750Y663200D03*
X324000Y659450D03*
X310750Y659450D03*
X297500Y659450D03*
X284000Y659450D03*
X272250Y663200D03*
X265000Y673200D03*
X265000Y685700D03*
X272250Y695700D03*
X284000Y699450D03*
X297500Y699450D03*
X310750Y699450D03*
X324000Y699450D03*
X335750Y695700D03*
X172250Y663200D03*
X184000Y659450D03*
X197250Y659450D03*
X210750Y659450D03*
X224000Y659450D03*
X235750Y663200D03*
X243000Y673200D03*
X243000Y685700D03*
X235750Y695700D03*
X224000Y699450D03*
X210750Y699450D03*
X197250Y699450D03*
X184000Y699450D03*
X172250Y695700D03*
D13*
X425450Y332250D03*
X425450Y349250D03*
D14*
X257175Y427500D03*
X257175Y444500D03*
X238125Y445625D03*
X238125Y428625D03*
D13*
X144000Y317500D03*
X127000Y317500D03*
X276225Y445625D03*
X276225Y428625D03*
X323850Y375113D03*
X323850Y392113D03*
D15*
X301200Y812500D03*
D16*
X351200Y812500D03*
D15*
X148800Y812500D03*
D16*
X198800Y812500D03*
D17*
X139700Y601550D03*
X149200Y579550D03*
X130200Y579550D03*
X63500Y601550D03*
X73000Y579550D03*
X54000Y579550D03*
D18*
X131830Y628650D03*
X160270Y628650D03*
X52320Y628650D03*
X23880Y628650D03*
X100080Y520700D03*
X128520Y520700D03*
D19*
X133350Y455680D03*
X133350Y484120D03*
D20*
X97300Y546100D03*
X131300Y546100D03*
D21*
X100950Y482600D03*
X113950Y482600D03*
D22*
X177800Y457350D03*
X177800Y507850D03*
D17*
X63500Y497000D03*
X54000Y519000D03*
X73000Y519000D03*
D23*
X76200Y455450D03*
X50800Y455450D03*
X50800Y395450D03*
X76200Y395450D03*
D13*
X101600Y398000D03*
X101600Y381000D03*
D24*
X449580Y636562D02*
X464820Y636562D01*
X414020Y611162D02*
X398780Y611162D01*
X449580Y585762D02*
X464820Y585762D01*
D25*
X317049Y435520D02*
X307709Y426180D01*
X325670Y408220D02*
X335009Y417559D01*
X388891Y471441D02*
X398230Y480780D01*
X380270Y498741D02*
X370930Y489401D01*
X352970Y399599D02*
X343630Y390259D01*
X406851Y453480D02*
X416191Y462820D01*
D26*
X452725Y501650D03*
X480725Y501650D03*
D27*
X368300Y538450D03*
X368300Y566450D03*
X406400Y538450D03*
X406400Y566450D03*
D28*
X480725Y539750D03*
X452725Y539750D03*
D29*
X166550Y307150D03*
X166550Y299150D03*
X166550Y291150D03*
X166550Y283150D03*
X166550Y315150D03*
X166550Y323150D03*
X166550Y331150D03*
X166550Y339150D03*
D30*
X205550Y268150D03*
X197550Y268150D03*
X189550Y268150D03*
X181550Y268150D03*
X213550Y268150D03*
X221550Y268150D03*
X229550Y268150D03*
X237550Y268150D03*
D29*
X252550Y283150D03*
X252550Y291150D03*
X252550Y299150D03*
X252550Y307150D03*
X252550Y315150D03*
X252550Y323150D03*
X252550Y331150D03*
X252550Y339150D03*
D30*
X237550Y354150D03*
X229550Y354150D03*
X221550Y354150D03*
X213550Y354150D03*
X205550Y354150D03*
X197550Y354150D03*
X189550Y354150D03*
X181550Y354150D03*
D31*
X223139Y88138D03*
X200025Y88138D03*
X176911Y88138D03*
D32*
X200025Y26160D03*
D15*
X47200Y56500D03*
D16*
X97200Y56500D03*
D33*
X146050Y65800D03*
X146050Y35800D03*
X254000Y35800D03*
X254000Y65800D03*
D24*
X449580Y209550D02*
X464820Y209550D01*
X464820Y234950D02*
X449580Y234950D01*
X449580Y260350D02*
X464820Y260350D01*
X464820Y285750D02*
X449580Y285750D01*
X449580Y311150D02*
X464820Y311150D01*
X464820Y336550D02*
X449580Y336550D01*
D34*
X69850Y346800D03*
X69850Y262800D03*
D35*
X404622Y266700D03*
X404622Y279400D03*
X404622Y292100D03*
X404622Y304800D03*
X357378Y304800D03*
X357378Y292100D03*
X357378Y279400D03*
X357378Y266700D03*
D14*
X428625Y251950D03*
X428625Y234950D03*
X107950Y353550D03*
X107950Y336550D03*
X107950Y268750D03*
X107950Y285750D03*
D13*
X107950Y300500D03*
X107950Y317500D03*
D14*
X142875Y363075D03*
X142875Y346075D03*
D13*
X285288Y282575D03*
X268288Y282575D03*
D14*
X138113Y283038D03*
X138113Y300038D03*
D13*
X313200Y282575D03*
X330200Y282575D03*
D36*
X412750Y221234D03*
X412750Y159766D03*
X400050Y221234D03*
X387350Y221234D03*
X400050Y159766D03*
X387350Y159766D03*
X374650Y221234D03*
X374650Y159766D03*
D14*
X361950Y233925D03*
X361950Y216925D03*
X301163Y336550D03*
X284163Y336550D03*
X301163Y317500D03*
X284163Y317500D03*
X385200Y133350D03*
X402200Y133350D03*
D15*
X301200Y56500D03*
D16*
X351200Y56500D03*
D13*
X442350Y107950D03*
X459350Y107950D03*
X397900Y107950D03*
X414900Y107950D03*
D15*
X402800Y56500D03*
D16*
X452800Y56500D03*
D13*
X370450Y107950D03*
X353450Y107950D03*
X302650Y107950D03*
X319650Y107950D03*
D37*
X133350Y149225D03*
X133350Y174625D03*
X158750Y149225D03*
X158750Y174625D03*
X184150Y149225D03*
X184150Y174625D03*
X209550Y149225D03*
X209550Y174625D03*
X234950Y149225D03*
X234950Y174625D03*
X260350Y149225D03*
X260350Y174625D03*
X285750Y149225D03*
X285750Y174625D03*
X311150Y149225D03*
X311150Y174625D03*
D13*
X254000Y229725D03*
X254000Y212725D03*
X273050Y229725D03*
X273050Y212725D03*
X292100Y229725D03*
X292100Y212725D03*
X101600Y230750D03*
X101600Y213750D03*
X120650Y230750D03*
X120650Y213750D03*
X139700Y230750D03*
X139700Y213750D03*
X158750Y230750D03*
X158750Y213750D03*
X177800Y230750D03*
X177800Y213750D03*
X196850Y230750D03*
X196850Y213750D03*
X215900Y230750D03*
X215900Y213750D03*
X234950Y230750D03*
X234950Y213750D03*
D14*
X315913Y230750D03*
X315913Y213750D03*
X336550Y230750D03*
X336550Y213750D03*
D38*
X200025Y26160D02*
X210945Y15240D01*
X484760Y15240D01*
X484760Y209550D01*
X484760Y342900D01*
X200025Y26160D02*
X189105Y15240D01*
X15240Y15240D01*
X15240Y212725D02*
X15240Y381000D01*
X209665Y35800D02*
X200025Y26160D01*
X209665Y35800D02*
X254000Y35800D01*
D39*
X120697Y284210D02*
X136525Y300038D01*
X120697Y284210D02*
X120697Y261356D01*
D40*
X68891Y212725D02*
X15240Y212725D01*
D39*
X138741Y346075D02*
X142875Y346075D01*
X138741Y346075D02*
X105944Y378872D01*
X102769Y382047D02*
X16287Y382047D01*
X15240Y381000D01*
D41*
X138875Y300800D02*
X145913Y300800D01*
X143450Y345500D02*
X153850Y345500D01*
X143450Y345500D02*
X142875Y346075D01*
D39*
X103728Y378872D02*
X101600Y381000D01*
X103728Y378872D02*
X105944Y378872D01*
X102769Y382047D01*
D40*
X438150Y209550D02*
X457200Y209550D01*
X438150Y209550D02*
X425450Y196850D01*
X387350Y196850D01*
X371475Y196850D01*
D39*
X387350Y196850D02*
X387350Y221234D01*
D41*
X269334Y283150D02*
X252550Y283150D01*
D40*
X457200Y209550D02*
X484760Y209550D01*
X371475Y196850D02*
X361950Y206375D01*
D39*
X361950Y216925D01*
D38*
X200025Y88138D02*
X200025Y26160D01*
D41*
X160200Y339150D02*
X153850Y345500D01*
X160200Y339150D02*
X166550Y339150D01*
D40*
X133350Y174625D02*
X106991Y174625D01*
D39*
X106013Y246672D02*
X120697Y261356D01*
X106013Y246672D02*
X97447Y246672D01*
D40*
X349267Y257159D02*
X349267Y221137D01*
X353479Y216925D01*
X361950Y216925D01*
D39*
X97447Y246672D02*
X88900Y238125D01*
X88900Y231775D01*
X69370Y212245D01*
D41*
X145913Y300800D02*
X152263Y307150D01*
X166550Y307150D01*
D39*
X238125Y445625D02*
X238075Y445675D01*
X238075Y462275D01*
D40*
X69370Y212245D02*
X106991Y174625D01*
D38*
X15240Y212725D02*
X15240Y15240D01*
D40*
X15240Y381000D02*
X15240Y408940D01*
X19050Y412750D01*
X215900Y412750D01*
X222250Y419100D01*
X222250Y457200D01*
X230500Y465450D01*
X234900Y465450D01*
D41*
X425450Y349250D02*
X478410Y349250D01*
X484760Y342900D01*
D39*
X238075Y462275D02*
X234900Y465450D01*
X268288Y280988D02*
X277813Y271463D01*
X268288Y280988D02*
X268288Y282575D01*
X277813Y271463D02*
X330200Y271463D01*
X330200Y282575D01*
X338138Y271463D02*
X342900Y266700D01*
X349250Y266700D01*
X357378Y266700D01*
X338138Y271463D02*
X330200Y271463D01*
X349250Y257175D02*
X349267Y257159D01*
X349250Y257175D02*
X349250Y266700D01*
D41*
X138875Y300800D02*
X138113Y300038D01*
D39*
X136525Y300038D01*
D40*
X68891Y212725D02*
X69370Y212245D01*
X268288Y282575D02*
X268863Y283150D01*
X269334Y283150D01*
D39*
X414900Y107950D02*
X428625Y107950D01*
D42*
X428625Y107950D03*
D39*
X460375Y106925D02*
X460375Y92075D01*
D42*
X460375Y92075D03*
D38*
X146050Y35800D02*
X124700Y35800D01*
X123825Y34925D01*
D42*
X123825Y34925D03*
D38*
X254000Y65800D02*
X254000Y88900D01*
D42*
X254000Y88900D03*
D38*
X253238Y88138D02*
X223139Y88138D01*
X253238Y88138D02*
X254000Y88900D01*
X285288Y282575D02*
X300038Y282575D01*
D42*
X300038Y282575D03*
D38*
X428625Y273050D02*
X428625Y251950D01*
D42*
X428625Y273050D03*
X131763Y269875D03*
D38*
X107950Y268750D02*
X99550Y260350D01*
X93345Y260350D01*
D42*
X93345Y260350D03*
D38*
X50800Y395450D02*
X42700Y395450D01*
X38100Y400050D01*
D42*
X38100Y400050D03*
D38*
X96375Y365125D02*
X107950Y353550D01*
X96375Y365125D02*
X93345Y365125D01*
D42*
X93345Y365125D03*
D38*
X147175Y363075D02*
X155575Y371475D01*
D42*
X155575Y371475D03*
D38*
X319650Y107950D02*
X336550Y107950D01*
D42*
X336550Y107950D03*
D38*
X353450Y107950D01*
D39*
X400050Y221234D02*
X400050Y232679D01*
D42*
X385826Y241300D03*
D39*
X391429Y241300D02*
X400050Y232679D01*
X391429Y241300D02*
X385826Y241300D01*
X361950Y233925D02*
X361950Y249238D01*
D42*
X361950Y249238D03*
D38*
X313200Y282575D02*
X300038Y282575D01*
D40*
X315913Y246063D02*
X315913Y230750D01*
D42*
X315913Y246063D03*
D40*
X336550Y254000D02*
X336550Y230750D01*
D42*
X336550Y254000D03*
D38*
X147175Y363075D02*
X142875Y363075D01*
D39*
X459350Y107950D02*
X460375Y106925D01*
D40*
X457200Y260350D02*
X428625Y260350D01*
D39*
X131763Y269875D02*
X131763Y276688D01*
X138113Y283038D01*
X123825Y304800D02*
X123825Y314325D01*
D42*
X123825Y304800D03*
D39*
X404622Y304800D02*
X425450Y304800D01*
D42*
X425450Y304800D03*
D41*
X337022Y292719D02*
X320052Y292719D01*
X313200Y285866D01*
D39*
X412750Y159766D02*
X412750Y149225D01*
X415925Y146050D01*
X415925Y108975D01*
X414900Y107950D01*
X181550Y354150D02*
X181550Y365700D01*
X185738Y369888D01*
D42*
X185738Y369888D03*
D39*
X189550Y366075D02*
X189550Y354150D01*
X189550Y366075D02*
X185738Y369888D01*
X249375Y268150D02*
X252413Y265113D01*
D42*
X252413Y265113D03*
D39*
X428625Y260350D02*
X428625Y251950D01*
X257175Y444500D02*
X257175Y462275D01*
X255588Y444500D02*
X239713Y428625D01*
X255588Y444500D02*
X257175Y444500D01*
D40*
X311150Y374650D02*
X323388Y374650D01*
D42*
X311150Y374650D03*
D39*
X257175Y462275D02*
X254000Y465450D01*
X239713Y428625D02*
X238125Y428625D01*
D40*
X323388Y374650D02*
X323850Y375113D01*
D41*
X313200Y285866D02*
X313200Y282575D01*
X337022Y292719D02*
X343445Y286295D01*
X345007Y284734D01*
D39*
X249375Y268150D02*
X237550Y268150D01*
D41*
X345007Y284734D02*
X350341Y279400D01*
X357378Y279400D01*
D39*
X127000Y317500D02*
X123825Y314325D01*
D42*
X241300Y88900D03*
X266700Y88900D03*
D38*
X254000Y88900D01*
D39*
X257175Y427500D02*
X275100Y427500D01*
D43*
X229550Y268150D02*
X229550Y259400D01*
X236538Y252413D01*
D42*
X236538Y252413D03*
X250825Y412750D03*
D39*
X257175Y419100D02*
X257175Y427500D01*
X257175Y419100D02*
X250825Y412750D01*
X275100Y427500D02*
X276225Y428625D01*
X276225Y445625D02*
X276225Y462325D01*
X273100Y465450D01*
D38*
X139700Y601550D02*
X131830Y609420D01*
X131830Y628650D01*
X63500Y617470D02*
X63500Y601550D01*
X63500Y617470D02*
X52320Y628650D01*
D44*
X92075Y577850D03*
X165100Y577850D03*
D38*
X150900Y577850D01*
X149200Y579550D01*
X97300Y546100D02*
X97300Y523480D01*
X100080Y520700D01*
X74700Y520700D01*
X73000Y519000D01*
D45*
X100950Y488950D02*
X100950Y482600D01*
D38*
X100950Y519830D02*
X100080Y520700D01*
X100950Y519830D02*
X100950Y488950D01*
X90375Y579550D02*
X73000Y579550D01*
X90375Y579550D02*
X92075Y577850D01*
X97300Y572625D01*
X97300Y546100D01*
X131300Y546100D02*
X131300Y554500D01*
X130175Y555625D01*
X130175Y579525D01*
X130200Y579550D01*
D44*
X152400Y546100D03*
D38*
X131300Y546100D02*
X131300Y523480D01*
X128520Y520700D01*
X131300Y546100D02*
X152400Y546100D01*
X141370Y520550D02*
X165100Y520550D01*
X141370Y520550D02*
X141220Y520700D01*
X54000Y579550D02*
X39800Y579550D01*
D44*
X39800Y579550D03*
D38*
X19050Y482600D02*
X46200Y455450D01*
X19050Y482600D02*
X19050Y558800D01*
X165100Y520550D02*
X177800Y507850D01*
X141220Y520700D02*
X128520Y520700D01*
X50800Y455450D02*
X46200Y455450D01*
X19050Y558800D02*
X39800Y579550D01*
D45*
X113950Y482600D02*
X120650Y482600D01*
D38*
X146050Y482600D02*
X171300Y457350D01*
X146050Y482600D02*
X134870Y482600D01*
X133350Y484120D01*
X131830Y482600D01*
X120650Y482600D01*
X171300Y457350D02*
X177800Y457350D01*
X133350Y455680D02*
X122170Y455680D01*
X120650Y457200D01*
X107950Y457200D01*
D44*
X107950Y457200D03*
X50800Y533400D03*
D38*
X54000Y530200D02*
X54000Y519000D01*
X54000Y530200D02*
X50800Y533400D01*
X76200Y469900D02*
X76200Y455450D01*
X76200Y469900D02*
X63500Y482600D01*
X63500Y497000D01*
D39*
X76200Y395450D02*
X99050Y395450D01*
X101600Y398000D01*
D41*
X173500Y398000D01*
X197550Y373950D02*
X197550Y354150D01*
X197550Y373950D02*
X173500Y398000D01*
D38*
X370930Y489401D02*
X370930Y535820D01*
X368300Y538450D01*
X438150Y501650D02*
X452725Y501650D01*
X438150Y501650D02*
X406400Y533400D01*
X406400Y538450D01*
X454025Y541050D02*
X454025Y582587D01*
X454025Y541050D02*
X452725Y539750D01*
X454025Y582587D02*
X457200Y585762D01*
D39*
X252589Y369189D02*
X237550Y354150D01*
X252589Y369189D02*
X284565Y369189D01*
X307975Y392599D01*
X307975Y428625D01*
X314870Y435520D01*
X317049Y435520D01*
D38*
X368300Y566450D02*
X406400Y566450D01*
X406400Y611162D01*
D42*
X355600Y679450D03*
X355600Y654050D03*
X374650Y654050D03*
X298450Y635000D03*
X317500Y635000D03*
X336550Y635000D03*
X355600Y635000D03*
X374650Y635000D03*
X393700Y635000D03*
X317500Y615950D03*
X336550Y615950D03*
X355600Y615950D03*
X374650Y615950D03*
X336550Y596900D03*
X355600Y596900D03*
X374650Y596900D03*
X393700Y596900D03*
X412750Y596900D03*
D38*
X480725Y539750D02*
X480725Y501650D01*
D43*
X480725Y539750D02*
X487808Y546833D01*
X487808Y628650D01*
X479896Y636562D01*
X457200Y636562D01*
D42*
X349250Y850900D03*
X368300Y850900D03*
X387350Y850900D03*
X406400Y850900D03*
X425450Y850900D03*
X444500Y850900D03*
X463550Y850900D03*
X482600Y850900D03*
X349250Y831850D03*
X368300Y831850D03*
X387350Y831850D03*
X406400Y831850D03*
X425450Y831850D03*
X444500Y831850D03*
X463550Y831850D03*
X482600Y831850D03*
X387350Y812800D03*
X406400Y812800D03*
X425450Y812800D03*
X444500Y812800D03*
X463550Y812800D03*
X482600Y812800D03*
X349250Y793750D03*
X368300Y793750D03*
X387350Y793750D03*
X406400Y793750D03*
X425450Y793750D03*
X444500Y793750D03*
X463550Y793750D03*
X482600Y793750D03*
X349250Y774700D03*
X368300Y774700D03*
X387350Y774700D03*
X406400Y774700D03*
X425450Y774700D03*
X444500Y774700D03*
X463550Y774700D03*
X482600Y774700D03*
X349250Y755650D03*
X368300Y755650D03*
X387350Y755650D03*
X406400Y755650D03*
X425450Y755650D03*
X444500Y755650D03*
X463550Y755650D03*
X482600Y755650D03*
X482600Y736600D03*
X406400Y736600D03*
X387350Y736600D03*
X368300Y736600D03*
X349250Y736600D03*
X368300Y717550D03*
X387350Y717550D03*
X406400Y717550D03*
X387350Y698500D03*
X406400Y698500D03*
X425450Y698500D03*
X482600Y698500D03*
X482600Y717550D03*
X406400Y679450D03*
X425450Y679450D03*
X444500Y679450D03*
X463550Y679450D03*
X482600Y679450D03*
X425450Y660400D03*
X444500Y660400D03*
X463550Y660400D03*
X482600Y660400D03*
X368300Y812800D03*
X482600Y641350D03*
D38*
X198800Y812500D02*
X198800Y842600D01*
D40*
X59882Y853632D02*
X19050Y812800D01*
X19050Y630170D01*
X198800Y842600D02*
X198800Y848950D01*
X194118Y853632D02*
X59882Y853632D01*
X194118Y853632D02*
X196850Y850900D01*
X198800Y848950D01*
X19050Y630170D02*
X20570Y628650D01*
X23880Y628650D01*
D42*
X196850Y850900D03*
X215900Y850900D03*
X234950Y850900D03*
X254000Y850900D03*
X273050Y850900D03*
X292100Y850900D03*
X311150Y850900D03*
X311150Y831850D03*
X292100Y831850D03*
X273050Y831850D03*
X254000Y831850D03*
X234950Y831850D03*
X215900Y831850D03*
X234950Y812800D03*
X254000Y812800D03*
X273050Y812800D03*
X215900Y793750D03*
X234950Y793750D03*
X254000Y793750D03*
X273050Y793750D03*
X292100Y793750D03*
X311150Y793750D03*
X234950Y774700D03*
X254000Y774700D03*
X273050Y774700D03*
X292100Y774700D03*
X311150Y774700D03*
X254000Y755650D03*
X273050Y755650D03*
X292100Y755650D03*
X311150Y755650D03*
X196850Y831850D03*
X215900Y812800D03*
D38*
X160270Y671580D02*
X160270Y628650D01*
X160270Y671580D02*
X158750Y673100D01*
X165100Y679450D01*
X184000Y679450D01*
D42*
X95250Y781050D03*
X95250Y819150D03*
X114300Y819150D03*
X114300Y800100D03*
X95250Y800100D03*
X114300Y781050D03*
X133350Y781050D03*
X152400Y781050D03*
X95250Y762000D03*
X114300Y762000D03*
X133350Y762000D03*
X152400Y762000D03*
X171450Y762000D03*
X95250Y742950D03*
X114300Y742950D03*
X133350Y742950D03*
X152400Y742950D03*
X171450Y742950D03*
X190500Y742950D03*
X95250Y723900D03*
X114300Y723900D03*
X133350Y723900D03*
X152400Y723900D03*
X171450Y723900D03*
X190500Y723900D03*
X209550Y723900D03*
X114300Y704850D03*
X133350Y704850D03*
X152400Y704850D03*
X133350Y685800D03*
X152400Y685800D03*
X152400Y666750D03*
X133350Y819150D03*
X133350Y800100D03*
D38*
X120000Y56500D02*
X97200Y56500D01*
X129300Y65800D02*
X146050Y65800D01*
X129300Y65800D02*
X120000Y56500D01*
X146050Y65800D02*
X154573Y65800D01*
X176911Y88138D01*
D41*
X388938Y262772D02*
X388938Y330518D01*
X343384Y343853D02*
X333375Y353861D01*
X343384Y343853D02*
X375603Y343853D01*
X388938Y330518D01*
X273611Y353861D02*
X258900Y339150D01*
X273611Y353861D02*
X333375Y353861D01*
X428625Y234950D02*
X457200Y234950D01*
X258900Y339150D02*
X252550Y339150D01*
X388938Y262772D02*
X413584Y238125D01*
X425450Y238125D02*
X428625Y234950D01*
X425450Y238125D02*
X413584Y238125D01*
X261646Y331150D02*
X252550Y331150D01*
X261646Y331150D02*
X277690Y347194D01*
X330669Y347194D01*
X340678Y337185D01*
D42*
X372364Y333290D03*
D41*
X368469Y337185D02*
X340678Y337185D01*
X368469Y337185D02*
X372364Y333290D01*
X379294Y350520D02*
X412314Y317500D01*
X450850Y317500D02*
X457200Y311150D01*
X425450Y317500D02*
X412314Y317500D01*
X425450Y317500D02*
X450850Y317500D01*
X166550Y315150D02*
X146350Y315150D01*
X144000Y317500D01*
X166550Y315150D02*
X213550Y315150D01*
X258929Y360529D02*
X336384Y360529D01*
X346393Y350520D01*
X258929Y360529D02*
X213550Y315150D01*
X346393Y350520D02*
X379294Y350520D01*
X425450Y332250D02*
X425450Y317500D01*
X107950Y300500D02*
X107950Y285750D01*
X92800Y285750D01*
X69850Y262800D01*
X110175Y334325D02*
X153850Y334325D01*
X110175Y334325D02*
X107950Y336550D01*
X80100Y336550D01*
X69850Y346800D01*
X153850Y334325D02*
X157025Y331150D01*
X166550Y331150D01*
X150675Y327913D02*
X118363Y327913D01*
X107950Y317500D01*
X150675Y327913D02*
X155438Y323150D01*
X166550Y323150D01*
X252550Y307150D02*
X355028Y307150D01*
X357378Y304800D01*
X253281Y299881D02*
X252550Y299150D01*
X350838Y292100D02*
X357378Y292100D01*
X350838Y292100D02*
X343057Y299881D01*
X253281Y299881D01*
X252550Y323150D02*
X262825Y323150D01*
X276225Y336550D02*
X284163Y336550D01*
X276225Y336550D02*
X262825Y323150D01*
X252550Y315150D02*
X281813Y315150D01*
X284163Y317500D01*
D38*
X370450Y75750D02*
X351200Y56500D01*
X370450Y75750D02*
X370450Y107950D01*
X442350Y107950D02*
X442350Y66950D01*
X452800Y56500D01*
D40*
X385200Y122700D02*
X370450Y107950D01*
X385200Y122700D02*
X385200Y133350D01*
X387350Y135500D02*
X387350Y159766D01*
X387350Y135500D02*
X385200Y133350D01*
D41*
X307195Y330518D02*
X301163Y336550D01*
X382270Y260668D02*
X412750Y230188D01*
X361336Y330518D02*
X307195Y330518D01*
X361336Y330518D02*
X382270Y309584D01*
X382270Y260668D01*
X412750Y230188D02*
X412750Y221234D01*
X375603Y305892D02*
X363994Y317500D01*
X375603Y305892D02*
X375603Y222187D01*
X363994Y317500D02*
X301163Y317500D01*
X375603Y222187D02*
X374650Y221234D01*
D38*
X397900Y61400D02*
X402800Y56500D01*
X397900Y61400D02*
X397900Y107950D01*
X302650Y57950D02*
X301200Y56500D01*
X302650Y57950D02*
X302650Y107950D01*
X302650Y57950D02*
X301200Y56500D01*
D40*
X400050Y135500D02*
X400050Y159766D01*
X400050Y135500D02*
X402200Y133350D01*
X402200Y119625D01*
X396875Y114300D01*
X396875Y108975D01*
X397900Y107950D01*
D41*
X165819Y299881D02*
X159077Y299881D01*
X148256Y289060D01*
X148256Y271302D01*
X166550Y299150D02*
X165819Y299881D01*
X101600Y230996D02*
X101600Y230750D01*
X136580Y259626D02*
X148256Y271302D01*
X130230Y259626D02*
X101600Y230996D01*
X130230Y259626D02*
X136580Y259626D01*
X164837Y291150D02*
X164106Y291881D01*
X160665Y291881D01*
X154924Y286140D01*
X154924Y264435D01*
X164837Y291150D02*
X166550Y291150D01*
X154924Y264435D02*
X121238Y230750D01*
X120650Y230750D01*
X166550Y260925D02*
X166550Y283150D01*
X139700Y234075D02*
X139700Y230750D01*
X139700Y234075D02*
X166550Y260925D01*
X181550Y252275D02*
X160025Y230750D01*
X158750Y230750D01*
X181550Y252275D02*
X181550Y268150D01*
X189550Y268150D02*
X189550Y250750D01*
X177800Y239000D01*
X177800Y230750D01*
X197550Y231450D02*
X197550Y268150D01*
X197550Y231450D02*
X196850Y230750D01*
X215900Y240275D02*
X205550Y250625D01*
X205550Y268150D01*
X215900Y240275D02*
X215900Y230750D01*
X213550Y252150D02*
X213550Y268150D01*
X213550Y252150D02*
X234950Y230750D01*
X254000Y212725D02*
X254000Y209367D01*
X247667Y203034D01*
X247667Y161909D01*
X260350Y149225D01*
X266700Y206375D02*
X273050Y212725D01*
X266700Y206375D02*
X260350Y200025D01*
X260350Y174625D01*
X273050Y161925D02*
X273050Y193675D01*
X292100Y212725D01*
X273050Y161925D02*
X285750Y149225D01*
X315350Y213750D02*
X315913Y213750D01*
X315350Y213750D02*
X285750Y184150D01*
X285750Y174625D01*
X220819Y253844D02*
X220819Y267419D01*
X241300Y241300D02*
X255588Y255588D01*
X290999Y255588D01*
X312621Y213750D02*
X315913Y213750D01*
X312621Y213750D02*
X304182Y222190D01*
X304182Y242405D01*
X290999Y255588D01*
X233363Y241300D02*
X220819Y253844D01*
X233363Y241300D02*
X241300Y241300D01*
X220819Y267419D02*
X221550Y268150D01*
X336550Y174625D02*
X311150Y149225D01*
X336550Y174625D02*
X336550Y213750D01*
X246665Y291881D02*
X241407Y286623D01*
X246665Y291881D02*
X251819Y291881D01*
X269875Y263525D02*
X314325Y263525D01*
X331671Y213750D02*
X336550Y213750D01*
X331671Y213750D02*
X326407Y219015D01*
X326407Y251444D02*
X314325Y263525D01*
X326407Y251444D02*
X326407Y219015D01*
X252550Y291150D02*
X251819Y291881D01*
X241407Y279677D02*
X245077Y276007D01*
X257394Y276007D01*
X241407Y279677D02*
X241407Y286623D01*
X257394Y276007D02*
X269875Y263525D01*
X258763Y244475D02*
X258763Y234488D01*
D42*
X258763Y244475D03*
X274638Y381000D03*
D41*
X249890Y390694D02*
X220819Y361623D01*
X220819Y354881D01*
X221550Y354150D01*
X249890Y390694D02*
X264944Y390694D01*
X274638Y381000D01*
X258763Y234488D02*
X254000Y229725D01*
X273050Y229725D02*
X273050Y244475D01*
D42*
X273050Y244475D03*
X285750Y393700D03*
D41*
X212819Y363210D02*
X212819Y354881D01*
X258763Y396875D02*
X282575Y396875D01*
X258763Y396875D02*
X246484Y396875D01*
X212819Y363210D01*
X212819Y354881D02*
X213550Y354150D01*
X282575Y396875D02*
X285750Y393700D01*
X287338Y234488D02*
X292100Y229725D01*
X287338Y234488D02*
X287338Y244475D01*
D42*
X287338Y244475D03*
X296863Y406400D03*
D41*
X244086Y403098D02*
X204819Y363832D01*
X256411Y403098D02*
X259713Y406400D01*
X296863Y406400D01*
X256411Y403098D02*
X244086Y403098D01*
X204819Y363832D02*
X204819Y354881D01*
X205550Y354150D01*
X158750Y156600D02*
X158750Y149225D01*
X128042Y187309D02*
X101600Y213750D01*
X128042Y187309D02*
X137946Y187309D01*
X146034Y179221D01*
X146034Y169317D01*
X158750Y156600D01*
X158750Y175650D02*
X120650Y213750D01*
X158750Y175650D02*
X158750Y174625D01*
X171467Y181984D02*
X139700Y213750D01*
X184150Y155758D02*
X184150Y149225D01*
X171467Y168441D02*
X171467Y181984D01*
X171467Y168441D02*
X184150Y155758D01*
X184150Y188350D02*
X158750Y213750D01*
X184150Y188350D02*
X184150Y174625D01*
X196867Y194684D02*
X177800Y213750D01*
X209550Y155758D02*
X209550Y149225D01*
X196867Y168441D02*
X196867Y194684D01*
X196867Y168441D02*
X209550Y155758D01*
X209550Y201050D02*
X196850Y213750D01*
X209550Y201050D02*
X209550Y174625D01*
X222250Y207400D02*
X215900Y213750D01*
X222250Y161925D02*
X234950Y149225D01*
X222250Y161925D02*
X222250Y207400D01*
X234950Y213750D02*
X234950Y174625D01*
D39*
X323850Y392113D02*
X323850Y406400D01*
X335009Y417559D01*
M02*
