G04 EAGLE Gerber X2 export*
%TF.Part,Single*%
%TF.FileFunction,Copper,L2,Bot,Mixed*%
%TF.FilePolarity,Positive*%
%TF.GenerationSoftware,Autodesk,EAGLE,9.1.0*%
%TF.CreationDate,2018-08-15T12:32:46Z*%
G75*
%MOMM*%
%FSLAX34Y34*%
%LPD*%
%AMOC8*
5,1,8,0,0,1.08239X$1,22.5*%
G01*
%ADD10C,1.008000*%
%ADD11C,4.000000*%
%ADD12C,1.500000*%
%ADD13R,2.032000X2.032000*%
%ADD14C,2.032000*%
%ADD15C,1.524000*%
%ADD16C,1.320800*%
%ADD17C,1.508000*%
%ADD18C,1.016000*%
%ADD19C,1.006400*%
%ADD20C,1.016000*%
%ADD21C,0.304800*%

G36*
X487826Y10163D02*
X487826Y10163D01*
X487844Y10161D01*
X488026Y10182D01*
X488209Y10201D01*
X488226Y10206D01*
X488243Y10208D01*
X488418Y10265D01*
X488594Y10319D01*
X488609Y10327D01*
X488626Y10333D01*
X488786Y10423D01*
X488948Y10511D01*
X488961Y10522D01*
X488977Y10531D01*
X489116Y10651D01*
X489257Y10768D01*
X489268Y10782D01*
X489282Y10794D01*
X489394Y10939D01*
X489509Y11082D01*
X489517Y11098D01*
X489528Y11112D01*
X489610Y11277D01*
X489695Y11439D01*
X489700Y11456D01*
X489708Y11472D01*
X489755Y11651D01*
X489806Y11826D01*
X489808Y11844D01*
X489812Y11861D01*
X489839Y12192D01*
X489839Y406400D01*
X489837Y406418D01*
X489839Y406436D01*
X489818Y406618D01*
X489799Y406801D01*
X489794Y406818D01*
X489792Y406835D01*
X489735Y407010D01*
X489681Y407186D01*
X489673Y407201D01*
X489667Y407218D01*
X489577Y407378D01*
X489489Y407540D01*
X489478Y407553D01*
X489469Y407569D01*
X489349Y407708D01*
X489232Y407849D01*
X489218Y407860D01*
X489206Y407874D01*
X489061Y407986D01*
X488918Y408101D01*
X488902Y408109D01*
X488888Y408120D01*
X488723Y408202D01*
X488561Y408287D01*
X488544Y408292D01*
X488528Y408300D01*
X488349Y408347D01*
X488174Y408398D01*
X488156Y408400D01*
X488139Y408404D01*
X487808Y408431D01*
X388191Y408431D01*
X312586Y484036D01*
X312566Y484053D01*
X312548Y484074D01*
X312410Y484181D01*
X312275Y484291D01*
X312251Y484304D01*
X312230Y484320D01*
X312073Y484398D01*
X311919Y484480D01*
X311894Y484488D01*
X311870Y484500D01*
X311700Y484545D01*
X311533Y484595D01*
X311507Y484597D01*
X311481Y484604D01*
X311150Y484631D01*
X215900Y484631D01*
X215882Y484629D01*
X215864Y484631D01*
X215682Y484610D01*
X215499Y484591D01*
X215482Y484586D01*
X215465Y484584D01*
X215290Y484527D01*
X215114Y484473D01*
X215099Y484465D01*
X215082Y484459D01*
X214922Y484369D01*
X214760Y484281D01*
X214747Y484270D01*
X214731Y484261D01*
X214592Y484141D01*
X214451Y484024D01*
X214440Y484010D01*
X214427Y483998D01*
X214314Y483853D01*
X214199Y483710D01*
X214191Y483694D01*
X214180Y483680D01*
X214098Y483515D01*
X214013Y483353D01*
X214008Y483336D01*
X214000Y483320D01*
X213953Y483141D01*
X213902Y482966D01*
X213900Y482948D01*
X213896Y482931D01*
X213869Y482600D01*
X213869Y421131D01*
X12192Y421131D01*
X12174Y421129D01*
X12156Y421131D01*
X11974Y421110D01*
X11791Y421091D01*
X11774Y421086D01*
X11757Y421084D01*
X11582Y421027D01*
X11406Y420973D01*
X11391Y420965D01*
X11374Y420959D01*
X11214Y420869D01*
X11052Y420781D01*
X11039Y420770D01*
X11023Y420761D01*
X10884Y420641D01*
X10743Y420524D01*
X10732Y420510D01*
X10718Y420498D01*
X10606Y420353D01*
X10491Y420210D01*
X10483Y420194D01*
X10472Y420180D01*
X10390Y420015D01*
X10305Y419853D01*
X10300Y419836D01*
X10292Y419820D01*
X10245Y419641D01*
X10194Y419466D01*
X10192Y419448D01*
X10188Y419431D01*
X10161Y419100D01*
X10161Y12192D01*
X10163Y12174D01*
X10161Y12156D01*
X10182Y11974D01*
X10201Y11791D01*
X10206Y11774D01*
X10208Y11757D01*
X10265Y11582D01*
X10319Y11406D01*
X10327Y11391D01*
X10333Y11374D01*
X10423Y11214D01*
X10511Y11052D01*
X10522Y11039D01*
X10531Y11023D01*
X10651Y10884D01*
X10768Y10743D01*
X10782Y10732D01*
X10794Y10718D01*
X10939Y10606D01*
X11082Y10491D01*
X11098Y10483D01*
X11112Y10472D01*
X11277Y10390D01*
X11439Y10305D01*
X11456Y10300D01*
X11472Y10292D01*
X11651Y10245D01*
X11826Y10194D01*
X11844Y10192D01*
X11861Y10188D01*
X12192Y10161D01*
X487808Y10161D01*
X487826Y10163D01*
G37*
G36*
X487826Y626621D02*
X487826Y626621D01*
X487844Y626619D01*
X488026Y626640D01*
X488209Y626659D01*
X488226Y626664D01*
X488243Y626666D01*
X488418Y626723D01*
X488594Y626777D01*
X488609Y626785D01*
X488626Y626791D01*
X488786Y626881D01*
X488948Y626969D01*
X488961Y626980D01*
X488977Y626989D01*
X489116Y627109D01*
X489257Y627226D01*
X489268Y627240D01*
X489282Y627252D01*
X489394Y627397D01*
X489509Y627540D01*
X489517Y627556D01*
X489528Y627570D01*
X489610Y627735D01*
X489695Y627897D01*
X489700Y627914D01*
X489708Y627931D01*
X489755Y628109D01*
X489806Y628284D01*
X489808Y628302D01*
X489812Y628319D01*
X489839Y628650D01*
X489839Y856808D01*
X489837Y856826D01*
X489839Y856844D01*
X489818Y857026D01*
X489799Y857209D01*
X489794Y857226D01*
X489792Y857243D01*
X489735Y857418D01*
X489681Y857594D01*
X489673Y857609D01*
X489667Y857626D01*
X489577Y857786D01*
X489489Y857948D01*
X489478Y857961D01*
X489469Y857977D01*
X489349Y858116D01*
X489232Y858257D01*
X489218Y858268D01*
X489206Y858282D01*
X489061Y858394D01*
X488918Y858509D01*
X488902Y858517D01*
X488888Y858528D01*
X488723Y858610D01*
X488561Y858695D01*
X488544Y858700D01*
X488528Y858708D01*
X488349Y858755D01*
X488174Y858806D01*
X488156Y858808D01*
X488139Y858812D01*
X487808Y858839D01*
X342900Y858839D01*
X342882Y858837D01*
X342864Y858839D01*
X342682Y858818D01*
X342499Y858799D01*
X342482Y858794D01*
X342465Y858792D01*
X342290Y858735D01*
X342114Y858681D01*
X342099Y858673D01*
X342082Y858667D01*
X341922Y858577D01*
X341760Y858489D01*
X341747Y858478D01*
X341731Y858469D01*
X341592Y858349D01*
X341451Y858232D01*
X341440Y858218D01*
X341427Y858206D01*
X341314Y858061D01*
X341199Y857918D01*
X341191Y857902D01*
X341180Y857888D01*
X341098Y857723D01*
X341013Y857561D01*
X341008Y857544D01*
X341000Y857528D01*
X340953Y857349D01*
X340902Y857174D01*
X340900Y857156D01*
X340896Y857139D01*
X340869Y856808D01*
X340869Y736600D01*
X340871Y736573D01*
X340869Y736547D01*
X340891Y736373D01*
X340909Y736199D01*
X340917Y736174D01*
X340920Y736147D01*
X340976Y735982D01*
X341027Y735814D01*
X341040Y735791D01*
X341048Y735766D01*
X341135Y735614D01*
X341219Y735460D01*
X341236Y735440D01*
X341249Y735417D01*
X341464Y735164D01*
X449414Y627214D01*
X449434Y627197D01*
X449452Y627177D01*
X449590Y627069D01*
X449725Y626959D01*
X449749Y626946D01*
X449770Y626930D01*
X449927Y626852D01*
X450081Y626770D01*
X450106Y626762D01*
X450131Y626750D01*
X450300Y626705D01*
X450467Y626655D01*
X450493Y626653D01*
X450519Y626646D01*
X450850Y626619D01*
X487808Y626619D01*
X487826Y626621D01*
G37*
G36*
X225426Y649376D02*
X225426Y649376D01*
X225629Y649390D01*
X230004Y649992D01*
X230015Y649994D01*
X230027Y649995D01*
X230228Y650040D01*
X234459Y651301D01*
X234470Y651306D01*
X234482Y651308D01*
X234673Y651383D01*
X236014Y652019D01*
X241300Y652019D01*
X241318Y652021D01*
X241336Y652019D01*
X241518Y652040D01*
X241701Y652059D01*
X241718Y652064D01*
X241735Y652066D01*
X241910Y652123D01*
X242086Y652177D01*
X242101Y652185D01*
X242118Y652191D01*
X242278Y652281D01*
X242440Y652369D01*
X242453Y652380D01*
X242469Y652389D01*
X242608Y652509D01*
X242749Y652626D01*
X242760Y652640D01*
X242774Y652652D01*
X242886Y652797D01*
X243001Y652940D01*
X243009Y652956D01*
X243020Y652970D01*
X243102Y653135D01*
X243187Y653297D01*
X243192Y653314D01*
X243200Y653331D01*
X243247Y653509D01*
X243298Y653684D01*
X243300Y653702D01*
X243304Y653719D01*
X243331Y654050D01*
X243331Y656598D01*
X245931Y659013D01*
X245939Y659023D01*
X245949Y659030D01*
X246087Y659182D01*
X248826Y662645D01*
X248854Y662690D01*
X248888Y662729D01*
X248944Y662837D01*
X249008Y662939D01*
X249024Y662989D01*
X249049Y663036D01*
X249079Y663153D01*
X249117Y663267D01*
X249122Y663319D01*
X249135Y663370D01*
X249149Y663575D01*
X249149Y695325D01*
X249142Y695390D01*
X249144Y695455D01*
X249122Y695561D01*
X249109Y695668D01*
X249087Y695730D01*
X249074Y695794D01*
X249029Y695892D01*
X248992Y695994D01*
X248956Y696048D01*
X248929Y696107D01*
X248810Y696275D01*
X246022Y699681D01*
X246017Y699686D01*
X246013Y699692D01*
X245871Y699840D01*
X243331Y702153D01*
X243331Y711200D01*
X243329Y711227D01*
X243331Y711253D01*
X243309Y711427D01*
X243291Y711601D01*
X243284Y711626D01*
X243280Y711653D01*
X243225Y711818D01*
X243173Y711986D01*
X243160Y712009D01*
X243152Y712034D01*
X243065Y712186D01*
X242981Y712340D01*
X242964Y712360D01*
X242951Y712383D01*
X242736Y712636D01*
X167131Y788241D01*
X167131Y856808D01*
X167129Y856826D01*
X167131Y856844D01*
X167110Y857026D01*
X167091Y857209D01*
X167086Y857226D01*
X167084Y857243D01*
X167027Y857418D01*
X166973Y857594D01*
X166965Y857609D01*
X166959Y857626D01*
X166869Y857786D01*
X166781Y857948D01*
X166770Y857961D01*
X166761Y857977D01*
X166641Y858116D01*
X166524Y858257D01*
X166510Y858268D01*
X166498Y858282D01*
X166353Y858394D01*
X166210Y858509D01*
X166194Y858517D01*
X166180Y858528D01*
X166015Y858610D01*
X165853Y858695D01*
X165836Y858700D01*
X165820Y858708D01*
X165641Y858755D01*
X165466Y858806D01*
X165448Y858808D01*
X165431Y858812D01*
X165100Y858839D01*
X88900Y858839D01*
X88882Y858837D01*
X88864Y858839D01*
X88682Y858818D01*
X88499Y858799D01*
X88482Y858794D01*
X88465Y858792D01*
X88290Y858735D01*
X88114Y858681D01*
X88099Y858673D01*
X88082Y858667D01*
X87922Y858577D01*
X87760Y858489D01*
X87747Y858478D01*
X87731Y858469D01*
X87592Y858349D01*
X87451Y858232D01*
X87440Y858218D01*
X87427Y858206D01*
X87314Y858061D01*
X87199Y857918D01*
X87191Y857902D01*
X87180Y857888D01*
X87098Y857723D01*
X87013Y857561D01*
X87008Y857544D01*
X87000Y857528D01*
X86953Y857349D01*
X86902Y857174D01*
X86900Y857156D01*
X86896Y857139D01*
X86869Y856808D01*
X86869Y717550D01*
X86871Y717523D01*
X86869Y717497D01*
X86891Y717323D01*
X86909Y717149D01*
X86917Y717124D01*
X86920Y717097D01*
X86976Y716932D01*
X87027Y716764D01*
X87040Y716741D01*
X87048Y716716D01*
X87135Y716564D01*
X87219Y716410D01*
X87236Y716390D01*
X87249Y716367D01*
X87464Y716114D01*
X150964Y652614D01*
X150984Y652597D01*
X151002Y652577D01*
X151140Y652469D01*
X151275Y652359D01*
X151299Y652346D01*
X151320Y652330D01*
X151477Y652252D01*
X151631Y652170D01*
X151656Y652162D01*
X151681Y652150D01*
X151850Y652105D01*
X152017Y652055D01*
X152043Y652053D01*
X152069Y652046D01*
X152400Y652019D01*
X171944Y652019D01*
X175180Y650749D01*
X175189Y650746D01*
X175197Y650742D01*
X175394Y650683D01*
X179558Y649733D01*
X179567Y649731D01*
X179576Y649728D01*
X179779Y649699D01*
X184038Y649380D01*
X184070Y649381D01*
X184150Y649376D01*
X225425Y649376D01*
X225426Y649376D01*
G37*
G36*
X317518Y734571D02*
X317518Y734571D01*
X317536Y734569D01*
X317718Y734590D01*
X317901Y734609D01*
X317918Y734614D01*
X317935Y734616D01*
X318110Y734673D01*
X318286Y734727D01*
X318301Y734735D01*
X318318Y734741D01*
X318478Y734831D01*
X318640Y734919D01*
X318653Y734930D01*
X318669Y734939D01*
X318808Y735059D01*
X318949Y735176D01*
X318960Y735190D01*
X318974Y735202D01*
X319086Y735347D01*
X319201Y735490D01*
X319209Y735506D01*
X319220Y735520D01*
X319302Y735685D01*
X319387Y735847D01*
X319392Y735864D01*
X319400Y735881D01*
X319447Y736059D01*
X319498Y736234D01*
X319500Y736252D01*
X319504Y736269D01*
X319531Y736600D01*
X319531Y856808D01*
X319529Y856826D01*
X319531Y856844D01*
X319510Y857026D01*
X319491Y857209D01*
X319486Y857226D01*
X319484Y857243D01*
X319427Y857418D01*
X319373Y857594D01*
X319365Y857609D01*
X319359Y857626D01*
X319269Y857786D01*
X319181Y857948D01*
X319170Y857961D01*
X319161Y857977D01*
X319041Y858116D01*
X318924Y858257D01*
X318910Y858268D01*
X318898Y858282D01*
X318753Y858394D01*
X318610Y858509D01*
X318594Y858517D01*
X318580Y858528D01*
X318415Y858610D01*
X318253Y858695D01*
X318236Y858700D01*
X318220Y858708D01*
X318041Y858755D01*
X317866Y858806D01*
X317848Y858808D01*
X317831Y858812D01*
X317500Y858839D01*
X190500Y858839D01*
X190482Y858837D01*
X190464Y858839D01*
X190282Y858818D01*
X190099Y858799D01*
X190082Y858794D01*
X190065Y858792D01*
X189890Y858735D01*
X189714Y858681D01*
X189699Y858673D01*
X189682Y858667D01*
X189522Y858577D01*
X189360Y858489D01*
X189347Y858478D01*
X189331Y858469D01*
X189192Y858349D01*
X189051Y858232D01*
X189040Y858218D01*
X189027Y858206D01*
X188914Y858061D01*
X188799Y857918D01*
X188791Y857902D01*
X188780Y857888D01*
X188698Y857723D01*
X188613Y857561D01*
X188608Y857544D01*
X188600Y857528D01*
X188553Y857349D01*
X188502Y857174D01*
X188500Y857156D01*
X188496Y857139D01*
X188469Y856808D01*
X188469Y800100D01*
X188471Y800073D01*
X188469Y800047D01*
X188491Y799873D01*
X188509Y799699D01*
X188517Y799674D01*
X188520Y799647D01*
X188576Y799482D01*
X188627Y799314D01*
X188640Y799291D01*
X188648Y799266D01*
X188735Y799114D01*
X188819Y798960D01*
X188836Y798940D01*
X188849Y798917D01*
X189064Y798664D01*
X252564Y735164D01*
X252584Y735147D01*
X252602Y735127D01*
X252740Y735019D01*
X252875Y734909D01*
X252899Y734896D01*
X252920Y734880D01*
X253077Y734802D01*
X253231Y734720D01*
X253256Y734712D01*
X253281Y734700D01*
X253450Y734655D01*
X253617Y734605D01*
X253643Y734603D01*
X253669Y734596D01*
X254000Y734569D01*
X317500Y734569D01*
X317518Y734571D01*
G37*
G36*
X425468Y588521D02*
X425468Y588521D01*
X425486Y588519D01*
X425668Y588540D01*
X425851Y588559D01*
X425868Y588564D01*
X425885Y588566D01*
X426060Y588623D01*
X426236Y588677D01*
X426251Y588685D01*
X426268Y588691D01*
X426428Y588781D01*
X426590Y588869D01*
X426603Y588880D01*
X426619Y588889D01*
X426758Y589009D01*
X426899Y589126D01*
X426910Y589140D01*
X426924Y589152D01*
X427036Y589297D01*
X427151Y589440D01*
X427159Y589456D01*
X427170Y589470D01*
X427252Y589635D01*
X427337Y589797D01*
X427342Y589814D01*
X427350Y589831D01*
X427397Y590009D01*
X427448Y590184D01*
X427450Y590202D01*
X427454Y590219D01*
X427481Y590550D01*
X427481Y615950D01*
X427479Y615977D01*
X427481Y616003D01*
X427459Y616177D01*
X427441Y616351D01*
X427434Y616376D01*
X427430Y616403D01*
X427375Y616568D01*
X427323Y616736D01*
X427310Y616759D01*
X427302Y616784D01*
X427215Y616936D01*
X427131Y617090D01*
X427114Y617110D01*
X427101Y617133D01*
X426886Y617386D01*
X350006Y694267D01*
X349947Y694388D01*
X349942Y694396D01*
X349939Y694405D01*
X349835Y694582D01*
X347430Y698111D01*
X347423Y698118D01*
X347419Y698126D01*
X347290Y698286D01*
X344385Y701417D01*
X344378Y701423D01*
X344372Y701431D01*
X344221Y701569D01*
X340882Y704232D01*
X340874Y704237D01*
X340867Y704244D01*
X340697Y704358D01*
X338846Y705427D01*
X337986Y706286D01*
X337966Y706303D01*
X337948Y706324D01*
X337810Y706431D01*
X337675Y706541D01*
X337651Y706554D01*
X337630Y706570D01*
X337473Y706648D01*
X337319Y706730D01*
X337294Y706738D01*
X337270Y706750D01*
X337100Y706795D01*
X336933Y706845D01*
X336907Y706847D01*
X336881Y706854D01*
X336550Y706881D01*
X336056Y706881D01*
X332820Y708151D01*
X332811Y708154D01*
X332803Y708158D01*
X332606Y708217D01*
X328443Y709168D01*
X328433Y709169D01*
X328424Y709172D01*
X328221Y709201D01*
X323962Y709520D01*
X323930Y709519D01*
X323850Y709524D01*
X282575Y709524D01*
X282574Y709524D01*
X282371Y709510D01*
X277996Y708909D01*
X277985Y708906D01*
X277973Y708905D01*
X277772Y708860D01*
X273541Y707599D01*
X273530Y707594D01*
X273518Y707592D01*
X273327Y707517D01*
X271986Y706881D01*
X266700Y706881D01*
X266682Y706879D01*
X266664Y706881D01*
X266482Y706860D01*
X266299Y706841D01*
X266282Y706836D01*
X266265Y706834D01*
X266090Y706777D01*
X265914Y706723D01*
X265899Y706715D01*
X265882Y706709D01*
X265722Y706619D01*
X265560Y706531D01*
X265547Y706520D01*
X265531Y706511D01*
X265392Y706391D01*
X265251Y706274D01*
X265240Y706260D01*
X265227Y706248D01*
X265114Y706103D01*
X264999Y705960D01*
X264991Y705944D01*
X264980Y705930D01*
X264898Y705765D01*
X264813Y705603D01*
X264808Y705586D01*
X264800Y705570D01*
X264753Y705391D01*
X264702Y705216D01*
X264700Y705198D01*
X264696Y705181D01*
X264669Y704850D01*
X264669Y702302D01*
X262069Y699887D01*
X262061Y699877D01*
X262051Y699870D01*
X261913Y699718D01*
X259174Y696255D01*
X259146Y696210D01*
X259112Y696171D01*
X259056Y696064D01*
X258992Y695961D01*
X258976Y695911D01*
X258951Y695864D01*
X258921Y695747D01*
X258883Y695633D01*
X258878Y695581D01*
X258865Y695530D01*
X258851Y695325D01*
X258851Y663575D01*
X258858Y663510D01*
X258856Y663445D01*
X258878Y663339D01*
X258891Y663232D01*
X258913Y663170D01*
X258926Y663106D01*
X258971Y663008D01*
X259008Y662906D01*
X259044Y662852D01*
X259071Y662793D01*
X259190Y662625D01*
X261978Y659219D01*
X261983Y659214D01*
X261987Y659208D01*
X262129Y659060D01*
X264669Y656747D01*
X264669Y654050D01*
X264671Y654023D01*
X264669Y653997D01*
X264691Y653823D01*
X264709Y653649D01*
X264717Y653624D01*
X264720Y653597D01*
X264776Y653432D01*
X264827Y653264D01*
X264840Y653241D01*
X264848Y653216D01*
X264935Y653064D01*
X265019Y652910D01*
X265036Y652890D01*
X265049Y652867D01*
X265264Y652614D01*
X328764Y589114D01*
X328784Y589097D01*
X328802Y589077D01*
X328940Y588969D01*
X329075Y588859D01*
X329099Y588846D01*
X329120Y588830D01*
X329277Y588752D01*
X329431Y588670D01*
X329456Y588662D01*
X329481Y588650D01*
X329650Y588605D01*
X329817Y588555D01*
X329843Y588553D01*
X329869Y588546D01*
X330200Y588519D01*
X425450Y588519D01*
X425468Y588521D01*
G37*
%LPC*%
G36*
X46688Y124839D02*
X46688Y124839D01*
X40288Y126554D01*
X34551Y129866D01*
X29866Y134551D01*
X26554Y140288D01*
X24839Y146688D01*
X24839Y153312D01*
X26554Y159712D01*
X29866Y165449D01*
X34551Y170134D01*
X40288Y173446D01*
X46688Y175161D01*
X53312Y175161D01*
X59712Y173446D01*
X62230Y171992D01*
X62364Y171932D01*
X62493Y171864D01*
X62547Y171849D01*
X62597Y171826D01*
X62740Y171793D01*
X62880Y171753D01*
X62936Y171748D01*
X62990Y171736D01*
X63136Y171732D01*
X63282Y171720D01*
X63337Y171727D01*
X63392Y171725D01*
X63536Y171750D01*
X63681Y171767D01*
X63734Y171784D01*
X63789Y171794D01*
X63925Y171846D01*
X64064Y171892D01*
X64113Y171919D01*
X64164Y171939D01*
X64287Y172018D01*
X64415Y172090D01*
X64457Y172126D01*
X64504Y172156D01*
X64609Y172257D01*
X64720Y172353D01*
X64753Y172397D01*
X64794Y172435D01*
X64877Y172556D01*
X64966Y172671D01*
X64991Y172721D01*
X65023Y172766D01*
X65081Y172901D01*
X65146Y173031D01*
X65160Y173085D01*
X65182Y173136D01*
X65212Y173279D01*
X65250Y173420D01*
X65255Y173483D01*
X65265Y173530D01*
X65266Y173614D01*
X65277Y173751D01*
X65277Y206815D01*
X65275Y206841D01*
X65277Y206867D01*
X65255Y207041D01*
X65237Y207215D01*
X65230Y207241D01*
X65226Y207267D01*
X65171Y207433D01*
X65119Y207600D01*
X65107Y207623D01*
X65098Y207649D01*
X65011Y207800D01*
X64927Y207954D01*
X64911Y207974D01*
X64897Y207997D01*
X64683Y208251D01*
X64619Y208314D01*
X64612Y208320D01*
X64606Y208327D01*
X64457Y208447D01*
X64308Y208569D01*
X64300Y208574D01*
X64292Y208579D01*
X64123Y208667D01*
X63952Y208758D01*
X63943Y208761D01*
X63935Y208765D01*
X63751Y208818D01*
X63566Y208873D01*
X63557Y208874D01*
X63548Y208876D01*
X63357Y208892D01*
X63165Y208909D01*
X63156Y208908D01*
X63147Y208909D01*
X62957Y208887D01*
X62765Y208866D01*
X62756Y208863D01*
X62747Y208862D01*
X62565Y208803D01*
X62381Y208745D01*
X62373Y208740D01*
X62364Y208737D01*
X62196Y208642D01*
X62029Y208550D01*
X62022Y208544D01*
X62014Y208539D01*
X61868Y208413D01*
X61722Y208289D01*
X61716Y208282D01*
X61709Y208276D01*
X61591Y208125D01*
X61472Y207974D01*
X61468Y207965D01*
X61462Y207958D01*
X61377Y207786D01*
X61289Y207615D01*
X61287Y207606D01*
X61283Y207598D01*
X61233Y207411D01*
X61181Y207227D01*
X61181Y207218D01*
X61178Y207209D01*
X61151Y206878D01*
X61151Y204253D01*
X59527Y200332D01*
X56526Y197330D01*
X52605Y195706D01*
X33120Y195706D01*
X29199Y197330D01*
X26198Y200332D01*
X24574Y204253D01*
X24574Y208497D01*
X26198Y212418D01*
X29199Y215420D01*
X33120Y217044D01*
X50986Y217044D01*
X51119Y217057D01*
X51253Y217061D01*
X51319Y217077D01*
X51386Y217084D01*
X51514Y217123D01*
X51645Y217154D01*
X51706Y217182D01*
X51771Y217202D01*
X51889Y217266D01*
X52011Y217321D01*
X52066Y217361D01*
X52125Y217394D01*
X52228Y217479D01*
X52337Y217558D01*
X52382Y217608D01*
X52434Y217651D01*
X52518Y217756D01*
X52609Y217854D01*
X52644Y217912D01*
X52687Y217965D01*
X52748Y218084D01*
X52818Y218199D01*
X52841Y218262D01*
X52872Y218322D01*
X52909Y218451D01*
X52955Y218577D01*
X52965Y218644D01*
X52984Y218709D01*
X52995Y218843D01*
X53014Y218975D01*
X53011Y219043D01*
X53017Y219111D01*
X53001Y219244D01*
X52994Y219377D01*
X52978Y219443D01*
X52970Y219510D01*
X52928Y219638D01*
X52895Y219768D01*
X52866Y219829D01*
X52845Y219893D01*
X52779Y220010D01*
X52721Y220131D01*
X52680Y220185D01*
X52647Y220244D01*
X52559Y220345D01*
X52479Y220452D01*
X52428Y220497D01*
X52384Y220548D01*
X52278Y220631D01*
X52178Y220720D01*
X52111Y220760D01*
X52066Y220795D01*
X51996Y220830D01*
X51894Y220892D01*
X51797Y220929D01*
X51705Y220975D01*
X51610Y221000D01*
X51518Y221035D01*
X51416Y221052D01*
X51316Y221079D01*
X51198Y221089D01*
X51121Y221102D01*
X51063Y221100D01*
X50986Y221106D01*
X33120Y221106D01*
X29199Y222730D01*
X26198Y225732D01*
X24574Y229653D01*
X24574Y233897D01*
X26198Y237818D01*
X29199Y240820D01*
X33120Y242444D01*
X46223Y242444D01*
X46356Y242457D01*
X46490Y242461D01*
X46556Y242477D01*
X46624Y242484D01*
X46752Y242523D01*
X46882Y242554D01*
X46944Y242582D01*
X47009Y242602D01*
X47126Y242666D01*
X47248Y242721D01*
X47303Y242761D01*
X47363Y242794D01*
X47466Y242879D01*
X47574Y242958D01*
X47620Y243008D01*
X47672Y243051D01*
X47756Y243156D01*
X47847Y243254D01*
X47882Y243312D01*
X47924Y243365D01*
X47986Y243484D01*
X48056Y243599D01*
X48079Y243662D01*
X48110Y243722D01*
X48147Y243851D01*
X48192Y243977D01*
X48202Y244044D01*
X48221Y244109D01*
X48232Y244243D01*
X48252Y244375D01*
X48249Y244443D01*
X48254Y244511D01*
X48238Y244644D01*
X48232Y244777D01*
X48215Y244843D01*
X48207Y244910D01*
X48166Y245038D01*
X48133Y245168D01*
X48103Y245229D01*
X48082Y245293D01*
X48016Y245410D01*
X47958Y245531D01*
X47918Y245585D01*
X47884Y245644D01*
X47797Y245745D01*
X47716Y245852D01*
X47666Y245897D01*
X47621Y245948D01*
X47515Y246031D01*
X47415Y246120D01*
X47348Y246160D01*
X47303Y246195D01*
X47233Y246230D01*
X47132Y246292D01*
X47131Y246292D01*
X47035Y246329D01*
X46943Y246375D01*
X46847Y246400D01*
X46755Y246435D01*
X46654Y246452D01*
X46554Y246479D01*
X46435Y246489D01*
X46358Y246502D01*
X46301Y246500D01*
X46223Y246506D01*
X33120Y246506D01*
X29199Y248130D01*
X26198Y251132D01*
X24574Y255053D01*
X24574Y259297D01*
X26198Y263218D01*
X29199Y266220D01*
X33120Y267844D01*
X52605Y267844D01*
X56119Y266388D01*
X56132Y266384D01*
X56143Y266378D01*
X56323Y266326D01*
X56504Y266272D01*
X56517Y266270D01*
X56530Y266267D01*
X56718Y266251D01*
X56905Y266234D01*
X56918Y266235D01*
X56932Y266234D01*
X57118Y266256D01*
X57305Y266275D01*
X57318Y266279D01*
X57331Y266281D01*
X57511Y266339D01*
X57690Y266395D01*
X57701Y266401D01*
X57714Y266406D01*
X57878Y266498D01*
X58043Y266588D01*
X58053Y266597D01*
X58065Y266603D01*
X58207Y266726D01*
X58351Y266847D01*
X58359Y266858D01*
X58370Y266867D01*
X58484Y267014D01*
X58602Y267162D01*
X58608Y267174D01*
X58616Y267185D01*
X58700Y267353D01*
X58786Y267520D01*
X58790Y267533D01*
X58796Y267545D01*
X58845Y267728D01*
X58896Y267908D01*
X58897Y267921D01*
X58900Y267934D01*
X58927Y268265D01*
X58927Y272165D01*
X58922Y272216D01*
X58925Y272268D01*
X58902Y272416D01*
X58887Y272565D01*
X58872Y272615D01*
X58864Y272666D01*
X58813Y272807D01*
X58769Y272950D01*
X58744Y272996D01*
X58727Y273045D01*
X58649Y273172D01*
X58577Y273304D01*
X58544Y273344D01*
X58517Y273388D01*
X58415Y273499D01*
X58320Y273613D01*
X58279Y273646D01*
X58244Y273684D01*
X58123Y273772D01*
X58006Y273866D01*
X57960Y273890D01*
X57918Y273920D01*
X57781Y273982D01*
X57649Y274051D01*
X57599Y274066D01*
X57551Y274087D01*
X57406Y274121D01*
X57262Y274163D01*
X57210Y274167D01*
X57159Y274179D01*
X57010Y274183D01*
X56860Y274196D01*
X56809Y274190D01*
X56757Y274191D01*
X56609Y274166D01*
X56461Y274149D01*
X56411Y274133D01*
X56360Y274124D01*
X56220Y274070D01*
X56078Y274024D01*
X56033Y273998D01*
X55984Y273980D01*
X55933Y273948D01*
X54383Y273159D01*
X52862Y272664D01*
X51282Y272414D01*
X45402Y272414D01*
X45402Y282067D01*
X45400Y282085D01*
X45401Y282102D01*
X45380Y282285D01*
X45362Y282467D01*
X45357Y282484D01*
X45355Y282502D01*
X45329Y282580D01*
X45369Y282717D01*
X45370Y282735D01*
X45375Y282752D01*
X45402Y283083D01*
X45402Y292736D01*
X51282Y292736D01*
X52949Y292472D01*
X53019Y292451D01*
X53094Y292444D01*
X53168Y292428D01*
X53294Y292426D01*
X53420Y292414D01*
X53495Y292423D01*
X53570Y292421D01*
X53694Y292444D01*
X53820Y292458D01*
X53892Y292481D01*
X53966Y292494D01*
X54083Y292541D01*
X54204Y292579D01*
X54270Y292616D01*
X54340Y292644D01*
X54446Y292713D01*
X54557Y292774D01*
X54614Y292823D01*
X54677Y292864D01*
X54767Y292953D01*
X54864Y293035D01*
X54910Y293094D01*
X54964Y293147D01*
X55035Y293251D01*
X55113Y293351D01*
X55147Y293418D01*
X55189Y293480D01*
X55238Y293597D01*
X55296Y293710D01*
X55316Y293782D01*
X55345Y293851D01*
X55370Y293976D01*
X55404Y294097D01*
X55409Y294172D01*
X55424Y294246D01*
X55424Y294373D01*
X55433Y294499D01*
X55424Y294574D01*
X55424Y294649D01*
X55398Y294773D01*
X55383Y294898D01*
X55359Y294970D01*
X55344Y295043D01*
X55295Y295160D01*
X55254Y295280D01*
X55217Y295345D01*
X55188Y295415D01*
X55117Y295519D01*
X55053Y295629D01*
X54997Y295696D01*
X54962Y295748D01*
X54909Y295799D01*
X54839Y295882D01*
X54009Y296711D01*
X53989Y296728D01*
X53971Y296749D01*
X53833Y296856D01*
X53698Y296966D01*
X53674Y296979D01*
X53653Y296995D01*
X53496Y297073D01*
X53342Y297155D01*
X53317Y297163D01*
X53293Y297175D01*
X53123Y297220D01*
X52956Y297270D01*
X52930Y297272D01*
X52904Y297279D01*
X52573Y297306D01*
X33120Y297306D01*
X29199Y298930D01*
X26198Y301932D01*
X24574Y305853D01*
X24574Y310097D01*
X26198Y314018D01*
X29199Y317020D01*
X33120Y318644D01*
X52605Y318644D01*
X56526Y317020D01*
X59527Y314018D01*
X61151Y310097D01*
X61151Y305853D01*
X60689Y304738D01*
X60683Y304717D01*
X60673Y304697D01*
X60625Y304524D01*
X60573Y304353D01*
X60571Y304331D01*
X60565Y304309D01*
X60552Y304129D01*
X60535Y303952D01*
X60537Y303930D01*
X60536Y303907D01*
X60558Y303729D01*
X60577Y303551D01*
X60583Y303530D01*
X60586Y303508D01*
X60643Y303338D01*
X60696Y303167D01*
X60707Y303147D01*
X60714Y303126D01*
X60804Y302971D01*
X60890Y302814D01*
X60904Y302797D01*
X60915Y302777D01*
X61130Y302524D01*
X67377Y296278D01*
X68073Y294597D01*
X68073Y248798D01*
X68075Y248771D01*
X68073Y248745D01*
X68095Y248571D01*
X68113Y248397D01*
X68120Y248372D01*
X68124Y248345D01*
X68179Y248180D01*
X68231Y248012D01*
X68244Y247989D01*
X68252Y247964D01*
X68339Y247812D01*
X68423Y247658D01*
X68440Y247638D01*
X68453Y247615D01*
X68668Y247362D01*
X86427Y229603D01*
X87123Y227922D01*
X87123Y193235D01*
X87125Y193209D01*
X87123Y193182D01*
X87145Y193008D01*
X87163Y192835D01*
X87170Y192809D01*
X87174Y192783D01*
X87229Y192617D01*
X87281Y192450D01*
X87294Y192426D01*
X87302Y192401D01*
X87389Y192249D01*
X87473Y192096D01*
X87490Y192075D01*
X87503Y192052D01*
X87718Y191799D01*
X95952Y183565D01*
X96648Y181885D01*
X96648Y177627D01*
X96650Y177600D01*
X96648Y177574D01*
X96670Y177400D01*
X96688Y177226D01*
X96695Y177201D01*
X96699Y177174D01*
X96755Y177008D01*
X96806Y176841D01*
X96819Y176818D01*
X96827Y176792D01*
X96914Y176641D01*
X96998Y176487D01*
X97015Y176467D01*
X97028Y176444D01*
X97243Y176191D01*
X98966Y174467D01*
X100204Y171479D01*
X100204Y168246D01*
X98966Y165258D01*
X96680Y162971D01*
X93692Y161734D01*
X92710Y161734D01*
X92692Y161732D01*
X92674Y161733D01*
X92492Y161712D01*
X92309Y161694D01*
X92292Y161689D01*
X92275Y161687D01*
X92100Y161630D01*
X91924Y161576D01*
X91909Y161567D01*
X91892Y161562D01*
X91732Y161471D01*
X91570Y161384D01*
X91557Y161373D01*
X91541Y161364D01*
X91402Y161244D01*
X91261Y161126D01*
X91250Y161112D01*
X91236Y161101D01*
X91124Y160956D01*
X91009Y160812D01*
X91001Y160797D01*
X90990Y160783D01*
X90908Y160618D01*
X90823Y160455D01*
X90818Y160438D01*
X90810Y160422D01*
X90763Y160244D01*
X90712Y160068D01*
X90710Y160050D01*
X90706Y160033D01*
X90679Y159703D01*
X90679Y157133D01*
X89441Y154145D01*
X87155Y151859D01*
X84167Y150621D01*
X80933Y150621D01*
X77969Y151849D01*
X77956Y151853D01*
X77945Y151859D01*
X77764Y151911D01*
X77584Y151965D01*
X77571Y151967D01*
X77558Y151970D01*
X77370Y151986D01*
X77183Y152003D01*
X77170Y152002D01*
X77156Y152003D01*
X76969Y151981D01*
X76783Y151962D01*
X76770Y151958D01*
X76757Y151956D01*
X76577Y151898D01*
X76398Y151842D01*
X76387Y151836D01*
X76374Y151831D01*
X76209Y151739D01*
X76045Y151649D01*
X76035Y151640D01*
X76023Y151634D01*
X75881Y151511D01*
X75737Y151390D01*
X75729Y151379D01*
X75718Y151370D01*
X75603Y151222D01*
X75486Y151075D01*
X75480Y151063D01*
X75472Y151052D01*
X75388Y150884D01*
X75302Y150717D01*
X75298Y150704D01*
X75292Y150692D01*
X75243Y150508D01*
X75192Y150329D01*
X75191Y150316D01*
X75188Y150303D01*
X75161Y149972D01*
X75161Y146688D01*
X73446Y140288D01*
X70134Y134551D01*
X65449Y129866D01*
X59712Y126554D01*
X53312Y124839D01*
X46688Y124839D01*
G37*
%LPD*%
%LPC*%
G36*
X119033Y23621D02*
X119033Y23621D01*
X116045Y24859D01*
X98208Y42696D01*
X98187Y42713D01*
X98170Y42734D01*
X98032Y42841D01*
X97896Y42951D01*
X97873Y42964D01*
X97852Y42980D01*
X97695Y43058D01*
X97541Y43140D01*
X97515Y43148D01*
X97491Y43160D01*
X97322Y43205D01*
X97155Y43255D01*
X97128Y43257D01*
X97102Y43264D01*
X96772Y43291D01*
X94573Y43291D01*
X89718Y45302D01*
X86002Y49018D01*
X83991Y53873D01*
X83991Y59127D01*
X86002Y63982D01*
X89718Y67698D01*
X94573Y69709D01*
X99827Y69709D01*
X104682Y67698D01*
X108398Y63982D01*
X110409Y59127D01*
X110409Y54328D01*
X110411Y54302D01*
X110409Y54275D01*
X110431Y54101D01*
X110449Y53928D01*
X110456Y53902D01*
X110460Y53876D01*
X110515Y53710D01*
X110567Y53543D01*
X110580Y53519D01*
X110588Y53494D01*
X110675Y53342D01*
X110759Y53189D01*
X110776Y53168D01*
X110789Y53145D01*
X111004Y52892D01*
X123422Y40474D01*
X123443Y40457D01*
X123460Y40436D01*
X123598Y40329D01*
X123734Y40219D01*
X123757Y40206D01*
X123778Y40190D01*
X123935Y40112D01*
X124089Y40030D01*
X124115Y40022D01*
X124139Y40010D01*
X124308Y39965D01*
X124475Y39915D01*
X124502Y39913D01*
X124528Y39906D01*
X124858Y39879D01*
X135886Y39879D01*
X135895Y39880D01*
X135904Y39879D01*
X136095Y39900D01*
X136286Y39919D01*
X136295Y39921D01*
X136304Y39922D01*
X136486Y39980D01*
X136671Y40037D01*
X136679Y40041D01*
X136688Y40044D01*
X136856Y40137D01*
X137025Y40229D01*
X137032Y40234D01*
X137040Y40239D01*
X137188Y40364D01*
X137335Y40486D01*
X137340Y40493D01*
X137347Y40499D01*
X137467Y40651D01*
X137587Y40800D01*
X137591Y40808D01*
X137597Y40815D01*
X137684Y40988D01*
X137773Y41157D01*
X137775Y41166D01*
X137779Y41174D01*
X137831Y41360D01*
X137884Y41544D01*
X137885Y41553D01*
X137887Y41562D01*
X137901Y41754D01*
X137917Y41946D01*
X137916Y41954D01*
X137916Y41963D01*
X137892Y42156D01*
X137870Y42345D01*
X137867Y42354D01*
X137866Y42363D01*
X137805Y42546D01*
X137745Y42728D01*
X137741Y42736D01*
X137738Y42744D01*
X137642Y42910D01*
X137547Y43079D01*
X137541Y43086D01*
X137537Y43093D01*
X137322Y43346D01*
X135591Y45077D01*
X135591Y67923D01*
X137377Y69709D01*
X160223Y69709D01*
X162009Y67923D01*
X162009Y45077D01*
X160278Y43346D01*
X160272Y43339D01*
X160265Y43334D01*
X160145Y43184D01*
X160023Y43035D01*
X160019Y43027D01*
X160013Y43020D01*
X159925Y42850D01*
X159834Y42679D01*
X159832Y42670D01*
X159827Y42663D01*
X159774Y42478D01*
X159719Y42293D01*
X159719Y42284D01*
X159716Y42276D01*
X159700Y42085D01*
X159683Y41892D01*
X159684Y41883D01*
X159683Y41874D01*
X159705Y41685D01*
X159726Y41492D01*
X159729Y41483D01*
X159730Y41475D01*
X159789Y41293D01*
X159848Y41108D01*
X159852Y41100D01*
X159855Y41092D01*
X159951Y40922D01*
X160043Y40756D01*
X160048Y40749D01*
X160053Y40741D01*
X160179Y40595D01*
X160303Y40449D01*
X160310Y40443D01*
X160316Y40436D01*
X160468Y40319D01*
X160619Y40199D01*
X160627Y40195D01*
X160634Y40190D01*
X160806Y40104D01*
X160978Y40017D01*
X160987Y40014D01*
X160995Y40010D01*
X161181Y39960D01*
X161366Y39909D01*
X161375Y39908D01*
X161383Y39906D01*
X161714Y39879D01*
X173592Y39879D01*
X173618Y39881D01*
X173645Y39879D01*
X173819Y39901D01*
X173992Y39919D01*
X174018Y39926D01*
X174044Y39930D01*
X174210Y39985D01*
X174377Y40037D01*
X174401Y40050D01*
X174426Y40058D01*
X174578Y40145D01*
X174731Y40229D01*
X174752Y40246D01*
X174775Y40259D01*
X175028Y40474D01*
X185462Y50908D01*
X185476Y50925D01*
X185493Y50940D01*
X185603Y51080D01*
X185717Y51219D01*
X185728Y51239D01*
X185741Y51257D01*
X185822Y51417D01*
X185906Y51575D01*
X185912Y51596D01*
X185922Y51616D01*
X185969Y51789D01*
X186021Y51961D01*
X186023Y51983D01*
X186028Y52005D01*
X186041Y52183D01*
X186057Y52362D01*
X186055Y52384D01*
X186056Y52406D01*
X186033Y52584D01*
X186014Y52762D01*
X186007Y52783D01*
X186004Y52806D01*
X185902Y53122D01*
X185591Y53873D01*
X185591Y59127D01*
X187602Y63982D01*
X191318Y67698D01*
X196173Y69709D01*
X201427Y69709D01*
X206282Y67698D01*
X209998Y63982D01*
X212009Y59127D01*
X212009Y53873D01*
X209998Y49018D01*
X206282Y45302D01*
X201348Y43258D01*
X201278Y43251D01*
X201252Y43244D01*
X201226Y43240D01*
X201060Y43185D01*
X200893Y43133D01*
X200869Y43120D01*
X200844Y43112D01*
X200692Y43025D01*
X200539Y42941D01*
X200518Y42924D01*
X200495Y42911D01*
X200242Y42696D01*
X182405Y24859D01*
X179417Y23621D01*
X119033Y23621D01*
G37*
%LPD*%
%LPC*%
G36*
X446688Y124839D02*
X446688Y124839D01*
X440288Y126554D01*
X434551Y129866D01*
X429866Y134551D01*
X426554Y140288D01*
X424839Y146688D01*
X424839Y153312D01*
X426554Y159712D01*
X429866Y165449D01*
X434551Y170134D01*
X440288Y173446D01*
X446688Y175161D01*
X453312Y175161D01*
X459712Y173446D01*
X465449Y170134D01*
X470134Y165449D01*
X473446Y159712D01*
X475161Y153312D01*
X475161Y146688D01*
X473446Y140288D01*
X470134Y134551D01*
X465449Y129866D01*
X459712Y126554D01*
X453312Y124839D01*
X446688Y124839D01*
G37*
%LPD*%
%LPC*%
G36*
X446688Y693839D02*
X446688Y693839D01*
X440288Y695554D01*
X434551Y698866D01*
X429866Y703551D01*
X426554Y709288D01*
X424839Y715688D01*
X424839Y722312D01*
X426554Y728712D01*
X429866Y734449D01*
X434551Y739134D01*
X440288Y742446D01*
X446688Y744161D01*
X453312Y744161D01*
X459712Y742446D01*
X465449Y739134D01*
X470134Y734449D01*
X473446Y728712D01*
X475161Y722312D01*
X475161Y715688D01*
X473446Y709288D01*
X470134Y703551D01*
X465449Y698866D01*
X459712Y695554D01*
X453312Y693839D01*
X446688Y693839D01*
G37*
%LPD*%
%LPC*%
G36*
X35777Y43291D02*
X35777Y43291D01*
X33991Y45077D01*
X33991Y67923D01*
X35777Y69709D01*
X58623Y69709D01*
X60409Y67923D01*
X60409Y45077D01*
X58623Y43291D01*
X35777Y43291D01*
G37*
%LPD*%
%LPC*%
G36*
X33120Y322706D02*
X33120Y322706D01*
X29199Y324330D01*
X26198Y327332D01*
X24574Y331253D01*
X24574Y335497D01*
X26198Y339418D01*
X29199Y342420D01*
X33120Y344044D01*
X52605Y344044D01*
X56526Y342420D01*
X59527Y339418D01*
X61151Y335497D01*
X61151Y331253D01*
X59527Y327332D01*
X56526Y324330D01*
X52605Y322706D01*
X33120Y322706D01*
G37*
%LPD*%
%LPC*%
G36*
X220144Y134271D02*
X220144Y134271D01*
X216252Y135883D01*
X213273Y138862D01*
X211661Y142754D01*
X211661Y162046D01*
X213273Y165938D01*
X216252Y168917D01*
X220144Y170529D01*
X224356Y170529D01*
X228248Y168917D01*
X231227Y165938D01*
X232839Y162046D01*
X232839Y142754D01*
X231227Y138862D01*
X228248Y135883D01*
X224356Y134271D01*
X220144Y134271D01*
G37*
%LPD*%
%LPC*%
G36*
X245544Y134271D02*
X245544Y134271D01*
X241652Y135883D01*
X238673Y138862D01*
X237061Y142754D01*
X237061Y162046D01*
X238673Y165938D01*
X241652Y168917D01*
X245544Y170529D01*
X249756Y170529D01*
X253648Y168917D01*
X256627Y165938D01*
X258239Y162046D01*
X258239Y142754D01*
X256627Y138862D01*
X253648Y135883D01*
X249756Y134271D01*
X245544Y134271D01*
G37*
%LPD*%
%LPC*%
G36*
X270944Y134271D02*
X270944Y134271D01*
X267052Y135883D01*
X264073Y138862D01*
X262461Y142754D01*
X262461Y162046D01*
X264073Y165938D01*
X267052Y168917D01*
X270944Y170529D01*
X275156Y170529D01*
X279048Y168917D01*
X282027Y165938D01*
X283639Y162046D01*
X283639Y142754D01*
X282027Y138862D01*
X279048Y135883D01*
X275156Y134271D01*
X270944Y134271D01*
G37*
%LPD*%
%LPC*%
G36*
X450173Y43291D02*
X450173Y43291D01*
X445318Y45302D01*
X441602Y49018D01*
X439591Y53873D01*
X439591Y59127D01*
X441602Y63982D01*
X445318Y67698D01*
X450173Y69709D01*
X455427Y69709D01*
X460282Y67698D01*
X463998Y63982D01*
X466009Y59127D01*
X466009Y53873D01*
X463998Y49018D01*
X460282Y45302D01*
X455427Y43291D01*
X450173Y43291D01*
G37*
%LPD*%
%LPC*%
G36*
X323750Y398567D02*
X323750Y398567D01*
X320202Y400037D01*
X317487Y402752D01*
X316017Y406300D01*
X316017Y410140D01*
X317487Y413688D01*
X329541Y425742D01*
X331914Y426725D01*
X333089Y427212D01*
X336929Y427212D01*
X340477Y425742D01*
X343192Y423027D01*
X344662Y419479D01*
X344662Y415639D01*
X343192Y412091D01*
X331138Y400037D01*
X331056Y400003D01*
X327590Y398567D01*
X323750Y398567D01*
G37*
%LPD*%
%LPC*%
G36*
X341710Y380607D02*
X341710Y380607D01*
X338162Y382076D01*
X335447Y384791D01*
X333978Y388339D01*
X333978Y392179D01*
X335447Y395727D01*
X347502Y407782D01*
X351050Y409251D01*
X354890Y409251D01*
X358438Y407782D01*
X361153Y405067D01*
X362622Y401519D01*
X362622Y397679D01*
X361153Y394131D01*
X349098Y382076D01*
X345550Y380607D01*
X341710Y380607D01*
G37*
%LPD*%
%LPC*%
G36*
X305789Y416528D02*
X305789Y416528D01*
X302241Y417997D01*
X299526Y420712D01*
X298057Y424260D01*
X298057Y428100D01*
X299526Y431648D01*
X311581Y443703D01*
X315129Y445172D01*
X318969Y445172D01*
X322517Y443703D01*
X325232Y440988D01*
X326701Y437440D01*
X326701Y433600D01*
X325232Y430052D01*
X313177Y417997D01*
X309629Y416528D01*
X305789Y416528D01*
G37*
%LPD*%
%LPC*%
G36*
X271002Y454901D02*
X271002Y454901D01*
X267125Y456507D01*
X264627Y459005D01*
X264613Y459016D01*
X264602Y459030D01*
X264458Y459143D01*
X264316Y459260D01*
X264300Y459268D01*
X264286Y459279D01*
X264122Y459362D01*
X263960Y459448D01*
X263943Y459454D01*
X263927Y459462D01*
X263750Y459511D01*
X263574Y459563D01*
X263556Y459565D01*
X263539Y459570D01*
X263356Y459583D01*
X263173Y459600D01*
X263155Y459598D01*
X263137Y459599D01*
X262955Y459576D01*
X262773Y459556D01*
X262756Y459551D01*
X262738Y459549D01*
X262564Y459490D01*
X262389Y459435D01*
X262373Y459426D01*
X262356Y459420D01*
X262197Y459329D01*
X262037Y459240D01*
X262023Y459228D01*
X262007Y459219D01*
X261754Y459005D01*
X260541Y457791D01*
X259262Y456862D01*
X257854Y456145D01*
X256351Y455657D01*
X256031Y455606D01*
X256031Y465450D01*
X256031Y475294D01*
X256351Y475243D01*
X257854Y474755D01*
X259262Y474038D01*
X260541Y473109D01*
X261754Y471895D01*
X261768Y471884D01*
X261780Y471870D01*
X261924Y471756D01*
X262066Y471640D01*
X262082Y471632D01*
X262096Y471621D01*
X262260Y471537D01*
X262422Y471452D01*
X262439Y471446D01*
X262455Y471438D01*
X262632Y471389D01*
X262808Y471337D01*
X262825Y471335D01*
X262843Y471330D01*
X263026Y471317D01*
X263209Y471300D01*
X263226Y471302D01*
X263244Y471301D01*
X263426Y471324D01*
X263609Y471344D01*
X263626Y471349D01*
X263644Y471351D01*
X263817Y471410D01*
X263993Y471465D01*
X264008Y471474D01*
X264025Y471480D01*
X264183Y471571D01*
X264345Y471660D01*
X264359Y471672D01*
X264374Y471681D01*
X264627Y471895D01*
X267125Y474393D01*
X271002Y475999D01*
X275198Y475999D01*
X279075Y474393D01*
X282043Y471425D01*
X283649Y467548D01*
X283649Y463352D01*
X282043Y459475D01*
X279075Y456507D01*
X275198Y454901D01*
X271002Y454901D01*
G37*
%LPD*%
%LPC*%
G36*
X232802Y454901D02*
X232802Y454901D01*
X228925Y456507D01*
X225957Y459475D01*
X224351Y463352D01*
X224351Y467548D01*
X225957Y471425D01*
X228925Y474393D01*
X232802Y475999D01*
X236998Y475999D01*
X240875Y474393D01*
X243373Y471895D01*
X243387Y471884D01*
X243398Y471870D01*
X243542Y471757D01*
X243684Y471640D01*
X243700Y471632D01*
X243714Y471621D01*
X243878Y471538D01*
X244040Y471452D01*
X244057Y471446D01*
X244073Y471438D01*
X244250Y471389D01*
X244426Y471337D01*
X244444Y471335D01*
X244461Y471330D01*
X244644Y471317D01*
X244827Y471300D01*
X244845Y471302D01*
X244863Y471301D01*
X245045Y471324D01*
X245227Y471344D01*
X245244Y471349D01*
X245262Y471351D01*
X245436Y471410D01*
X245611Y471465D01*
X245627Y471474D01*
X245644Y471480D01*
X245803Y471571D01*
X245963Y471660D01*
X245977Y471672D01*
X245993Y471681D01*
X246246Y471895D01*
X247459Y473109D01*
X248738Y474038D01*
X250146Y474755D01*
X251649Y475243D01*
X251969Y475294D01*
X251969Y465450D01*
X251969Y455606D01*
X251649Y455657D01*
X250146Y456145D01*
X248738Y456862D01*
X247459Y457791D01*
X246246Y459005D01*
X246232Y459016D01*
X246220Y459030D01*
X246076Y459144D01*
X245934Y459260D01*
X245918Y459268D01*
X245904Y459279D01*
X245740Y459363D01*
X245578Y459448D01*
X245561Y459454D01*
X245545Y459462D01*
X245368Y459511D01*
X245192Y459563D01*
X245175Y459565D01*
X245157Y459570D01*
X244974Y459583D01*
X244791Y459600D01*
X244774Y459598D01*
X244756Y459599D01*
X244574Y459576D01*
X244391Y459556D01*
X244374Y459551D01*
X244356Y459549D01*
X244183Y459490D01*
X244007Y459435D01*
X243992Y459426D01*
X243975Y459420D01*
X243817Y459329D01*
X243655Y459240D01*
X243641Y459228D01*
X243626Y459219D01*
X243373Y459005D01*
X240875Y456507D01*
X236998Y454901D01*
X232802Y454901D01*
G37*
%LPD*%
%LPC*%
G36*
X25384Y285114D02*
X25384Y285114D01*
X25826Y286475D01*
X26552Y287900D01*
X27492Y289194D01*
X28623Y290325D01*
X29917Y291265D01*
X31342Y291991D01*
X32863Y292486D01*
X34443Y292736D01*
X40323Y292736D01*
X40323Y285114D01*
X25384Y285114D01*
G37*
%LPD*%
%LPC*%
G36*
X34443Y272414D02*
X34443Y272414D01*
X32863Y272664D01*
X31342Y273159D01*
X29917Y273885D01*
X28623Y274825D01*
X27492Y275956D01*
X26552Y277250D01*
X25826Y278675D01*
X25384Y280036D01*
X40323Y280036D01*
X40323Y272414D01*
X34443Y272414D01*
G37*
%LPD*%
%LPC*%
G36*
X405720Y59420D02*
X405720Y59420D01*
X405720Y69201D01*
X413295Y69201D01*
X413941Y69028D01*
X414520Y68693D01*
X414993Y68220D01*
X415328Y67641D01*
X415501Y66995D01*
X415501Y59420D01*
X405720Y59420D01*
G37*
%LPD*%
%LPC*%
G36*
X405720Y53580D02*
X405720Y53580D01*
X415501Y53580D01*
X415501Y46005D01*
X415328Y45359D01*
X414993Y44780D01*
X414520Y44307D01*
X413941Y43972D01*
X413295Y43799D01*
X405720Y43799D01*
X405720Y53580D01*
G37*
%LPD*%
%LPC*%
G36*
X390099Y59420D02*
X390099Y59420D01*
X390099Y66995D01*
X390272Y67641D01*
X390607Y68220D01*
X391080Y68693D01*
X391659Y69028D01*
X392305Y69201D01*
X399880Y69201D01*
X399880Y59420D01*
X390099Y59420D01*
G37*
%LPD*%
%LPC*%
G36*
X392305Y43799D02*
X392305Y43799D01*
X391659Y43972D01*
X391080Y44307D01*
X390607Y44780D01*
X390272Y45359D01*
X390099Y46005D01*
X390099Y53580D01*
X399880Y53580D01*
X399880Y43799D01*
X392305Y43799D01*
G37*
%LPD*%
%LPC*%
G36*
X199349Y154899D02*
X199349Y154899D01*
X199349Y169727D01*
X200720Y169282D01*
X202134Y168562D01*
X203417Y167629D01*
X204539Y166507D01*
X205472Y165224D01*
X206192Y163810D01*
X206682Y162301D01*
X206931Y160733D01*
X206931Y154899D01*
X199349Y154899D01*
G37*
%LPD*%
%LPC*%
G36*
X199349Y149901D02*
X199349Y149901D01*
X206931Y149901D01*
X206931Y144067D01*
X206682Y142499D01*
X206192Y140990D01*
X205472Y139576D01*
X204539Y138293D01*
X203417Y137171D01*
X202134Y136238D01*
X200720Y135518D01*
X199349Y135073D01*
X199349Y149901D01*
G37*
%LPD*%
%LPC*%
G36*
X186769Y154899D02*
X186769Y154899D01*
X186769Y160733D01*
X187018Y162301D01*
X187508Y163810D01*
X188228Y165224D01*
X189161Y166507D01*
X190283Y167629D01*
X191566Y168562D01*
X192980Y169282D01*
X194351Y169727D01*
X194351Y154899D01*
X186769Y154899D01*
G37*
%LPD*%
%LPC*%
G36*
X192980Y135518D02*
X192980Y135518D01*
X191566Y136238D01*
X190283Y137171D01*
X189161Y138293D01*
X188228Y139576D01*
X187508Y140990D01*
X187018Y142499D01*
X186769Y144067D01*
X186769Y149901D01*
X194351Y149901D01*
X194351Y135073D01*
X192980Y135518D01*
G37*
%LPD*%
D10*
X165100Y685800D03*
X342900Y685800D03*
D11*
X324000Y679450D02*
X284000Y679450D01*
X224000Y679450D02*
X184000Y679450D01*
D12*
X234900Y465450D03*
X254000Y465450D03*
X273100Y465450D03*
D10*
X342900Y673100D03*
X165100Y673100D03*
X335750Y663200D03*
X324000Y659450D03*
X310750Y659450D03*
X297500Y659450D03*
X284000Y659450D03*
X272250Y663200D03*
X265000Y673200D03*
X265000Y685700D03*
X272250Y695700D03*
X284000Y699450D03*
X297500Y699450D03*
X310750Y699450D03*
X324000Y699450D03*
X335750Y695700D03*
X172250Y663200D03*
X184000Y659450D03*
X197250Y659450D03*
X210750Y659450D03*
X224000Y659450D03*
X235750Y663200D03*
X243000Y673200D03*
X243000Y685700D03*
X235750Y695700D03*
X224000Y699450D03*
X210750Y699450D03*
X197250Y699450D03*
X184000Y699450D03*
X172250Y695700D03*
D13*
X301200Y812500D03*
D14*
X351200Y812500D03*
D13*
X148800Y812500D03*
D14*
X198800Y812500D03*
D15*
X449580Y636562D02*
X464820Y636562D01*
X414020Y611162D02*
X398780Y611162D01*
X449580Y585762D02*
X464820Y585762D01*
D16*
X317049Y435520D02*
X307709Y426180D01*
X325670Y408220D02*
X335009Y417559D01*
X388891Y471441D02*
X398230Y480780D01*
X380270Y498741D02*
X370930Y489401D01*
X352970Y399599D02*
X343630Y390259D01*
X406851Y453480D02*
X416191Y462820D01*
D13*
X402800Y56500D03*
D14*
X452800Y56500D03*
D15*
X50483Y333375D02*
X35243Y333375D01*
X35243Y307975D02*
X50483Y307975D01*
X50483Y282575D02*
X35243Y282575D01*
X35243Y257175D02*
X50483Y257175D01*
X50483Y231775D02*
X35243Y231775D01*
X35243Y206375D02*
X50483Y206375D01*
D13*
X47200Y56500D03*
D14*
X97200Y56500D03*
D13*
X148800Y56500D03*
D14*
X198800Y56500D03*
D17*
X196850Y144860D02*
X196850Y159940D01*
X222250Y159940D02*
X222250Y144860D01*
X247650Y144860D02*
X247650Y159940D01*
X273050Y159940D02*
X273050Y144860D01*
D18*
X171450Y109538D03*
X85725Y290513D03*
X376238Y307975D03*
X406718Y323850D03*
X50800Y381000D03*
X406718Y211138D03*
X365125Y200025D03*
X79375Y109538D03*
X390525Y273050D03*
X130175Y273050D03*
X328613Y207963D03*
X276225Y323850D03*
X334963Y365125D03*
X231775Y306388D03*
X98425Y241300D03*
X142875Y239713D03*
X168275Y157163D03*
X352425Y112713D03*
X250825Y87313D03*
X368300Y39688D03*
X381000Y39688D03*
X238125Y411163D03*
X374650Y52388D03*
D19*
X92075Y577850D03*
D20*
X165100Y577850D01*
D19*
X165100Y577850D03*
X152400Y546100D03*
D20*
X81100Y546100D01*
X47650Y579550D01*
X39800Y579550D01*
D19*
X39800Y579550D03*
X107950Y457200D03*
D20*
X107950Y476250D01*
X50800Y533400D01*
D19*
X50800Y533400D03*
D20*
X406851Y453480D02*
X457200Y503829D01*
X457200Y585762D01*
D18*
X355600Y679450D03*
X355600Y654050D03*
X374650Y654050D03*
X298450Y635000D03*
X317500Y635000D03*
X336550Y635000D03*
X355600Y635000D03*
X374650Y635000D03*
X393700Y635000D03*
X317500Y615950D03*
X336550Y615950D03*
X355600Y615950D03*
X374650Y615950D03*
X336550Y596900D03*
X355600Y596900D03*
X374650Y596900D03*
X393700Y596900D03*
X412750Y596900D03*
X349250Y850900D03*
X368300Y850900D03*
X387350Y850900D03*
X406400Y850900D03*
X425450Y850900D03*
X444500Y850900D03*
X463550Y850900D03*
X482600Y850900D03*
X349250Y831850D03*
X368300Y831850D03*
X387350Y831850D03*
X406400Y831850D03*
X425450Y831850D03*
X444500Y831850D03*
X463550Y831850D03*
X482600Y831850D03*
X387350Y812800D03*
X406400Y812800D03*
X425450Y812800D03*
X444500Y812800D03*
X463550Y812800D03*
X482600Y812800D03*
X349250Y793750D03*
X368300Y793750D03*
X387350Y793750D03*
X406400Y793750D03*
X425450Y793750D03*
X444500Y793750D03*
X463550Y793750D03*
X482600Y793750D03*
X349250Y774700D03*
X368300Y774700D03*
X387350Y774700D03*
X406400Y774700D03*
X425450Y774700D03*
X444500Y774700D03*
X463550Y774700D03*
X482600Y774700D03*
X349250Y755650D03*
X368300Y755650D03*
X387350Y755650D03*
X406400Y755650D03*
X425450Y755650D03*
X444500Y755650D03*
X463550Y755650D03*
X482600Y755650D03*
X482600Y736600D03*
X406400Y736600D03*
X387350Y736600D03*
X368300Y736600D03*
X349250Y736600D03*
X368300Y717550D03*
X387350Y717550D03*
X406400Y717550D03*
X387350Y698500D03*
X406400Y698500D03*
X425450Y698500D03*
X482600Y698500D03*
X482600Y717550D03*
X406400Y679450D03*
X425450Y679450D03*
X444500Y679450D03*
X463550Y679450D03*
X482600Y679450D03*
X425450Y660400D03*
X444500Y660400D03*
X463550Y660400D03*
X482600Y660400D03*
X368300Y812800D03*
X482600Y641350D03*
X196850Y850900D03*
X215900Y850900D03*
X234950Y850900D03*
X254000Y850900D03*
X273050Y850900D03*
X292100Y850900D03*
X311150Y850900D03*
X311150Y831850D03*
X292100Y831850D03*
X273050Y831850D03*
X254000Y831850D03*
X234950Y831850D03*
X215900Y831850D03*
X234950Y812800D03*
X254000Y812800D03*
X273050Y812800D03*
X215900Y793750D03*
X234950Y793750D03*
X254000Y793750D03*
X273050Y793750D03*
X292100Y793750D03*
X311150Y793750D03*
X234950Y774700D03*
X254000Y774700D03*
X273050Y774700D03*
X292100Y774700D03*
X311150Y774700D03*
X254000Y755650D03*
X273050Y755650D03*
X292100Y755650D03*
X311150Y755650D03*
X196850Y831850D03*
X215900Y812800D03*
X95250Y781050D03*
X95250Y819150D03*
X114300Y819150D03*
X114300Y800100D03*
X95250Y800100D03*
X114300Y781050D03*
X133350Y781050D03*
X152400Y781050D03*
X95250Y762000D03*
X114300Y762000D03*
X133350Y762000D03*
X152400Y762000D03*
X171450Y762000D03*
X95250Y742950D03*
X114300Y742950D03*
X133350Y742950D03*
X152400Y742950D03*
X171450Y742950D03*
X190500Y742950D03*
X95250Y723900D03*
X114300Y723900D03*
X133350Y723900D03*
X152400Y723900D03*
X171450Y723900D03*
X190500Y723900D03*
X209550Y723900D03*
X114300Y704850D03*
X133350Y704850D03*
X152400Y704850D03*
X133350Y685800D03*
X152400Y685800D03*
X152400Y666750D03*
X133350Y819150D03*
X133350Y800100D03*
X92075Y169863D03*
D21*
X82550Y190500D02*
X82550Y227013D01*
X63500Y246063D01*
X63500Y293688D01*
X49213Y307975D01*
X42863Y307975D01*
X82550Y190500D02*
X92075Y180975D01*
X92075Y169863D01*
D18*
X80963Y177800D03*
D21*
X76200Y182563D02*
X76200Y223838D01*
X42863Y257175D01*
X76200Y182563D02*
X80963Y177800D01*
D18*
X82550Y158750D03*
D21*
X69850Y171450D01*
X69850Y209550D01*
X47625Y231775D01*
X42863Y231775D01*
D20*
X97200Y56500D02*
X97200Y55200D01*
X120650Y31750D01*
X177800Y31750D01*
X198800Y52750D01*
X198800Y56500D01*
M02*
