M48
;GenerationSoftware,Autodesk,EAGLE,9.1.3*%
;CreationDate,2018-09-11T19:51:11Z*%
FMAT,2
ICI,OFF
METRIC,TZ,000.000
T12C0.500
T11C0.600
T10C0.610
T9C0.800
T8C0.813
T7C0.900
T6C1.000
T5C1.016
T4C1.168
T3C2.000
T2C3.000
%
G90
M71
T2
X5000Y15000
X45000Y15000
X5000Y71900
X45000Y71900
T3
X98000Y40200
X18400Y67945
X32400Y67945
X52600Y1800
X98000Y1800
X52600Y40200
T4
X19880Y81250
X19880Y5650
X14880Y5650
X9720Y5650
X4720Y5650
X45280Y5650
X40280Y5650
X14880Y81250
X35120Y81250
X30120Y81250
T5
X96520Y6985
X96520Y19685
X96520Y17145
X96520Y14605
X4286Y20638
X4286Y23177
X4286Y25717
X4286Y28257
X4286Y30797
X4286Y33338
X96520Y12065
X96520Y9525
X45720Y58576
X40640Y61116
X45720Y63656
T6
X35560Y15875
X19685Y15875
X22225Y15875
X24765Y15875
X27305Y15875
X33020Y15875
X55245Y26670
X55245Y29210
X55245Y31750
X55245Y34290
X57440Y15800
X57440Y22300
X61940Y15800
X61940Y22300
X87920Y15800
X87920Y22300
X92420Y15800
X92420Y22300
X30480Y15875
T7
X72390Y36830
X85090Y36830
X85090Y34290
X85090Y31750
X85090Y29210
X85090Y26670
X80010Y26670
X80010Y29210
X80010Y34290
X72390Y34290
X69850Y36830
X69850Y34290
X69850Y31750
X69850Y29210
X69850Y26670
X64770Y26670
X64770Y29210
X64770Y31750
X64770Y34290
X64770Y36830
X72390Y31750
X72390Y29210
X72390Y26670
X77470Y26670
X77470Y29210
X77470Y31750
X77470Y34290
X77470Y36830
X80010Y36830
X80010Y31750
T8
X31705Y43552
X33501Y41756
X38889Y47144
X37093Y48940
X35297Y39960
X40685Y45348
T9
X23490Y46545
X50400Y29845
X50400Y12065
X50400Y10795
X50400Y31115
X25400Y46545
X27310Y46545
T10
X13335Y80010
X61595Y29210
X9208Y16986
X8096Y17780
X8255Y15875
X60166Y17939
X60238Y16192
X78026Y10160
X67890Y16255
X74930Y5874
X76835Y14287
X76835Y3492
X79375Y3492
X80645Y15875
X60325Y37465
X61595Y31750
X13335Y74295
X19050Y72390
X15240Y74295
X17145Y74295
X19050Y74295
X9525Y72390
X11430Y72390
X13335Y72390
X15240Y72390
X17145Y72390
X13335Y81915
X20955Y72390
X11430Y70485
X13335Y70485
X15240Y70485
X13335Y68580
X17145Y10954
X15240Y66675
X83185Y17435
X73025Y23495
X72848Y4305
X80645Y23633
X65087Y3175
X87947Y3530
X64135Y4445
X87789Y4921
X75248Y14129
X71475Y3847
X65087Y12541
X72981Y19418
X93345Y33020
X71660Y19050
X93980Y34290
X93345Y35639
X70326Y18733
X15240Y68580
X76835Y17780
X57785Y5715
X65246Y17145
X90487Y13335
X90551Y8255
X76835Y15716
X93980Y26670
X75248Y16840
X93345Y27940
X63449Y12541
X93980Y29210
X75248Y18771
X93345Y30480
X78214Y19418
X93980Y31750
X70009Y4286
X66675Y23495
X34925Y83185
X40640Y81280
X38735Y81280
X48260Y83185
X46355Y83185
X44450Y83185
X42545Y83185
X40640Y83185
X38735Y83185
X36830Y83185
X42545Y81280
X48260Y85090
X46355Y85090
X44450Y85090
X42545Y85090
X40640Y85090
X38735Y85090
X36830Y85090
X34925Y85090
X41275Y59690
X46355Y79375
X48260Y77470
X46355Y77470
X44450Y77470
X42545Y77470
X40640Y77470
X38735Y77470
X36830Y77470
X34925Y77470
X48260Y79375
X39370Y59690
X44450Y79375
X42545Y79375
X40640Y79375
X38735Y79375
X36830Y79375
X34925Y79375
X48260Y81280
X46355Y81280
X44450Y81280
X32861Y20796
X38100Y3969
X36830Y3969
X25082Y8731
X16828Y15716
X14287Y23971
X9843Y24130
X23177Y30639
X33496Y36513
X27622Y32385
X23812Y41116
X13017Y27305
X39053Y27305
X7937Y10954
X36513Y20003
X40672Y21114
X5080Y38100
X40672Y32385
X37624Y30797
X8573Y29051
X35560Y63500
X37465Y59690
X35560Y59690
X33655Y59690
X37465Y61595
X35560Y61595
X33655Y61595
X31750Y61595
X39370Y63500
X37465Y63500
X9525Y74295
X33655Y63500
X31750Y63500
X29845Y63500
X37465Y65405
X35560Y65405
X35560Y67945
X38100Y12382
X40799Y15557
X37465Y5239
X31115Y85090
X27305Y79375
X25400Y79375
X23495Y79375
X21590Y79375
X27305Y81280
X25400Y81280
X23495Y81280
X21590Y83185
X23495Y83185
X25400Y83185
X27305Y83185
X29210Y83185
X31115Y83185
X29210Y79375
X29210Y85090
X27305Y85090
X25400Y85090
X23495Y85090
X21590Y85090
X19685Y85090
X48260Y64135
X36830Y81280
X48260Y66040
X46355Y66040
X44450Y66040
X48260Y67945
X46355Y67945
X9525Y78105
X11430Y74295
X17145Y76200
X15240Y76200
X13335Y76200
X11430Y76200
X9525Y76200
X15240Y78105
X13335Y78105
X11430Y78105
X9525Y80010
X11430Y80010
X11430Y81915
X9525Y81915
X42545Y66040
X21590Y81280
X19685Y83185
X31115Y75565
X29210Y75565
X27305Y75565
X25400Y75565
X31115Y77470
X29210Y77470
X27305Y77470
X25400Y77470
X23495Y77470
X31115Y79375
X42545Y67945
X42545Y75565
X40640Y75565
X38735Y75565
X36830Y75565
X34925Y75565
X44450Y75565
X46355Y75565
X48260Y75565
X48260Y73660
X40640Y73660
X38735Y73660
X36830Y73660
X36830Y71755
X34925Y73660
X40640Y67945
X44450Y67945
X48260Y71755
X48260Y69850
X42545Y69850
X40640Y69850
X38735Y69850
X40640Y71755
X38735Y71755
T11
X9208Y57785
X16510Y57785
X15240Y54610
X3980Y57955
X10795Y45720
X5080Y53340
T12
X28400Y69945
X27225Y69570
X26500Y68570
X26500Y67320
X27225Y66320
X28400Y65945
X29750Y65945
X31075Y65945
X32400Y65945
X33575Y66320
X16510Y67310
X34290Y67310
X34290Y68580
X23575Y66320
X16510Y68580
X17225Y69570
X18400Y69945
X19725Y69945
X21075Y69945
X22400Y69945
X23575Y69570
X24300Y68570
X24300Y67320
X29750Y69945
X22400Y65945
X21075Y65945
X19725Y65945
X18400Y65945
X17225Y66320
X33575Y69570
X32400Y69945
X31075Y69945
M30