M48
;GenerationSoftware,Autodesk,EAGLE,9.1.0*%
;CreationDate,2018-08-15T12:32:45Z*%
FMAT,2
ICI,OFF
METRIC,TZ,000.000
T11C0.500
T10C0.600
T9C0.610
T8C0.800
T7C0.813
T6C1.000
T5C1.016
T4C1.168
T3C2.000
T2C3.000
%
G90
M71
T2
X5000Y15000
X45000Y15000
X5000Y71900
X45000Y71900
T3
X18400Y67945
X32400Y67945
T4
X14880Y5650
X9720Y5650
X4720Y5650
X19880Y81250
X14880Y81250
X35120Y81250
X30120Y81250
X45280Y5650
X40280Y5650
X19880Y5650
T5
X40640Y61116
X45720Y58576
X45720Y63656
X4286Y33338
X4286Y30797
X4286Y28257
X4286Y25717
X4286Y23177
X4286Y20638
T6
X27305Y15240
X24765Y15240
X22225Y15240
X19685Y15240
T7
X33501Y41756
X31705Y43552
X40685Y45348
X35297Y39960
X37093Y48940
X38889Y47144
T8
X23490Y46545
X25400Y46545
X27310Y46545
T9
X25400Y81280
X21590Y81280
X27305Y81280
X21590Y79375
X23495Y79375
X25400Y79375
X27305Y79375
X29210Y79375
X31115Y79375
X23495Y77470
X25400Y77470
X27305Y77470
X29210Y77470
X31115Y77470
X25400Y75565
X27305Y75565
X29210Y75565
X31115Y75565
X19685Y83185
X27305Y85090
X46355Y66040
X23495Y83185
X48260Y66040
X36830Y81280
X48260Y64135
X19685Y85090
X21590Y85090
X23495Y85090
X25400Y85090
X23495Y81280
X29210Y85090
X31115Y85090
X31115Y83185
X29210Y83185
X27305Y83185
X25400Y83185
X17145Y10954
X21590Y83185
X15240Y70485
X9525Y72390
X11430Y72390
X13335Y72390
X15240Y72390
X17145Y72390
X19050Y72390
X20955Y72390
X11430Y70485
X13335Y70485
X19050Y74295
X13335Y68580
X15240Y68580
X15240Y66675
X13335Y81915
X13335Y80010
X9208Y16986
X8096Y17780
X8255Y15875
X11430Y76200
X9525Y81915
X11430Y81915
X11430Y80010
X9525Y80010
X11430Y78105
X13335Y78105
X15240Y78105
X9525Y76200
X9525Y78105
X13335Y76200
X15240Y76200
X17145Y76200
X9525Y74295
X11430Y74295
X13335Y74295
X15240Y74295
X17145Y74295
X41275Y59690
X31750Y63500
X33655Y63500
X35560Y63500
X37465Y63500
X39370Y63500
X31750Y61595
X33655Y61595
X44450Y66040
X37465Y61595
X33655Y59690
X35560Y59690
X37465Y59690
X39370Y59690
X29845Y63500
X34925Y85090
X36830Y85090
X38735Y85090
X40640Y85090
X42545Y85090
X44450Y85090
X46355Y85090
X48260Y85090
X34925Y83185
X36830Y83185
X38735Y83185
X40640Y83185
X23177Y30639
X8573Y29051
X37624Y30797
X40672Y32385
X5080Y38100
X40672Y21114
X36513Y20003
X7937Y10954
X39053Y27305
X13017Y27305
X32861Y20796
X27622Y32385
X33496Y36513
X35560Y61595
X9843Y24130
X14287Y23971
X16828Y15716
X35243Y11271
X25082Y8731
X36830Y3969
X38100Y3969
X23812Y41116
X37465Y5239
X35560Y67945
X35560Y65405
X37465Y65405
X36830Y71755
X34925Y75565
X36830Y75565
X38735Y75565
X40640Y75565
X42545Y75565
X44450Y75565
X46355Y75565
X48260Y75565
X48260Y73660
X40640Y73660
X38735Y73660
X36830Y73660
X34925Y73660
X44450Y83185
X38735Y71755
X40640Y71755
X38735Y69850
X40640Y69850
X42545Y69850
X48260Y69850
X48260Y71755
X40640Y67945
X42545Y67945
X44450Y67945
X46355Y67945
X48260Y67945
X42545Y66040
X42545Y83185
X48260Y77470
X44450Y77470
X42545Y77470
X40640Y77470
X38735Y77470
X36830Y77470
X34925Y77470
X48260Y79375
X46355Y79375
X44450Y79375
X42545Y79375
X40640Y79375
X36830Y79375
X46355Y83185
X46355Y77470
X48260Y83185
X38735Y81280
X40640Y81280
X42545Y81280
X44450Y81280
X46355Y81280
X48260Y81280
X34925Y79375
X38735Y79375
T10
X9208Y57785
X16510Y57785
X15240Y54610
X3980Y57955
X10795Y45720
X5080Y53340
T11
X19725Y69945
X17225Y69570
X29750Y69945
X34290Y68580
X16510Y68580
X34290Y67310
X16510Y67310
X33575Y66320
X32400Y65945
X31075Y65945
X29750Y65945
X28400Y65945
X27225Y66320
X26500Y67320
X26500Y68570
X27225Y69570
X28400Y69945
X18400Y69945
X31075Y69945
X32400Y69945
X33575Y69570
X17225Y66320
X18400Y65945
X19725Y65945
X21075Y65945
X22400Y65945
X23575Y66320
X24300Y67320
X24300Y68570
X23575Y69570
X22400Y69945
X21075Y69945
M30