M48
;GenerationSoftware,Autodesk,EAGLE,9.1.0*%
;CreationDate,2018-08-14T15:45:10Z*%
FMAT,2
ICI,OFF
METRIC,TZ,000.000
T11C0.500
T10C0.600
T9C0.610
T8C0.800
T7C0.813
T6C1.000
T5C1.016
T4C1.168
T3C2.000
T2C3.000
%
G90
M71
T2
X45000Y71900
X5000Y71900
X45000Y15000
X5000Y15000
T3
X32400Y67945
X18400Y67945
T4
X40280Y5650
X45280Y5650
X35120Y5650
X9720Y5650
X4720Y5650
X30120Y5650
X19880Y81250
X14880Y81250
X35120Y81250
X30120Y81250
T5
X45720Y23495
X45720Y26035
X45720Y28575
X45720Y20955
X45720Y58576
X40640Y61116
X45720Y63656
X45720Y33655
X45720Y31115
T6
X15875Y17463
X31115Y17463
X31115Y14922
X28575Y17463
X28575Y14922
X26035Y17463
X26035Y14922
X23495Y17463
X23495Y14922
X20955Y17463
X20955Y14922
X18415Y17463
X18415Y14922
X15875Y14922
X13335Y17463
X13335Y14922
T7
X31705Y43552
X33501Y41756
X38889Y47144
X37093Y48940
X35297Y39960
X40685Y45348
T8
X25400Y46545
X23490Y46545
X27310Y46545
T9
X29210Y75565
X31115Y79375
X23495Y77470
X25400Y77470
X27305Y77470
X29210Y77470
X31115Y77470
X25400Y75565
X27305Y75565
X27305Y79375
X31115Y75565
X19685Y83185
X21590Y81280
X9525Y78105
X9525Y81915
X11430Y81915
X11430Y80010
X9525Y80010
X25400Y83185
X25400Y85090
X25400Y79375
X27305Y85090
X29210Y85090
X31115Y85090
X31115Y83185
X29210Y83185
X27305Y83185
X29210Y79375
X23495Y83185
X21590Y83185
X23495Y81280
X25400Y81280
X27305Y81280
X21590Y79375
X23495Y79375
X42863Y10795
X13335Y81915
X19050Y72390
X20955Y72390
X11430Y70485
X13335Y70485
X15240Y70485
X13335Y68580
X15240Y68580
X15240Y66675
X17145Y72390
X13335Y80010
X37236Y33329
X25876Y24447
X27464Y38100
X27305Y24447
X28575Y39370
X28734Y24447
X29686Y40640
X11430Y74295
X13335Y78105
X15240Y78105
X9525Y76200
X11430Y76200
X13335Y76200
X15240Y76200
X17145Y76200
X9525Y74295
X11430Y78105
X13335Y74295
X15240Y74295
X17145Y74295
X19050Y74295
X9525Y72390
X11430Y72390
X13335Y72390
X15240Y72390
X36830Y85090
X33655Y63500
X35560Y63500
X37465Y63500
X39370Y63500
X31750Y61595
X33655Y61595
X35560Y61595
X37465Y61595
X33655Y59690
X35560Y59690
X37465Y59690
X39370Y59690
X41275Y59690
X34925Y85090
X31750Y63500
X38735Y85090
X40640Y85090
X42545Y85090
X44450Y85090
X46355Y85090
X48260Y85090
X34925Y83185
X36830Y83185
X38735Y83185
X40640Y83185
X42545Y83185
X44450Y83185
X46355Y83185
X33655Y25400
X46037Y9208
X12382Y3492
X25400Y8890
X30004Y28257
X42863Y27305
X13176Y26987
X9335Y26035
X3810Y40005
X9335Y36513
X15557Y37148
X33655Y10795
X38583Y24130
X36195Y24924
X31591Y24606
X21590Y85090
X12382Y30480
X42545Y30480
X18574Y36989
X25241Y26511
X31115Y37465
X24130Y8890
X26670Y8890
X23654Y25241
X25082Y41275
X35560Y67945
X35560Y65405
X37465Y65405
X29845Y63500
X48260Y75565
X40640Y71755
X38735Y71755
X36830Y71755
X34925Y73660
X36830Y73660
X38735Y73660
X40640Y73660
X48260Y73660
X38735Y69850
X46355Y75565
X44450Y75565
X42545Y75565
X40640Y75565
X38735Y75565
X36830Y75565
X34925Y75565
X48260Y77470
X48260Y67945
X23495Y85090
X19685Y85090
X48260Y64135
X36830Y81280
X48260Y66040
X46355Y66040
X44450Y66040
X42545Y66040
X38735Y81280
X46355Y67945
X44450Y67945
X42545Y67945
X40640Y67945
X48260Y71755
X48260Y69850
X42545Y69850
X40640Y69850
X48260Y83185
X46355Y77470
X44450Y77470
X42545Y77470
X40640Y77470
X38735Y77470
X36830Y77470
X34925Y77470
X48260Y79375
X46355Y79375
X44450Y79375
X42545Y79375
X40640Y79375
X38735Y79375
X36830Y79375
X34925Y79375
X48260Y81280
X46355Y81280
X44450Y81280
X42545Y81280
X40640Y81280
T10
X5080Y53340
X9208Y57785
X16510Y57785
X15240Y54610
X3980Y57955
X10795Y45720
T11
X18400Y69945
X31075Y69945
X32400Y69945
X33575Y69570
X17225Y66320
X18400Y65945
X19725Y65945
X21075Y65945
X22400Y65945
X23575Y66320
X24300Y67320
X24300Y68570
X23575Y69570
X22400Y69945
X21075Y69945
X19725Y69945
X33575Y66320
X16510Y68580
X34290Y68580
X17225Y69570
X28400Y69945
X27225Y69570
X26500Y68570
X26500Y67320
X34290Y67310
X27225Y66320
X28400Y65945
X29750Y65945
X31075Y65945
X32400Y65945
X29750Y69945
X16510Y67310
M30