M48
;GenerationSoftware,Autodesk,EAGLE,9.1.0*%
;CreationDate,2018-09-14T12:59:15Z*%
FMAT,2
ICI,OFF
METRIC,TZ,000.000
T12C0.500
T11C0.600
T10C0.610
T9C0.800
T8C0.813
T7C0.900
T6C1.000
T5C1.016
T4C1.168
T3C2.000
T2C3.000
%
G90
M71
T2
X45000Y71900
X5000Y15000
X45000Y15000
X5000Y71900
T3
X52800Y1800
X52800Y47200
X32400Y67945
X18400Y67945
X91200Y47200
X91200Y1800
T4
X19880Y81250
X19880Y5650
X14880Y5650
X9720Y5650
X4720Y5650
X45280Y5650
X40280Y5650
X14880Y81250
X35120Y81250
X30120Y81250
T5
X86015Y45720
X73315Y45720
X75855Y45720
X78395Y45720
X4286Y20638
X4286Y23177
X4286Y25717
X4286Y28257
X4286Y30797
X4286Y33338
X80935Y45720
X83475Y45720
X45720Y58576
X40640Y61116
X45720Y63656
T6
X35560Y15875
X19685Y15875
X22225Y15875
X24765Y15875
X27305Y15875
X33020Y15875
X66330Y4445
X63790Y4445
X61250Y4445
X58710Y4445
X77200Y6640
X70700Y6640
X77200Y11140
X70700Y11140
X77200Y37120
X70700Y37120
X77200Y41620
X70700Y41620
X30480Y15875
T7
X56170Y21590
X56170Y34290
X58710Y34290
X61250Y34290
X63790Y34290
X66330Y34290
X66330Y29210
X63790Y29210
X58710Y29210
X58710Y21590
X56170Y19050
X58710Y19050
X61250Y19050
X63790Y19050
X66330Y19050
X66330Y13970
X63790Y13970
X61250Y13970
X58710Y13970
X56170Y13970
X61250Y21590
X63790Y21590
X66330Y21590
X66330Y26670
X63790Y26670
X61250Y26670
X58710Y26670
X56170Y26670
X56170Y29210
X61250Y29210
T8
X31705Y43552
X33501Y41756
X38889Y47144
X37093Y48940
X35297Y39960
X40685Y45348
T9
X25400Y46545
X27310Y46545
X23490Y46545
T10
X76745Y17090
X15240Y66675
X13335Y81915
X13335Y80010
X9208Y16986
X8096Y17780
X8255Y15875
X75061Y9366
X76808Y9438
X82840Y27226
X17145Y10954
X87126Y24130
X78713Y26035
X89507Y26035
X89507Y28575
X77125Y29845
X55535Y10525
X61250Y10795
X13335Y72390
X9525Y74295
X11430Y74295
X13335Y74295
X15240Y74295
X17145Y74295
X19050Y74295
X9525Y72390
X11430Y72390
X80459Y12649
X15240Y72390
X17145Y72390
X19050Y72390
X20955Y72390
X11430Y70485
X13335Y70485
X15240Y70485
X13335Y68580
X75565Y32385
X69505Y22225
X88695Y22048
X69367Y29845
X89825Y14287
X89470Y37148
X88555Y13335
X88079Y36989
X78871Y24447
X89153Y20675
X80459Y14287
X73582Y22181
X59980Y42545
X73950Y20860
X58710Y43180
X57361Y42545
X74268Y19526
X15240Y68580
X75220Y26035
X87285Y6985
X75855Y14446
X79665Y39688
X84745Y39751
X77284Y26035
X66330Y43180
X76160Y24447
X65060Y42545
X63790Y10795
X63790Y43180
X74229Y24447
X62520Y42545
X73582Y27414
X61250Y43180
X88714Y19209
X69505Y15875
X34925Y83185
X40640Y81280
X38735Y81280
X48260Y83185
X46355Y83185
X44450Y83185
X42545Y83185
X40640Y83185
X38735Y83185
X36830Y83185
X42545Y81280
X48260Y85090
X46355Y85090
X44450Y85090
X42545Y85090
X40640Y85090
X38735Y85090
X36830Y85090
X34925Y85090
X41275Y59690
X46355Y79375
X48260Y77470
X46355Y77470
X44450Y77470
X42545Y77470
X40640Y77470
X38735Y77470
X36830Y77470
X34925Y77470
X48260Y79375
X39370Y59690
X44450Y79375
X42545Y79375
X40640Y79375
X38735Y79375
X36830Y79375
X34925Y79375
X48260Y81280
X46355Y81280
X44450Y81280
X32861Y20796
X38100Y3969
X36830Y3969
X25082Y8731
X16828Y15716
X14287Y23971
X9843Y24130
X23177Y30639
X33496Y36513
X27622Y32385
X23812Y41116
X13017Y27305
X39053Y27305
X7937Y10954
X36513Y20003
X40672Y21114
X5080Y38100
X40672Y32385
X37624Y30797
X8573Y29051
X35560Y63500
X37465Y59690
X35560Y59690
X33655Y59690
X37465Y61595
X35560Y61595
X33655Y61595
X31750Y61595
X39370Y63500
X37465Y63500
X15240Y76200
X33655Y63500
X31750Y63500
X29845Y63500
X37465Y65405
X35560Y65405
X35560Y67945
X38100Y12382
X40799Y15557
X37465Y5239
X25400Y85090
X21590Y79375
X27305Y81280
X25400Y81280
X23495Y81280
X21590Y83185
X23495Y83185
X25400Y83185
X27305Y83185
X29210Y83185
X31115Y83185
X31115Y85090
X29210Y85090
X27305Y85090
X23495Y79375
X23495Y85090
X21590Y85090
X19685Y85090
X48260Y64135
X36830Y81280
X48260Y66040
X46355Y66040
X44450Y66040
X42545Y66040
X48260Y67945
X46355Y67945
X42545Y67945
X40640Y67945
X19685Y83185
X17145Y76200
X13335Y76200
X11430Y76200
X9525Y76200
X15240Y78105
X13335Y78105
X11430Y78105
X9525Y80010
X11430Y80010
X11430Y81915
X9525Y81915
X9525Y78105
X21590Y81280
X44450Y67945
X31115Y75565
X29210Y75565
X27305Y75565
X25400Y75565
X31115Y77470
X29210Y77470
X27305Y77470
X25400Y77470
X23495Y77470
X31115Y79375
X29210Y79375
X27305Y79375
X25400Y79375
X48260Y69850
X38735Y75565
X36830Y75565
X34925Y75565
X40640Y75565
X42545Y75565
X44450Y75565
X46355Y75565
X48260Y75565
X48260Y73660
X40640Y73660
X36830Y73660
X34925Y73660
X36830Y71755
X38735Y71755
X40640Y71755
X38735Y69850
X40640Y69850
X38735Y73660
X48260Y71755
X42545Y69850
T11
X5080Y53340
X10795Y45720
X3980Y57955
X15240Y54610
X16510Y57785
X9208Y57785
X50500Y41000
X50500Y8000
X50500Y9000
X50500Y40000
T12
X27225Y66320
X26500Y67320
X28400Y65945
X29750Y65945
X31075Y65945
X32400Y65945
X33575Y66320
X16510Y67310
X34290Y67310
X22400Y69945
X21075Y69945
X19725Y69945
X18400Y69945
X17225Y69570
X34290Y68580
X16510Y68580
X19725Y65945
X26500Y68570
X27225Y69570
X28400Y69945
X29750Y69945
X31075Y69945
X32400Y69945
X23575Y69570
X24300Y68570
X24300Y67320
X23575Y66320
X22400Y65945
X21075Y65945
X33575Y69570
X17225Y66320
X18400Y65945
M30