G04 EAGLE Gerber X2 export*
%TF.Part,Single*%
%TF.FileFunction,Profile,NP*%
%TF.FilePolarity,Positive*%
%TF.GenerationSoftware,Autodesk,EAGLE,9.1.0*%
%TF.CreationDate,2018-08-14T15:45:10Z*%
G75*
%MOMM*%
%FSLAX34Y34*%
%LPD*%
%AMOC8*
5,1,8,0,0,1.08239X$1,22.5*%
G01*
%ADD10C,0.254000*%


D10*
X0Y0D02*
X500000Y0D01*
X500000Y869000D01*
X0Y869000D01*
X0Y0D01*
X284000Y669450D02*
X324000Y669450D01*
X324872Y669488D01*
X325736Y669602D01*
X326588Y669791D01*
X327420Y670053D01*
X328226Y670387D01*
X329000Y670790D01*
X329736Y671258D01*
X330428Y671790D01*
X331071Y672379D01*
X331660Y673022D01*
X332192Y673714D01*
X332660Y674450D01*
X333063Y675224D01*
X333397Y676030D01*
X333659Y676862D01*
X333848Y677714D01*
X333962Y678578D01*
X334000Y679450D01*
X333962Y680322D01*
X333848Y681186D01*
X333659Y682038D01*
X333397Y682870D01*
X333063Y683676D01*
X332660Y684450D01*
X332192Y685186D01*
X331660Y685878D01*
X331071Y686521D01*
X330428Y687110D01*
X329736Y687642D01*
X329000Y688110D01*
X328226Y688513D01*
X327420Y688847D01*
X326588Y689109D01*
X325736Y689298D01*
X324872Y689412D01*
X324000Y689450D01*
X284000Y689450D01*
X283128Y689412D01*
X282264Y689298D01*
X281412Y689109D01*
X280580Y688847D01*
X279774Y688513D01*
X279000Y688110D01*
X278264Y687642D01*
X277572Y687110D01*
X276929Y686521D01*
X276340Y685878D01*
X275808Y685186D01*
X275340Y684450D01*
X274937Y683676D01*
X274603Y682870D01*
X274341Y682038D01*
X274152Y681186D01*
X274038Y680322D01*
X274000Y679450D01*
X274038Y678578D01*
X274152Y677714D01*
X274341Y676862D01*
X274603Y676030D01*
X274937Y675224D01*
X275340Y674450D01*
X275808Y673714D01*
X276340Y673022D01*
X276929Y672379D01*
X277572Y671790D01*
X278264Y671258D01*
X279000Y670790D01*
X279774Y670387D01*
X280580Y670053D01*
X281412Y669791D01*
X282264Y669602D01*
X283128Y669488D01*
X284000Y669450D01*
X184000Y669450D02*
X224000Y669450D01*
X224872Y669488D01*
X225736Y669602D01*
X226588Y669791D01*
X227420Y670053D01*
X228226Y670387D01*
X229000Y670790D01*
X229736Y671258D01*
X230428Y671790D01*
X231071Y672379D01*
X231660Y673022D01*
X232192Y673714D01*
X232660Y674450D01*
X233063Y675224D01*
X233397Y676030D01*
X233659Y676862D01*
X233848Y677714D01*
X233962Y678578D01*
X234000Y679450D01*
X233962Y680322D01*
X233848Y681186D01*
X233659Y682038D01*
X233397Y682870D01*
X233063Y683676D01*
X232660Y684450D01*
X232192Y685186D01*
X231660Y685878D01*
X231071Y686521D01*
X230428Y687110D01*
X229736Y687642D01*
X229000Y688110D01*
X228226Y688513D01*
X227420Y688847D01*
X226588Y689109D01*
X225736Y689298D01*
X224872Y689412D01*
X224000Y689450D01*
X184000Y689450D01*
X183128Y689412D01*
X182264Y689298D01*
X181412Y689109D01*
X180580Y688847D01*
X179774Y688513D01*
X179000Y688110D01*
X178264Y687642D01*
X177572Y687110D01*
X176929Y686521D01*
X176340Y685878D01*
X175808Y685186D01*
X175340Y684450D01*
X174937Y683676D01*
X174603Y682870D01*
X174341Y682038D01*
X174152Y681186D01*
X174038Y680322D01*
X174000Y679450D01*
X174038Y678578D01*
X174152Y677714D01*
X174341Y676862D01*
X174603Y676030D01*
X174937Y675224D01*
X175340Y674450D01*
X175808Y673714D01*
X176340Y673022D01*
X176929Y672379D01*
X177572Y671790D01*
X178264Y671258D01*
X179000Y670790D01*
X179774Y670387D01*
X180580Y670053D01*
X181412Y669791D01*
X182264Y669602D01*
X183128Y669488D01*
X184000Y669450D01*
X65000Y149464D02*
X64924Y148396D01*
X64771Y147335D01*
X64543Y146288D01*
X64241Y145260D01*
X63867Y144256D01*
X63422Y143281D01*
X62908Y142341D01*
X62329Y141440D01*
X61687Y140582D01*
X60985Y139772D01*
X60228Y139015D01*
X59418Y138313D01*
X58560Y137671D01*
X57659Y137092D01*
X56719Y136578D01*
X55744Y136133D01*
X54740Y135759D01*
X53712Y135457D01*
X52665Y135229D01*
X51604Y135076D01*
X50536Y135000D01*
X49464Y135000D01*
X48396Y135076D01*
X47335Y135229D01*
X46288Y135457D01*
X45260Y135759D01*
X44256Y136133D01*
X43281Y136578D01*
X42341Y137092D01*
X41440Y137671D01*
X40582Y138313D01*
X39772Y139015D01*
X39015Y139772D01*
X38313Y140582D01*
X37671Y141440D01*
X37092Y142341D01*
X36578Y143281D01*
X36133Y144256D01*
X35759Y145260D01*
X35457Y146288D01*
X35229Y147335D01*
X35076Y148396D01*
X35000Y149464D01*
X35000Y150536D01*
X35076Y151604D01*
X35229Y152665D01*
X35457Y153712D01*
X35759Y154740D01*
X36133Y155744D01*
X36578Y156719D01*
X37092Y157659D01*
X37671Y158560D01*
X38313Y159418D01*
X39015Y160228D01*
X39772Y160985D01*
X40582Y161687D01*
X41440Y162329D01*
X42341Y162908D01*
X43281Y163422D01*
X44256Y163867D01*
X45260Y164241D01*
X46288Y164543D01*
X47335Y164771D01*
X48396Y164924D01*
X49464Y165000D01*
X50536Y165000D01*
X51604Y164924D01*
X52665Y164771D01*
X53712Y164543D01*
X54740Y164241D01*
X55744Y163867D01*
X56719Y163422D01*
X57659Y162908D01*
X58560Y162329D01*
X59418Y161687D01*
X60228Y160985D01*
X60985Y160228D01*
X61687Y159418D01*
X62329Y158560D01*
X62908Y157659D01*
X63422Y156719D01*
X63867Y155744D01*
X64241Y154740D01*
X64543Y153712D01*
X64771Y152665D01*
X64924Y151604D01*
X65000Y150536D01*
X65000Y149464D01*
X465000Y149464D02*
X464924Y148396D01*
X464771Y147335D01*
X464543Y146288D01*
X464241Y145260D01*
X463867Y144256D01*
X463422Y143281D01*
X462908Y142341D01*
X462329Y141440D01*
X461687Y140582D01*
X460985Y139772D01*
X460228Y139015D01*
X459418Y138313D01*
X458560Y137671D01*
X457659Y137092D01*
X456719Y136578D01*
X455744Y136133D01*
X454740Y135759D01*
X453712Y135457D01*
X452665Y135229D01*
X451604Y135076D01*
X450536Y135000D01*
X449464Y135000D01*
X448396Y135076D01*
X447335Y135229D01*
X446288Y135457D01*
X445260Y135759D01*
X444256Y136133D01*
X443281Y136578D01*
X442341Y137092D01*
X441440Y137671D01*
X440582Y138313D01*
X439772Y139015D01*
X439015Y139772D01*
X438313Y140582D01*
X437671Y141440D01*
X437092Y142341D01*
X436578Y143281D01*
X436133Y144256D01*
X435759Y145260D01*
X435457Y146288D01*
X435229Y147335D01*
X435076Y148396D01*
X435000Y149464D01*
X435000Y150536D01*
X435076Y151604D01*
X435229Y152665D01*
X435457Y153712D01*
X435759Y154740D01*
X436133Y155744D01*
X436578Y156719D01*
X437092Y157659D01*
X437671Y158560D01*
X438313Y159418D01*
X439015Y160228D01*
X439772Y160985D01*
X440582Y161687D01*
X441440Y162329D01*
X442341Y162908D01*
X443281Y163422D01*
X444256Y163867D01*
X445260Y164241D01*
X446288Y164543D01*
X447335Y164771D01*
X448396Y164924D01*
X449464Y165000D01*
X450536Y165000D01*
X451604Y164924D01*
X452665Y164771D01*
X453712Y164543D01*
X454740Y164241D01*
X455744Y163867D01*
X456719Y163422D01*
X457659Y162908D01*
X458560Y162329D01*
X459418Y161687D01*
X460228Y160985D01*
X460985Y160228D01*
X461687Y159418D01*
X462329Y158560D01*
X462908Y157659D01*
X463422Y156719D01*
X463867Y155744D01*
X464241Y154740D01*
X464543Y153712D01*
X464771Y152665D01*
X464924Y151604D01*
X465000Y150536D01*
X465000Y149464D01*
X65000Y718464D02*
X64924Y717396D01*
X64771Y716335D01*
X64543Y715288D01*
X64241Y714260D01*
X63867Y713256D01*
X63422Y712281D01*
X62908Y711341D01*
X62329Y710440D01*
X61687Y709582D01*
X60985Y708772D01*
X60228Y708015D01*
X59418Y707313D01*
X58560Y706671D01*
X57659Y706092D01*
X56719Y705578D01*
X55744Y705133D01*
X54740Y704759D01*
X53712Y704457D01*
X52665Y704229D01*
X51604Y704076D01*
X50536Y704000D01*
X49464Y704000D01*
X48396Y704076D01*
X47335Y704229D01*
X46288Y704457D01*
X45260Y704759D01*
X44256Y705133D01*
X43281Y705578D01*
X42341Y706092D01*
X41440Y706671D01*
X40582Y707313D01*
X39772Y708015D01*
X39015Y708772D01*
X38313Y709582D01*
X37671Y710440D01*
X37092Y711341D01*
X36578Y712281D01*
X36133Y713256D01*
X35759Y714260D01*
X35457Y715288D01*
X35229Y716335D01*
X35076Y717396D01*
X35000Y718464D01*
X35000Y719536D01*
X35076Y720604D01*
X35229Y721665D01*
X35457Y722712D01*
X35759Y723740D01*
X36133Y724744D01*
X36578Y725719D01*
X37092Y726659D01*
X37671Y727560D01*
X38313Y728418D01*
X39015Y729228D01*
X39772Y729985D01*
X40582Y730687D01*
X41440Y731329D01*
X42341Y731908D01*
X43281Y732422D01*
X44256Y732867D01*
X45260Y733241D01*
X46288Y733543D01*
X47335Y733771D01*
X48396Y733924D01*
X49464Y734000D01*
X50536Y734000D01*
X51604Y733924D01*
X52665Y733771D01*
X53712Y733543D01*
X54740Y733241D01*
X55744Y732867D01*
X56719Y732422D01*
X57659Y731908D01*
X58560Y731329D01*
X59418Y730687D01*
X60228Y729985D01*
X60985Y729228D01*
X61687Y728418D01*
X62329Y727560D01*
X62908Y726659D01*
X63422Y725719D01*
X63867Y724744D01*
X64241Y723740D01*
X64543Y722712D01*
X64771Y721665D01*
X64924Y720604D01*
X65000Y719536D01*
X65000Y718464D01*
X465000Y718464D02*
X464924Y717396D01*
X464771Y716335D01*
X464543Y715288D01*
X464241Y714260D01*
X463867Y713256D01*
X463422Y712281D01*
X462908Y711341D01*
X462329Y710440D01*
X461687Y709582D01*
X460985Y708772D01*
X460228Y708015D01*
X459418Y707313D01*
X458560Y706671D01*
X457659Y706092D01*
X456719Y705578D01*
X455744Y705133D01*
X454740Y704759D01*
X453712Y704457D01*
X452665Y704229D01*
X451604Y704076D01*
X450536Y704000D01*
X449464Y704000D01*
X448396Y704076D01*
X447335Y704229D01*
X446288Y704457D01*
X445260Y704759D01*
X444256Y705133D01*
X443281Y705578D01*
X442341Y706092D01*
X441440Y706671D01*
X440582Y707313D01*
X439772Y708015D01*
X439015Y708772D01*
X438313Y709582D01*
X437671Y710440D01*
X437092Y711341D01*
X436578Y712281D01*
X436133Y713256D01*
X435759Y714260D01*
X435457Y715288D01*
X435229Y716335D01*
X435076Y717396D01*
X435000Y718464D01*
X435000Y719536D01*
X435076Y720604D01*
X435229Y721665D01*
X435457Y722712D01*
X435759Y723740D01*
X436133Y724744D01*
X436578Y725719D01*
X437092Y726659D01*
X437671Y727560D01*
X438313Y728418D01*
X439015Y729228D01*
X439772Y729985D01*
X440582Y730687D01*
X441440Y731329D01*
X442341Y731908D01*
X443281Y732422D01*
X444256Y732867D01*
X445260Y733241D01*
X446288Y733543D01*
X447335Y733771D01*
X448396Y733924D01*
X449464Y734000D01*
X450536Y734000D01*
X451604Y733924D01*
X452665Y733771D01*
X453712Y733543D01*
X454740Y733241D01*
X455744Y732867D01*
X456719Y732422D01*
X457659Y731908D01*
X458560Y731329D01*
X459418Y730687D01*
X460228Y729985D01*
X460985Y729228D01*
X461687Y728418D01*
X462329Y727560D01*
X462908Y726659D01*
X463422Y725719D01*
X463867Y724744D01*
X464241Y723740D01*
X464543Y722712D01*
X464771Y721665D01*
X464924Y720604D01*
X465000Y719536D01*
X465000Y718464D01*
M02*
