G04 EAGLE Gerber X2 export*
%TF.Part,Single*%
%TF.FileFunction,Profile,NP*%
%TF.FilePolarity,Positive*%
%TF.GenerationSoftware,Autodesk,EAGLE,9.1.3*%
%TF.CreationDate,2018-09-12T19:46:09Z*%
G75*
%MOMM*%
%FSLAX34Y34*%
%LPD*%
%AMOC8*
5,1,8,0,0,1.08239X$1,22.5*%
G01*
%ADD10C,0.254000*%


D10*
X0Y0D02*
X500000Y0D01*
X500000Y70000D01*
X500019Y70436D01*
X500076Y70868D01*
X500170Y71294D01*
X500302Y71710D01*
X500468Y72113D01*
X500670Y72500D01*
X500904Y72868D01*
X501170Y73214D01*
X501464Y73536D01*
X501786Y73830D01*
X502132Y74096D01*
X502500Y74330D01*
X502887Y74532D01*
X503290Y74698D01*
X503706Y74830D01*
X504132Y74924D01*
X504564Y74981D01*
X505000Y75000D01*
X505436Y74981D01*
X505868Y74924D01*
X506294Y74830D01*
X506710Y74698D01*
X507113Y74532D01*
X507500Y74330D01*
X507868Y74096D01*
X508214Y73830D01*
X508536Y73536D01*
X508830Y73214D01*
X509096Y72868D01*
X509330Y72500D01*
X509532Y72113D01*
X509698Y71710D01*
X509830Y71294D01*
X509924Y70868D01*
X509981Y70436D01*
X510000Y70000D01*
X510000Y0D01*
X930000Y0D01*
X930000Y490000D01*
X510000Y490000D01*
X510000Y420000D01*
X509981Y419564D01*
X509924Y419132D01*
X509830Y418706D01*
X509698Y418290D01*
X509532Y417887D01*
X509330Y417500D01*
X509096Y417132D01*
X508830Y416786D01*
X508536Y416464D01*
X508214Y416170D01*
X507868Y415904D01*
X507500Y415670D01*
X507113Y415468D01*
X506710Y415302D01*
X506294Y415170D01*
X505868Y415076D01*
X505436Y415019D01*
X505000Y415000D01*
X504564Y415019D01*
X504132Y415076D01*
X503706Y415170D01*
X503290Y415302D01*
X502887Y415468D01*
X502500Y415670D01*
X502132Y415904D01*
X501786Y416170D01*
X501464Y416464D01*
X501170Y416786D01*
X500904Y417132D01*
X500670Y417500D01*
X500468Y417887D01*
X500302Y418290D01*
X500170Y418706D01*
X500076Y419132D01*
X500019Y419564D01*
X500000Y420000D01*
X500000Y869000D01*
X0Y869000D01*
X0Y0D01*
X284000Y669450D02*
X324000Y669450D01*
X324872Y669488D01*
X325736Y669602D01*
X326588Y669791D01*
X327420Y670053D01*
X328226Y670387D01*
X329000Y670790D01*
X329736Y671258D01*
X330428Y671790D01*
X331071Y672379D01*
X331660Y673022D01*
X332192Y673714D01*
X332660Y674450D01*
X333063Y675224D01*
X333397Y676030D01*
X333659Y676862D01*
X333848Y677714D01*
X333962Y678578D01*
X334000Y679450D01*
X333962Y680322D01*
X333848Y681186D01*
X333659Y682038D01*
X333397Y682870D01*
X333063Y683676D01*
X332660Y684450D01*
X332192Y685186D01*
X331660Y685878D01*
X331071Y686521D01*
X330428Y687110D01*
X329736Y687642D01*
X329000Y688110D01*
X328226Y688513D01*
X327420Y688847D01*
X326588Y689109D01*
X325736Y689298D01*
X324872Y689412D01*
X324000Y689450D01*
X284000Y689450D01*
X283128Y689412D01*
X282264Y689298D01*
X281412Y689109D01*
X280580Y688847D01*
X279774Y688513D01*
X279000Y688110D01*
X278264Y687642D01*
X277572Y687110D01*
X276929Y686521D01*
X276340Y685878D01*
X275808Y685186D01*
X275340Y684450D01*
X274937Y683676D01*
X274603Y682870D01*
X274341Y682038D01*
X274152Y681186D01*
X274038Y680322D01*
X274000Y679450D01*
X274038Y678578D01*
X274152Y677714D01*
X274341Y676862D01*
X274603Y676030D01*
X274937Y675224D01*
X275340Y674450D01*
X275808Y673714D01*
X276340Y673022D01*
X276929Y672379D01*
X277572Y671790D01*
X278264Y671258D01*
X279000Y670790D01*
X279774Y670387D01*
X280580Y670053D01*
X281412Y669791D01*
X282264Y669602D01*
X283128Y669488D01*
X284000Y669450D01*
X184000Y669450D02*
X224000Y669450D01*
X224872Y669488D01*
X225736Y669602D01*
X226588Y669791D01*
X227420Y670053D01*
X228226Y670387D01*
X229000Y670790D01*
X229736Y671258D01*
X230428Y671790D01*
X231071Y672379D01*
X231660Y673022D01*
X232192Y673714D01*
X232660Y674450D01*
X233063Y675224D01*
X233397Y676030D01*
X233659Y676862D01*
X233848Y677714D01*
X233962Y678578D01*
X234000Y679450D01*
X233962Y680322D01*
X233848Y681186D01*
X233659Y682038D01*
X233397Y682870D01*
X233063Y683676D01*
X232660Y684450D01*
X232192Y685186D01*
X231660Y685878D01*
X231071Y686521D01*
X230428Y687110D01*
X229736Y687642D01*
X229000Y688110D01*
X228226Y688513D01*
X227420Y688847D01*
X226588Y689109D01*
X225736Y689298D01*
X224872Y689412D01*
X224000Y689450D01*
X184000Y689450D01*
X183128Y689412D01*
X182264Y689298D01*
X181412Y689109D01*
X180580Y688847D01*
X179774Y688513D01*
X179000Y688110D01*
X178264Y687642D01*
X177572Y687110D01*
X176929Y686521D01*
X176340Y685878D01*
X175808Y685186D01*
X175340Y684450D01*
X174937Y683676D01*
X174603Y682870D01*
X174341Y682038D01*
X174152Y681186D01*
X174038Y680322D01*
X174000Y679450D01*
X174038Y678578D01*
X174152Y677714D01*
X174341Y676862D01*
X174603Y676030D01*
X174937Y675224D01*
X175340Y674450D01*
X175808Y673714D01*
X176340Y673022D01*
X176929Y672379D01*
X177572Y671790D01*
X178264Y671258D01*
X179000Y670790D01*
X179774Y670387D01*
X180580Y670053D01*
X181412Y669791D01*
X182264Y669602D01*
X183128Y669488D01*
X184000Y669450D01*
X500000Y100000D02*
X500019Y99564D01*
X500076Y99132D01*
X500170Y98706D01*
X500302Y98290D01*
X500468Y97887D01*
X500670Y97500D01*
X500904Y97132D01*
X501170Y96786D01*
X501464Y96464D01*
X501786Y96170D01*
X502132Y95904D01*
X502500Y95670D01*
X502887Y95468D01*
X503290Y95302D01*
X503706Y95170D01*
X504132Y95076D01*
X504564Y95019D01*
X505000Y95000D01*
X505436Y95019D01*
X505868Y95076D01*
X506294Y95170D01*
X506710Y95302D01*
X507113Y95468D01*
X507500Y95670D01*
X507868Y95904D01*
X508214Y96170D01*
X508536Y96464D01*
X508830Y96786D01*
X509096Y97132D01*
X509330Y97500D01*
X509532Y97887D01*
X509698Y98290D01*
X509830Y98706D01*
X509924Y99132D01*
X509981Y99564D01*
X510000Y100000D01*
X510000Y390000D01*
X509981Y390436D01*
X509924Y390868D01*
X509830Y391294D01*
X509698Y391710D01*
X509532Y392113D01*
X509330Y392500D01*
X509096Y392868D01*
X508830Y393214D01*
X508536Y393536D01*
X508214Y393830D01*
X507868Y394096D01*
X507500Y394330D01*
X507113Y394532D01*
X506710Y394698D01*
X506294Y394830D01*
X505868Y394924D01*
X505436Y394981D01*
X505000Y395000D01*
X504564Y394981D01*
X504132Y394924D01*
X503706Y394830D01*
X503290Y394698D01*
X502887Y394532D01*
X502500Y394330D01*
X502132Y394096D01*
X501786Y393830D01*
X501464Y393536D01*
X501170Y393214D01*
X500904Y392868D01*
X500670Y392500D01*
X500468Y392113D01*
X500302Y391710D01*
X500170Y391294D01*
X500076Y390868D01*
X500019Y390436D01*
X500000Y390000D01*
X500000Y323850D01*
X500000Y100000D01*
X65000Y149464D02*
X64924Y148396D01*
X64771Y147335D01*
X64543Y146288D01*
X64241Y145260D01*
X63867Y144256D01*
X63422Y143281D01*
X62908Y142341D01*
X62329Y141440D01*
X61687Y140582D01*
X60985Y139772D01*
X60228Y139015D01*
X59418Y138313D01*
X58560Y137671D01*
X57659Y137092D01*
X56719Y136578D01*
X55744Y136133D01*
X54740Y135759D01*
X53712Y135457D01*
X52665Y135229D01*
X51604Y135076D01*
X50536Y135000D01*
X49464Y135000D01*
X48396Y135076D01*
X47335Y135229D01*
X46288Y135457D01*
X45260Y135759D01*
X44256Y136133D01*
X43281Y136578D01*
X42341Y137092D01*
X41440Y137671D01*
X40582Y138313D01*
X39772Y139015D01*
X39015Y139772D01*
X38313Y140582D01*
X37671Y141440D01*
X37092Y142341D01*
X36578Y143281D01*
X36133Y144256D01*
X35759Y145260D01*
X35457Y146288D01*
X35229Y147335D01*
X35076Y148396D01*
X35000Y149464D01*
X35000Y150536D01*
X35076Y151604D01*
X35229Y152665D01*
X35457Y153712D01*
X35759Y154740D01*
X36133Y155744D01*
X36578Y156719D01*
X37092Y157659D01*
X37671Y158560D01*
X38313Y159418D01*
X39015Y160228D01*
X39772Y160985D01*
X40582Y161687D01*
X41440Y162329D01*
X42341Y162908D01*
X43281Y163422D01*
X44256Y163867D01*
X45260Y164241D01*
X46288Y164543D01*
X47335Y164771D01*
X48396Y164924D01*
X49464Y165000D01*
X50536Y165000D01*
X51604Y164924D01*
X52665Y164771D01*
X53712Y164543D01*
X54740Y164241D01*
X55744Y163867D01*
X56719Y163422D01*
X57659Y162908D01*
X58560Y162329D01*
X59418Y161687D01*
X60228Y160985D01*
X60985Y160228D01*
X61687Y159418D01*
X62329Y158560D01*
X62908Y157659D01*
X63422Y156719D01*
X63867Y155744D01*
X64241Y154740D01*
X64543Y153712D01*
X64771Y152665D01*
X64924Y151604D01*
X65000Y150536D01*
X65000Y149464D01*
X465000Y149464D02*
X464924Y148396D01*
X464771Y147335D01*
X464543Y146288D01*
X464241Y145260D01*
X463867Y144256D01*
X463422Y143281D01*
X462908Y142341D01*
X462329Y141440D01*
X461687Y140582D01*
X460985Y139772D01*
X460228Y139015D01*
X459418Y138313D01*
X458560Y137671D01*
X457659Y137092D01*
X456719Y136578D01*
X455744Y136133D01*
X454740Y135759D01*
X453712Y135457D01*
X452665Y135229D01*
X451604Y135076D01*
X450536Y135000D01*
X449464Y135000D01*
X448396Y135076D01*
X447335Y135229D01*
X446288Y135457D01*
X445260Y135759D01*
X444256Y136133D01*
X443281Y136578D01*
X442341Y137092D01*
X441440Y137671D01*
X440582Y138313D01*
X439772Y139015D01*
X439015Y139772D01*
X438313Y140582D01*
X437671Y141440D01*
X437092Y142341D01*
X436578Y143281D01*
X436133Y144256D01*
X435759Y145260D01*
X435457Y146288D01*
X435229Y147335D01*
X435076Y148396D01*
X435000Y149464D01*
X435000Y150536D01*
X435076Y151604D01*
X435229Y152665D01*
X435457Y153712D01*
X435759Y154740D01*
X436133Y155744D01*
X436578Y156719D01*
X437092Y157659D01*
X437671Y158560D01*
X438313Y159418D01*
X439015Y160228D01*
X439772Y160985D01*
X440582Y161687D01*
X441440Y162329D01*
X442341Y162908D01*
X443281Y163422D01*
X444256Y163867D01*
X445260Y164241D01*
X446288Y164543D01*
X447335Y164771D01*
X448396Y164924D01*
X449464Y165000D01*
X450536Y165000D01*
X451604Y164924D01*
X452665Y164771D01*
X453712Y164543D01*
X454740Y164241D01*
X455744Y163867D01*
X456719Y163422D01*
X457659Y162908D01*
X458560Y162329D01*
X459418Y161687D01*
X460228Y160985D01*
X460985Y160228D01*
X461687Y159418D01*
X462329Y158560D01*
X462908Y157659D01*
X463422Y156719D01*
X463867Y155744D01*
X464241Y154740D01*
X464543Y153712D01*
X464771Y152665D01*
X464924Y151604D01*
X465000Y150536D01*
X465000Y149464D01*
X65000Y718464D02*
X64924Y717396D01*
X64771Y716335D01*
X64543Y715288D01*
X64241Y714260D01*
X63867Y713256D01*
X63422Y712281D01*
X62908Y711341D01*
X62329Y710440D01*
X61687Y709582D01*
X60985Y708772D01*
X60228Y708015D01*
X59418Y707313D01*
X58560Y706671D01*
X57659Y706092D01*
X56719Y705578D01*
X55744Y705133D01*
X54740Y704759D01*
X53712Y704457D01*
X52665Y704229D01*
X51604Y704076D01*
X50536Y704000D01*
X49464Y704000D01*
X48396Y704076D01*
X47335Y704229D01*
X46288Y704457D01*
X45260Y704759D01*
X44256Y705133D01*
X43281Y705578D01*
X42341Y706092D01*
X41440Y706671D01*
X40582Y707313D01*
X39772Y708015D01*
X39015Y708772D01*
X38313Y709582D01*
X37671Y710440D01*
X37092Y711341D01*
X36578Y712281D01*
X36133Y713256D01*
X35759Y714260D01*
X35457Y715288D01*
X35229Y716335D01*
X35076Y717396D01*
X35000Y718464D01*
X35000Y719536D01*
X35076Y720604D01*
X35229Y721665D01*
X35457Y722712D01*
X35759Y723740D01*
X36133Y724744D01*
X36578Y725719D01*
X37092Y726659D01*
X37671Y727560D01*
X38313Y728418D01*
X39015Y729228D01*
X39772Y729985D01*
X40582Y730687D01*
X41440Y731329D01*
X42341Y731908D01*
X43281Y732422D01*
X44256Y732867D01*
X45260Y733241D01*
X46288Y733543D01*
X47335Y733771D01*
X48396Y733924D01*
X49464Y734000D01*
X50536Y734000D01*
X51604Y733924D01*
X52665Y733771D01*
X53712Y733543D01*
X54740Y733241D01*
X55744Y732867D01*
X56719Y732422D01*
X57659Y731908D01*
X58560Y731329D01*
X59418Y730687D01*
X60228Y729985D01*
X60985Y729228D01*
X61687Y728418D01*
X62329Y727560D01*
X62908Y726659D01*
X63422Y725719D01*
X63867Y724744D01*
X64241Y723740D01*
X64543Y722712D01*
X64771Y721665D01*
X64924Y720604D01*
X65000Y719536D01*
X65000Y718464D01*
X465000Y718464D02*
X464924Y717396D01*
X464771Y716335D01*
X464543Y715288D01*
X464241Y714260D01*
X463867Y713256D01*
X463422Y712281D01*
X462908Y711341D01*
X462329Y710440D01*
X461687Y709582D01*
X460985Y708772D01*
X460228Y708015D01*
X459418Y707313D01*
X458560Y706671D01*
X457659Y706092D01*
X456719Y705578D01*
X455744Y705133D01*
X454740Y704759D01*
X453712Y704457D01*
X452665Y704229D01*
X451604Y704076D01*
X450536Y704000D01*
X449464Y704000D01*
X448396Y704076D01*
X447335Y704229D01*
X446288Y704457D01*
X445260Y704759D01*
X444256Y705133D01*
X443281Y705578D01*
X442341Y706092D01*
X441440Y706671D01*
X440582Y707313D01*
X439772Y708015D01*
X439015Y708772D01*
X438313Y709582D01*
X437671Y710440D01*
X437092Y711341D01*
X436578Y712281D01*
X436133Y713256D01*
X435759Y714260D01*
X435457Y715288D01*
X435229Y716335D01*
X435076Y717396D01*
X435000Y718464D01*
X435000Y719536D01*
X435076Y720604D01*
X435229Y721665D01*
X435457Y722712D01*
X435759Y723740D01*
X436133Y724744D01*
X436578Y725719D01*
X437092Y726659D01*
X437671Y727560D01*
X438313Y728418D01*
X439015Y729228D01*
X439772Y729985D01*
X440582Y730687D01*
X441440Y731329D01*
X442341Y731908D01*
X443281Y732422D01*
X444256Y732867D01*
X445260Y733241D01*
X446288Y733543D01*
X447335Y733771D01*
X448396Y733924D01*
X449464Y734000D01*
X450536Y734000D01*
X451604Y733924D01*
X452665Y733771D01*
X453712Y733543D01*
X454740Y733241D01*
X455744Y732867D01*
X456719Y732422D01*
X457659Y731908D01*
X458560Y731329D01*
X459418Y730687D01*
X460228Y729985D01*
X460985Y729228D01*
X461687Y728418D01*
X462329Y727560D01*
X462908Y726659D01*
X463422Y725719D01*
X463867Y724744D01*
X464241Y723740D01*
X464543Y722712D01*
X464771Y721665D01*
X464924Y720604D01*
X465000Y719536D01*
X465000Y718464D01*
X922000Y17563D02*
X921924Y16694D01*
X921772Y15834D01*
X921546Y14990D01*
X921248Y14170D01*
X920879Y13378D01*
X920442Y12622D01*
X919941Y11907D01*
X919380Y11238D01*
X918762Y10620D01*
X918093Y10059D01*
X917378Y9558D01*
X916622Y9121D01*
X915830Y8752D01*
X915010Y8454D01*
X914166Y8228D01*
X913307Y8076D01*
X912437Y8000D01*
X911563Y8000D01*
X910694Y8076D01*
X909834Y8228D01*
X908990Y8454D01*
X908170Y8752D01*
X907378Y9121D01*
X906622Y9558D01*
X905907Y10059D01*
X905238Y10620D01*
X904620Y11238D01*
X904059Y11907D01*
X903558Y12622D01*
X903121Y13378D01*
X902752Y14170D01*
X902454Y14990D01*
X902228Y15834D01*
X902076Y16694D01*
X902000Y17563D01*
X902000Y18437D01*
X902076Y19307D01*
X902228Y20166D01*
X902454Y21010D01*
X902752Y21830D01*
X903121Y22622D01*
X903558Y23378D01*
X904059Y24093D01*
X904620Y24762D01*
X905238Y25380D01*
X905907Y25941D01*
X906622Y26442D01*
X907378Y26879D01*
X908170Y27248D01*
X908990Y27546D01*
X909834Y27772D01*
X910694Y27924D01*
X911563Y28000D01*
X912437Y28000D01*
X913307Y27924D01*
X914166Y27772D01*
X915010Y27546D01*
X915830Y27248D01*
X916622Y26879D01*
X917378Y26442D01*
X918093Y25941D01*
X918762Y25380D01*
X919380Y24762D01*
X919941Y24093D01*
X920442Y23378D01*
X920879Y22622D01*
X921248Y21830D01*
X921546Y21010D01*
X921772Y20166D01*
X921924Y19307D01*
X922000Y18437D01*
X922000Y17563D01*
X922000Y471563D02*
X921924Y470694D01*
X921772Y469834D01*
X921546Y468990D01*
X921248Y468170D01*
X920879Y467378D01*
X920442Y466622D01*
X919941Y465907D01*
X919380Y465238D01*
X918762Y464620D01*
X918093Y464059D01*
X917378Y463558D01*
X916622Y463121D01*
X915830Y462752D01*
X915010Y462454D01*
X914166Y462228D01*
X913307Y462076D01*
X912437Y462000D01*
X911563Y462000D01*
X910694Y462076D01*
X909834Y462228D01*
X908990Y462454D01*
X908170Y462752D01*
X907378Y463121D01*
X906622Y463558D01*
X905907Y464059D01*
X905238Y464620D01*
X904620Y465238D01*
X904059Y465907D01*
X903558Y466622D01*
X903121Y467378D01*
X902752Y468170D01*
X902454Y468990D01*
X902228Y469834D01*
X902076Y470694D01*
X902000Y471563D01*
X902000Y472437D01*
X902076Y473307D01*
X902228Y474166D01*
X902454Y475010D01*
X902752Y475830D01*
X903121Y476622D01*
X903558Y477378D01*
X904059Y478093D01*
X904620Y478762D01*
X905238Y479380D01*
X905907Y479941D01*
X906622Y480442D01*
X907378Y480879D01*
X908170Y481248D01*
X908990Y481546D01*
X909834Y481772D01*
X910694Y481924D01*
X911563Y482000D01*
X912437Y482000D01*
X913307Y481924D01*
X914166Y481772D01*
X915010Y481546D01*
X915830Y481248D01*
X916622Y480879D01*
X917378Y480442D01*
X918093Y479941D01*
X918762Y479380D01*
X919380Y478762D01*
X919941Y478093D01*
X920442Y477378D01*
X920879Y476622D01*
X921248Y475830D01*
X921546Y475010D01*
X921772Y474166D01*
X921924Y473307D01*
X922000Y472437D01*
X922000Y471563D01*
X538000Y17563D02*
X537924Y16694D01*
X537772Y15834D01*
X537546Y14990D01*
X537248Y14170D01*
X536879Y13378D01*
X536442Y12622D01*
X535941Y11907D01*
X535380Y11238D01*
X534762Y10620D01*
X534093Y10059D01*
X533378Y9558D01*
X532622Y9121D01*
X531830Y8752D01*
X531010Y8454D01*
X530166Y8228D01*
X529307Y8076D01*
X528437Y8000D01*
X527563Y8000D01*
X526694Y8076D01*
X525834Y8228D01*
X524990Y8454D01*
X524170Y8752D01*
X523378Y9121D01*
X522622Y9558D01*
X521907Y10059D01*
X521238Y10620D01*
X520620Y11238D01*
X520059Y11907D01*
X519558Y12622D01*
X519121Y13378D01*
X518752Y14170D01*
X518454Y14990D01*
X518228Y15834D01*
X518076Y16694D01*
X518000Y17563D01*
X518000Y18437D01*
X518076Y19307D01*
X518228Y20166D01*
X518454Y21010D01*
X518752Y21830D01*
X519121Y22622D01*
X519558Y23378D01*
X520059Y24093D01*
X520620Y24762D01*
X521238Y25380D01*
X521907Y25941D01*
X522622Y26442D01*
X523378Y26879D01*
X524170Y27248D01*
X524990Y27546D01*
X525834Y27772D01*
X526694Y27924D01*
X527563Y28000D01*
X528437Y28000D01*
X529307Y27924D01*
X530166Y27772D01*
X531010Y27546D01*
X531830Y27248D01*
X532622Y26879D01*
X533378Y26442D01*
X534093Y25941D01*
X534762Y25380D01*
X535380Y24762D01*
X535941Y24093D01*
X536442Y23378D01*
X536879Y22622D01*
X537248Y21830D01*
X537546Y21010D01*
X537772Y20166D01*
X537924Y19307D01*
X538000Y18437D01*
X538000Y17563D01*
X538000Y471563D02*
X537924Y470694D01*
X537772Y469834D01*
X537546Y468990D01*
X537248Y468170D01*
X536879Y467378D01*
X536442Y466622D01*
X535941Y465907D01*
X535380Y465238D01*
X534762Y464620D01*
X534093Y464059D01*
X533378Y463558D01*
X532622Y463121D01*
X531830Y462752D01*
X531010Y462454D01*
X530166Y462228D01*
X529307Y462076D01*
X528437Y462000D01*
X527563Y462000D01*
X526694Y462076D01*
X525834Y462228D01*
X524990Y462454D01*
X524170Y462752D01*
X523378Y463121D01*
X522622Y463558D01*
X521907Y464059D01*
X521238Y464620D01*
X520620Y465238D01*
X520059Y465907D01*
X519558Y466622D01*
X519121Y467378D01*
X518752Y468170D01*
X518454Y468990D01*
X518228Y469834D01*
X518076Y470694D01*
X518000Y471563D01*
X518000Y472437D01*
X518076Y473307D01*
X518228Y474166D01*
X518454Y475010D01*
X518752Y475830D01*
X519121Y476622D01*
X519558Y477378D01*
X520059Y478093D01*
X520620Y478762D01*
X521238Y479380D01*
X521907Y479941D01*
X522622Y480442D01*
X523378Y480879D01*
X524170Y481248D01*
X524990Y481546D01*
X525834Y481772D01*
X526694Y481924D01*
X527563Y482000D01*
X528437Y482000D01*
X529307Y481924D01*
X530166Y481772D01*
X531010Y481546D01*
X531830Y481248D01*
X532622Y480879D01*
X533378Y480442D01*
X534093Y479941D01*
X534762Y479380D01*
X535380Y478762D01*
X535941Y478093D01*
X536442Y477378D01*
X536879Y476622D01*
X537248Y475830D01*
X537546Y475010D01*
X537772Y474166D01*
X537924Y473307D01*
X538000Y472437D01*
X538000Y471563D01*
X508500Y79771D02*
X508440Y79316D01*
X508321Y78873D01*
X508146Y78449D01*
X507916Y78051D01*
X507637Y77687D01*
X507313Y77363D01*
X506949Y77084D01*
X506551Y76854D01*
X506127Y76679D01*
X505684Y76560D01*
X505229Y76500D01*
X504771Y76500D01*
X504316Y76560D01*
X503873Y76679D01*
X503449Y76854D01*
X503051Y77084D01*
X502687Y77363D01*
X502363Y77687D01*
X502084Y78051D01*
X501854Y78449D01*
X501679Y78873D01*
X501560Y79316D01*
X501500Y79771D01*
X501500Y80229D01*
X501560Y80684D01*
X501679Y81127D01*
X501854Y81551D01*
X502084Y81949D01*
X502363Y82313D01*
X502687Y82637D01*
X503051Y82916D01*
X503449Y83146D01*
X503873Y83321D01*
X504316Y83440D01*
X504771Y83500D01*
X505229Y83500D01*
X505684Y83440D01*
X506127Y83321D01*
X506551Y83146D01*
X506949Y82916D01*
X507313Y82637D01*
X507637Y82313D01*
X507916Y81949D01*
X508146Y81551D01*
X508321Y81127D01*
X508440Y80684D01*
X508500Y80229D01*
X508500Y79771D01*
X508500Y89771D02*
X508440Y89316D01*
X508321Y88873D01*
X508146Y88449D01*
X507916Y88051D01*
X507637Y87687D01*
X507313Y87363D01*
X506949Y87084D01*
X506551Y86854D01*
X506127Y86679D01*
X505684Y86560D01*
X505229Y86500D01*
X504771Y86500D01*
X504316Y86560D01*
X503873Y86679D01*
X503449Y86854D01*
X503051Y87084D01*
X502687Y87363D01*
X502363Y87687D01*
X502084Y88051D01*
X501854Y88449D01*
X501679Y88873D01*
X501560Y89316D01*
X501500Y89771D01*
X501500Y90229D01*
X501560Y90684D01*
X501679Y91127D01*
X501854Y91551D01*
X502084Y91949D01*
X502363Y92313D01*
X502687Y92637D01*
X503051Y92916D01*
X503449Y93146D01*
X503873Y93321D01*
X504316Y93440D01*
X504771Y93500D01*
X505229Y93500D01*
X505684Y93440D01*
X506127Y93321D01*
X506551Y93146D01*
X506949Y92916D01*
X507313Y92637D01*
X507637Y92313D01*
X507916Y91949D01*
X508146Y91551D01*
X508321Y91127D01*
X508440Y90684D01*
X508500Y90229D01*
X508500Y89771D01*
X508500Y399771D02*
X508440Y399316D01*
X508321Y398873D01*
X508146Y398449D01*
X507916Y398051D01*
X507637Y397687D01*
X507313Y397363D01*
X506949Y397084D01*
X506551Y396854D01*
X506127Y396679D01*
X505684Y396560D01*
X505229Y396500D01*
X504771Y396500D01*
X504316Y396560D01*
X503873Y396679D01*
X503449Y396854D01*
X503051Y397084D01*
X502687Y397363D01*
X502363Y397687D01*
X502084Y398051D01*
X501854Y398449D01*
X501679Y398873D01*
X501560Y399316D01*
X501500Y399771D01*
X501500Y400229D01*
X501560Y400684D01*
X501679Y401127D01*
X501854Y401551D01*
X502084Y401949D01*
X502363Y402313D01*
X502687Y402637D01*
X503051Y402916D01*
X503449Y403146D01*
X503873Y403321D01*
X504316Y403440D01*
X504771Y403500D01*
X505229Y403500D01*
X505684Y403440D01*
X506127Y403321D01*
X506551Y403146D01*
X506949Y402916D01*
X507313Y402637D01*
X507637Y402313D01*
X507916Y401949D01*
X508146Y401551D01*
X508321Y401127D01*
X508440Y400684D01*
X508500Y400229D01*
X508500Y399771D01*
X508500Y409771D02*
X508440Y409316D01*
X508321Y408873D01*
X508146Y408449D01*
X507916Y408051D01*
X507637Y407687D01*
X507313Y407363D01*
X506949Y407084D01*
X506551Y406854D01*
X506127Y406679D01*
X505684Y406560D01*
X505229Y406500D01*
X504771Y406500D01*
X504316Y406560D01*
X503873Y406679D01*
X503449Y406854D01*
X503051Y407084D01*
X502687Y407363D01*
X502363Y407687D01*
X502084Y408051D01*
X501854Y408449D01*
X501679Y408873D01*
X501560Y409316D01*
X501500Y409771D01*
X501500Y410229D01*
X501560Y410684D01*
X501679Y411127D01*
X501854Y411551D01*
X502084Y411949D01*
X502363Y412313D01*
X502687Y412637D01*
X503051Y412916D01*
X503449Y413146D01*
X503873Y413321D01*
X504316Y413440D01*
X504771Y413500D01*
X505229Y413500D01*
X505684Y413440D01*
X506127Y413321D01*
X506551Y413146D01*
X506949Y412916D01*
X507313Y412637D01*
X507637Y412313D01*
X507916Y411949D01*
X508146Y411551D01*
X508321Y411127D01*
X508440Y410684D01*
X508500Y410229D01*
X508500Y409771D01*
M02*
