G04 EAGLE Gerber X2 export*
%TF.Part,Single*%
%TF.FileFunction,Legend,Top,1*%
%TF.FilePolarity,Positive*%
%TF.GenerationSoftware,Autodesk,EAGLE,9.1.3*%
%TF.CreationDate,2018-09-11T19:51:11Z*%
G75*
%MOMM*%
%FSLAX34Y34*%
%LPD*%
%AMOC8*
5,1,8,0,0,1.08239X$1,22.5*%
G01*
%ADD10C,0.050800*%
%ADD11C,0.101600*%
%ADD12C,0.076200*%


D10*
X216154Y597154D02*
X218018Y597154D01*
X217086Y597154D02*
X217086Y602747D01*
X216154Y602747D02*
X218018Y602747D01*
X222692Y602747D02*
X223625Y601815D01*
X222692Y602747D02*
X220828Y602747D01*
X219896Y601815D01*
X219896Y598086D01*
X220828Y597154D01*
X222692Y597154D01*
X223625Y598086D01*
X225509Y600883D02*
X227373Y602747D01*
X227373Y597154D01*
X225509Y597154D02*
X229238Y597154D01*
X77479Y205872D02*
X77479Y200279D01*
X77479Y205872D02*
X80275Y205872D01*
X81208Y204940D01*
X81208Y203075D01*
X80275Y202143D01*
X77479Y202143D01*
X79343Y202143D02*
X81208Y200279D01*
X83092Y204008D02*
X84956Y205872D01*
X84956Y200279D01*
X83092Y200279D02*
X86821Y200279D01*
X88705Y200279D02*
X92434Y200279D01*
X88705Y200279D02*
X92434Y204008D01*
X92434Y204940D01*
X91502Y205872D01*
X89637Y205872D01*
X88705Y204940D01*
X258431Y417919D02*
X257499Y418851D01*
X255635Y418851D01*
X254703Y417919D01*
X254703Y414190D01*
X255635Y413258D01*
X257499Y413258D01*
X258431Y414190D01*
X260316Y413258D02*
X264044Y413258D01*
X260316Y413258D02*
X264044Y416987D01*
X264044Y417919D01*
X263112Y418851D01*
X261248Y418851D01*
X260316Y417919D01*
X233608Y419252D02*
X232675Y420184D01*
X230811Y420184D01*
X229879Y419252D01*
X229879Y415524D01*
X230811Y414592D01*
X232675Y414592D01*
X233608Y415524D01*
X235492Y418320D02*
X237356Y420184D01*
X237356Y414592D01*
X235492Y414592D02*
X239221Y414592D01*
X377138Y253497D02*
X378070Y252565D01*
X377138Y253497D02*
X375274Y253497D01*
X374342Y252565D01*
X374342Y248836D01*
X375274Y247904D01*
X377138Y247904D01*
X378070Y248836D01*
X379955Y251633D02*
X381819Y253497D01*
X381819Y247904D01*
X379955Y247904D02*
X383683Y247904D01*
X385568Y252565D02*
X386500Y253497D01*
X388364Y253497D01*
X389296Y252565D01*
X389296Y251633D01*
X388364Y250700D01*
X387432Y250700D01*
X388364Y250700D02*
X389296Y249768D01*
X389296Y248836D01*
X388364Y247904D01*
X386500Y247904D01*
X385568Y248836D01*
X285442Y435229D02*
X285442Y440822D01*
X288238Y440822D01*
X289170Y439890D01*
X289170Y438025D01*
X288238Y437093D01*
X285442Y437093D01*
X287306Y437093D02*
X289170Y435229D01*
X291055Y438958D02*
X292919Y440822D01*
X292919Y435229D01*
X291055Y435229D02*
X294783Y435229D01*
X305503Y387101D02*
X305503Y381508D01*
X305503Y387101D02*
X308299Y387101D01*
X309231Y386169D01*
X309231Y384304D01*
X308299Y383372D01*
X305503Y383372D01*
X307367Y383372D02*
X309231Y381508D01*
X313912Y381508D02*
X313912Y387101D01*
X311116Y384304D01*
X314844Y384304D01*
D11*
X319125Y808356D02*
X317811Y809669D01*
X319125Y808356D02*
X320438Y808356D01*
X321752Y809669D01*
X321752Y816236D01*
X323065Y816236D02*
X320438Y816236D01*
X325997Y808356D02*
X331251Y808356D01*
X331251Y813609D02*
X325997Y808356D01*
X331251Y813609D02*
X331251Y814923D01*
X329938Y816236D01*
X327311Y816236D01*
X325997Y814923D01*
X168312Y808356D02*
X166999Y809669D01*
X168312Y808356D02*
X169626Y808356D01*
X170939Y809669D01*
X170939Y816236D01*
X169626Y816236D02*
X172253Y816236D01*
X175185Y813609D02*
X177812Y816236D01*
X177812Y808356D01*
X175185Y808356D02*
X180439Y808356D01*
D10*
X138367Y569409D02*
X138367Y563817D01*
X141163Y563817D01*
X142095Y564749D01*
X142095Y568477D01*
X141163Y569409D01*
X138367Y569409D01*
X143980Y567545D02*
X145844Y569409D01*
X145844Y563817D01*
X143980Y563817D02*
X147708Y563817D01*
X58992Y563817D02*
X58992Y569409D01*
X58992Y563817D02*
X61788Y563817D01*
X62720Y564749D01*
X62720Y568477D01*
X61788Y569409D01*
X58992Y569409D01*
X67401Y569409D02*
X67401Y563817D01*
X64605Y566613D02*
X67401Y569409D01*
X68333Y566613D02*
X64605Y566613D01*
X146190Y610108D02*
X146190Y615701D01*
X148987Y615701D01*
X149919Y614769D01*
X149919Y612904D01*
X148987Y611972D01*
X146190Y611972D01*
X148055Y611972D02*
X149919Y610108D01*
X151803Y615701D02*
X155532Y615701D01*
X155532Y614769D01*
X151803Y611040D01*
X151803Y610108D01*
X30417Y611442D02*
X30417Y617034D01*
X33213Y617034D01*
X34145Y616102D01*
X34145Y614238D01*
X33213Y613306D01*
X30417Y613306D01*
X32281Y613306D02*
X34145Y611442D01*
X36030Y615170D02*
X37894Y617034D01*
X37894Y611442D01*
X36030Y611442D02*
X39758Y611442D01*
X41643Y612374D02*
X41643Y616102D01*
X42575Y617034D01*
X44439Y617034D01*
X45371Y616102D01*
X45371Y612374D01*
X44439Y611442D01*
X42575Y611442D01*
X41643Y612374D01*
X45371Y616102D01*
X108090Y507751D02*
X108090Y502158D01*
X108090Y507751D02*
X110887Y507751D01*
X111819Y506819D01*
X111819Y504954D01*
X110887Y504022D01*
X108090Y504022D01*
X109955Y504022D02*
X111819Y502158D01*
X113703Y503090D02*
X114636Y502158D01*
X116500Y502158D01*
X117432Y503090D01*
X117432Y506819D01*
X116500Y507751D01*
X114636Y507751D01*
X113703Y506819D01*
X113703Y505887D01*
X114636Y504954D01*
X117432Y504954D01*
X128842Y442409D02*
X128842Y436817D01*
X128842Y442409D02*
X131638Y442409D01*
X132570Y441477D01*
X132570Y439613D01*
X131638Y438681D01*
X128842Y438681D01*
X130706Y438681D02*
X132570Y436817D01*
X134455Y441477D02*
X135387Y442409D01*
X137251Y442409D01*
X138183Y441477D01*
X138183Y440545D01*
X137251Y439613D01*
X138183Y438681D01*
X138183Y437749D01*
X137251Y436817D01*
X135387Y436817D01*
X134455Y437749D01*
X134455Y438681D01*
X135387Y439613D01*
X134455Y440545D01*
X134455Y441477D01*
X135387Y439613D02*
X137251Y439613D01*
X108839Y557784D02*
X108839Y563377D01*
X108839Y557784D02*
X111635Y557784D01*
X112568Y558716D01*
X112568Y562445D01*
X111635Y563377D01*
X108839Y563377D01*
X114452Y562445D02*
X115384Y563377D01*
X117248Y563377D01*
X118181Y562445D01*
X118181Y561513D01*
X117248Y560580D01*
X116316Y560580D01*
X117248Y560580D02*
X118181Y559648D01*
X118181Y558716D01*
X117248Y557784D01*
X115384Y557784D01*
X114452Y558716D01*
X101740Y476001D02*
X101740Y470408D01*
X104537Y470408D01*
X105469Y471340D01*
X105469Y475069D01*
X104537Y476001D01*
X101740Y476001D01*
X107353Y470408D02*
X111082Y470408D01*
X107353Y470408D02*
X111082Y474137D01*
X111082Y475069D01*
X110150Y476001D01*
X108286Y476001D01*
X107353Y475069D01*
X176250Y486059D02*
X177183Y485127D01*
X176250Y486059D02*
X174386Y486059D01*
X173454Y485127D01*
X173454Y481399D01*
X174386Y480467D01*
X176250Y480467D01*
X177183Y481399D01*
X181863Y480467D02*
X181863Y486059D01*
X179067Y483263D01*
X182796Y483263D01*
X38240Y503090D02*
X38240Y506819D01*
X39172Y507751D01*
X41037Y507751D01*
X41969Y506819D01*
X41969Y503090D01*
X41037Y502158D01*
X39172Y502158D01*
X38240Y503090D01*
X40105Y504022D02*
X41969Y502158D01*
X43853Y505887D02*
X45718Y507751D01*
X45718Y502158D01*
X47582Y502158D02*
X43853Y502158D01*
X61788Y429709D02*
X62720Y428777D01*
X61788Y429709D02*
X59924Y429709D01*
X58992Y428777D01*
X58992Y425049D01*
X59924Y424117D01*
X61788Y424117D01*
X62720Y425049D01*
X62720Y426913D01*
X60856Y426913D01*
X64605Y427845D02*
X66469Y429709D01*
X66469Y424117D01*
X64605Y424117D02*
X68333Y424117D01*
X83253Y387101D02*
X83253Y381508D01*
X83253Y387101D02*
X86049Y387101D01*
X86981Y386169D01*
X86981Y384304D01*
X86049Y383372D01*
X83253Y383372D01*
X85117Y383372D02*
X86981Y381508D01*
X90730Y386169D02*
X92594Y387101D01*
X90730Y386169D02*
X88866Y384304D01*
X88866Y382440D01*
X89798Y381508D01*
X91662Y381508D01*
X92594Y382440D01*
X92594Y383372D01*
X91662Y384304D01*
X88866Y384304D01*
X452676Y606552D02*
X452676Y612145D01*
X450812Y612145D02*
X454541Y612145D01*
X456425Y610281D02*
X458289Y612145D01*
X458289Y606552D01*
X456425Y606552D02*
X460154Y606552D01*
X353444Y442998D02*
X352125Y441680D01*
X352125Y440362D01*
X354762Y437726D01*
X356080Y437726D01*
X357398Y439044D01*
X357398Y440362D01*
X354762Y442998D01*
X353444Y442998D01*
X355435Y444990D02*
X359390Y441035D01*
X358072Y442354D02*
X358072Y447627D01*
X358072Y443672D02*
X362027Y443672D01*
X360723Y447641D02*
X360723Y450277D01*
X364677Y446323D01*
X363359Y445004D02*
X365996Y447641D01*
X465013Y490034D02*
X465945Y489102D01*
X465013Y490034D02*
X463149Y490034D01*
X462217Y489102D01*
X462217Y485374D01*
X463149Y484442D01*
X465013Y484442D01*
X465945Y485374D01*
X467830Y489102D02*
X468762Y490034D01*
X470626Y490034D01*
X471558Y489102D01*
X471558Y488170D01*
X470626Y487238D01*
X469694Y487238D01*
X470626Y487238D02*
X471558Y486306D01*
X471558Y485374D01*
X470626Y484442D01*
X468762Y484442D01*
X467830Y485374D01*
X344628Y514858D02*
X344628Y520451D01*
X347424Y520451D01*
X348356Y519519D01*
X348356Y517654D01*
X347424Y516722D01*
X344628Y516722D01*
X346492Y516722D02*
X348356Y514858D01*
X350241Y514858D02*
X353969Y514858D01*
X350241Y514858D02*
X353969Y518587D01*
X353969Y519519D01*
X353037Y520451D01*
X351173Y520451D01*
X350241Y519519D01*
X395428Y520451D02*
X395428Y514858D01*
X395428Y520451D02*
X398224Y520451D01*
X399156Y519519D01*
X399156Y517654D01*
X398224Y516722D01*
X395428Y516722D01*
X397292Y516722D02*
X399156Y514858D01*
X401041Y519519D02*
X401973Y520451D01*
X403837Y520451D01*
X404769Y519519D01*
X404769Y518587D01*
X403837Y517654D01*
X402905Y517654D01*
X403837Y517654D02*
X404769Y516722D01*
X404769Y515790D01*
X403837Y514858D01*
X401973Y514858D01*
X401041Y515790D01*
X463690Y519621D02*
X463690Y525213D01*
X466487Y525213D01*
X467419Y524281D01*
X467419Y522417D01*
X466487Y521485D01*
X463690Y521485D01*
X465555Y521485D02*
X467419Y519621D01*
X469303Y525213D02*
X473032Y525213D01*
X469303Y525213D02*
X469303Y522417D01*
X471168Y523349D01*
X472100Y523349D01*
X473032Y522417D01*
X473032Y520553D01*
X472100Y519621D01*
X470236Y519621D01*
X469303Y520553D01*
X295753Y274776D02*
X295753Y270115D01*
X296685Y269183D01*
X298549Y269183D01*
X299481Y270115D01*
X299481Y274776D01*
X301366Y272912D02*
X303230Y274776D01*
X303230Y269183D01*
X301366Y269183D02*
X305094Y269183D01*
X309453Y72898D02*
X311317Y72898D01*
X310385Y72898D02*
X310385Y78491D01*
X309453Y78491D02*
X311317Y78491D01*
X315992Y78491D02*
X316924Y77559D01*
X315992Y78491D02*
X314127Y78491D01*
X313195Y77559D01*
X313195Y73830D01*
X314127Y72898D01*
X315992Y72898D01*
X316924Y73830D01*
X318808Y72898D02*
X322537Y72898D01*
X318808Y72898D02*
X322537Y76627D01*
X322537Y77559D01*
X321605Y78491D01*
X319740Y78491D01*
X318808Y77559D01*
D12*
X383505Y22925D02*
X384395Y22035D01*
X385284Y22035D01*
X386174Y22925D01*
X386174Y27374D01*
X385284Y27374D02*
X387064Y27374D01*
X389118Y26484D02*
X390008Y27374D01*
X391787Y27374D01*
X392677Y26484D01*
X392677Y25594D01*
X391787Y24704D01*
X390897Y24704D01*
X391787Y24704D02*
X392677Y23815D01*
X392677Y22925D01*
X391787Y22035D01*
X390008Y22035D01*
X389118Y22925D01*
D10*
X402331Y125819D02*
X401399Y126751D01*
X399535Y126751D01*
X398603Y125819D01*
X398603Y122090D01*
X399535Y121158D01*
X401399Y121158D01*
X402331Y122090D01*
X404216Y126751D02*
X407944Y126751D01*
X404216Y126751D02*
X404216Y123954D01*
X406080Y124887D01*
X407012Y124887D01*
X407944Y123954D01*
X407944Y122090D01*
X407012Y121158D01*
X405148Y121158D01*
X404216Y122090D01*
X249931Y51206D02*
X248999Y52138D01*
X247135Y52138D01*
X246203Y51206D01*
X246203Y47478D01*
X247135Y46546D01*
X248999Y46546D01*
X249931Y47478D01*
X253680Y51206D02*
X255544Y52138D01*
X253680Y51206D02*
X251816Y49342D01*
X251816Y47478D01*
X252748Y46546D01*
X254612Y46546D01*
X255544Y47478D01*
X255544Y48410D01*
X254612Y49342D01*
X251816Y49342D01*
X40495Y354800D02*
X39563Y355732D01*
X37699Y355732D01*
X36767Y354800D01*
X36767Y353868D01*
X37699Y352935D01*
X39563Y352935D01*
X40495Y352003D01*
X40495Y351071D01*
X39563Y350139D01*
X37699Y350139D01*
X36767Y351071D01*
X42380Y352003D02*
X42380Y355732D01*
X42380Y352003D02*
X44244Y350139D01*
X46108Y352003D01*
X46108Y355732D01*
X47993Y353868D02*
X49857Y355732D01*
X49857Y350139D01*
X47993Y350139D02*
X51721Y350139D01*
X436703Y274706D02*
X440431Y269113D01*
X436703Y269113D02*
X440431Y274706D01*
X442316Y272842D02*
X444180Y274706D01*
X444180Y269113D01*
X442316Y269113D02*
X446044Y269113D01*
X168044Y287973D02*
X166180Y287973D01*
X167112Y287973D02*
X167112Y293565D01*
X166180Y293565D02*
X168044Y293565D01*
X172718Y293565D02*
X173650Y292633D01*
X172718Y293565D02*
X170854Y293565D01*
X169922Y292633D01*
X169922Y288905D01*
X170854Y287973D01*
X172718Y287973D01*
X173650Y288905D01*
X175535Y292633D02*
X176467Y293565D01*
X178331Y293565D01*
X179263Y292633D01*
X179263Y291701D01*
X178331Y290769D01*
X177399Y290769D01*
X178331Y290769D02*
X179263Y289837D01*
X179263Y288905D01*
X178331Y287973D01*
X176467Y287973D01*
X175535Y288905D01*
X309887Y314076D02*
X310819Y313144D01*
X309887Y314076D02*
X308022Y314076D01*
X307090Y313144D01*
X307090Y309415D01*
X308022Y308483D01*
X309887Y308483D01*
X310819Y309415D01*
X312703Y313144D02*
X313636Y314076D01*
X315500Y314076D01*
X316432Y313144D01*
X316432Y312212D01*
X315500Y311279D01*
X316432Y310347D01*
X316432Y309415D01*
X315500Y308483D01*
X313636Y308483D01*
X312703Y309415D01*
X312703Y310347D01*
X313636Y311279D01*
X312703Y312212D01*
X312703Y313144D01*
X313636Y311279D02*
X315500Y311279D01*
X385236Y236288D02*
X386168Y235356D01*
X385236Y236288D02*
X383372Y236288D01*
X382440Y235356D01*
X382440Y231628D01*
X383372Y230696D01*
X385236Y230696D01*
X386168Y231628D01*
X388053Y234424D02*
X389917Y236288D01*
X389917Y230696D01*
X388053Y230696D02*
X391781Y230696D01*
X393666Y234424D02*
X395530Y236288D01*
X395530Y230696D01*
X393666Y230696D02*
X397394Y230696D01*
X416170Y304952D02*
X415238Y305884D01*
X413374Y305884D01*
X412442Y304952D01*
X412442Y301224D01*
X413374Y300292D01*
X415238Y300292D01*
X416170Y301224D01*
X418055Y304020D02*
X419919Y305884D01*
X419919Y300292D01*
X418055Y300292D02*
X421783Y300292D01*
X423668Y300292D02*
X427396Y300292D01*
X423668Y300292D02*
X427396Y304020D01*
X427396Y304952D01*
X426464Y305884D01*
X424600Y305884D01*
X423668Y304952D01*
X414029Y270959D02*
X414029Y265367D01*
X414029Y270959D02*
X416825Y270959D01*
X417758Y270027D01*
X417758Y268163D01*
X416825Y267231D01*
X414029Y267231D01*
X415893Y267231D02*
X417758Y265367D01*
X419642Y269095D02*
X421506Y270959D01*
X421506Y265367D01*
X419642Y265367D02*
X423371Y265367D01*
X425255Y269095D02*
X427119Y270959D01*
X427119Y265367D01*
X425255Y265367D02*
X428984Y265367D01*
X347331Y224244D02*
X346399Y225176D01*
X344535Y225176D01*
X343603Y224244D01*
X343603Y220515D01*
X344535Y219583D01*
X346399Y219583D01*
X347331Y220515D01*
X349216Y220515D02*
X350148Y219583D01*
X352012Y219583D01*
X352944Y220515D01*
X352944Y224244D01*
X352012Y225176D01*
X350148Y225176D01*
X349216Y224244D01*
X349216Y223312D01*
X350148Y222379D01*
X352944Y222379D01*
X233608Y282727D02*
X232675Y283659D01*
X230811Y283659D01*
X229879Y282727D01*
X229879Y278999D01*
X230811Y278067D01*
X232675Y278067D01*
X233608Y278999D01*
X235492Y283659D02*
X239221Y283659D01*
X239221Y282727D01*
X235492Y278999D01*
X235492Y278067D01*
X388250Y288422D02*
X389183Y287490D01*
X388250Y288422D02*
X386386Y288422D01*
X385454Y287490D01*
X385454Y283761D01*
X386386Y282829D01*
X388250Y282829D01*
X389183Y283761D01*
X391067Y286558D02*
X392931Y288422D01*
X392931Y282829D01*
X391067Y282829D02*
X394796Y282829D01*
X396680Y283761D02*
X396680Y287490D01*
X397612Y288422D01*
X399477Y288422D01*
X400409Y287490D01*
X400409Y283761D01*
X399477Y282829D01*
X397612Y282829D01*
X396680Y283761D01*
X400409Y287490D01*
X208368Y309969D02*
X207436Y310901D01*
X205572Y310901D01*
X204640Y309969D01*
X204640Y306240D01*
X205572Y305308D01*
X207436Y305308D01*
X208368Y306240D01*
X210253Y309037D02*
X212117Y310901D01*
X212117Y305308D01*
X210253Y305308D02*
X213981Y305308D01*
X218662Y305308D02*
X218662Y310901D01*
X215866Y308104D01*
X219594Y308104D01*
X132293Y181864D02*
X130429Y181864D01*
X131361Y181864D02*
X131361Y187457D01*
X130429Y187457D02*
X132293Y187457D01*
X136967Y187457D02*
X137900Y186525D01*
X136967Y187457D02*
X135103Y187457D01*
X134171Y186525D01*
X134171Y182796D01*
X135103Y181864D01*
X136967Y181864D01*
X137900Y182796D01*
X142581Y181864D02*
X142581Y187457D01*
X139784Y184660D01*
X143513Y184660D01*
X78595Y227165D02*
X77663Y228097D01*
X75799Y228097D01*
X74867Y227165D01*
X74867Y223436D01*
X75799Y222504D01*
X77663Y222504D01*
X78595Y223436D01*
X80480Y226233D02*
X82344Y228097D01*
X82344Y222504D01*
X80480Y222504D02*
X84208Y222504D01*
X86093Y228097D02*
X89821Y228097D01*
X89821Y227165D01*
X86093Y223436D01*
X86093Y222504D01*
X188604Y230442D02*
X188604Y236034D01*
X191400Y236034D01*
X192333Y235102D01*
X192333Y233238D01*
X191400Y232306D01*
X188604Y232306D01*
X190468Y232306D02*
X192333Y230442D01*
X194217Y234170D02*
X196081Y236034D01*
X196081Y230442D01*
X194217Y230442D02*
X197946Y230442D01*
X199830Y235102D02*
X200762Y236034D01*
X202627Y236034D01*
X203559Y235102D01*
X203559Y234170D01*
X202627Y233238D01*
X201694Y233238D01*
X202627Y233238D02*
X203559Y232306D01*
X203559Y231374D01*
X202627Y230442D01*
X200762Y230442D01*
X199830Y231374D01*
X188604Y246317D02*
X188604Y251909D01*
X191400Y251909D01*
X192333Y250977D01*
X192333Y249113D01*
X191400Y248181D01*
X188604Y248181D01*
X190468Y248181D02*
X192333Y246317D01*
X194217Y250045D02*
X196081Y251909D01*
X196081Y246317D01*
X194217Y246317D02*
X197946Y246317D01*
X199830Y251909D02*
X203559Y251909D01*
X199830Y251909D02*
X199830Y249113D01*
X201694Y250045D01*
X202627Y250045D01*
X203559Y249113D01*
X203559Y247249D01*
X202627Y246317D01*
X200762Y246317D01*
X199830Y247249D01*
X106617Y137609D02*
X106617Y132017D01*
X106617Y137609D02*
X109413Y137609D01*
X110345Y136677D01*
X110345Y134813D01*
X109413Y133881D01*
X106617Y133881D01*
X108481Y133881D02*
X110345Y132017D01*
X112230Y135745D02*
X114094Y137609D01*
X114094Y132017D01*
X112230Y132017D02*
X115958Y132017D01*
X120639Y132017D02*
X120639Y137609D01*
X117843Y134813D01*
X121571Y134813D01*
D12*
X27905Y22925D02*
X28795Y22035D01*
X29684Y22035D01*
X30574Y22925D01*
X30574Y27374D01*
X29684Y27374D02*
X31464Y27374D01*
X36187Y27374D02*
X36187Y22035D01*
X33518Y24704D02*
X36187Y27374D01*
X37077Y24704D02*
X33518Y24704D01*
D10*
X189411Y101351D02*
X190343Y100419D01*
X189411Y101351D02*
X187547Y101351D01*
X186615Y100419D01*
X186615Y96690D01*
X187547Y95758D01*
X189411Y95758D01*
X190343Y96690D01*
X192228Y99487D02*
X194092Y101351D01*
X194092Y95758D01*
X192228Y95758D02*
X195956Y95758D01*
X197841Y101351D02*
X201569Y101351D01*
X197841Y101351D02*
X197841Y98554D01*
X199705Y99487D01*
X200637Y99487D01*
X201569Y98554D01*
X201569Y96690D01*
X200637Y95758D01*
X198773Y95758D01*
X197841Y96690D01*
X146858Y122390D02*
X145925Y123322D01*
X144061Y123322D01*
X143129Y122390D01*
X143129Y118661D01*
X144061Y117729D01*
X145925Y117729D01*
X146858Y118661D01*
X148742Y121458D02*
X150606Y123322D01*
X150606Y117729D01*
X148742Y117729D02*
X152471Y117729D01*
X156219Y122390D02*
X158084Y123322D01*
X156219Y122390D02*
X154355Y120525D01*
X154355Y118661D01*
X155287Y117729D01*
X157152Y117729D01*
X158084Y118661D01*
X158084Y119593D01*
X157152Y120525D01*
X154355Y120525D01*
D12*
X129505Y22925D02*
X130395Y22035D01*
X131284Y22035D01*
X132174Y22925D01*
X132174Y27374D01*
X131284Y27374D02*
X133064Y27374D01*
X135118Y27374D02*
X138677Y27374D01*
X135118Y27374D02*
X135118Y24704D01*
X136897Y25594D01*
X137787Y25594D01*
X138677Y24704D01*
X138677Y22925D01*
X137787Y22035D01*
X136008Y22035D01*
X135118Y22925D01*
D10*
X98268Y98831D02*
X97336Y99763D01*
X95472Y99763D01*
X94540Y98831D01*
X94540Y95103D01*
X95472Y94171D01*
X97336Y94171D01*
X98268Y95103D01*
X100153Y97899D02*
X102017Y99763D01*
X102017Y94171D01*
X100153Y94171D02*
X103881Y94171D01*
X105766Y98831D02*
X106698Y99763D01*
X108562Y99763D01*
X109494Y98831D01*
X109494Y97899D01*
X108562Y96967D01*
X109494Y96035D01*
X109494Y95103D01*
X108562Y94171D01*
X106698Y94171D01*
X105766Y95103D01*
X105766Y96035D01*
X106698Y96967D01*
X105766Y97899D01*
X105766Y98831D01*
X106698Y96967D02*
X108562Y96967D01*
X46845Y100165D02*
X45913Y101097D01*
X44049Y101097D01*
X43117Y100165D01*
X43117Y96436D01*
X44049Y95504D01*
X45913Y95504D01*
X46845Y96436D01*
X48730Y99233D02*
X50594Y101097D01*
X50594Y95504D01*
X48730Y95504D02*
X52458Y95504D01*
X54343Y96436D02*
X55275Y95504D01*
X57139Y95504D01*
X58071Y96436D01*
X58071Y100165D01*
X57139Y101097D01*
X55275Y101097D01*
X54343Y100165D01*
X54343Y99233D01*
X55275Y98300D01*
X58071Y98300D01*
X260604Y132847D02*
X264333Y127254D01*
X260604Y127254D02*
X264333Y132847D01*
X266217Y127254D02*
X269946Y127254D01*
X266217Y127254D02*
X269946Y130983D01*
X269946Y131915D01*
X269013Y132847D01*
X267149Y132847D01*
X266217Y131915D01*
X667004Y311554D02*
X667004Y317147D01*
X667004Y311554D02*
X669800Y311554D01*
X670733Y312486D01*
X670733Y316215D01*
X669800Y317147D01*
X667004Y317147D01*
X672617Y317147D02*
X676346Y317147D01*
X672617Y317147D02*
X672617Y314350D01*
X674481Y315283D01*
X675413Y315283D01*
X676346Y314350D01*
X676346Y312486D01*
X675413Y311554D01*
X673549Y311554D01*
X672617Y312486D01*
X736854Y311554D02*
X736854Y317147D01*
X736854Y311554D02*
X739650Y311554D01*
X740583Y312486D01*
X740583Y316215D01*
X739650Y317147D01*
X736854Y317147D01*
X744331Y316215D02*
X746196Y317147D01*
X744331Y316215D02*
X742467Y314350D01*
X742467Y312486D01*
X743399Y311554D01*
X745263Y311554D01*
X746196Y312486D01*
X746196Y313418D01*
X745263Y314350D01*
X742467Y314350D01*
X813054Y317147D02*
X813054Y311554D01*
X815850Y311554D01*
X816783Y312486D01*
X816783Y316215D01*
X815850Y317147D01*
X813054Y317147D01*
X818667Y317147D02*
X822396Y317147D01*
X822396Y316215D01*
X818667Y312486D01*
X818667Y311554D01*
X913690Y106113D02*
X913690Y100521D01*
X913690Y106113D02*
X916486Y106113D01*
X917418Y105181D01*
X917418Y103317D01*
X916486Y102385D01*
X913690Y102385D01*
X915554Y102385D02*
X917418Y100521D01*
X919303Y104249D02*
X921167Y106113D01*
X921167Y100521D01*
X919303Y100521D02*
X923031Y100521D01*
X926780Y105181D02*
X928644Y106113D01*
X926780Y105181D02*
X924916Y103317D01*
X924916Y101453D01*
X925848Y100521D01*
X927712Y100521D01*
X928644Y101453D01*
X928644Y102385D01*
X927712Y103317D01*
X924916Y103317D01*
X917418Y125819D02*
X916486Y126751D01*
X914622Y126751D01*
X913690Y125819D01*
X913690Y122090D01*
X914622Y121158D01*
X916486Y121158D01*
X917418Y122090D01*
X919303Y121158D02*
X923031Y121158D01*
X919303Y121158D02*
X923031Y124887D01*
X923031Y125819D01*
X922099Y126751D01*
X920235Y126751D01*
X919303Y125819D01*
X924916Y125819D02*
X924916Y122090D01*
X924916Y125819D02*
X925848Y126751D01*
X927712Y126751D01*
X928644Y125819D01*
X928644Y122090D01*
X927712Y121158D01*
X925848Y121158D01*
X924916Y122090D01*
X928644Y125819D01*
X686278Y106501D02*
X686278Y101840D01*
X687210Y100908D01*
X689074Y100908D01*
X690006Y101840D01*
X690006Y106501D01*
X691891Y100908D02*
X695619Y100908D01*
X691891Y100908D02*
X695619Y104637D01*
X695619Y105569D01*
X694687Y106501D01*
X692823Y106501D01*
X691891Y105569D01*
X776163Y123322D02*
X777095Y122390D01*
X776163Y123322D02*
X774299Y123322D01*
X773367Y122390D01*
X773367Y118661D01*
X774299Y117729D01*
X776163Y117729D01*
X777095Y118661D01*
X778980Y117729D02*
X782708Y117729D01*
X778980Y117729D02*
X782708Y121458D01*
X782708Y122390D01*
X781776Y123322D01*
X779912Y123322D01*
X778980Y122390D01*
X784593Y121458D02*
X786457Y123322D01*
X786457Y117729D01*
X784593Y117729D02*
X788321Y117729D01*
X748211Y37851D02*
X749143Y36919D01*
X748211Y37851D02*
X746347Y37851D01*
X745415Y36919D01*
X745415Y33190D01*
X746347Y32258D01*
X748211Y32258D01*
X749143Y33190D01*
X751028Y32258D02*
X754756Y32258D01*
X751028Y32258D02*
X754756Y35987D01*
X754756Y36919D01*
X753824Y37851D01*
X751960Y37851D01*
X751028Y36919D01*
X756641Y32258D02*
X760369Y32258D01*
X756641Y32258D02*
X760369Y35987D01*
X760369Y36919D01*
X759437Y37851D01*
X757573Y37851D01*
X756641Y36919D01*
X642158Y155727D02*
X641225Y156659D01*
X639361Y156659D01*
X638429Y155727D01*
X638429Y151999D01*
X639361Y151067D01*
X641225Y151067D01*
X642158Y151999D01*
X644042Y151067D02*
X647771Y151067D01*
X647771Y154795D02*
X644042Y151067D01*
X647771Y154795D02*
X647771Y155727D01*
X646838Y156659D01*
X644974Y156659D01*
X644042Y155727D01*
X649655Y155727D02*
X650587Y156659D01*
X652452Y156659D01*
X653384Y155727D01*
X653384Y154795D01*
X652452Y153863D01*
X651519Y153863D01*
X652452Y153863D02*
X653384Y152931D01*
X653384Y151999D01*
X652452Y151067D01*
X650587Y151067D01*
X649655Y151999D01*
X584050Y47498D02*
X582186Y47498D01*
X583118Y47498D02*
X583118Y53091D01*
X582186Y53091D02*
X584050Y53091D01*
X588724Y53091D02*
X589656Y52159D01*
X588724Y53091D02*
X586860Y53091D01*
X585928Y52159D01*
X585928Y48430D01*
X586860Y47498D01*
X588724Y47498D01*
X589656Y48430D01*
X591541Y53091D02*
X595269Y53091D01*
X591541Y53091D02*
X591541Y50294D01*
X593405Y51227D01*
X594337Y51227D01*
X595269Y50294D01*
X595269Y48430D01*
X594337Y47498D01*
X592473Y47498D01*
X591541Y48430D01*
X606268Y117881D02*
X605336Y118813D01*
X603472Y118813D01*
X602540Y117881D01*
X602540Y114153D01*
X603472Y113221D01*
X605336Y113221D01*
X606268Y114153D01*
X608153Y113221D02*
X611881Y113221D01*
X608153Y113221D02*
X611881Y116949D01*
X611881Y117881D01*
X610949Y118813D01*
X609085Y118813D01*
X608153Y117881D01*
X616562Y118813D02*
X616562Y113221D01*
X613766Y116017D02*
X616562Y118813D01*
X617494Y116017D02*
X613766Y116017D01*
X635254Y101097D02*
X635254Y95504D01*
X635254Y101097D02*
X638050Y101097D01*
X638983Y100165D01*
X638983Y98300D01*
X638050Y97368D01*
X635254Y97368D01*
X637118Y97368D02*
X638983Y95504D01*
X640867Y99233D02*
X642731Y101097D01*
X642731Y95504D01*
X640867Y95504D02*
X644596Y95504D01*
X646480Y101097D02*
X650209Y101097D01*
X650209Y100165D01*
X646480Y96436D01*
X646480Y95504D01*
X635254Y114554D02*
X635254Y120147D01*
X638050Y120147D01*
X638983Y119215D01*
X638983Y117350D01*
X638050Y116418D01*
X635254Y116418D01*
X637118Y116418D02*
X638983Y114554D01*
X640867Y118283D02*
X642731Y120147D01*
X642731Y114554D01*
X640867Y114554D02*
X644596Y114554D01*
X646480Y119215D02*
X647412Y120147D01*
X649277Y120147D01*
X650209Y119215D01*
X650209Y118283D01*
X649277Y117350D01*
X650209Y116418D01*
X650209Y115486D01*
X649277Y114554D01*
X647412Y114554D01*
X646480Y115486D01*
X646480Y116418D01*
X647412Y117350D01*
X646480Y118283D01*
X646480Y119215D01*
X647412Y117350D02*
X649277Y117350D01*
X588183Y328765D02*
X587250Y329697D01*
X585386Y329697D01*
X584454Y328765D01*
X584454Y325036D01*
X585386Y324104D01*
X587250Y324104D01*
X588183Y325036D01*
X590067Y324104D02*
X593796Y324104D01*
X590067Y324104D02*
X593796Y327833D01*
X593796Y328765D01*
X592863Y329697D01*
X590999Y329697D01*
X590067Y328765D01*
X595680Y329697D02*
X599409Y329697D01*
X595680Y329697D02*
X595680Y326900D01*
X597544Y327833D01*
X598477Y327833D01*
X599409Y326900D01*
X599409Y325036D01*
X598477Y324104D01*
X596612Y324104D01*
X595680Y325036D01*
X587250Y304297D02*
X588183Y303365D01*
X587250Y304297D02*
X585386Y304297D01*
X584454Y303365D01*
X584454Y299636D01*
X585386Y298704D01*
X587250Y298704D01*
X588183Y299636D01*
X590067Y298704D02*
X593796Y298704D01*
X590067Y298704D02*
X593796Y302433D01*
X593796Y303365D01*
X592863Y304297D01*
X590999Y304297D01*
X590067Y303365D01*
X597544Y303365D02*
X599409Y304297D01*
X597544Y303365D02*
X595680Y301500D01*
X595680Y299636D01*
X596612Y298704D01*
X598477Y298704D01*
X599409Y299636D01*
X599409Y300568D01*
X598477Y301500D01*
X595680Y301500D01*
X550083Y398615D02*
X549150Y399547D01*
X547286Y399547D01*
X546354Y398615D01*
X546354Y394886D01*
X547286Y393954D01*
X549150Y393954D01*
X550083Y394886D01*
X551967Y393954D02*
X555696Y393954D01*
X551967Y393954D02*
X555696Y397683D01*
X555696Y398615D01*
X554763Y399547D01*
X552899Y399547D01*
X551967Y398615D01*
X557580Y398615D02*
X558512Y399547D01*
X560377Y399547D01*
X561309Y398615D01*
X561309Y397683D01*
X560377Y396750D01*
X561309Y395818D01*
X561309Y394886D01*
X560377Y393954D01*
X558512Y393954D01*
X557580Y394886D01*
X557580Y395818D01*
X558512Y396750D01*
X557580Y397683D01*
X557580Y398615D01*
X558512Y396750D02*
X560377Y396750D01*
X870204Y342397D02*
X870204Y336804D01*
X870204Y342397D02*
X873000Y342397D01*
X873933Y341465D01*
X873933Y339600D01*
X873000Y338668D01*
X870204Y338668D01*
X872068Y338668D02*
X873933Y336804D01*
X875817Y340533D02*
X877681Y342397D01*
X877681Y336804D01*
X875817Y336804D02*
X879546Y336804D01*
X881430Y337736D02*
X882362Y336804D01*
X884227Y336804D01*
X885159Y337736D01*
X885159Y341465D01*
X884227Y342397D01*
X882362Y342397D01*
X881430Y341465D01*
X881430Y340533D01*
X882362Y339600D01*
X885159Y339600D01*
X901954Y349504D02*
X901954Y355097D01*
X904750Y355097D01*
X905683Y354165D01*
X905683Y352300D01*
X904750Y351368D01*
X901954Y351368D01*
X903818Y351368D02*
X905683Y349504D01*
X907567Y349504D02*
X911296Y349504D01*
X907567Y349504D02*
X911296Y353233D01*
X911296Y354165D01*
X910363Y355097D01*
X908499Y355097D01*
X907567Y354165D01*
X913180Y354165D02*
X913180Y350436D01*
X913180Y354165D02*
X914112Y355097D01*
X915977Y355097D01*
X916909Y354165D01*
X916909Y350436D01*
X915977Y349504D01*
X914112Y349504D01*
X913180Y350436D01*
X916909Y354165D01*
X870204Y362204D02*
X870204Y367797D01*
X873000Y367797D01*
X873933Y366865D01*
X873933Y365000D01*
X873000Y364068D01*
X870204Y364068D01*
X872068Y364068D02*
X873933Y362204D01*
X875817Y362204D02*
X879546Y362204D01*
X875817Y362204D02*
X879546Y365933D01*
X879546Y366865D01*
X878613Y367797D01*
X876749Y367797D01*
X875817Y366865D01*
X881430Y365933D02*
X883294Y367797D01*
X883294Y362204D01*
X881430Y362204D02*
X885159Y362204D01*
X901954Y278897D02*
X901954Y273304D01*
X901954Y278897D02*
X904750Y278897D01*
X905683Y277965D01*
X905683Y276100D01*
X904750Y275168D01*
X901954Y275168D01*
X903818Y275168D02*
X905683Y273304D01*
X907567Y273304D02*
X911296Y273304D01*
X907567Y273304D02*
X911296Y277033D01*
X911296Y277965D01*
X910363Y278897D01*
X908499Y278897D01*
X907567Y277965D01*
X913180Y273304D02*
X916909Y273304D01*
X913180Y273304D02*
X916909Y277033D01*
X916909Y277965D01*
X915977Y278897D01*
X914112Y278897D01*
X913180Y277965D01*
X870204Y286004D02*
X870204Y291597D01*
X873000Y291597D01*
X873933Y290665D01*
X873933Y288800D01*
X873000Y287868D01*
X870204Y287868D01*
X872068Y287868D02*
X873933Y286004D01*
X875817Y286004D02*
X879546Y286004D01*
X875817Y286004D02*
X879546Y289733D01*
X879546Y290665D01*
X878613Y291597D01*
X876749Y291597D01*
X875817Y290665D01*
X881430Y290665D02*
X882362Y291597D01*
X884227Y291597D01*
X885159Y290665D01*
X885159Y289733D01*
X884227Y288800D01*
X883294Y288800D01*
X884227Y288800D02*
X885159Y287868D01*
X885159Y286936D01*
X884227Y286004D01*
X882362Y286004D01*
X881430Y286936D01*
X901954Y298704D02*
X901954Y304297D01*
X904750Y304297D01*
X905683Y303365D01*
X905683Y301500D01*
X904750Y300568D01*
X901954Y300568D01*
X903818Y300568D02*
X905683Y298704D01*
X907567Y298704D02*
X911296Y298704D01*
X907567Y298704D02*
X911296Y302433D01*
X911296Y303365D01*
X910363Y304297D01*
X908499Y304297D01*
X907567Y303365D01*
X915977Y304297D02*
X915977Y298704D01*
X913180Y301500D02*
X915977Y304297D01*
X916909Y301500D02*
X913180Y301500D01*
X870204Y311404D02*
X870204Y316997D01*
X873000Y316997D01*
X873933Y316065D01*
X873933Y314200D01*
X873000Y313268D01*
X870204Y313268D01*
X872068Y313268D02*
X873933Y311404D01*
X875817Y311404D02*
X879546Y311404D01*
X875817Y311404D02*
X879546Y315133D01*
X879546Y316065D01*
X878613Y316997D01*
X876749Y316997D01*
X875817Y316065D01*
X881430Y316997D02*
X885159Y316997D01*
X881430Y316997D02*
X881430Y314200D01*
X883294Y315133D01*
X884227Y315133D01*
X885159Y314200D01*
X885159Y312336D01*
X884227Y311404D01*
X882362Y311404D01*
X881430Y312336D01*
X901954Y324104D02*
X901954Y329697D01*
X904750Y329697D01*
X905683Y328765D01*
X905683Y326900D01*
X904750Y325968D01*
X901954Y325968D01*
X903818Y325968D02*
X905683Y324104D01*
X907567Y324104D02*
X911296Y324104D01*
X907567Y324104D02*
X911296Y327833D01*
X911296Y328765D01*
X910363Y329697D01*
X908499Y329697D01*
X907567Y328765D01*
X915044Y328765D02*
X916909Y329697D01*
X915044Y328765D02*
X913180Y326900D01*
X913180Y325036D01*
X914112Y324104D01*
X915977Y324104D01*
X916909Y325036D01*
X916909Y325968D01*
X915977Y326900D01*
X913180Y326900D01*
X670054Y231397D02*
X670054Y227668D01*
X671918Y225804D01*
X673783Y227668D01*
X673783Y231397D01*
X677531Y231397D02*
X677531Y225804D01*
X675667Y231397D02*
X679396Y231397D01*
X681280Y229533D02*
X683144Y231397D01*
X683144Y225804D01*
X681280Y225804D02*
X685009Y225804D01*
X746254Y227668D02*
X746254Y231397D01*
X746254Y227668D02*
X748118Y225804D01*
X749983Y227668D01*
X749983Y231397D01*
X753731Y231397D02*
X753731Y225804D01*
X751867Y231397D02*
X755596Y231397D01*
X757480Y225804D02*
X761209Y225804D01*
X757480Y225804D02*
X761209Y229533D01*
X761209Y230465D01*
X760277Y231397D01*
X758412Y231397D01*
X757480Y230465D01*
X822454Y231397D02*
X822454Y227668D01*
X824318Y225804D01*
X826183Y227668D01*
X826183Y231397D01*
X829931Y231397D02*
X829931Y225804D01*
X828067Y231397D02*
X831796Y231397D01*
X833680Y230465D02*
X834612Y231397D01*
X836477Y231397D01*
X837409Y230465D01*
X837409Y229533D01*
X836477Y228600D01*
X835544Y228600D01*
X836477Y228600D02*
X837409Y227668D01*
X837409Y226736D01*
X836477Y225804D01*
X834612Y225804D01*
X833680Y226736D01*
X641604Y225679D02*
X641604Y231272D01*
X644400Y231272D01*
X645333Y230340D01*
X645333Y228475D01*
X644400Y227543D01*
X641604Y227543D01*
X643468Y227543D02*
X645333Y225679D01*
X647217Y225679D02*
X650946Y225679D01*
X647217Y225679D02*
X650946Y229408D01*
X650946Y230340D01*
X650013Y231272D01*
X648149Y231272D01*
X647217Y230340D01*
X652830Y231272D02*
X656559Y231272D01*
X656559Y230340D01*
X652830Y226611D01*
X652830Y225679D01*
X717804Y225679D02*
X717804Y231272D01*
X720600Y231272D01*
X721533Y230340D01*
X721533Y228475D01*
X720600Y227543D01*
X717804Y227543D01*
X719668Y227543D02*
X721533Y225679D01*
X723417Y225679D02*
X727146Y225679D01*
X723417Y225679D02*
X727146Y229408D01*
X727146Y230340D01*
X726213Y231272D01*
X724349Y231272D01*
X723417Y230340D01*
X729030Y230340D02*
X729962Y231272D01*
X731827Y231272D01*
X732759Y230340D01*
X732759Y229408D01*
X731827Y228475D01*
X732759Y227543D01*
X732759Y226611D01*
X731827Y225679D01*
X729962Y225679D01*
X729030Y226611D01*
X729030Y227543D01*
X729962Y228475D01*
X729030Y229408D01*
X729030Y230340D01*
X729962Y228475D02*
X731827Y228475D01*
X794004Y225679D02*
X794004Y231272D01*
X796800Y231272D01*
X797733Y230340D01*
X797733Y228475D01*
X796800Y227543D01*
X794004Y227543D01*
X795868Y227543D02*
X797733Y225679D01*
X799617Y225679D02*
X803346Y225679D01*
X799617Y225679D02*
X803346Y229408D01*
X803346Y230340D01*
X802413Y231272D01*
X800549Y231272D01*
X799617Y230340D01*
X805230Y226611D02*
X806162Y225679D01*
X808027Y225679D01*
X808959Y226611D01*
X808959Y230340D01*
X808027Y231272D01*
X806162Y231272D01*
X805230Y230340D01*
X805230Y229408D01*
X806162Y228475D01*
X808959Y228475D01*
X970461Y53091D02*
X971393Y52159D01*
X970461Y53091D02*
X968597Y53091D01*
X967665Y52159D01*
X967665Y51227D01*
X968597Y50294D01*
X970461Y50294D01*
X971393Y49362D01*
X971393Y48430D01*
X970461Y47498D01*
X968597Y47498D01*
X967665Y48430D01*
X973278Y49362D02*
X973278Y53091D01*
X973278Y49362D02*
X975142Y47498D01*
X977006Y49362D01*
X977006Y53091D01*
X978891Y47498D02*
X982619Y47498D01*
X978891Y47498D02*
X982619Y51227D01*
X982619Y52159D01*
X981687Y53091D01*
X979823Y53091D01*
X978891Y52159D01*
X918383Y74765D02*
X917450Y75697D01*
X915586Y75697D01*
X914654Y74765D01*
X914654Y71036D01*
X915586Y70104D01*
X917450Y70104D01*
X918383Y71036D01*
X920267Y70104D02*
X923996Y70104D01*
X920267Y70104D02*
X923996Y73833D01*
X923996Y74765D01*
X923063Y75697D01*
X921199Y75697D01*
X920267Y74765D01*
X925880Y75697D02*
X929609Y75697D01*
X929609Y74765D01*
X925880Y71036D01*
X925880Y70104D01*
X830956Y88138D02*
X827228Y93731D01*
X830956Y93731D02*
X827228Y88138D01*
X835637Y88138D02*
X835637Y93731D01*
X832841Y90934D01*
X836569Y90934D01*
X799011Y37851D02*
X799943Y36919D01*
X799011Y37851D02*
X797147Y37851D01*
X796215Y36919D01*
X796215Y33190D01*
X797147Y32258D01*
X799011Y32258D01*
X799943Y33190D01*
X801828Y32258D02*
X805556Y32258D01*
X801828Y32258D02*
X805556Y35987D01*
X805556Y36919D01*
X804624Y37851D01*
X802760Y37851D01*
X801828Y36919D01*
X807441Y33190D02*
X808373Y32258D01*
X810237Y32258D01*
X811169Y33190D01*
X811169Y36919D01*
X810237Y37851D01*
X808373Y37851D01*
X807441Y36919D01*
X807441Y35987D01*
X808373Y35054D01*
X811169Y35054D01*
X804083Y144615D02*
X803150Y145547D01*
X801286Y145547D01*
X800354Y144615D01*
X800354Y140886D01*
X801286Y139954D01*
X803150Y139954D01*
X804083Y140886D01*
X805967Y144615D02*
X806899Y145547D01*
X808763Y145547D01*
X809696Y144615D01*
X809696Y143683D01*
X808763Y142750D01*
X807831Y142750D01*
X808763Y142750D02*
X809696Y141818D01*
X809696Y140886D01*
X808763Y139954D01*
X806899Y139954D01*
X805967Y140886D01*
X811580Y140886D02*
X811580Y144615D01*
X812512Y145547D01*
X814377Y145547D01*
X815309Y144615D01*
X815309Y140886D01*
X814377Y139954D01*
X812512Y139954D01*
X811580Y140886D01*
X815309Y144615D01*
X800354Y107447D02*
X800354Y101854D01*
X800354Y107447D02*
X803150Y107447D01*
X804083Y106515D01*
X804083Y104650D01*
X803150Y103718D01*
X800354Y103718D01*
X802218Y103718D02*
X804083Y101854D01*
X805967Y106515D02*
X806899Y107447D01*
X808763Y107447D01*
X809696Y106515D01*
X809696Y105583D01*
X808763Y104650D01*
X807831Y104650D01*
X808763Y104650D02*
X809696Y103718D01*
X809696Y102786D01*
X808763Y101854D01*
X806899Y101854D01*
X805967Y102786D01*
X811580Y102786D02*
X811580Y106515D01*
X812512Y107447D01*
X814377Y107447D01*
X815309Y106515D01*
X815309Y102786D01*
X814377Y101854D01*
X812512Y101854D01*
X811580Y102786D01*
X815309Y106515D01*
X596006Y195669D02*
X595074Y196601D01*
X593210Y196601D01*
X592278Y195669D01*
X592278Y194737D01*
X593210Y193804D01*
X595074Y193804D01*
X596006Y192872D01*
X596006Y191940D01*
X595074Y191008D01*
X593210Y191008D01*
X592278Y191940D01*
X597891Y194737D02*
X599755Y196601D01*
X599755Y191008D01*
X597891Y191008D02*
X601619Y191008D01*
X899874Y190251D02*
X900806Y189319D01*
X899874Y190251D02*
X898010Y190251D01*
X897078Y189319D01*
X897078Y188387D01*
X898010Y187454D01*
X899874Y187454D01*
X900806Y186522D01*
X900806Y185590D01*
X899874Y184658D01*
X898010Y184658D01*
X897078Y185590D01*
X902691Y184658D02*
X906419Y184658D01*
X902691Y184658D02*
X906419Y188387D01*
X906419Y189319D01*
X905487Y190251D01*
X903623Y190251D01*
X902691Y189319D01*
X302433Y127254D02*
X298704Y132847D01*
X302433Y132847D02*
X298704Y127254D01*
X304317Y132847D02*
X308046Y132847D01*
X304317Y132847D02*
X304317Y130050D01*
X306181Y130983D01*
X307113Y130983D01*
X308046Y130050D01*
X308046Y128186D01*
X307113Y127254D01*
X305249Y127254D01*
X304317Y128186D01*
X387604Y184404D02*
X387604Y189997D01*
X390400Y189997D01*
X391333Y189065D01*
X391333Y187200D01*
X390400Y186268D01*
X387604Y186268D01*
X389468Y186268D02*
X391333Y184404D01*
X393217Y189065D02*
X394149Y189997D01*
X396013Y189997D01*
X396946Y189065D01*
X396946Y188133D01*
X396013Y187200D01*
X395081Y187200D01*
X396013Y187200D02*
X396946Y186268D01*
X396946Y185336D01*
X396013Y184404D01*
X394149Y184404D01*
X393217Y185336D01*
X398830Y188133D02*
X400694Y189997D01*
X400694Y184404D01*
X398830Y184404D02*
X402559Y184404D01*
X390400Y158247D02*
X391333Y157315D01*
X390400Y158247D02*
X388536Y158247D01*
X387604Y157315D01*
X387604Y153586D01*
X388536Y152654D01*
X390400Y152654D01*
X391333Y153586D01*
X393217Y157315D02*
X394149Y158247D01*
X396013Y158247D01*
X396946Y157315D01*
X396946Y156383D01*
X396013Y155450D01*
X395081Y155450D01*
X396013Y155450D02*
X396946Y154518D01*
X396946Y153586D01*
X396013Y152654D01*
X394149Y152654D01*
X393217Y153586D01*
X398830Y156383D02*
X400694Y158247D01*
X400694Y152654D01*
X398830Y152654D02*
X402559Y152654D01*
M02*
