G04 EAGLE Gerber X2 export*
%TF.Part,Single*%
%TF.FileFunction,Paste,Top*%
%TF.FilePolarity,Positive*%
%TF.GenerationSoftware,Autodesk,EAGLE,9.1.0*%
%TF.CreationDate,2018-08-15T12:32:46Z*%
G75*
%MOMM*%
%FSLAX34Y34*%
%LPD*%
%AMOC8*
5,1,8,0,0,1.08239X$1,22.5*%
G01*
%ADD10R,1.100000X1.000000*%
%ADD11R,1.000000X1.100000*%
%ADD12R,1.000000X1.400000*%
%ADD13R,1.600000X1.803000*%
%ADD14R,1.803000X1.600000*%
%ADD15R,1.400000X1.800000*%
%ADD16R,0.700000X0.500000*%
%ADD17R,2.500000X2.550000*%
%ADD18R,0.800000X1.200000*%
%ADD19R,1.600000X1.800000*%
%ADD20R,2.000000X1.600000*%
%ADD21R,1.600000X2.000000*%
%ADD22R,1.200000X0.400000*%
%ADD23R,0.400000X1.200000*%
%ADD24R,2.235200X1.219200*%
%ADD25R,2.200000X3.600000*%
%ADD26R,1.600000X2.400000*%
%ADD27R,2.400000X1.600000*%
%ADD28R,2.000000X5.500000*%
%ADD29R,1.981200X0.558800*%
%ADD30R,0.660400X2.032000*%


D10*
X68263Y210675D03*
X68263Y193675D03*
D11*
X257175Y427500D03*
X257175Y444500D03*
X238125Y445625D03*
X238125Y428625D03*
D10*
X370350Y260350D03*
X387350Y260350D03*
X276225Y445625D03*
X276225Y428625D03*
X323850Y375113D03*
X323850Y392113D03*
D12*
X139700Y601550D03*
X149200Y579550D03*
X130200Y579550D03*
X63500Y601550D03*
X73000Y579550D03*
X54000Y579550D03*
D13*
X131830Y628650D03*
X160270Y628650D03*
X52320Y628650D03*
X23880Y628650D03*
X100080Y520700D03*
X128520Y520700D03*
D14*
X133350Y455680D03*
X133350Y484120D03*
D15*
X97300Y546100D03*
X131300Y546100D03*
D16*
X100950Y482600D03*
X113950Y482600D03*
D17*
X177800Y457350D03*
X177800Y507850D03*
D12*
X63500Y497000D03*
X54000Y519000D03*
X73000Y519000D03*
D18*
X76200Y455450D03*
X50800Y455450D03*
X50800Y395450D03*
X76200Y395450D03*
D10*
X101600Y376700D03*
X101600Y393700D03*
D19*
X452725Y501650D03*
X480725Y501650D03*
D20*
X368300Y538450D03*
X368300Y566450D03*
X406400Y538450D03*
X406400Y566450D03*
D21*
X480725Y539750D03*
X452725Y539750D03*
D22*
X347800Y270700D03*
X347800Y278700D03*
X347800Y286700D03*
X347800Y294700D03*
X347800Y262700D03*
X347800Y254700D03*
X347800Y246700D03*
X347800Y238700D03*
D23*
X308800Y309700D03*
X316800Y309700D03*
X324800Y309700D03*
X332800Y309700D03*
X300800Y309700D03*
X292800Y309700D03*
X284800Y309700D03*
X276800Y309700D03*
D22*
X261800Y294700D03*
X261800Y286700D03*
X261800Y278700D03*
X261800Y270700D03*
X261800Y262700D03*
X261800Y254700D03*
X261800Y246700D03*
X261800Y238700D03*
D23*
X276800Y223700D03*
X284800Y223700D03*
X292800Y223700D03*
X300800Y223700D03*
X308800Y223700D03*
X316800Y223700D03*
X324800Y223700D03*
X332800Y223700D03*
D24*
X348488Y40386D03*
X348488Y63500D03*
X348488Y86614D03*
D25*
X286510Y63500D03*
D26*
X402350Y114300D03*
X372350Y114300D03*
D27*
X250825Y35800D03*
X250825Y65800D03*
D28*
X444500Y231050D03*
X444500Y315050D03*
D29*
X147828Y311150D03*
X147828Y298450D03*
X147828Y285750D03*
X147828Y273050D03*
X195072Y273050D03*
X195072Y285750D03*
X195072Y298450D03*
X195072Y311150D03*
D11*
X71438Y290975D03*
X71438Y307975D03*
X406400Y224300D03*
X406400Y241300D03*
X406400Y309100D03*
X406400Y292100D03*
D10*
X406400Y277350D03*
X406400Y260350D03*
D11*
X365125Y214775D03*
X365125Y231775D03*
D10*
X227475Y292100D03*
X244475Y292100D03*
D11*
X376238Y294813D03*
X376238Y277813D03*
D10*
X234488Y319088D03*
X217488Y319088D03*
D30*
X155575Y219647D03*
X155575Y158179D03*
X142875Y219647D03*
X130175Y219647D03*
X142875Y158179D03*
X130175Y158179D03*
X117475Y219647D03*
X117475Y158179D03*
D11*
X98425Y225988D03*
X98425Y208988D03*
X213188Y241300D03*
X230188Y241300D03*
X213188Y260350D03*
X230188Y260350D03*
X128025Y134938D03*
X145025Y134938D03*
D10*
X203763Y109538D03*
X186763Y109538D03*
X140725Y109538D03*
X157725Y109538D03*
X113275Y109538D03*
X96275Y109538D03*
X45475Y109538D03*
X62475Y109538D03*
M02*
